<svg width="968" height="412" viewBox="0 0 968 412" fill="none" xmlns="http://www.w3.org/2000/svg">
<path d="M894.101 282.9C894.101 283.1 893.901 283.3 893.701 283.3C889.501 284.3 884.501 284.7 878.801 284.6C877.801 284.6 876.401 284.4 874.401 283.9C872.401 283.5 871.001 283.2 870.001 283.2C868.901 283.2 867.901 283.4 867.201 283.8C866.401 284.2 865.201 284.4 863.501 284.6C861.701 284.7 860.601 284.6 860.101 284.4C859.601 284.2 859.401 284 859.401 283.9C859.401 283.8 859.801 283.3 860.501 282.6C861.201 281.9 861.601 281.2 861.601 280.7C861.601 280.2 861.901 279.6 862.601 278.8C863.301 278.1 863.601 277.4 863.601 276.9C863.601 276.5 863.301 275.9 862.601 275.3C861.901 274.7 861.601 274.2 861.601 273.9C861.901 273 862.301 271.5 862.701 269.5C862.201 266 861.201 262.2 859.801 258.2C858.501 254.9 857.801 252.8 857.501 251.9C856.501 249.5 855.501 248 854.601 247.4C854.201 247.1 853.701 247 852.901 247C852.201 247 851.201 247.2 849.901 247.6C848.201 248.2 847.101 248.5 846.601 248.5C844.501 248.6 841.401 248.3 837.401 247.5C836.301 247.3 832.701 247.5 826.601 248.3C826.601 248.2 826.701 248.2 826.901 248.2C824.601 247.7 822.301 247.9 819.801 248.7C818.501 249.3 816.501 249.6 813.701 249.6C810.901 249.6 809.201 249.9 808.401 250.5C807.701 251.1 807.401 252.5 807.401 254.6C807.501 257.3 807.401 258.9 807.301 259.3C806.001 262 804.601 266.2 803.001 271.7C802.901 272.7 803.501 274.2 804.801 276.4C806.101 278.6 806.701 280.1 806.701 281C806.701 282.6 806.001 283.4 804.501 283.4C804.401 283.4 803.401 283.2 801.401 283C800.101 282.8 799.201 282.9 798.601 283.2C798.001 283.5 797.101 283.6 795.701 283.3C794.101 282.9 793.101 282.7 792.701 282.7C792.301 282.8 787.101 283 777.001 283.5C774.701 283.5 773.601 283 773.601 281.9C773.601 280.9 775.001 279 777.901 276.1C779.901 273.9 781.301 272.4 782.001 271.7C783.401 269.9 784.501 268.2 785.201 266.6C785.401 266.1 785.301 265.3 784.801 264.3C784.301 263.3 784.101 262.4 784.201 261.8C784.201 261.7 785.801 258.3 789.101 251.6C789.301 251.6 789.701 251.1 790.401 250.2C790.801 249.6 790.801 249.1 790.501 248.7C789.501 247 788.001 246.5 786.101 247.3C785.401 247.6 783.401 249.1 780.101 251.7C777.501 253.8 775.501 254.8 774.001 254.7C772.801 254.5 772.201 253.6 772.201 252.2L773.301 245.9C773.501 245.5 773.901 244.8 774.501 243.7C775.201 242.6 775.501 241.7 775.501 241C775.501 240.5 775.301 239.8 774.901 238.8C774.501 237.9 774.201 237.2 774.101 236.8C774.301 235 774.101 232.5 773.801 229.3C773.301 228.9 772.701 228.2 771.901 227.2C771.801 225.9 772.601 225.2 774.101 225C775.601 224.9 776.801 225 777.601 225.6C778.901 226.6 781.401 228.4 785.101 230.8C787.301 232.1 789.701 232.7 792.201 232.7C793.701 232.7 794.801 232.3 795.701 231.4C796.601 230.5 797.401 226.9 798.201 220.4C798.601 219.4 799.101 218 799.601 216.2C800.301 214.7 801.301 212.3 802.401 208.9C801.801 208.2 801.701 207 802.001 205.5C802.201 205.1 803.101 203.2 804.701 200C805.801 197.9 807.301 194.8 809.101 190.5C809.501 188.8 810.201 186.5 811.001 183.5C811.901 182.5 812.901 180.9 814.001 179C814.201 177.6 814.501 175.5 815.001 172.7C815.701 171.7 816.601 170 817.401 167.7C817.301 167.6 817.201 167.4 817.001 167.4C818.301 165.3 819.901 162 821.901 157.7C823.401 152.5 825.501 145.7 828.301 137.1C828.501 135.2 829.101 132.6 830.201 129.2C831.501 126.3 832.501 124.8 833.201 124.8C833.601 124.8 834.601 126.5 836.401 129.8C837.501 131.9 838.101 134.1 838.101 136.2C838.101 137.1 838.201 137.8 838.401 138.4C839.301 139.8 840.401 142 841.701 144.9C842.601 146.5 843.001 148.6 843.001 151C843.001 153.6 843.101 155.5 843.401 156.6C844.501 158.5 846.001 161.6 848.001 165.9C848.701 168.9 849.701 173.5 851.001 179.6C851.701 181 852.701 183.3 853.901 186.4C854.401 188.7 855.401 192 856.901 196.2C857.901 197.4 859.201 199.2 860.801 201.7C861.201 204.1 862.101 207.6 863.301 212.1C864.301 213.2 865.401 215 866.601 217.5C866.601 219.9 867.001 223.4 867.701 228.2C869.001 232.4 870.201 234.5 871.501 234.5C872.701 234.5 875.701 234.2 880.601 233.5C882.801 233.2 884.701 231.6 886.401 228.6C887.501 226.5 888.701 225.5 889.901 225.5C890.801 225.5 891.201 226.2 891.201 227.7C890.801 231 890.901 235.3 891.501 240.4C892.201 242 892.501 243.5 892.401 244.9C892.201 246.2 891.901 247.6 891.601 249C891.601 249.7 891.801 250.7 892.201 252C892.601 253.3 892.801 254.1 892.801 254.5C892.801 255 892.501 255.3 892.001 255.4C891.001 255.6 889.701 255.1 888.201 253.9C886.401 252 885.301 250.9 884.801 250.7C883.801 250.1 882.601 249.4 881.401 248.7C880.201 248 879.201 247.6 878.401 247.6C876.801 247.6 876.001 248.7 876.001 251C876.001 252 876.701 254.3 878.101 258C878.701 259 879.501 260.5 880.501 262.6C880.101 263.3 879.801 264.3 879.501 265.6C880.101 266.3 881.101 267.7 882.701 270C884.301 272.3 886.701 275.8 890.001 280.8C890.601 281.1 891.301 281.4 892.001 281.7C893.501 281.9 894.101 282.4 894.101 282.9ZM849.001 230.7C849.001 230.3 848.801 229.6 848.401 228.4C848.001 227.3 847.801 226.3 847.901 225.6C848.101 224.1 847.601 221.8 846.501 218.6C846.401 218 844.701 214.1 841.501 206.9C840.701 205.3 839.601 202.8 838.201 199.6C838.001 198.6 837.801 197.2 837.701 195.3C837.601 193.4 837.401 191.9 837.101 191C836.701 190.5 836.001 189.9 835.101 189C834.901 188.8 834.601 187.9 834.101 186.2C833.701 184.9 833.201 184.3 832.901 184.3C832.001 184.3 831.301 185.6 830.701 188.1C830.401 189.9 830.001 191.7 829.601 193.3C828.601 194.6 827.501 196.7 826.201 199.6C825.801 201.1 825.401 203.3 824.801 206.4C824.101 208.2 823.001 210.7 821.601 214.1C821.501 215.8 820.801 218.3 819.701 221.6C819.001 222.4 818.101 223.5 816.901 225C814.901 228.4 813.901 230.2 813.901 230.5C813.901 231 814.001 231.4 814.301 231.7C814.601 232.1 815.801 232.2 818.001 232C821.001 231.8 822.701 231.7 822.901 231.7C827.301 232.1 829.201 232.3 828.701 232.3C829.801 232.3 831.901 232.9 834.901 234C835.401 234.4 836.401 234.3 837.701 233.9C839.001 233.5 839.901 233.3 840.201 233.6C841.001 234.1 842.101 234.4 843.401 234.4C844.501 234.4 845.701 234.1 847.101 233.4C848.301 232.7 849.001 231.8 849.001 230.7Z" fill="#895CB5"/>
<path d="M763.701 157.2C763.801 157.9 763.801 158.7 763.701 159.4C763.501 160.2 763.201 160.5 762.701 160.4C761.201 160.1 759.601 159.2 757.801 157.7C755.701 156.1 754.201 155.1 753.301 154.6C751.601 153.9 750.001 153.7 748.401 154.2C746.901 155.1 744.801 156.2 742.001 157.6C739.601 158 736.001 158.7 731.201 159.5C730.901 159.6 730.301 159.8 729.301 160.3C728.301 160.8 727.501 161 726.801 160.9C726.301 160.9 725.701 160.6 725.001 160C724.301 159.4 723.801 159.1 723.401 159.1C723.001 159.1 722.801 159.4 722.801 160C722.801 160.6 722.601 160.9 722.401 160.9C721.401 161.1 720.101 161.1 718.301 160.9C716.301 160.5 715.001 160.3 714.401 160.3C713.001 160.3 711.901 160.6 711.101 161.3C709.101 163 707.601 167 706.601 173.2C706.401 174.2 706.601 175.5 707.001 177.1C707.701 179 708.101 180.4 708.101 181.1C707.701 183.8 707.501 187.8 707.701 192.9C708.201 196 708.501 197.7 708.501 198C707.801 198.7 707.401 200.1 707.101 202.3C707.001 203.6 707.401 205.2 708.101 207.3C708.801 209.8 709.201 211.5 709.301 212.5L708.601 224.4L707.701 245C707.301 252.7 707.001 256.7 707.001 256.8C707.701 257.8 708.501 259.2 709.201 261.2C708.801 262.5 708.401 264.5 708.101 267.1C708.401 270 709.301 273.4 710.601 277.5C713.001 279.3 714.101 280.5 714.101 281.1C714.101 281.4 713.801 281.8 713.301 282.3C712.701 282.8 711.601 282.9 710.001 282.7C707.701 282.5 706.301 282.4 705.901 282.4C705.001 282.6 703.701 282.3 702.001 281.6C700.301 280.8 699.001 280.4 698.101 280.4C697.101 280.4 695.301 280.8 692.801 281.6C690.301 282.4 688.301 282.6 686.801 282.4C685.801 282.2 685.501 280.9 685.901 278.5C687.201 273.6 688.501 266.2 690.001 256.5C690.101 253.1 689.901 248.5 689.501 242.7C689.101 236.1 688.901 231.5 688.901 228.9C689.401 227.7 689.901 226.1 690.201 224C690.301 222.4 690.301 220.5 690.201 218.1C690.001 215.1 690.001 213.3 690.001 212.5V194.5C689.901 193.1 689.701 189.6 689.501 184.1C689.401 182.9 689.501 181.2 689.701 178.9C689.901 176.6 690.001 175 690.001 173.9C690.001 171.2 689.501 169.1 688.301 167.4C688.001 166.8 687.401 166.5 686.401 166.5C685.701 166.5 684.601 166.8 683.301 167.4C681.301 168.4 680.201 168.9 679.901 169.1C679.701 169.6 679.201 170.2 678.501 171C678.201 171 677.701 170.8 677.101 170.5C676.501 170.2 676.001 170 675.601 170C674.801 169.9 672.701 170.1 669.201 170.4C666.901 170.4 663.601 170.7 659.401 171.4C657.601 172.4 654.801 173.7 651.001 175.3C650.401 175 649.601 175 648.701 175.3C648.801 176.3 648.601 177.6 648.301 179.3C644.601 183.5 642.401 185.6 641.501 185.6C639.601 185.6 638.401 184 638.001 180.7C638.101 178.3 638.101 174.8 637.901 170.4C637.201 165.7 636.801 162.9 636.801 162C636.801 158.9 637.201 157.1 637.901 156.6C638.401 156.2 639.001 156 639.801 155.8C640.301 155.8 641.101 155.9 642.201 156C643.301 156.1 643.901 156.2 644.201 156.2C644.501 156.2 644.801 156.3 645.201 156.5C645.601 156.7 645.901 156.8 646.101 156.6C646.301 156.5 646.501 156.2 646.501 155.6C646.601 155 646.801 154.7 647.301 154.7C648.501 155.3 650.201 155.8 652.501 156.2C653.501 156.1 654.801 155.6 656.201 154.8C657.601 153.9 658.701 153.4 659.501 153.2C660.301 153.4 661.501 153.6 663.001 153.6C665.401 152.7 669.201 151.6 674.401 150.2C677.001 150.5 681.001 150.5 686.501 150.2C687.801 150 689.401 149.3 691.501 148.2C693.601 147.1 695.101 146.5 695.901 146.3C698.801 145.3 701.501 144.6 704.201 144.2C705.801 144.4 708.301 144.4 711.601 144.2C713.601 143.7 716.501 142.9 720.401 142C723.901 141.6 729.101 140.9 735.801 139.8C737.001 139.5 739.101 138.7 742.101 137.5C743.901 136 747.001 134.4 751.401 132.5C754.101 132.1 756.101 132.4 757.401 133.4C758.701 134.4 759.401 136.5 759.701 139.7C759.901 142.1 760.101 144.5 760.401 146.8C761.201 149.1 762.301 152.6 763.701 157.2Z" fill="#895CB5"/>
<path d="M628.9 207.1C629 208.5 627.7 209.7 625 210.7C621.6 212 619.8 212.7 619.6 212.9C617.8 214.2 615.6 216.1 613 218.5C612.6 219.2 612.5 222.1 612.9 227.5C612.9 228.5 613.1 230.5 613.4 233.6C613.6 236.2 613.7 238.4 613.7 239.9C613.7 242.6 613.4 245 612.9 246.9C611.6 250.7 611.7 254.9 613.1 259.6C613.5 260.4 613.6 261.8 613.5 263.7C613.4 265.7 613.5 267 613.8 267.9C614.5 270.1 615.5 271.8 616.7 273.1C618.3 274.5 620.6 276.9 623.5 280.3C624 281 624 281.6 623.5 281.9C623.2 282 622.6 282.1 621.7 282C619.5 282.3 616.2 282.3 611.9 282C608.6 281.6 605.9 281.4 603.5 281.7C600.9 281.8 597 282.2 591.8 282.7C586.4 283.4 584.1 282.9 584.8 281.2C585.7 279.5 586.9 278 588.4 276.8C590.6 275.2 592.1 273.9 592.9 272.8C594.2 271 595 269 595.6 266.8V260.5C595.6 260.1 595.5 258.1 595.4 254.3C595.2 251.1 595.2 248.5 595.4 246.6C595.5 243.9 595.8 241.9 596.4 240.7C597 239.5 597.3 238.6 597.3 238C597.3 237.7 597.1 237.1 596.6 236.2C596.1 235.3 595.8 234.3 595.6 233.2C595.3 231 595.2 228.7 595.2 226.2C595.2 225.7 595.4 224.4 595.6 222.3C596 220.6 596 219.3 595.6 218.3C595.2 216.7 594.3 215.5 592.7 214.8C591.1 214.1 589.5 213.5 588 212.9C585.9 211.9 584.6 211.3 584.2 211.1C582.5 210.1 581.4 209 580.9 207.8C580.7 207.3 581.6 206.5 583.7 205.5C585.3 205 587.3 203.9 589.7 202.2C591.7 200.5 593.7 198.5 595.9 196.1C596.1 195.5 596.2 194.9 596.2 194.3C596.2 193.9 596.1 192.9 595.9 191.5C595.7 190.1 595.6 189 595.6 188.1C595.6 186.7 595.8 185.4 596.3 184.3C597 183 596.8 180.6 595.9 177V167.3C596.2 165.8 596.1 163.7 595.7 160.8C594.6 158.7 594.6 156.6 595.7 154.3C595.9 153.9 596 153.5 596 153C596 152.3 595.7 151.3 595.1 150.2C594.4 148.4 593.9 147.4 593.8 147C593.5 145.9 592.8 144.3 591.8 142.1C590.3 140.5 588.1 138 585.5 134.6C585.3 134.3 585.3 133.9 585.5 133.5C585.7 133.1 586 132.8 586.5 132.7C588 132.4 589.7 132.2 591.5 131.9C593.2 131.7 594.8 131.9 596.3 132.7C599.1 134 602.1 134.4 605.3 133.7C607.7 133.1 611.2 132.9 615.9 133.1C616.6 133.3 617.7 133.1 619.2 132.7C620.7 132.3 621.7 132 622.2 132C623 132 623.6 132.3 624 133C624.5 134 623.9 135.7 622.1 137.9C620.7 139.4 619.3 141 618 142.7C616.7 143.7 615.2 145.4 613.4 147.6C612.7 149.2 612.4 150.7 612.4 152.1C612.4 152.6 612.5 153.4 612.7 154.4C612.9 155.4 613 156.2 613 156.7C613 157.8 612.7 158.9 612.2 159.9C611.8 160.9 611.9 162 612.6 163.2C613.3 164.3 613.5 165.9 613.3 167.9C613.2 169.8 613.1 171.7 612.9 173.4C612.9 178.3 613 181.7 613.2 183.5C613.4 184.8 613.2 186.5 612.9 188.5C612.6 191 612.5 192.7 612.5 193.6C612.5 194.4 612.6 195.3 612.8 196.1C613 197 613.7 197.8 615 198.4C617.1 199.4 618.2 200 618.2 200.1C619 200.8 620.3 201.8 622.1 203.1C622.4 203.3 623.9 204 626.6 205.2C628 205.9 628.9 206.5 628.9 207.1Z" fill="#895CB5"/>
<path d="M572.6 254.5C572.6 254.9 572.5 255.4 572.4 255.8C571.3 258.8 570.7 261.9 570.7 265.2C570.8 268.5 570.8 271.8 570.8 275.2C571 277.2 570.8 279.5 570.1 282.1C569.6 282.8 567.9 282.8 565.1 282.1C563.7 281.6 561.7 281 559.1 280.2C558.7 280.1 558 280.3 557.1 280.6C556.2 281 555.6 281.2 555.1 281.2C554.1 281.2 552.8 281 551.2 280.6C549.2 280.3 547.9 280.2 547.2 280.2C542.9 279.7 539.7 279.5 537.5 279.5C535 279.6 530.9 279.9 525.2 280.2C520 280.5 515.9 280.6 513 280.6C512.1 280.6 510.9 280.4 509.4 280.1C507.9 279.7 506.8 279.5 506 279.5C504.4 279.5 502.1 279.8 498.8 280.4C495.6 281 493.2 281.3 491.7 281.3C490 281.3 488.5 281.1 487.2 280.6C486.8 280.5 486.5 280.3 486.5 279.8C486.5 279.3 486.9 278.4 487.7 277.2C488.8 275.4 489.4 274.4 489.5 274.2C490.2 273.5 491.1 272.4 492.1 270.9C494 268.2 495 266.7 495.1 266.5C496.4 264.7 497.1 263.1 497.2 261.5C496.8 259.4 496.5 256.3 496.3 252.2C496.5 251.8 496.9 251.1 497.3 250.3C497.7 249.5 498 248.7 497.9 248.1C497.9 247.8 497.5 247.6 496.7 247.4C495.9 247.3 495.5 247 495.5 246.6C494.9 244 494.9 241.3 495.5 238.3C496.5 237.1 497.5 235.3 498.5 232.8C498.6 231.5 498.6 229.8 498.4 227.6C498.2 224.7 498 223.1 498 222.6C498.1 221.3 498.1 219.3 498 216.6C497.6 216.2 497 215.3 496.3 214.1C496.3 213.4 496.5 212.3 496.9 210.9C497.3 209.5 497.4 208.4 497.4 207.7C497.8 204.2 497.8 200.9 497.4 198C497.4 197.3 497.1 196 496.6 194.3C496.1 192.6 495.8 191.2 495.8 190.3C495.9 189.8 496.3 189.2 497 188.4C497.6 187.7 497.9 187.1 497.9 186.7C497.9 186.3 497.6 186.1 497 185.9C496.4 185.7 496 185.5 495.8 185.3C495.4 183.6 495.3 181 495.5 177.5C495.7 176.1 496 173.9 496.3 170.9C496.6 167.9 497 163.4 497.3 157.2C497.4 157.1 497.6 156.5 497.9 155.5C498.1 154.7 498.1 154.1 497.9 153.6C496.5 151.5 494.5 148.1 492 143.4C489.8 139.5 488.7 136.8 488.7 135.2C488.7 133.9 489.3 133.3 490.6 133.3C491.6 133.3 492.8 133.7 494.4 134.4C495.3 134.8 496.5 135 497.9 134.7C499.7 134.4 500.8 134.3 501.3 134.4C501.6 134.4 502 134.6 502.5 135C503 135.4 503.5 135.6 503.8 135.6C504.9 135.1 506.7 134.6 509.1 134C510.1 134 511.5 133.9 513.4 133.6C515.3 133.3 516.8 133.2 518 133.2C521.8 133.2 523.8 134.1 523.8 136C523.8 136.7 523 138.3 521.5 140.8C520 143.3 519 145.3 518.6 146.7C517.9 147.7 517 149.2 516.1 151.2C515.1 159.8 514.6 169.5 514.6 180.3C514.6 180.6 514.9 181.1 515.4 181.8C515.9 182.5 516.2 183 516.2 183.3C516.2 184 516 185.2 515.7 186.7C515.4 188.3 515.2 189.4 515.2 190.1C515.2 191.6 515.4 193.7 515.6 196.4C515.9 199.3 516.1 201.5 516.2 202.8C516.4 208.4 516.4 213 516.2 216.5C516.2 216.8 516 217.3 515.7 218C515.4 218.7 515.2 219.2 515.2 219.5C515.2 220 515.4 220.8 515.7 221.9C516 223 516.2 223.8 516.2 224.3C516.2 224.6 516 225 515.7 225.6C515.5 226 515.3 226.4 515.2 226.6C515.3 226.6 515.5 228.8 515.7 233.2C516 238.5 516.2 241.6 516.2 242.5C516.2 243 516 243.7 515.7 244.5C515.4 245.4 515.2 246 515.2 246.3C515.2 247 515.4 248.2 515.7 249.7C516 251.2 516.2 252.4 516.2 253.2C516.2 253.5 516 254.1 515.6 254.9C515.2 255.8 515.1 256.3 515.2 256.6C516 258.7 517.3 260.1 519.2 260.6C520.5 261 522.3 261.1 524.4 261.1C527.4 261 529 261 529.5 261.1C532.1 261.3 536 261.7 541.2 262.2C544.3 262.4 547.4 262.7 550.4 262.9C553.9 263 556.7 262.8 559 262.2C560 261.8 561.1 260.8 562.1 259.3C563.7 257.2 564.7 256 565 255.8C566.3 254.4 567.9 252.4 569.8 249.8C569.9 249.6 570 249.5 570.2 249.5C570.8 249.5 571.3 250 571.7 251C572.4 252.5 572.6 253.5 572.6 254.5Z" fill="#895CB5"/>
<path d="M478.9 282.9C478.9 283.1 478.8 283.3 478.5 283.3C474.3 284.3 469.3 284.7 463.6 284.6C462.6 284.6 461.2 284.4 459.2 283.9C457.2 283.5 455.8 283.2 454.8 283.2C453.7 283.2 452.8 283.4 452 283.8C451.2 284.2 450 284.4 448.3 284.6C446.5 284.7 445.4 284.6 444.9 284.4C444.4 284.2 444.2 284 444.2 283.9C444.2 283.8 444.6 283.3 445.3 282.6C446 281.9 446.4 281.2 446.4 280.7C446.4 280.2 446.7 279.6 447.4 278.8C448.1 278.1 448.4 277.4 448.4 276.9C448.4 276.5 448.1 275.9 447.4 275.3C446.7 274.7 446.4 274.2 446.4 273.9C446.7 273 447.1 271.5 447.5 269.5C447 266 446 262.2 444.6 258.2C443.3 254.9 442.6 252.8 442.3 251.9C441.3 249.5 440.3 248 439.4 247.4C439 247.1 438.5 247 437.7 247C437 247 436 247.2 434.7 247.6C433 248.2 431.9 248.5 431.4 248.5C429.3 248.6 426.2 248.3 422.2 247.5C421.1 247.3 417.5 247.5 411.4 248.3C411.4 248.2 411.5 248.2 411.7 248.2C409.4 247.7 407.1 247.9 404.6 248.7C403.3 249.3 401.3 249.6 398.5 249.6C395.7 249.6 393.9 249.9 393.2 250.5C392.5 251.1 392.1 252.5 392.1 254.6C392.2 257.3 392.1 258.9 392 259.3C390.7 262 389.3 266.2 387.7 271.7C387.6 272.7 388.2 274.2 389.5 276.4C390.8 278.6 391.4 280.1 391.4 281C391.4 282.6 390.7 283.4 389.2 283.4C389.1 283.4 388.1 283.2 386.1 283C384.8 282.8 383.9 282.9 383.3 283.2C382.7 283.6 381.8 283.6 380.4 283.3C378.8 282.9 377.8 282.7 377.4 282.7C377 282.8 371.8 283 361.7 283.5C359.4 283.5 358.3 283 358.3 281.9C358.3 280.9 359.7 279 362.6 276.1C364.6 273.9 366 272.4 366.7 271.7C368.1 269.9 369.2 268.2 369.9 266.6C370.1 266.1 370 265.3 369.5 264.3C369 263.3 368.8 262.4 368.9 261.8C368.9 261.7 370.5 258.3 373.8 251.6C373.9 251.6 374.4 251.1 375.1 250.2C375.5 249.6 375.5 249.1 375.2 248.7C374.2 247 372.7 246.5 370.8 247.3C370.1 247.6 368.1 249.1 364.8 251.7C362.2 253.8 360.2 254.8 358.7 254.7C357.5 254.5 356.9 253.6 356.9 252.2L358 245.9C358.1 245.5 358.6 244.8 359.2 243.7C359.9 242.6 360.2 241.7 360.2 241C360.2 240.5 360 239.8 359.6 238.8C359.2 237.9 358.9 237.2 358.8 236.8C358.9 235 358.8 232.5 358.5 229.3C358 228.9 357.4 228.2 356.6 227.2C356.5 225.9 357.3 225.2 358.8 225C360.3 224.9 361.4 225 362.3 225.6C363.6 226.6 366.1 228.4 369.8 230.8C372 232.1 374.4 232.7 376.9 232.7C378.4 232.7 379.6 232.3 380.4 231.4C381.3 230.5 382.1 226.9 383 220.4C383.4 219.4 383.9 218 384.4 216.2C385.1 214.7 386.1 212.3 387.2 208.9C386.6 208.2 386.5 207 386.8 205.5C387 205.1 387.9 203.2 389.5 200C390.6 197.9 392.1 194.8 393.9 190.5C394.3 188.8 395 186.5 395.8 183.5C396.7 182.5 397.7 180.9 398.8 179C398.9 177.6 399.3 175.5 399.8 172.7C400.5 171.7 401.4 170 402.2 167.7C402.1 167.6 402 167.4 401.8 167.4C403.1 165.3 404.7 162 406.7 157.7C408.2 152.5 410.3 145.7 413.1 137.1C413.3 135.2 414 132.6 415 129.2C416.3 126.3 417.3 124.8 418 124.8C418.4 124.8 419.4 126.5 421.2 129.8C422.3 131.9 422.9 134.1 422.9 136.2C422.9 137.1 423 137.8 423.2 138.4C424.1 139.8 425.2 142 426.5 144.9C427.4 146.5 427.8 148.6 427.8 151C427.8 153.6 427.9 155.5 428.2 156.6C429.3 158.5 430.9 161.6 432.8 165.9C433.5 168.9 434.5 173.5 435.8 179.6C436.5 181 437.5 183.3 438.7 186.4C439.2 188.7 440.2 192 441.7 196.2C442.7 197.4 444 199.2 445.6 201.7C446.1 204.1 446.9 207.6 448.2 212.1C449.1 213.2 450.3 215 451.5 217.5C451.5 219.9 451.9 223.4 452.6 228.2C453.9 232.4 455.1 234.5 456.4 234.5C457.6 234.5 460.6 234.2 465.5 233.5C467.7 233.2 469.6 231.6 471.3 228.6C472.4 226.5 473.6 225.5 474.8 225.5C475.7 225.5 476.1 226.2 476.1 227.7C475.7 231 475.8 235.3 476.4 240.4C477.1 242 477.4 243.5 477.3 244.9C477.1 246.2 476.8 247.6 476.5 249C476.5 249.7 476.7 250.7 477.1 252C477.5 253.3 477.7 254.1 477.7 254.5C477.7 255 477.4 255.3 476.9 255.4C475.9 255.6 474.6 255.1 473.1 253.9C471.3 252 470.2 250.9 469.7 250.7C468.7 250.1 467.6 249.4 466.3 248.7C465.1 248 464.1 247.6 463.3 247.6C461.7 247.6 460.9 248.7 460.9 251C460.9 252 461.6 254.3 463 258C463.6 259 464.4 260.5 465.4 262.6C465 263.3 464.7 264.3 464.4 265.6C465 266.3 466 267.7 467.6 270C469.1 272.3 471.6 275.8 475 280.8C475.6 281.1 476.3 281.4 477 281.7C478.3 281.9 478.9 282.4 478.9 282.9ZM433.7 230.7C433.7 230.3 433.5 229.6 433.1 228.4C432.7 227.3 432.5 226.3 432.6 225.6C432.7 224.1 432.3 221.8 431.2 218.6C431.1 218 429.4 214.1 426.2 206.9C425.4 205.3 424.3 202.8 422.9 199.6C422.7 198.6 422.5 197.2 422.4 195.3C422.3 193.4 422.1 191.9 421.8 191C421.4 190.5 420.7 189.9 419.8 189C419.7 188.8 419.3 187.9 418.8 186.2C418.4 184.9 417.9 184.3 417.6 184.3C416.7 184.3 416 185.6 415.4 188.1C415.1 189.9 414.7 191.7 414.3 193.3C413.3 194.6 412.2 196.7 410.9 199.6C410.5 201.1 410 203.3 409.5 206.4C408.8 208.2 407.7 210.7 406.3 214.1C406.2 215.8 405.5 218.3 404.4 221.6C403.7 222.4 402.8 223.5 401.6 225C399.6 228.4 398.6 230.2 398.6 230.5C398.6 231 398.7 231.4 399 231.7C399.3 232.1 400.5 232.2 402.7 232C405.7 231.8 407.3 231.7 407.6 231.7C412 232.1 413.9 232.3 413.4 232.3C414.5 232.3 416.6 232.9 419.6 234C420.1 234.4 421.1 234.3 422.4 233.9C423.8 233.5 424.6 233.3 424.9 233.6C425.7 234.1 426.8 234.4 428.1 234.4C429.2 234.4 430.4 234.1 431.8 233.4C433.1 232.7 433.7 231.8 433.7 230.7Z" fill="#895CB5"/>
<path d="M347.5 214.2L348.9 218.8C348.4 219.5 347.5 220.4 346.4 221.6C343.4 223.5 339 226.5 333.2 230.5C330 234 325 238.9 318.4 245.3C317.4 245.8 316.2 246.6 314.7 247.7C313.2 248.8 311.1 250.3 308.6 252.1C308.2 252.3 307.5 252.7 306.7 253.2C305.8 253.7 303.9 255.3 300.8 258.1C298.9 258.9 296.4 260.5 293.4 263C292 264.5 290 266.8 287.5 270C287.2 270.8 286.5 272 285.5 273.4C283.8 273.9 281.5 274.9 278.5 276.4C275 278.4 272.6 280.1 271.2 281.6C270.2 282.9 269.3 284.1 268.4 285.4C267.3 286.7 266.3 287.1 265.3 286.6C264.3 286.3 264 285.4 264.2 284C264.6 281.5 264.8 280.2 264.9 280.2V273.8C264.9 272.1 265.2 269.4 265.8 265.8C266.4 262.2 266.7 259.4 266.7 257.6C266.7 255.1 266.5 252.7 266 250.3C265.6 247.4 265.3 245 265.2 243.3C265.2 242.8 265.5 241 266.2 238V229.2L266.6 220.8C265.9 218.1 265 213.8 264.1 208C264 206.9 264.3 205.1 265 202.6C265.7 200.1 265.9 198.1 265.7 196.7C265.6 195.7 265.1 194.6 264.3 193.4L262.3 190.4C261.3 188.3 260.7 187.1 260.7 186.5C260.7 185.7 261 184.8 261.6 184C262.3 184 263.5 183.8 265.1 183.6C266.7 183.3 267.9 183.2 268.6 183.2C269.9 183.2 271 183.5 272.1 184.1C272.6 183.7 273.2 183.2 273.8 182.7C274.4 182.2 274.9 182 275.3 182.3C276 182.4 277.3 182.8 279.2 183.5C281 184.1 282.4 184.4 283.4 184.4C284.7 184.4 285.8 184 286.7 183.3C287.2 183.4 287.9 183.9 288.7 184.6C288.3 186.7 287.6 189.8 286.7 193.9C286.6 194.6 285.7 196.4 284.2 199.3C283 201.6 282.6 203.4 282.8 204.7L284.2 217L283.2 221.9C284.3 228.1 284.9 231.4 284.9 231.8C284.9 232.3 284.6 233 284.1 233.7C283.6 234.5 283.3 235.1 283.3 235.6L285 240.9C285.1 241.6 285.1 242.6 285 243.9C284.6 245.4 284.3 246.3 284.3 246.7C284.3 248 285 248.7 286.3 248.7C288 248.7 289.8 247.2 291.8 244.2C292.8 242.5 293.9 240.7 295.1 238.9C295.6 237.9 297 237.2 299.2 236.7C301.5 236.2 302.8 235.6 303.3 234.8L310.3 226.4L316.3 223.1C318.1 222.2 319.8 221.3 321.4 220.4C323 219.5 323.8 218.1 323.6 216.1L317.2 210.7L313 203.8C312.5 202.3 311.7 200.4 310.3 197.9C309.9 197.4 309 197 307.8 196.8C306.6 196.6 305.7 196.2 305.2 195.8C304.7 195.4 302.5 192.4 298.7 187.1C298 186 297 184.5 295.5 182.7C293.7 181.4 292.4 180.3 291.7 179.6C290.7 178.2 289.7 176.8 288.8 175.4C287.9 174 286.2 172.3 283.7 170.2C281 167.8 279.2 166 278.3 165C277.8 164 277 162.4 275.9 160.5C275.7 160.1 273.9 158.7 270.5 156.2C269 154.9 267.6 153.8 266.3 152.8C264.3 151.5 262.7 150.7 261.3 150.6H257.3C256 150.4 255.1 149.6 254.6 148.3C254.4 147.6 255 146.8 256.5 146C258 145.2 258.9 144.7 259.2 144.3C259.5 143.3 260.1 141.8 261.1 140C262.4 139.1 264.2 137.8 266.6 136.1C267.4 134.5 268.9 132.6 271 130.1C271.7 129.7 272.4 128.7 273 127.1C273.4 126.1 274.1 125.5 274.9 125.5C276.1 125.7 277.2 126.5 278.2 128C278.8 129.6 279.6 131 280.5 132.5C281.4 133.9 282.3 135.9 283.2 138.4C283.6 140 284.6 142.5 286 145.8C287.3 148.2 289.3 150.2 291.8 152C292.8 152.2 294 152.5 295.6 153C296.6 154.7 298.1 157.1 300.2 160.1C302.3 163.2 305.5 167.2 309.8 172.3C311.1 173.6 313 175.7 315.3 178.5C315.8 178.9 316.6 179.3 317.7 179.9C318.4 180.9 319.3 182.2 320.6 184C322.3 185.7 324.6 188.3 327.6 191.8C327.8 192.8 328.3 194.1 329 195.8C330.3 196.8 332.1 198.5 334.5 200.7C334.9 201.7 335.6 203 336.8 204.6C337.5 204.8 338.6 205.1 339.9 205.6C340.2 206.1 340.3 207.1 340.3 208.5C340.3 209.9 340.6 210.8 341.3 211L347.5 214.2Z" fill="#895CB5"/>
<path d="M235.3 216.6L246.7 215.9C246.1 216.7 245.4 217.5 244.4 218.5C242.5 220.4 241.3 221.8 241 222.8C239.5 225.5 237.9 229.5 236.1 234.9C236.1 235.9 236 237.2 235.7 238.8C233.8 239.9 231.6 241.9 229.1 244.7C228.6 246.3 228.1 248.6 227.7 251.7C227.3 254.7 226.8 256.9 226.2 258.3C225.5 258.5 224.7 258.9 223.8 259.4C221.7 261.4 219.9 264.4 218.5 268.6C216.5 274.4 215.4 277.7 215.1 278.5C213.8 279.5 212.3 281.1 210.6 283.5C210.4 284.1 210.7 284.9 211.4 285.9C212.1 286.9 212.3 287.8 212.1 288.3C211.7 289.2 210.8 290.2 209.3 291.2C207.8 292.3 206.8 293.1 206.4 293.7C206 294.3 205.5 296.3 205 299.5C204.7 301.3 204.1 302.4 203.2 302.7L201.5 257.3C201.6 257.4 201.6 257.5 201.7 257.7C201.8 258.1 201.9 258.2 202.1 258.2C202.2 258.2 202.6 256.8 203.4 254C204 252.3 205.2 250 206.9 247C207.4 246.9 208 246.6 208.7 246C208.5 244.8 208.5 243.3 208.7 241.5C209.1 240.6 210 239.9 211.6 239.4C213.2 238.9 214.2 238 214.6 236.6C214.3 235.9 214.1 234.7 213.9 233.2C214.6 230.8 216 227.7 218 223.9V223.8L231.3 224.6L235.3 216.6Z" fill="#895CB5"/>
<path d="M246.101 209.2L224.601 211.5C225.001 209.4 225.001 207.4 224.601 205.5C223.401 205.2 222.001 204.6 220.401 203.6C220.401 202 220.001 199.7 219.301 196.6C217.801 194 215.301 189.4 211.701 182.9C210.701 180.7 208.901 177.6 206.501 173.5C205.401 172.2 203.401 170.8 200.301 169.1L204.801 124.2C204.901 124.3 205.101 124.3 205.201 124.4C207.101 125.3 208.501 127.1 209.501 129.8C209.701 130.7 209.801 132.2 209.701 134.2C209.601 136.2 209.701 137.6 210.001 138.4C210.601 139.9 211.801 141.6 213.501 143.5C215.501 145.7 216.701 147.3 217.101 148.3C217.901 150.4 219.201 153.5 220.901 157.4C222.801 159.9 225.401 164 228.501 169.7C228.901 171.6 229.801 174.5 231.201 178.2C232.501 180 234.301 182.8 236.601 186.6C237.301 188.9 238.501 192.4 239.901 197C241.301 199.8 243.401 203.8 246.101 209.2Z" fill="#895CB5"/>
<path d="M204.8 124.3L200.3 169.2C200.2 169.1 200 169 199.9 169C199.8 168.9 199.6 169.6 199.4 170.9C199.1 172.2 198.3 174.4 197.1 177.3C195.5 179.1 193.2 181.8 190.3 185.5C190.3 186.6 188.9 189.3 186.2 193.7V194.7C185.3 196.4 184.1 198.9 182.7 202.2C181.3 204.3 180 206.9 178.7 210C178.7 210.2 178.7 210.4 178.7 210.6L159.9 206.8C160.2 206.2 160.5 205.6 160.9 204.9C162.4 203 163.4 201.8 163.7 201.4C164.7 199 166.2 195.5 168.2 191C168.9 190.2 169.8 189 170.8 187.3C171.3 184.6 172.5 180.5 174.3 175.2C175.6 173.9 177.2 171.7 179.4 168.7C180.2 166.6 181.4 163.6 183 159.6C184.4 156.1 186.6 151 189.6 144.3C190.1 143.2 191 141.7 192.3 139.7C193 138.1 194.2 135.4 195.9 131.5C196.6 130.2 198 128.3 199.9 125.7C201.6 124.3 203.3 123.8 204.8 124.3Z" fill="#BBB3C2"/>
<path d="M201.401 257.2L203.101 302.6C202.901 302.7 202.601 302.7 202.301 302.7C201.001 302.7 200.201 301.5 199.901 299.1C199.401 295.5 199.001 293.5 198.901 293.1C198.701 292.7 196.901 289.8 193.401 284.3C192.501 283.3 191.401 281.7 190.101 279.5C189.501 277.4 188.401 274.5 186.801 270.8C186.301 270.7 185.601 270.3 184.701 269.7C184.801 268.7 183.801 265.8 181.801 261.1C181.601 259.7 181.001 257.8 180.101 255.5C179.101 254.6 177.701 252.8 175.901 250.2C175.101 247 173.501 242.5 171.101 236.5C169.501 234.8 167.301 232.1 164.501 228.3C162.501 225.2 160.901 222.6 159.801 220.4L180.901 217.3C181.701 218.8 182.101 220.1 182.201 221C182.501 223.8 183.801 227.1 186.201 230.7C187.601 232 189.501 234.2 192.001 237.2C193.001 240.3 194.601 244.8 197.101 250.8C198.301 251.8 199.801 254 201.401 257.2Z" fill="#BBB3C2"/>
<path d="M147.3 254.3C147.3 254.6 147.3 254.9 147.2 255.2C146.4 256.8 145.5 257.7 144.5 258.1C143.5 258.5 142.5 258.8 141.3 259.2C139.8 259.6 138 260.6 135.9 262.2C133.2 264 131.1 265.3 129.7 266C123.5 269 118.5 272.4 114.8 276.1C113.5 277.4 110.9 278.4 107 279.1C103.8 279.6 101.6 280.7 100.6 282.3C100.2 283 99.4004 283.4 98.4004 283.5C97.4004 283.6 96.7004 283.7 96.4004 284C94.8004 285 93.7004 287.2 93.1004 290.5C92.4004 294.1 91.5004 296.5 90.4004 297.6C89.9004 298.1 89.4004 298.4 89.0004 298.4C88.5004 298.4 87.9004 297.7 87.3004 296.4C86.7004 295 86.1004 293.7 85.6004 292.5C85.6004 292.4 85.0004 291.4 83.8004 289.5C83.1004 288.5 82.7004 287.5 82.7004 286.5C82.7004 285.9 82.9004 285.1 83.2004 284C83.5004 282.9 83.7004 282.2 83.7004 281.8C83.7004 281.1 82.2004 279.6 79.0004 277.4C76.5004 275.4 75.1004 274.3 74.9004 274.1C73.3004 272.8 72.4004 271.3 71.9004 269.7C71.6004 268.7 70.2004 268.1 67.7004 267.9C65.2004 267.7 63.9004 267.3 63.9004 266.7C63.9004 266.6 63.9004 266.4 64.0004 266.1C65.5004 263.4 67.8004 262 71.0004 262C72.2004 262 74.2004 262.3 77.1004 262.8C80.0004 263.3 82.2004 263.6 83.7004 263.6C86.9004 263.6 89.7004 262.7 91.9004 260.8C92.9004 260.1 94.2004 259.6 95.7004 259.4C97.2004 259.2 98.8004 259 100.6 258.8C102.3 258.6 104.8 257.1 108 254.3C111.2 251.5 114.4 249.9 117.7 249.6C118.5 249.5 118.9 249.2 118.9 248.5C118.9 247.8 118.3 246.6 117 244.7C115.7 242.8 115 241.5 114.8 240.8C114.1 240.5 113.3 239.9 112.5 239.1C112.4 239 112.5 238.7 112.7 238.3C112.9 237.9 113 237.6 113 237.4C113 236.9 112.6 236.5 111.8 236.3C111 236.1 110.2 235.2 109.5 233.5C108.8 231.5 108 230.2 107.3 229.6C106.6 229 105.5 227 104 223.5C103 221 102.1 217 98.2004 215.7C95.6004 211.8 91.2004 205.2 91.2004 204.7C91.2004 203.6 90.5004 202.5 89.2004 201.4C87.9004 200.3 87.3004 199.6 87.6004 199.1C87.9004 198.7 87.8004 198.2 87.6004 197.9C83.6004 193.3 81.1004 190.3 80.2004 189.2C77.8004 186.1 75.7004 182.6 73.9004 178.7C73.4004 178.6 72.7004 178.2 72.0004 177.5C71.8004 176.8 71.0004 175.2 69.3004 173C68.0004 171.1 67.4004 169.5 67.4004 168.1C67.4004 166.6 68.2004 165.3 69.8004 164C70.1004 163.8 70.5004 163.7 70.9004 163.7C71.3004 163.7 71.8004 163.8 72.5004 164.1C73.2004 164.4 73.7004 164.5 74.1004 164.5C74.8004 164.5 75.3004 164.1 75.8004 163.3C75.8004 163 76.4004 162.4 77.6004 161.6C78.8004 160.7 79.5004 160.3 79.7004 160.3C81.2004 160.8 82.6004 160.5 83.9004 159.6C86.0004 158.5 88.6004 156.6 91.5004 154C94.0004 151.8 96.5004 150.1 99.0004 148.8C100.5 148.1 102.7 147.6 105.4 147.5C107.6 147.3 109.4 146.4 110.8 145C112.2 143.6 114.7 142.2 118.3 140.9C120.9 140 122.5 138.3 123.3 135.8C123.6 134.8 123.7 132.3 123.7 128.5C123.9 125.6 124.7 124.3 126.1 124.7C128.2 125.2 129.5 126.8 130 129.6C130.5 132.3 131 135.1 131.4 137.9C131.9 139.9 133 141.2 134.7 141.8C136 142.4 137.1 143.4 138.1 144.9C139.1 146.4 139.7 148 139.8 149.8C139.9 151.5 141.1 153.1 143.3 154.5C145.6 155.9 146.7 157.4 146.8 159.1C146.9 160.4 146.9 161 146.8 161C146 161 143.9 160.8 140.5 160.3C137.7 160 135.3 159.9 133.3 159.9C130.4 159.9 127.7 160.3 125.5 161C121 162.5 118.2 163.6 117 164.1C114.4 165.4 112 167.3 109.6 170C108.9 170.7 107.2 171.1 104.7 171.1C103.1 171.1 102.2 171.4 101.7 171.9C100.8 173 99.9004 174.2 98.9004 175.4C98.6004 175.8 98.5004 176.4 98.5004 177.1C98.5004 178.6 100.2 181 103.6 184.3C107.6 188.2 109.9 190.9 110.6 192.5C111.2 194.9 113 198.9 115.9 204.4C116 204.5 127.8 220.9 128.8 223.4C129.4 224.9 130.2 227.4 133 230.5C136.5 233.8 138.5 236.4 139.1 238.1C139.3 240.2 140.3 243.3 142 247.3C142.7 248.2 143.9 249.6 145.6 251.6C146.8 252.7 147.3 253.7 147.3 254.3Z" fill="#BBB3C2"/>
<path d="M204.801 124.1V124.3" stroke="#7E7E7E" stroke-width="0.6981" stroke-miterlimit="10"/>
<path d="M214.5 208.4C215.2 210.2 215.5 211.9 215.5 213.4L211.4 213.7L204 214.7L199.4 215.2L202.6 191.4C202.7 191.4 202.8 191.4 202.9 191.5C205.3 192.3 208.3 196.3 211.8 203.5C212.8 205.2 213.7 206.8 214.5 208.4Z" fill="#895CB5"/>
<path d="M211.1 214.9L209.3 223.4C208.6 225 207.6 226.8 206.5 228.9C204.4 231.7 202.9 233.4 202 233.8L199.4 215.5V215.4L203.9 214.9H203.7H211.1Z" fill="#895CB5"/>
<path d="M202.6 191.5L199.4 215.3L196.9 197.6C197.8 196.2 198.9 194.7 200.2 193.1C201.1 192 201.9 191.4 202.6 191.5Z" fill="#BBB3C2"/>
<path d="M199.401 215.4L202.001 233.7C201.801 233.8 201.601 233.9 201.501 233.8C201.001 233.7 200.501 233.4 200.001 233L199.301 216L199.401 215.4Z" fill="#BBB3C2"/>
<path d="M199.4 215.4L199.3 216.1L200 233.1C199.3 232.5 198.6 231.6 197.9 230.4C197 228.7 196.1 227.1 195.1 225.5C194.1 223.3 192.2 220.3 189.6 216.5C189.6 216.5 189.6 216.5 189.5 216.5L197.3 215.6L199.2 215.4H199.4Z" fill="#BBB3C2"/>
<path d="M196.8 197.6L199.3 215.3L197.4 215.5L192.5 206.6C193.4 205 194.3 203.2 195 201C195.5 199.9 196.1 198.8 196.8 197.6Z" fill="#BBB3C2"/>
<path d="M192.6 206.5L197.5 215.4L187.9 212.2C188.3 211.5 188.8 210.9 189.6 210.3C190.7 209.4 191.4 208.6 191.7 207.9C192 207.5 192.3 207 192.6 206.5Z" fill="#BBB3C2"/>
<path d="M76.7313 375.199H65.9023V373.785C67.073 373.265 68.2437 372.874 69.4144 372.614L81.7555 340.469H83.1701L95.5112 372.614C96.1616 372.744 96.7957 372.891 97.4136 373.053C98.064 373.216 98.6656 373.46 99.2184 373.785V375.199H86.731V373.785C87.3814 373.525 88.048 373.297 88.7309 373.102C89.4138 372.907 90.0805 372.744 90.7309 372.614L87.4139 363.688H75.7557L72.5363 372.614C73.9021 372.809 75.3004 373.2 76.7313 373.785V375.199ZM76.7313 361.151H86.5846L82.7311 350.81L81.8043 346.615H81.7067L80.4873 350.908L76.7313 361.151ZM112.058 341.054H124.448V342.469C123.863 342.729 123.261 342.973 122.643 343.2C122.026 343.396 121.391 343.558 120.741 343.688V371.004C120.741 373.281 120.481 375.151 119.961 376.614C119.44 378.077 118.79 379.248 118.009 380.126C117.261 381.037 116.448 381.703 115.57 382.126C114.725 382.549 113.944 382.842 113.229 383.004L112.692 382.272C113.18 381.85 113.619 381.362 114.009 380.809C114.432 380.289 114.79 379.622 115.083 378.809C115.408 377.996 115.652 377.004 115.814 375.834C115.977 374.663 116.058 373.232 116.058 371.541V343.688C115.343 343.526 114.644 343.347 113.961 343.152C113.278 342.957 112.644 342.729 112.058 342.469V341.054ZM128.781 363.005C128.781 360.956 129.041 359.151 129.561 357.59C130.114 355.997 130.895 354.664 131.903 353.59C132.911 352.485 134.114 351.655 135.512 351.103C136.943 350.517 138.52 350.225 140.244 350.225C142.26 350.225 144 350.534 145.463 351.151C146.927 351.769 148.114 352.647 149.024 353.785C149.967 354.891 150.65 356.224 151.073 357.785C151.528 359.346 151.756 361.086 151.756 363.005C151.756 367.102 150.715 370.257 148.634 372.468C146.553 374.679 143.756 375.785 140.244 375.785C138.293 375.785 136.602 375.492 135.171 374.907C133.74 374.289 132.553 373.427 131.61 372.322C130.667 371.183 129.951 369.834 129.464 368.273C129.008 366.679 128.781 364.923 128.781 363.005ZM133.464 363.005C133.464 364.468 133.594 365.85 133.854 367.151C134.146 368.452 134.585 369.59 135.171 370.565C135.789 371.509 136.585 372.256 137.561 372.809C138.537 373.362 139.707 373.639 141.073 373.639C142.829 373.639 144.26 372.777 145.366 371.053C146.504 369.33 147.073 366.647 147.073 363.005C147.073 361.509 146.927 360.127 146.634 358.858C146.374 357.558 145.951 356.436 145.366 355.493C144.78 354.517 144.032 353.753 143.122 353.2C142.211 352.647 141.122 352.371 139.854 352.371C137.935 352.371 136.39 353.233 135.22 354.956C134.049 356.68 133.464 359.363 133.464 363.005ZM165.645 354.468C165.287 354.664 164.832 355.07 164.279 355.688C163.759 356.273 163.287 357.151 162.864 358.322V372.809C163.515 372.874 164.165 373.004 164.815 373.2C165.466 373.362 166.116 373.622 166.767 373.98V375.199H155.255V373.98C155.84 373.655 156.393 373.411 156.913 373.248C157.434 373.086 157.954 372.939 158.474 372.809V353.639L155.255 353.249V351.981C156.295 351.525 157.369 351.168 158.474 350.908C159.58 350.615 160.637 350.387 161.645 350.225H162.864V355.395H163.059C163.352 354.745 163.759 354.094 164.279 353.444C164.832 352.794 165.45 352.208 166.133 351.688C166.848 351.168 167.612 350.777 168.425 350.517C169.271 350.225 170.132 350.127 171.01 350.225C171.238 350.647 171.433 351.119 171.596 351.639C171.791 352.127 171.97 352.647 172.132 353.2V354.468H165.645ZM200.609 375.199H190.121V373.98C191 373.525 191.959 373.134 192.999 372.809V361.249C192.999 358.777 192.642 356.826 191.926 355.395C191.211 353.964 189.91 353.249 188.024 353.249C187.211 353.249 186.447 353.395 185.731 353.688C185.048 353.981 184.431 354.387 183.878 354.907C183.357 355.395 182.902 355.964 182.512 356.615C182.122 357.233 181.813 357.883 181.585 358.566V372.809C182.593 373.004 183.569 373.395 184.512 373.98V375.199H173.976V373.98C174.789 373.557 175.862 373.167 177.195 372.809V353.639L173.976 353.249V351.981C174.821 351.623 175.797 351.298 176.902 351.005C178.008 350.712 179.162 350.452 180.366 350.225H181.585V355.688H181.634C182.317 354.192 183.292 352.907 184.561 351.834C185.861 350.761 187.422 350.225 189.243 350.225C190.544 350.225 191.699 350.387 192.707 350.712C193.747 351.005 194.609 351.542 195.292 352.322C195.975 353.103 196.495 354.159 196.853 355.493C197.211 356.794 197.39 358.452 197.39 360.468V372.809C198.69 373.037 199.763 373.427 200.609 373.98V375.199ZM221.425 368.809C221.425 369.525 221.442 370.143 221.474 370.663C221.507 371.183 221.539 371.736 221.572 372.322L224.938 372.809V373.834C224.125 374.256 223.214 374.63 222.206 374.956C221.23 375.281 220.287 375.525 219.377 375.687H218.157C217.832 374.939 217.637 374.126 217.572 373.248C217.507 372.338 217.458 371.346 217.426 370.273H217.182C217.052 370.923 216.791 371.59 216.401 372.273C216.043 372.923 215.556 373.508 214.938 374.029C214.352 374.549 213.653 374.972 212.84 375.297C212.027 375.622 211.101 375.785 210.06 375.785C208.076 375.785 206.45 375.183 205.182 373.98C203.946 372.777 203.328 371.2 203.328 369.248C203.328 367.753 203.621 366.533 204.206 365.59C204.824 364.614 205.719 363.85 206.889 363.297C208.06 362.745 209.507 362.354 211.231 362.127C212.954 361.867 214.954 361.671 217.23 361.541C217.36 360.143 217.393 358.891 217.328 357.785C217.295 356.647 217.117 355.688 216.791 354.907C216.499 354.094 216.043 353.477 215.426 353.054C214.84 352.599 214.06 352.371 213.084 352.371C212.629 352.371 212.109 352.403 211.523 352.468C210.97 352.501 210.418 352.631 209.865 352.859L207.572 358.712H206.304C205.979 357.737 205.686 356.728 205.426 355.688C205.198 354.647 205.052 353.623 204.987 352.615C206.223 351.867 207.588 351.281 209.084 350.859C210.613 350.436 212.304 350.225 214.157 350.225C215.816 350.225 217.133 350.469 218.108 350.956C219.117 351.412 219.881 352.013 220.401 352.761C220.921 353.509 221.263 354.338 221.425 355.249C221.588 356.159 221.669 357.07 221.669 357.98C221.669 359.932 221.621 361.818 221.523 363.639C221.458 365.427 221.425 367.151 221.425 368.809ZM212.011 372.761C212.824 372.761 213.539 372.598 214.157 372.273C214.775 371.948 215.296 371.557 215.718 371.102C216.141 370.647 216.482 370.191 216.743 369.736C217.003 369.248 217.182 368.842 217.279 368.517V363.395C215.393 363.395 213.848 363.493 212.645 363.688C211.442 363.883 210.499 364.192 209.816 364.614C209.133 365.037 208.662 365.574 208.401 366.224C208.141 366.842 208.011 367.557 208.011 368.37C208.011 369.769 208.369 370.858 209.084 371.639C209.8 372.387 210.775 372.761 212.011 372.761ZM244.248 370.37C244.086 371.086 243.809 371.769 243.419 372.419C243.029 373.069 242.541 373.655 241.956 374.175C241.403 374.663 240.752 375.053 240.005 375.346C239.289 375.638 238.509 375.785 237.663 375.785C234.444 375.785 232.037 374.76 230.444 372.712C228.85 370.663 228.054 367.476 228.054 363.151C228.054 358.989 229.062 355.818 231.078 353.639C233.127 351.46 235.875 350.371 239.322 350.371C240.525 350.371 241.468 350.436 242.151 350.566C242.834 350.664 243.582 350.859 244.395 351.151V341.932L240.687 341.542V340.274C241.63 339.883 242.72 339.542 243.956 339.249C245.224 338.957 246.427 338.713 247.565 338.518H248.785V372.419L252.004 372.809V373.834C251.061 374.289 250.085 374.679 249.077 375.004C248.069 375.33 247.077 375.557 246.102 375.687H244.882L244.443 370.37H244.248ZM238.639 372.761C240.232 372.761 241.5 372.256 242.443 371.248C243.387 370.24 244.037 368.874 244.395 367.151V353.395C243.842 353.07 243.191 352.842 242.443 352.712C241.696 352.582 240.736 352.517 239.565 352.517C237.354 352.517 235.663 353.493 234.492 355.444C233.322 357.363 232.736 359.932 232.736 363.151C232.736 364.484 232.85 365.736 233.078 366.907C233.306 368.045 233.663 369.053 234.151 369.931C234.639 370.809 235.24 371.509 235.956 372.029C236.704 372.517 237.598 372.761 238.639 372.761ZM273.11 368.809C273.11 369.525 273.126 370.143 273.159 370.663C273.191 371.183 273.224 371.736 273.257 372.322L276.622 372.809V373.834C275.809 374.256 274.899 374.63 273.891 374.956C272.915 375.281 271.972 375.525 271.061 375.687H269.842C269.517 374.939 269.322 374.126 269.257 373.248C269.192 372.338 269.143 371.346 269.11 370.273H268.866C268.736 370.923 268.476 371.59 268.086 372.273C267.728 372.923 267.24 373.508 266.623 374.029C266.037 374.549 265.338 374.972 264.525 375.297C263.712 375.622 262.785 375.785 261.745 375.785C259.761 375.785 258.135 375.183 256.867 373.98C255.631 372.777 255.013 371.2 255.013 369.248C255.013 367.753 255.306 366.533 255.891 365.59C256.509 364.614 257.403 363.85 258.574 363.297C259.745 362.745 261.192 362.354 262.915 362.127C264.639 361.867 266.639 361.671 268.915 361.541C269.045 360.143 269.078 358.891 269.013 357.785C268.98 356.647 268.801 355.688 268.476 354.907C268.184 354.094 267.728 353.477 267.11 353.054C266.525 352.599 265.745 352.371 264.769 352.371C264.314 352.371 263.793 352.403 263.208 352.468C262.655 352.501 262.102 352.631 261.55 352.859L259.257 358.712H257.989C257.664 357.737 257.371 356.728 257.111 355.688C256.883 354.647 256.737 353.623 256.672 352.615C257.907 351.867 259.273 351.281 260.769 350.859C262.298 350.436 263.989 350.225 265.842 350.225C267.501 350.225 268.818 350.469 269.793 350.956C270.801 351.412 271.566 352.013 272.086 352.761C272.606 353.509 272.948 354.338 273.11 355.249C273.273 356.159 273.354 357.07 273.354 357.98C273.354 359.932 273.305 361.818 273.208 363.639C273.143 365.427 273.11 367.151 273.11 368.809ZM263.696 372.761C264.509 372.761 265.224 372.598 265.842 372.273C266.46 371.948 266.98 371.557 267.403 371.102C267.826 370.647 268.167 370.191 268.427 369.736C268.688 369.248 268.866 368.842 268.964 368.517V363.395C267.078 363.395 265.533 363.493 264.33 363.688C263.127 363.883 262.184 364.192 261.501 364.614C260.818 365.037 260.346 365.574 260.086 366.224C259.826 366.842 259.696 367.557 259.696 368.37C259.696 369.769 260.054 370.858 260.769 371.639C261.485 372.387 262.46 372.761 263.696 372.761ZM307.794 370.37C307.632 371.086 307.355 371.769 306.965 372.419C306.575 373.069 306.087 373.655 305.502 374.175C304.949 374.663 304.299 375.053 303.551 375.346C302.835 375.638 302.055 375.785 301.209 375.785C297.99 375.785 295.583 374.76 293.99 372.712C292.396 370.663 291.6 367.476 291.6 363.151C291.6 358.989 292.608 355.818 294.624 353.639C296.673 351.46 299.421 350.371 302.868 350.371C304.071 350.371 305.014 350.436 305.697 350.566C306.38 350.664 307.128 350.859 307.941 351.151V341.932L304.233 341.542V340.274C305.177 339.883 306.266 339.542 307.502 339.249C308.77 338.957 309.973 338.713 311.111 338.518H312.331V372.419L315.55 372.809V373.834C314.607 374.289 313.632 374.679 312.623 375.004C311.615 375.33 310.624 375.557 309.648 375.687H308.428L307.989 370.37H307.794ZM302.185 372.761C303.778 372.761 305.046 372.256 305.99 371.248C306.933 370.24 307.583 368.874 307.941 367.151V353.395C307.388 353.07 306.737 352.842 305.99 352.712C305.242 352.582 304.282 352.517 303.112 352.517C300.9 352.517 299.209 353.493 298.039 355.444C296.868 357.363 296.283 359.932 296.283 363.151C296.283 364.484 296.396 365.736 296.624 366.907C296.852 368.045 297.209 369.053 297.697 369.931C298.185 370.809 298.786 371.509 299.502 372.029C300.25 372.517 301.144 372.761 302.185 372.761ZM338.412 371.785C338.152 372.338 337.746 372.858 337.193 373.346C336.64 373.834 336.006 374.256 335.29 374.614C334.575 374.972 333.795 375.248 332.949 375.443C332.104 375.671 331.242 375.785 330.364 375.785C328.445 375.785 326.754 375.492 325.291 374.907C323.827 374.289 322.608 373.427 321.632 372.322C320.657 371.183 319.909 369.834 319.389 368.273C318.901 366.712 318.657 364.956 318.657 363.005C318.657 358.842 319.616 355.672 321.535 353.493C323.453 351.314 326.169 350.225 329.681 350.225C330.819 350.225 331.941 350.387 333.047 350.712C334.152 351.005 335.128 351.509 335.973 352.225C336.851 352.94 337.551 353.899 338.071 355.103C338.624 356.273 338.9 357.737 338.9 359.493C338.9 360.045 338.868 360.615 338.803 361.2C338.77 361.753 338.689 362.354 338.559 363.005H323.34C323.34 364.371 323.502 365.655 323.827 366.858C324.185 368.029 324.705 369.053 325.388 369.931C326.071 370.809 326.933 371.509 327.974 372.029C329.014 372.517 330.234 372.761 331.632 372.761C332.77 372.761 333.925 372.598 335.095 372.273C336.266 371.948 337.144 371.525 337.729 371.004L338.412 371.785ZM329.486 352.371C327.632 352.371 326.218 353.005 325.242 354.273C324.266 355.509 323.681 357.704 323.486 360.858H334.217C334.25 360.566 334.266 360.289 334.266 360.029C334.299 359.737 334.315 359.46 334.315 359.2C334.315 357.119 333.925 355.46 333.144 354.224C332.364 352.989 331.144 352.371 329.486 352.371ZM363.148 372.614C363.896 372.777 364.611 372.956 365.294 373.151C365.977 373.313 366.644 373.525 367.294 373.785V375.199H354.465V373.785C355.181 373.46 355.864 373.216 356.514 373.053C357.164 372.891 357.815 372.744 358.465 372.614V343.688C357.62 343.526 356.872 343.347 356.221 343.152C355.571 342.924 354.985 342.696 354.465 342.469V341.054H358.758C360.059 341.054 361.473 340.989 363.002 340.859C364.562 340.729 366.075 340.664 367.538 340.664C369.131 340.664 370.611 340.843 371.977 341.2C373.375 341.558 374.578 342.127 375.586 342.908C376.595 343.688 377.375 344.68 377.928 345.883C378.513 347.086 378.806 348.534 378.806 350.225C378.806 352.599 378.172 354.566 376.904 356.127C375.668 357.688 373.977 358.81 371.831 359.493C373.229 361.704 374.692 363.899 376.221 366.078C377.749 368.257 379.342 370.419 381.001 372.565L383.635 373.98V375.199H377.733L375.879 373.834C374.969 372.695 374.139 371.59 373.391 370.517C372.643 369.411 371.944 368.305 371.294 367.2C370.644 366.062 370.026 364.923 369.44 363.785C368.888 362.614 368.318 361.379 367.733 360.078H363.148V372.614ZM366.465 343.2C365.684 343.2 365.034 343.217 364.514 343.249C364.026 343.282 363.571 343.347 363.148 343.444V358.029H366.66C368.904 358.029 370.676 357.314 371.977 355.883C373.31 354.452 373.977 352.566 373.977 350.225C373.977 347.818 373.278 346.046 371.879 344.908C370.481 343.77 368.676 343.2 366.465 343.2ZM387.865 365.541C387.865 363.493 387.914 361.493 388.011 359.541C388.109 357.558 388.158 355.59 388.158 353.639L384.938 353.249V351.981C385.979 351.59 387.036 351.249 388.109 350.956C389.215 350.664 390.288 350.42 391.328 350.225H392.548C392.548 352.664 392.499 355.086 392.402 357.493C392.304 359.899 392.255 362.289 392.255 364.663C392.255 365.931 392.32 367.07 392.45 368.078C392.613 369.086 392.873 369.931 393.231 370.614C393.621 371.297 394.141 371.834 394.792 372.224C395.442 372.582 396.271 372.761 397.279 372.761C398.743 372.761 399.962 372.24 400.938 371.2C401.946 370.126 402.726 368.744 403.279 367.053V353.639L400.109 353.249V351.981C401.117 351.59 402.157 351.249 403.23 350.956C404.336 350.664 405.409 350.42 406.45 350.225H407.669V372.419L410.889 372.809V373.834C409.946 374.256 408.986 374.63 408.011 374.956C407.068 375.281 406.076 375.525 405.035 375.687H403.816L403.474 369.883H403.279C403.117 370.565 402.824 371.265 402.401 371.98C402.011 372.663 401.491 373.297 400.84 373.882C400.19 374.435 399.442 374.891 398.596 375.248C397.783 375.606 396.889 375.785 395.914 375.785C394.613 375.785 393.458 375.622 392.45 375.297C391.475 375.004 390.645 374.468 389.963 373.687C389.28 372.907 388.759 371.866 388.402 370.565C388.044 369.232 387.865 367.557 387.865 365.541ZM424.948 375.199H414.119V373.98C414.607 373.72 415.111 373.508 415.631 373.346C416.151 373.151 416.72 372.972 417.338 372.809V353.639L414.119 353.249V351.981C415.062 351.59 416.086 351.249 417.192 350.956C418.298 350.664 419.403 350.42 420.509 350.225H421.728V372.809C422.379 372.972 422.964 373.151 423.484 373.346C424.005 373.508 424.493 373.72 424.948 373.98V375.199ZM416.411 342.518C416.411 341.64 416.688 340.94 417.241 340.42C417.826 339.9 418.59 339.64 419.533 339.64C420.476 339.64 421.224 339.9 421.777 340.42C422.33 340.94 422.606 341.64 422.606 342.518C422.606 343.396 422.33 344.095 421.777 344.615C421.224 345.103 420.476 345.347 419.533 345.347C418.59 345.347 417.826 345.103 417.241 344.615C416.688 344.095 416.411 343.396 416.411 342.518ZM466.797 375.199H456.31V373.98C457.188 373.525 458.147 373.134 459.188 372.809V361.249C459.188 358.777 458.83 356.826 458.115 355.395C457.399 353.964 456.099 353.249 454.213 353.249C453.4 353.249 452.635 353.395 451.92 353.688C451.237 353.981 450.619 354.387 450.066 354.907C449.546 355.395 449.091 355.964 448.7 356.615C448.31 357.233 448.001 357.883 447.774 358.566V372.809C448.782 373.004 449.757 373.395 450.7 373.98V375.199H440.164V373.98C440.977 373.557 442.05 373.167 443.384 372.809V353.639L440.164 353.249V351.981C441.01 351.623 441.985 351.298 443.091 351.005C444.197 350.712 445.351 350.452 446.554 350.225H447.774V355.688H447.822C448.505 354.192 449.481 352.907 450.749 351.834C452.05 350.761 453.611 350.225 455.432 350.225C456.733 350.225 457.887 350.387 458.895 350.712C459.936 351.005 460.798 351.542 461.481 352.322C462.163 353.103 462.684 354.159 463.042 355.493C463.399 356.794 463.578 358.452 463.578 360.468V372.809C464.879 373.037 465.952 373.427 466.797 373.98V375.199ZM487.614 368.809C487.614 369.525 487.63 370.143 487.663 370.663C487.695 371.183 487.728 371.736 487.76 372.322L491.126 372.809V373.834C490.313 374.256 489.403 374.63 488.394 374.956C487.419 375.281 486.476 375.525 485.565 375.687H484.346C484.021 374.939 483.825 374.126 483.76 373.248C483.695 372.338 483.647 371.346 483.614 370.273H483.37C483.24 370.923 482.98 371.59 482.59 372.273C482.232 372.923 481.744 373.508 481.126 374.029C480.541 374.549 479.842 374.972 479.029 375.297C478.216 375.622 477.289 375.785 476.248 375.785C474.265 375.785 472.639 375.183 471.371 373.98C470.135 372.777 469.517 371.2 469.517 369.248C469.517 367.753 469.81 366.533 470.395 365.59C471.013 364.614 471.907 363.85 473.078 363.297C474.249 362.745 475.696 362.354 477.419 362.127C479.143 361.867 481.143 361.671 483.419 361.541C483.549 360.143 483.582 358.891 483.517 357.785C483.484 356.647 483.305 355.688 482.98 354.907C482.687 354.094 482.232 353.477 481.614 353.054C481.029 352.599 480.248 352.371 479.273 352.371C478.817 352.371 478.297 352.403 477.712 352.468C477.159 352.501 476.606 352.631 476.053 352.859L473.761 358.712H472.492C472.167 357.737 471.875 356.728 471.614 355.688C471.387 354.647 471.24 353.623 471.175 352.615C472.411 351.867 473.777 351.281 475.273 350.859C476.801 350.436 478.492 350.225 480.346 350.225C482.004 350.225 483.321 350.469 484.297 350.956C485.305 351.412 486.069 352.013 486.59 352.761C487.11 353.509 487.451 354.338 487.614 355.249C487.777 356.159 487.858 357.07 487.858 357.98C487.858 359.932 487.809 361.818 487.712 363.639C487.646 365.427 487.614 367.151 487.614 368.809ZM478.2 372.761C479.013 372.761 479.728 372.598 480.346 372.273C480.964 371.948 481.484 371.557 481.907 371.102C482.33 370.647 482.671 370.191 482.931 369.736C483.191 369.248 483.37 368.842 483.468 368.517V363.395C481.582 363.395 480.037 363.493 478.834 363.688C477.631 363.883 476.687 364.192 476.005 364.614C475.322 365.037 474.85 365.574 474.59 366.224C474.33 366.842 474.2 367.557 474.2 368.37C474.2 369.769 474.557 370.858 475.273 371.639C475.988 372.387 476.964 372.761 478.2 372.761ZM530.786 366.322H532.054C532.216 367.232 532.363 368.387 532.493 369.785C532.623 371.151 532.655 372.484 532.59 373.785C532.103 374.175 531.517 374.5 530.834 374.76C530.152 374.988 529.42 375.183 528.639 375.346C527.891 375.508 527.111 375.622 526.298 375.687C525.517 375.752 524.77 375.785 524.054 375.785C521.323 375.785 518.884 375.443 516.737 374.76C514.591 374.045 512.77 372.972 511.274 371.541C509.811 370.11 508.672 368.289 507.859 366.078C507.079 363.834 506.689 361.184 506.689 358.127C506.689 354.94 507.128 352.241 508.006 350.029C508.884 347.786 510.071 345.965 511.567 344.566C513.063 343.135 514.802 342.095 516.786 341.444C518.77 340.794 520.851 340.469 523.03 340.469C525.176 340.469 526.981 340.615 528.444 340.908C529.908 341.168 531.192 341.574 532.298 342.127C532.298 342.648 532.282 343.265 532.249 343.981C532.216 344.664 532.168 345.395 532.103 346.176C532.038 346.956 531.956 347.721 531.859 348.469C531.761 349.217 531.664 349.899 531.566 350.517H530.298L527.761 343.493C527.404 343.298 526.802 343.168 525.957 343.103C525.144 343.038 524.331 343.005 523.518 343.005C521.892 343.005 520.347 343.314 518.884 343.932C517.453 344.517 516.184 345.444 515.079 346.713C514.006 347.948 513.144 349.525 512.494 351.444C511.843 353.33 511.518 355.558 511.518 358.127C511.518 360.436 511.811 362.533 512.396 364.419C512.981 366.273 513.827 367.866 514.932 369.2C516.038 370.5 517.388 371.509 518.981 372.224C520.575 372.907 522.379 373.248 524.396 373.248C525.469 373.248 526.363 373.167 527.078 373.004C527.794 372.842 528.265 372.63 528.493 372.37L530.786 366.322ZM555.495 368.809C555.495 369.525 555.511 370.143 555.544 370.663C555.576 371.183 555.609 371.736 555.641 372.322L559.007 372.809V373.834C558.194 374.256 557.283 374.63 556.275 374.956C555.3 375.281 554.357 375.525 553.446 375.687H552.227C551.901 374.939 551.706 374.126 551.641 373.248C551.576 372.338 551.528 371.346 551.495 370.273H551.251C551.121 370.923 550.861 371.59 550.471 372.273C550.113 372.923 549.625 373.508 549.007 374.029C548.422 374.549 547.723 374.972 546.91 375.297C546.097 375.622 545.17 375.785 544.129 375.785C542.146 375.785 540.52 375.183 539.251 373.98C538.016 372.777 537.398 371.2 537.398 369.248C537.398 367.753 537.691 366.533 538.276 365.59C538.894 364.614 539.788 363.85 540.959 363.297C542.129 362.745 543.577 362.354 545.3 362.127C547.024 361.867 549.024 361.671 551.3 361.541C551.43 360.143 551.462 358.891 551.397 357.785C551.365 356.647 551.186 355.688 550.861 354.907C550.568 354.094 550.113 353.477 549.495 353.054C548.91 352.599 548.129 352.371 547.154 352.371C546.698 352.371 546.178 352.403 545.593 352.468C545.04 352.501 544.487 352.631 543.934 352.859L541.642 358.712H540.373C540.048 357.737 539.756 356.728 539.495 355.688C539.268 354.647 539.121 353.623 539.056 352.615C540.292 351.867 541.658 351.281 543.154 350.859C544.682 350.436 546.373 350.225 548.227 350.225C549.885 350.225 551.202 350.469 552.178 350.956C553.186 351.412 553.95 352.013 554.471 352.761C554.991 353.509 555.332 354.338 555.495 355.249C555.657 356.159 555.739 357.07 555.739 357.98C555.739 359.932 555.69 361.818 555.592 363.639C555.527 365.427 555.495 367.151 555.495 368.809ZM546.081 372.761C546.894 372.761 547.609 372.598 548.227 372.273C548.845 371.948 549.365 371.557 549.788 371.102C550.21 370.647 550.552 370.191 550.812 369.736C551.072 369.248 551.251 368.842 551.349 368.517V363.395C549.463 363.395 547.918 363.493 546.715 363.688C545.511 363.883 544.568 364.192 543.885 364.614C543.203 365.037 542.731 365.574 542.471 366.224C542.211 366.842 542.081 367.557 542.081 368.37C542.081 369.769 542.438 370.858 543.154 371.639C543.869 372.387 544.845 372.761 546.081 372.761ZM571.733 375.785L562.221 353.249C561.278 352.924 560.416 352.533 559.635 352.078V350.81H569.83V352.029C569.407 352.257 568.968 352.485 568.513 352.712C568.09 352.907 567.603 353.086 567.05 353.249L572.708 367.931L573.684 370.956H573.781L574.513 367.883L579.732 353.249C579.212 353.119 578.724 352.956 578.269 352.761C577.846 352.566 577.44 352.338 577.049 352.078V350.81H585.342V352.078C585.017 352.306 584.61 352.517 584.122 352.712C583.667 352.907 583.147 353.086 582.562 353.249L573.928 375.199L571.733 375.785ZM605.744 371.785C605.484 372.338 605.077 372.858 604.525 373.346C603.972 373.834 603.338 374.256 602.622 374.614C601.907 374.972 601.126 375.248 600.281 375.443C599.435 375.671 598.574 375.785 597.696 375.785C595.777 375.785 594.086 375.492 592.623 374.907C591.159 374.289 589.94 373.427 588.964 372.322C587.989 371.183 587.241 369.834 586.72 368.273C586.232 366.712 585.989 364.956 585.989 363.005C585.989 358.842 586.948 355.672 588.867 353.493C590.785 351.314 593.501 350.225 597.013 350.225C598.151 350.225 599.273 350.387 600.378 350.712C601.484 351.005 602.46 351.509 603.305 352.225C604.183 352.94 604.882 353.899 605.403 355.103C605.955 356.273 606.232 357.737 606.232 359.493C606.232 360.045 606.199 360.615 606.134 361.2C606.102 361.753 606.02 362.354 605.89 363.005H590.671C590.671 364.371 590.834 365.655 591.159 366.858C591.517 368.029 592.037 369.053 592.72 369.931C593.403 370.809 594.265 371.509 595.305 372.029C596.346 372.517 597.565 372.761 598.964 372.761C600.102 372.761 601.256 372.598 602.427 372.273C603.598 371.948 604.476 371.525 605.061 371.004L605.744 371.785ZM596.818 352.371C594.964 352.371 593.549 353.005 592.574 354.273C591.598 355.509 591.013 357.704 590.818 360.858H601.549C601.582 360.566 601.598 360.289 601.598 360.029C601.63 359.737 601.647 359.46 601.647 359.2C601.647 357.119 601.256 355.46 600.476 354.224C599.695 352.989 598.476 352.371 596.818 352.371ZM620.423 354.468C620.065 354.664 619.61 355.07 619.057 355.688C618.537 356.273 618.065 357.151 617.643 358.322V372.809C618.293 372.874 618.944 373.004 619.594 373.2C620.244 373.362 620.895 373.622 621.545 373.98V375.199H610.033V373.98C610.619 373.655 611.171 373.411 611.692 373.248C612.212 373.086 612.732 372.939 613.253 372.809V353.639L610.033 353.249V351.981C611.074 351.525 612.147 351.168 613.253 350.908C614.358 350.615 615.415 350.387 616.423 350.225H617.643V355.395H617.838C618.131 354.745 618.537 354.094 619.057 353.444C619.61 352.794 620.228 352.208 620.911 351.688C621.626 351.168 622.391 350.777 623.204 350.517C624.049 350.225 624.911 350.127 625.789 350.225C626.016 350.647 626.212 351.119 626.374 351.639C626.569 352.127 626.748 352.647 626.911 353.2V354.468H620.423ZM655.387 375.199H644.9V373.98C645.778 373.525 646.737 373.134 647.778 372.809V361.249C647.778 358.777 647.42 356.826 646.705 355.395C645.989 353.964 644.689 353.249 642.802 353.249C641.989 353.249 641.225 353.395 640.51 353.688C639.827 353.981 639.209 354.387 638.656 354.907C638.136 355.395 637.681 355.964 637.29 356.615C636.9 357.233 636.591 357.883 636.364 358.566V372.809C637.372 373.004 638.347 373.395 639.29 373.98V375.199H628.754V373.98C629.567 373.557 630.64 373.167 631.974 372.809V353.639L628.754 353.249V351.981C629.6 351.623 630.575 351.298 631.681 351.005C632.786 350.712 633.941 350.452 635.144 350.225H636.364V355.688H636.412C637.095 354.192 638.071 352.907 639.339 351.834C640.64 350.761 642.201 350.225 644.022 350.225C645.323 350.225 646.477 350.387 647.485 350.712C648.526 351.005 649.388 351.542 650.071 352.322C650.753 353.103 651.274 354.159 651.631 355.493C651.989 356.794 652.168 358.452 652.168 360.468V372.809C653.469 373.037 654.542 373.427 655.387 373.98V375.199ZM676.204 368.809C676.204 369.525 676.22 370.143 676.253 370.663C676.285 371.183 676.318 371.736 676.35 372.322L679.716 372.809V373.834C678.903 374.256 677.992 374.63 676.984 374.956C676.009 375.281 675.066 375.525 674.155 375.687H672.936C672.61 374.939 672.415 374.126 672.35 373.248C672.285 372.338 672.236 371.346 672.204 370.273H671.96C671.83 370.923 671.57 371.59 671.18 372.273C670.822 372.923 670.334 373.508 669.716 374.029C669.131 374.549 668.432 374.972 667.619 375.297C666.806 375.622 665.879 375.785 664.838 375.785C662.855 375.785 661.229 375.183 659.96 373.98C658.725 372.777 658.107 371.2 658.107 369.248C658.107 367.753 658.4 366.533 658.985 365.59C659.603 364.614 660.497 363.85 661.668 363.297C662.838 362.745 664.286 362.354 666.009 362.127C667.733 361.867 669.733 361.671 672.009 361.541C672.139 360.143 672.171 358.891 672.106 357.785C672.074 356.647 671.895 355.688 671.57 354.907C671.277 354.094 670.822 353.477 670.204 353.054C669.619 352.599 668.838 352.371 667.863 352.371C667.407 352.371 666.887 352.403 666.302 352.468C665.749 352.501 665.196 352.631 664.643 352.859L662.351 358.712H661.082C660.757 357.737 660.465 356.728 660.204 355.688C659.977 354.647 659.83 353.623 659.765 352.615C661.001 351.867 662.367 351.281 663.863 350.859C665.391 350.436 667.082 350.225 668.936 350.225C670.594 350.225 671.911 350.469 672.887 350.956C673.895 351.412 674.659 352.013 675.179 352.761C675.7 353.509 676.041 354.338 676.204 355.249C676.366 356.159 676.448 357.07 676.448 357.98C676.448 359.932 676.399 361.818 676.301 363.639C676.236 365.427 676.204 367.151 676.204 368.809ZM666.79 372.761C667.602 372.761 668.318 372.598 668.936 372.273C669.554 371.948 670.074 371.557 670.497 371.102C670.919 370.647 671.261 370.191 671.521 369.736C671.781 369.248 671.96 368.842 672.058 368.517V363.395C670.172 363.395 668.627 363.493 667.424 363.688C666.22 363.883 665.277 364.192 664.594 364.614C663.912 365.037 663.44 365.574 663.18 366.224C662.92 366.842 662.79 367.557 662.79 368.37C662.79 369.769 663.147 370.858 663.863 371.639C664.578 372.387 665.554 372.761 666.79 372.761ZM710.888 370.37C710.725 371.086 710.449 371.769 710.059 372.419C709.669 373.069 709.181 373.655 708.595 374.175C708.043 374.663 707.392 375.053 706.644 375.346C705.929 375.638 705.148 375.785 704.303 375.785C701.083 375.785 698.677 374.76 697.084 372.712C695.49 370.663 694.693 367.476 694.693 363.151C694.693 358.989 695.701 355.818 697.718 353.639C699.766 351.46 702.514 350.371 705.961 350.371C707.165 350.371 708.108 350.436 708.79 350.566C709.473 350.664 710.221 350.859 711.034 351.151V341.932L707.327 341.542V340.274C708.27 339.883 709.36 339.542 710.595 339.249C711.864 338.957 713.067 338.713 714.205 338.518H715.424V372.419L718.644 372.809V373.834C717.701 374.289 716.725 374.679 715.717 375.004C714.709 375.33 713.717 375.557 712.742 375.687H711.522L711.083 370.37H710.888ZM705.278 372.761C706.872 372.761 708.14 372.256 709.083 371.248C710.026 370.24 710.677 368.874 711.034 367.151V353.395C710.481 353.07 709.831 352.842 709.083 352.712C708.335 352.582 707.376 352.517 706.205 352.517C703.994 352.517 702.303 353.493 701.132 355.444C699.961 357.363 699.376 359.932 699.376 363.151C699.376 364.484 699.49 365.736 699.718 366.907C699.945 368.045 700.303 369.053 700.791 369.931C701.279 370.809 701.88 371.509 702.596 372.029C703.344 372.517 704.238 372.761 705.278 372.761ZM741.506 371.785C741.246 372.338 740.839 372.858 740.287 373.346C739.734 373.834 739.1 374.256 738.384 374.614C737.669 374.972 736.888 375.248 736.043 375.443C735.197 375.671 734.335 375.785 733.457 375.785C731.539 375.785 729.848 375.492 728.384 374.907C726.921 374.289 725.702 373.427 724.726 372.322C723.75 371.183 723.002 369.834 722.482 368.273C721.994 366.712 721.75 364.956 721.75 363.005C721.75 358.842 722.71 355.672 724.628 353.493C726.547 351.314 729.262 350.225 732.775 350.225C733.913 350.225 735.035 350.387 736.14 350.712C737.246 351.005 738.222 351.509 739.067 352.225C739.945 352.94 740.644 353.899 741.165 355.103C741.717 356.273 741.994 357.737 741.994 359.493C741.994 360.045 741.961 360.615 741.896 361.2C741.864 361.753 741.782 362.354 741.652 363.005H726.433C726.433 364.371 726.596 365.655 726.921 366.858C727.279 368.029 727.799 369.053 728.482 369.931C729.165 370.809 730.027 371.509 731.067 372.029C732.108 372.517 733.327 372.761 734.726 372.761C735.864 372.761 737.018 372.598 738.189 372.273C739.36 371.948 740.238 371.525 740.823 371.004L741.506 371.785ZM732.579 352.371C730.726 352.371 729.311 353.005 728.336 354.273C727.36 355.509 726.775 357.704 726.58 360.858H737.311C737.344 360.566 737.36 360.289 737.36 360.029C737.392 359.737 737.409 359.46 737.409 359.2C737.409 357.119 737.018 355.46 736.238 354.224C735.457 352.989 734.238 352.371 732.579 352.371ZM782.826 366.322H784.095C784.257 367.232 784.404 368.387 784.534 369.785C784.664 371.151 784.696 372.484 784.631 373.785C784.143 374.175 783.558 374.5 782.875 374.76C782.192 374.988 781.461 375.183 780.68 375.346C779.932 375.508 779.152 375.622 778.339 375.687C777.558 375.752 776.81 375.785 776.095 375.785C773.363 375.785 770.924 375.443 768.778 374.76C766.632 374.045 764.811 372.972 763.315 371.541C761.851 370.11 760.713 368.289 759.9 366.078C759.12 363.834 758.73 361.184 758.73 358.127C758.73 354.94 759.169 352.241 760.047 350.029C760.925 347.786 762.112 345.965 763.607 344.566C765.103 343.135 766.843 342.095 768.827 341.444C770.81 340.794 772.892 340.469 775.07 340.469C777.217 340.469 779.022 340.615 780.485 340.908C781.948 341.168 783.233 341.574 784.338 342.127C784.338 342.648 784.322 343.265 784.29 343.981C784.257 344.664 784.208 345.395 784.143 346.176C784.078 346.956 783.997 347.721 783.899 348.469C783.802 349.217 783.704 349.899 783.607 350.517H782.339L779.802 343.493C779.444 343.298 778.843 343.168 777.997 343.103C777.184 343.038 776.371 343.005 775.558 343.005C773.932 343.005 772.388 343.314 770.924 343.932C769.493 344.517 768.225 345.444 767.12 346.713C766.046 347.948 765.185 349.525 764.534 351.444C763.884 353.33 763.559 355.558 763.559 358.127C763.559 360.436 763.851 362.533 764.437 364.419C765.022 366.273 765.868 367.866 766.973 369.2C768.079 370.5 769.428 371.509 771.022 372.224C772.615 372.907 774.42 373.248 776.436 373.248C777.509 373.248 778.404 373.167 779.119 373.004C779.835 372.842 780.306 372.63 780.534 372.37L782.826 366.322ZM799.438 354.468C799.081 354.664 798.625 355.07 798.072 355.688C797.552 356.273 797.081 357.151 796.658 358.322V372.809C797.308 372.874 797.959 373.004 798.609 373.2C799.259 373.362 799.91 373.622 800.56 373.98V375.199H789.048V373.98C789.634 373.655 790.187 373.411 790.707 373.248C791.227 373.086 791.747 372.939 792.268 372.809V353.639L789.048 353.249V351.981C790.089 351.525 791.162 351.168 792.268 350.908C793.373 350.615 794.43 350.387 795.438 350.225H796.658V355.395H796.853C797.146 354.745 797.552 354.094 798.072 353.444C798.625 352.794 799.243 352.208 799.926 351.688C800.641 351.168 801.406 350.777 802.219 350.517C803.064 350.225 803.926 350.127 804.804 350.225C805.032 350.647 805.227 351.119 805.389 351.639C805.584 352.127 805.763 352.647 805.926 353.2V354.468H799.438ZM819.086 375.199H808.257V373.98C808.745 373.72 809.249 373.508 809.769 373.346C810.289 373.151 810.859 372.972 811.476 372.809V353.639L808.257 353.249V351.981C809.2 351.59 810.224 351.249 811.33 350.956C812.436 350.664 813.541 350.42 814.647 350.225H815.866V372.809C816.517 372.972 817.102 373.151 817.623 373.346C818.143 373.508 818.631 373.72 819.086 373.98V375.199ZM810.55 342.518C810.55 341.64 810.826 340.94 811.379 340.42C811.964 339.9 812.728 339.64 813.671 339.64C814.614 339.64 815.362 339.9 815.915 340.42C816.468 340.94 816.745 341.64 816.745 342.518C816.745 343.396 816.468 344.095 815.915 344.615C815.362 345.103 814.614 345.347 813.671 345.347C812.728 345.347 811.964 345.103 811.379 344.615C810.826 344.095 810.55 343.396 810.55 342.518ZM835.319 369.639C835.319 368.728 835.026 367.964 834.441 367.346C833.888 366.696 833.172 366.094 832.294 365.541C831.416 364.988 830.473 364.452 829.465 363.932C828.49 363.411 827.563 362.81 826.685 362.127C825.807 361.411 825.075 360.598 824.49 359.688C823.937 358.777 823.66 357.655 823.66 356.322C823.66 355.444 823.856 354.631 824.246 353.883C824.669 353.135 825.221 352.501 825.904 351.981C826.587 351.428 827.384 351.005 828.294 350.712C829.205 350.387 830.181 350.225 831.221 350.225C832.977 350.225 834.408 350.322 835.514 350.517C836.652 350.712 837.741 350.989 838.782 351.347C838.652 352.387 838.489 353.444 838.294 354.517C838.132 355.558 837.888 356.631 837.562 357.737H836.343L834.489 352.761C834.099 352.599 833.66 352.501 833.172 352.468C832.685 352.403 832.181 352.371 831.66 352.371C831.075 352.371 830.555 352.485 830.099 352.712C829.677 352.907 829.303 353.168 828.977 353.493C828.685 353.818 828.457 354.192 828.294 354.615C828.132 355.037 828.051 355.46 828.051 355.883C828.051 356.761 828.327 357.525 828.88 358.176C829.465 358.793 830.197 359.379 831.075 359.932C831.953 360.452 832.88 360.972 833.855 361.493C834.863 362.013 835.806 362.598 836.684 363.249C837.562 363.899 838.278 364.663 838.831 365.541C839.416 366.387 839.709 367.411 839.709 368.614C839.709 369.72 839.465 370.712 838.977 371.59C838.522 372.468 837.871 373.216 837.026 373.834C836.213 374.452 835.254 374.923 834.148 375.248C833.075 375.606 831.92 375.785 830.685 375.785C829.286 375.785 828.002 375.655 826.831 375.395C825.66 375.167 824.441 374.825 823.173 374.37C823.238 373.2 823.384 372.078 823.612 371.004C823.839 369.899 824.132 368.842 824.49 367.834H825.709L827.855 373.151C828.213 373.411 828.636 373.557 829.124 373.59C829.644 373.622 830.116 373.639 830.538 373.639C831.969 373.639 833.124 373.248 834.002 372.468C834.88 371.687 835.319 370.744 835.319 369.639ZM842.763 351.981C843.999 351.2 845.3 350.647 846.665 350.322V346.176C847.088 345.818 847.576 345.509 848.129 345.249C848.714 344.956 849.283 344.68 849.836 344.42H851.056V350.81H858.372V353.249H851.056V367.395C851.056 369.346 851.365 370.728 851.982 371.541C852.6 372.354 853.527 372.761 854.763 372.761C855.348 372.761 856.08 372.728 856.958 372.663C857.836 372.565 858.584 372.403 859.202 372.175L859.543 372.907C859.283 373.2 858.909 373.508 858.421 373.834C857.966 374.159 857.429 374.468 856.812 374.76C856.226 375.053 855.576 375.297 854.86 375.492C854.145 375.687 853.413 375.785 852.665 375.785C850.714 375.785 849.218 375.232 848.178 374.126C847.17 373.021 846.665 371.232 846.665 368.761V353.249H842.763V351.981ZM880.132 368.809C880.132 369.525 880.149 370.143 880.181 370.663C880.214 371.183 880.246 371.736 880.279 372.322L883.645 372.809V373.834C882.832 374.256 881.921 374.63 880.913 374.956C879.937 375.281 878.994 375.525 878.084 375.687H876.864C876.539 374.939 876.344 374.126 876.279 373.248C876.214 372.338 876.165 371.346 876.133 370.273H875.889C875.759 370.923 875.498 371.59 875.108 372.273C874.75 372.923 874.263 373.508 873.645 374.029C873.059 374.549 872.36 374.972 871.547 375.297C870.734 375.622 869.808 375.785 868.767 375.785C866.783 375.785 865.157 375.183 863.889 373.98C862.653 372.777 862.035 371.2 862.035 369.248C862.035 367.753 862.328 366.533 862.913 365.59C863.531 364.614 864.426 363.85 865.596 363.297C866.767 362.745 868.214 362.354 869.938 362.127C871.661 361.867 873.661 361.671 875.937 361.541C876.068 360.143 876.1 358.891 876.035 357.785C876.002 356.647 875.824 355.688 875.498 354.907C875.206 354.094 874.75 353.477 874.133 353.054C873.547 352.599 872.767 352.371 871.791 352.371C871.336 352.371 870.816 352.403 870.23 352.468C869.677 352.501 869.125 352.631 868.572 352.859L866.279 358.712H865.011C864.686 357.737 864.393 356.728 864.133 355.688C863.905 354.647 863.759 353.623 863.694 352.615C864.93 351.867 866.295 351.281 867.791 350.859C869.32 350.436 871.011 350.225 872.864 350.225C874.523 350.225 875.84 350.469 876.815 350.956C877.824 351.412 878.588 352.013 879.108 352.761C879.628 353.509 879.97 354.338 880.132 355.249C880.295 356.159 880.376 357.07 880.376 357.98C880.376 359.932 880.328 361.818 880.23 363.639C880.165 365.427 880.132 367.151 880.132 368.809ZM870.718 372.761C871.531 372.761 872.247 372.598 872.864 372.273C873.482 371.948 874.003 371.557 874.425 371.102C874.848 370.647 875.19 370.191 875.45 369.736C875.71 369.248 875.889 368.842 875.986 368.517V363.395C874.1 363.395 872.555 363.493 871.352 363.688C870.149 363.883 869.206 364.192 868.523 364.614C867.84 365.037 867.369 365.574 867.108 366.224C866.848 366.842 866.718 367.557 866.718 368.37C866.718 369.769 867.076 370.858 867.791 371.639C868.507 372.387 869.482 372.761 870.718 372.761ZM897.59 375.199H886.761V373.98C887.834 373.46 888.907 373.069 889.98 372.809V341.932L886.273 341.542V340.274C887.118 339.883 888.175 339.542 889.444 339.249C890.712 338.957 891.948 338.713 893.151 338.518H894.37V372.809C895.443 373.069 896.516 373.46 897.59 373.98V375.199Z" fill="#7E7E7E"/>
<path d="M117.5 36.9C121.366 36.9 124.5 34.3927 124.5 31.2999C124.5 28.2072 121.366 25.7 117.5 25.7C113.634 25.7 110.5 28.2072 110.5 31.2999C110.5 34.3927 113.634 36.9 117.5 36.9Z" fill="#CDB78E"/>
<path d="M337.699 283.6C341.565 283.6 344.699 281.093 344.699 278C344.699 274.907 341.565 272.4 337.699 272.4C333.833 272.4 330.699 274.907 330.699 278C330.699 281.093 333.833 283.6 337.699 283.6Z" fill="#CDB78E"/>
<path d="M31.0996 219.5C34.9656 219.5 38.0996 216.993 38.0996 213.9C38.0996 210.807 34.9656 208.3 31.0996 208.3C27.2336 208.3 24.0996 210.807 24.0996 213.9C24.0996 216.993 27.2336 219.5 31.0996 219.5Z" fill="#CDB78E"/>
<path d="M936.9 124.7C940.766 124.7 943.9 122.193 943.9 119.1C943.9 116.007 940.766 113.5 936.9 113.5C933.034 113.5 929.9 116.007 929.9 119.1C929.9 122.193 933.034 124.7 936.9 124.7Z" fill="#CDB78E"/>
<path d="M138.4 187.4C139.946 187.4 141.2 186.146 141.2 184.6C141.2 183.054 139.946 181.8 138.4 181.8C136.853 181.8 135.6 183.054 135.6 184.6C135.6 186.146 136.853 187.4 138.4 187.4Z" fill="#CDB78E"/>
<path d="M138.4 307.3C139.946 307.3 141.2 306.046 141.2 304.5C141.2 302.954 139.946 301.7 138.4 301.7C136.853 301.7 135.6 302.954 135.6 304.5C135.6 306.046 136.853 307.3 138.4 307.3Z" fill="#CDB78E"/>
<path d="M911.9 268.3C913.446 268.3 914.7 267.046 914.7 265.5C914.7 263.954 913.446 262.7 911.9 262.7C910.353 262.7 909.1 263.954 909.1 265.5C909.1 267.046 910.353 268.3 911.9 268.3Z" fill="#CDB78E"/>
<path d="M31.0988 115C32.6452 115 33.8988 113.746 33.8988 112.2C33.8988 110.654 32.6452 109.4 31.0988 109.4C29.5524 109.4 28.2988 110.654 28.2988 112.2C28.2988 113.746 29.5524 115 31.0988 115Z" fill="#CDB78E"/>
<path d="M396.2 106.6C397.747 106.6 399 105.346 399 103.8C399 102.254 397.747 101 396.2 101C394.654 101 393.4 102.254 393.4 103.8C393.4 105.346 394.654 106.6 396.2 106.6Z" fill="#CDB78E"/>
<path d="M773.9 206.9C775.446 206.9 776.7 205.646 776.7 204.1C776.7 202.554 775.446 201.3 773.9 201.3C772.353 201.3 771.1 202.554 771.1 204.1C771.1 205.646 772.353 206.9 773.9 206.9Z" fill="#CDB78E"/>
<path d="M699.999 68.9999C702.318 68.9999 704.199 67.1195 704.199 64.7999C704.199 62.4803 702.318 60.5999 699.999 60.5999C697.679 60.5999 695.799 62.4803 695.799 64.7999C695.799 67.1195 697.679 68.9999 699.999 68.9999Z" fill="#CDB78E"/>
<path d="M849.1 59.2001C851.42 59.2001 853.3 57.3196 853.3 55C853.3 52.6805 851.42 50.8 849.1 50.8C846.781 50.8 844.9 52.6805 844.9 55C844.9 57.3196 846.781 59.2001 849.1 59.2001Z" fill="#CDB78E"/>
<path d="M221.999 103.8C224.318 103.8 226.199 101.919 226.199 99.5999C226.199 97.2803 224.318 95.3999 221.999 95.3999C219.679 95.3999 217.799 97.2803 217.799 99.5999C217.799 101.919 219.679 103.8 221.999 103.8Z" fill="#CDB78E"/>
<path d="M464.499 177.7C466.818 177.7 468.699 175.82 468.699 173.5C468.699 171.18 466.818 169.3 464.499 169.3C462.179 169.3 460.299 171.18 460.299 173.5C460.299 175.82 462.179 177.7 464.499 177.7Z" fill="#CDB78E"/>
<path d="M665.2 208.3C667.52 208.3 669.4 206.42 669.4 204.1C669.4 201.78 667.52 199.9 665.2 199.9C662.88 199.9 661 201.78 661 204.1C661 206.42 662.88 208.3 665.2 208.3Z" fill="#CDB78E"/>
<path d="M932.8 202.8C935.119 202.8 937 200.92 937 198.6C937 196.28 935.119 194.4 932.8 194.4C930.48 194.4 928.6 196.28 928.6 198.6C928.6 200.92 930.48 202.8 932.8 202.8Z" fill="#CDB78E"/>
<path d="M869.399 135.9C870.559 135.9 871.499 134.96 871.499 133.8C871.499 132.64 870.559 131.7 869.399 131.7C868.239 131.7 867.299 132.64 867.299 133.8C867.299 134.96 868.239 135.9 869.399 135.9Z" fill="#CDB78E"/>
<path d="M224.1 304.5C225.26 304.5 226.2 303.56 226.2 302.4C226.2 301.24 225.26 300.3 224.1 300.3C222.94 300.3 222 301.24 222 302.4C222 303.56 222.94 304.5 224.1 304.5Z" fill="#CDB78E"/>
<path d="M572.5 163.7C573.66 163.7 574.6 162.76 574.6 161.6C574.6 160.44 573.66 159.5 572.5 159.5C571.341 159.5 570.4 160.44 570.4 161.6C570.4 162.76 571.341 163.7 572.5 163.7Z" fill="#CDB78E"/>
<path d="M771.799 92.7C772.959 92.7 773.899 91.7598 773.899 90.6C773.899 89.4402 772.959 88.5 771.799 88.5C770.639 88.5 769.699 89.4402 769.699 90.6C769.699 91.7598 770.639 92.7 771.799 92.7Z" fill="#CDB78E"/>
<path d="M330 162.3C331.16 162.3 332.1 161.36 332.1 160.2C332.1 159.04 331.16 158.1 330 158.1C328.841 158.1 327.9 159.04 327.9 160.2C327.9 161.36 328.841 162.3 330 162.3Z" fill="#CDB78E"/>
<path d="M534.899 234.8C536.059 234.8 536.999 233.86 536.999 232.7C536.999 231.54 536.059 230.6 534.899 230.6C533.739 230.6 532.799 231.54 532.799 232.7C532.799 233.86 533.739 234.8 534.899 234.8Z" fill="#CDB78E"/>
<path d="M674.899 133.1C677.219 133.1 679.099 131.22 679.099 128.9C679.099 126.58 677.219 124.7 674.899 124.7C672.58 124.7 670.699 126.58 670.699 128.9C670.699 131.22 672.58 133.1 674.899 133.1Z" fill="#CDB78E"/>
</svg>
