<svg width="968" height="412" viewBox="0 0 968 412" fill="none" xmlns="http://www.w3.org/2000/svg">
<path d="M894.1 282.9C894.1 283.1 893.9 283.3 893.7 283.3C889.5 284.3 884.5 284.7 878.8 284.6C877.8 284.6 876.4 284.4 874.4 283.9C872.4 283.5 871 283.2 870 283.2C868.9 283.2 867.9 283.4 867.2 283.8C866.4 284.2 865.2 284.4 863.5 284.6C861.7 284.7 860.6 284.6 860.1 284.4C859.6 284.2 859.4 284 859.4 283.9C859.4 283.8 859.8 283.3 860.5 282.6C861.2 281.9 861.6 281.2 861.6 280.7C861.6 280.2 861.9 279.6 862.6 278.8C863.3 278.1 863.6 277.4 863.6 276.9C863.6 276.5 863.3 275.9 862.6 275.3C861.9 274.7 861.6 274.2 861.6 273.9C861.9 273 862.3 271.5 862.7 269.5C862.2 266 861.2 262.2 859.8 258.2C858.5 254.9 857.8 252.8 857.5 251.9C856.5 249.5 855.5 248 854.6 247.4C854.2 247.1 853.7 247 852.9 247C852.2 247 851.2 247.2 849.9 247.6C848.2 248.2 847.1 248.5 846.6 248.5C844.5 248.6 841.4 248.3 837.4 247.5C836.3 247.3 832.7 247.5 826.6 248.3C826.6 248.2 826.7 248.2 826.9 248.2C824.6 247.7 822.3 247.9 819.8 248.7C818.5 249.3 816.5 249.6 813.7 249.6C810.9 249.6 809.2 249.9 808.4 250.5C807.7 251.1 807.4 252.5 807.4 254.6C807.5 257.3 807.4 258.9 807.3 259.3C806 262 804.6 266.2 803 271.7C802.9 272.7 803.5 274.2 804.8 276.4C806.1 278.6 806.7 280.1 806.7 281C806.7 282.6 806 283.4 804.5 283.4C804.4 283.4 803.4 283.2 801.4 283C800.1 282.8 799.2 282.9 798.6 283.2C798 283.5 797.1 283.6 795.7 283.3C794.1 282.9 793.1 282.7 792.7 282.7C792.3 282.8 787.1 283 777 283.5C774.7 283.5 773.6 283 773.6 281.9C773.6 280.9 775 279 777.9 276.1C779.9 273.9 781.3 272.4 782 271.7C783.4 269.9 784.5 268.2 785.2 266.6C785.4 266.1 785.3 265.3 784.8 264.3C784.3 263.3 784.1 262.4 784.2 261.8C784.2 261.7 785.8 258.3 789.1 251.6C789.3 251.6 789.7 251.1 790.4 250.2C790.8 249.6 790.8 249.1 790.5 248.7C789.5 247 788 246.5 786.1 247.3C785.4 247.6 783.4 249.1 780.1 251.7C777.5 253.8 775.5 254.8 774 254.7C772.8 254.5 772.2 253.6 772.2 252.2L773.3 245.9C773.5 245.5 773.9 244.8 774.5 243.7C775.2 242.6 775.5 241.7 775.5 241C775.5 240.5 775.3 239.8 774.9 238.8C774.5 237.9 774.2 237.2 774.1 236.8C774.3 235 774.1 232.5 773.8 229.3C773.3 228.9 772.7 228.2 771.9 227.2C771.8 225.9 772.6 225.2 774.1 225C775.6 224.9 776.8 225 777.6 225.6C778.9 226.6 781.4 228.4 785.1 230.8C787.3 232.1 789.7 232.7 792.2 232.7C793.7 232.7 794.8 232.3 795.7 231.4C796.6 230.5 797.4 226.9 798.2 220.4C798.6 219.4 799.1 218 799.6 216.2C800.3 214.7 801.3 212.3 802.4 208.9C801.8 208.2 801.7 207 802 205.5C802.2 205.1 803.1 203.2 804.7 200C805.8 197.9 807.3 194.8 809.1 190.5C809.5 188.8 810.2 186.5 811 183.5C811.9 182.5 812.9 180.9 814 179C814.2 177.6 814.5 175.5 815 172.7C815.7 171.7 816.6 170 817.4 167.7C817.3 167.6 817.2 167.4 817 167.4C818.3 165.3 819.9 162 821.9 157.7C823.4 152.5 825.5 145.7 828.3 137.1C828.5 135.2 829.1 132.6 830.2 129.2C831.5 126.3 832.5 124.8 833.2 124.8C833.6 124.8 834.6 126.5 836.4 129.8C837.5 131.9 838.1 134.1 838.1 136.2C838.1 137.1 838.2 137.8 838.4 138.4C839.3 139.8 840.4 142 841.7 144.9C842.6 146.5 843 148.6 843 151C843 153.6 843.1 155.5 843.4 156.6C844.5 158.5 846 161.6 848 165.9C848.7 168.9 849.7 173.5 851 179.6C851.7 181 852.7 183.3 853.9 186.4C854.4 188.7 855.4 192 856.9 196.2C857.9 197.4 859.2 199.2 860.8 201.7C861.2 204.1 862.1 207.6 863.3 212.1C864.3 213.2 865.4 215 866.6 217.5C866.6 219.9 867 223.4 867.7 228.2C869 232.4 870.2 234.5 871.5 234.5C872.7 234.5 875.7 234.2 880.6 233.5C882.8 233.2 884.7 231.6 886.4 228.6C887.5 226.5 888.7 225.5 889.9 225.5C890.8 225.5 891.2 226.2 891.2 227.7C890.8 231 890.9 235.3 891.5 240.4C892.2 242 892.5 243.5 892.4 244.9C892.2 246.2 891.9 247.6 891.6 249C891.6 249.7 891.8 250.7 892.2 252C892.6 253.3 892.8 254.1 892.8 254.5C892.8 255 892.5 255.3 892 255.4C891 255.6 889.7 255.1 888.2 253.9C886.4 252 885.3 250.9 884.8 250.7C883.8 250.1 882.6 249.4 881.4 248.7C880.2 248 879.2 247.6 878.4 247.6C876.8 247.6 876 248.7 876 251C876 252 876.7 254.3 878.1 258C878.7 259 879.5 260.5 880.5 262.6C880.1 263.3 879.8 264.3 879.5 265.6C880.1 266.3 881.1 267.7 882.7 270C884.3 272.3 886.7 275.8 890 280.8C890.6 281.1 891.3 281.4 892 281.7C893.5 281.9 894.1 282.4 894.1 282.9ZM849 230.7C849 230.3 848.8 229.6 848.4 228.4C848 227.3 847.8 226.3 847.9 225.6C848.1 224.1 847.6 221.8 846.5 218.6C846.4 218 844.7 214.1 841.5 206.9C840.7 205.3 839.6 202.8 838.2 199.6C838 198.6 837.8 197.2 837.7 195.3C837.6 193.4 837.4 191.9 837.1 191C836.7 190.5 836 189.9 835.1 189C834.9 188.8 834.6 187.9 834.1 186.2C833.7 184.9 833.2 184.3 832.9 184.3C832 184.3 831.3 185.6 830.7 188.1C830.4 189.9 830 191.7 829.6 193.3C828.6 194.6 827.5 196.7 826.2 199.6C825.8 201.1 825.4 203.3 824.8 206.4C824.1 208.2 823 210.7 821.6 214.1C821.5 215.8 820.8 218.3 819.7 221.6C819 222.4 818.1 223.5 816.9 225C814.9 228.4 813.9 230.2 813.9 230.5C813.9 231 814 231.4 814.3 231.7C814.6 232.1 815.8 232.2 818 232C821 231.8 822.7 231.7 822.9 231.7C827.3 232.1 829.2 232.3 828.7 232.3C829.8 232.3 831.9 232.9 834.9 234C835.4 234.4 836.4 234.3 837.7 233.9C839 233.5 839.9 233.3 840.2 233.6C841 234.1 842.1 234.4 843.4 234.4C844.5 234.4 845.7 234.1 847.1 233.4C848.3 232.7 849 231.8 849 230.7Z" fill="#B5605C"/>
<path d="M763.701 157.2C763.801 157.9 763.801 158.7 763.701 159.4C763.501 160.2 763.201 160.5 762.701 160.4C761.201 160.1 759.601 159.2 757.801 157.7C755.701 156.1 754.201 155.1 753.301 154.6C751.601 153.9 750.001 153.7 748.401 154.2C746.901 155.1 744.801 156.2 742.001 157.6C739.601 158 736.001 158.7 731.201 159.5C730.901 159.6 730.301 159.8 729.301 160.3C728.301 160.8 727.501 161 726.801 160.9C726.301 160.9 725.701 160.6 725.001 160C724.301 159.4 723.801 159.1 723.401 159.1C723.001 159.1 722.801 159.4 722.801 160C722.801 160.6 722.601 160.9 722.401 160.9C721.401 161.1 720.101 161.1 718.301 160.9C716.301 160.5 715.001 160.3 714.401 160.3C713.001 160.3 711.901 160.6 711.101 161.3C709.101 163 707.601 167 706.601 173.2C706.401 174.2 706.601 175.5 707.001 177.1C707.701 179 708.101 180.4 708.101 181.1C707.701 183.8 707.501 187.8 707.701 192.9C708.201 196 708.501 197.7 708.501 198C707.801 198.7 707.401 200.1 707.101 202.3C707.001 203.6 707.401 205.2 708.101 207.3C708.801 209.8 709.201 211.5 709.301 212.5L708.601 224.4L707.701 245C707.301 252.7 707.001 256.7 707.001 256.8C707.701 257.8 708.501 259.2 709.201 261.2C708.801 262.5 708.401 264.5 708.101 267.1C708.401 270 709.301 273.4 710.601 277.5C713.001 279.3 714.101 280.5 714.101 281.1C714.101 281.4 713.801 281.8 713.301 282.3C712.701 282.8 711.601 282.9 710.001 282.7C707.701 282.5 706.301 282.4 705.901 282.4C705.001 282.6 703.701 282.3 702.001 281.6C700.301 280.8 699.001 280.4 698.101 280.4C697.101 280.4 695.301 280.8 692.801 281.6C690.301 282.4 688.301 282.6 686.801 282.4C685.801 282.2 685.501 280.9 685.901 278.5C687.201 273.6 688.501 266.2 690.001 256.5C690.101 253.1 689.901 248.5 689.501 242.7C689.101 236.1 688.901 231.5 688.901 228.9C689.401 227.7 689.901 226.1 690.201 224C690.301 222.4 690.301 220.5 690.201 218.1C690.001 215.1 690.001 213.3 690.001 212.5V194.5C689.901 193.1 689.701 189.6 689.501 184.1C689.401 182.9 689.501 181.2 689.701 178.9C689.901 176.6 690.001 175 690.001 173.9C690.001 171.2 689.501 169.1 688.301 167.4C688.001 166.8 687.401 166.5 686.401 166.5C685.701 166.5 684.601 166.8 683.301 167.4C681.301 168.4 680.201 168.9 679.901 169.1C679.701 169.6 679.201 170.2 678.501 171C678.201 171 677.701 170.8 677.101 170.5C676.501 170.2 676.001 170 675.601 170C674.801 169.9 672.701 170.1 669.201 170.4C666.901 170.4 663.601 170.7 659.401 171.4C657.601 172.4 654.801 173.7 651.001 175.3C650.401 175 649.601 175 648.701 175.3C648.801 176.3 648.601 177.6 648.301 179.3C644.601 183.5 642.401 185.6 641.501 185.6C639.601 185.6 638.401 184 638.001 180.7C638.101 178.3 638.101 174.8 637.901 170.4C637.201 165.7 636.801 162.9 636.801 162C636.801 158.9 637.201 157.1 637.901 156.6C638.401 156.2 639.001 156 639.801 155.8C640.301 155.8 641.101 155.9 642.201 156C643.301 156.1 643.901 156.2 644.201 156.2C644.501 156.2 644.801 156.3 645.201 156.5C645.601 156.7 645.901 156.8 646.101 156.6C646.301 156.5 646.501 156.2 646.501 155.6C646.601 155 646.801 154.7 647.301 154.7C648.501 155.3 650.201 155.8 652.501 156.2C653.501 156.1 654.801 155.6 656.201 154.8C657.601 153.9 658.701 153.4 659.501 153.2C660.301 153.4 661.501 153.6 663.001 153.6C665.401 152.7 669.201 151.6 674.401 150.2C677.001 150.5 681.001 150.5 686.501 150.2C687.801 150 689.401 149.3 691.501 148.2C693.601 147.1 695.101 146.5 695.901 146.3C698.801 145.3 701.501 144.6 704.201 144.2C705.801 144.4 708.301 144.4 711.601 144.2C713.601 143.7 716.501 142.9 720.401 142C723.901 141.6 729.101 140.9 735.801 139.8C737.001 139.5 739.101 138.7 742.101 137.5C743.901 136 747.001 134.4 751.401 132.5C754.101 132.1 756.101 132.4 757.401 133.4C758.701 134.4 759.401 136.5 759.701 139.7C759.901 142.1 760.101 144.5 760.401 146.8C761.201 149.1 762.301 152.6 763.701 157.2Z" fill="#B5605C"/>
<path d="M628.9 207.099C629 208.499 627.7 209.699 625 210.699C621.6 211.999 619.8 212.699 619.6 212.899C617.8 214.199 615.6 216.099 613 218.499C612.6 219.199 612.5 222.099 612.9 227.499C612.9 228.499 613.1 230.499 613.4 233.599C613.6 236.199 613.7 238.399 613.7 239.899C613.7 242.599 613.4 244.999 612.9 246.899C611.6 250.699 611.7 254.899 613.1 259.599C613.5 260.399 613.6 261.799 613.5 263.699C613.4 265.699 613.5 266.999 613.8 267.899C614.5 270.099 615.5 271.799 616.7 273.099C618.3 274.499 620.6 276.899 623.5 280.299C624 280.999 624 281.599 623.5 281.899C623.2 281.999 622.6 282.099 621.7 281.999C619.5 282.299 616.2 282.299 611.9 281.999C608.6 281.599 605.9 281.399 603.5 281.699C600.9 281.799 597 282.199 591.8 282.699C586.4 283.399 584.1 282.899 584.8 281.199C585.7 279.499 586.9 277.999 588.4 276.799C590.6 275.199 592.1 273.899 592.9 272.799C594.2 270.999 595 268.999 595.6 266.799V260.499C595.6 260.099 595.5 258.099 595.4 254.299C595.2 251.099 595.2 248.499 595.4 246.599C595.5 243.899 595.8 241.899 596.4 240.699C597 239.499 597.3 238.599 597.3 237.999C597.3 237.699 597.1 237.099 596.6 236.199C596.1 235.299 595.8 234.299 595.6 233.199C595.3 230.999 595.2 228.699 595.2 226.199C595.2 225.699 595.4 224.399 595.6 222.299C596 220.599 596 219.299 595.6 218.299C595.2 216.699 594.3 215.499 592.7 214.799C591.1 214.099 589.5 213.499 588 212.899C585.9 211.899 584.6 211.299 584.2 211.099C582.5 210.099 581.4 208.999 580.9 207.799C580.7 207.299 581.6 206.499 583.7 205.499C585.3 204.999 587.3 203.899 589.7 202.199C591.7 200.499 593.7 198.499 595.9 196.099C596.1 195.499 596.2 194.899 596.2 194.299C596.2 193.899 596.1 192.899 595.9 191.499C595.7 190.099 595.6 188.999 595.6 188.099C595.6 186.699 595.8 185.399 596.3 184.299C597 182.999 596.8 180.599 595.9 176.999V167.299C596.2 165.799 596.1 163.699 595.7 160.799C594.6 158.699 594.6 156.599 595.7 154.299C595.9 153.899 596 153.499 596 152.999C596 152.299 595.7 151.299 595.1 150.199C594.4 148.399 593.9 147.399 593.8 146.999C593.5 145.899 592.8 144.299 591.8 142.099C590.3 140.499 588.1 137.999 585.5 134.599C585.3 134.299 585.3 133.899 585.5 133.499C585.7 133.099 586 132.799 586.5 132.699C588 132.399 589.7 132.199 591.5 131.899C593.2 131.699 594.8 131.899 596.3 132.699C599.1 133.999 602.1 134.399 605.3 133.699C607.7 133.099 611.2 132.899 615.9 133.099C616.6 133.299 617.7 133.099 619.2 132.699C620.7 132.299 621.7 131.999 622.2 131.999C623 131.999 623.6 132.299 624 132.999C624.5 133.999 623.9 135.699 622.1 137.899C620.7 139.399 619.3 140.999 618 142.699C616.7 143.699 615.2 145.399 613.4 147.599C612.7 149.199 612.4 150.699 612.4 152.099C612.4 152.599 612.5 153.399 612.7 154.399C612.9 155.399 613 156.199 613 156.699C613 157.799 612.7 158.899 612.2 159.899C611.8 160.899 611.9 161.999 612.6 163.199C613.3 164.299 613.5 165.899 613.3 167.899C613.2 169.799 613.1 171.699 612.9 173.399C612.9 178.299 613 181.699 613.2 183.499C613.4 184.799 613.2 186.499 612.9 188.499C612.6 190.999 612.5 192.699 612.5 193.599C612.5 194.399 612.6 195.299 612.8 196.099C613 196.999 613.7 197.799 615 198.399C617.1 199.399 618.2 199.999 618.2 200.099C619 200.799 620.3 201.799 622.1 203.099C622.4 203.299 623.9 203.999 626.6 205.199C628 205.899 628.9 206.499 628.9 207.099Z" fill="#B5605C"/>
<path d="M572.6 254.499C572.6 254.899 572.5 255.399 572.4 255.799C571.3 258.799 570.7 261.899 570.7 265.199C570.8 268.499 570.8 271.799 570.8 275.199C571 277.199 570.8 279.499 570.1 282.099C569.6 282.799 567.9 282.799 565.1 282.099C563.7 281.599 561.7 280.999 559.1 280.199C558.7 280.099 558 280.299 557.1 280.599C556.2 280.999 555.6 281.199 555.1 281.199C554.1 281.199 552.8 280.999 551.2 280.599C549.2 280.299 547.9 280.199 547.2 280.199C542.9 279.699 539.7 279.499 537.5 279.499C535 279.599 530.9 279.899 525.2 280.199C520 280.499 515.9 280.599 513 280.599C512.1 280.599 510.9 280.399 509.4 280.099C507.9 279.699 506.8 279.499 506 279.499C504.4 279.499 502.1 279.799 498.8 280.399C495.6 280.999 493.2 281.299 491.7 281.299C490 281.299 488.5 281.099 487.2 280.599C486.8 280.499 486.5 280.299 486.5 279.799C486.5 279.299 486.9 278.399 487.7 277.199C488.8 275.399 489.4 274.399 489.5 274.199C490.2 273.499 491.1 272.399 492.1 270.899C494 268.199 495 266.699 495.1 266.499C496.4 264.699 497.1 263.099 497.2 261.499C496.8 259.399 496.5 256.299 496.3 252.199C496.5 251.799 496.9 251.099 497.3 250.299C497.7 249.499 498 248.699 497.9 248.099C497.9 247.799 497.5 247.599 496.7 247.399C495.9 247.299 495.5 246.999 495.5 246.599C494.9 243.999 494.9 241.299 495.5 238.299C496.5 237.099 497.5 235.299 498.5 232.799C498.6 231.499 498.6 229.799 498.4 227.599C498.2 224.699 498 223.099 498 222.599C498.1 221.299 498.1 219.299 498 216.599C497.6 216.199 497 215.299 496.3 214.099C496.3 213.399 496.5 212.299 496.9 210.899C497.3 209.499 497.4 208.399 497.4 207.699C497.8 204.199 497.8 200.899 497.4 197.999C497.4 197.299 497.1 195.999 496.6 194.299C496.1 192.599 495.8 191.199 495.8 190.299C495.9 189.799 496.3 189.199 497 188.399C497.6 187.699 497.9 187.099 497.9 186.699C497.9 186.299 497.6 186.099 497 185.899C496.4 185.699 496 185.499 495.8 185.299C495.4 183.599 495.3 180.999 495.5 177.499C495.7 176.099 496 173.899 496.3 170.899C496.6 167.899 497 163.399 497.3 157.199C497.4 157.099 497.6 156.499 497.9 155.499C498.1 154.699 498.1 154.099 497.9 153.599C496.5 151.499 494.5 148.099 492 143.399C489.8 139.499 488.7 136.799 488.7 135.199C488.7 133.899 489.3 133.299 490.6 133.299C491.6 133.299 492.8 133.699 494.4 134.399C495.3 134.799 496.5 134.999 497.9 134.699C499.7 134.399 500.8 134.299 501.3 134.399C501.6 134.399 502 134.599 502.5 134.999C503 135.399 503.5 135.599 503.8 135.599C504.9 135.099 506.7 134.599 509.1 133.999C510.1 133.999 511.5 133.899 513.4 133.599C515.3 133.299 516.8 133.199 518 133.199C521.8 133.199 523.8 134.099 523.8 135.999C523.8 136.699 523 138.299 521.5 140.799C520 143.299 519 145.299 518.6 146.699C517.9 147.699 517 149.199 516.1 151.199C515.1 159.799 514.6 169.499 514.6 180.299C514.6 180.599 514.9 181.099 515.4 181.799C515.9 182.499 516.2 182.999 516.2 183.299C516.2 183.999 516 185.199 515.7 186.699C515.4 188.299 515.2 189.399 515.2 190.099C515.2 191.599 515.4 193.699 515.6 196.399C515.9 199.299 516.1 201.499 516.2 202.799C516.4 208.399 516.4 212.999 516.2 216.499C516.2 216.799 516 217.299 515.7 217.999C515.4 218.699 515.2 219.199 515.2 219.499C515.2 219.999 515.4 220.799 515.7 221.899C516 222.999 516.2 223.799 516.2 224.299C516.2 224.599 516 224.999 515.7 225.599C515.5 225.999 515.3 226.399 515.2 226.599C515.3 226.599 515.5 228.799 515.7 233.199C516 238.499 516.2 241.599 516.2 242.499C516.2 242.999 516 243.699 515.7 244.499C515.4 245.399 515.2 245.999 515.2 246.299C515.2 246.999 515.4 248.199 515.7 249.699C516 251.199 516.2 252.399 516.2 253.199C516.2 253.499 516 254.099 515.6 254.899C515.2 255.799 515.1 256.299 515.2 256.599C516 258.699 517.3 260.099 519.2 260.599C520.5 260.999 522.3 261.099 524.4 261.099C527.4 260.999 529 260.999 529.5 261.099C532.1 261.299 536 261.699 541.2 262.199C544.3 262.399 547.4 262.699 550.4 262.899C553.9 262.999 556.7 262.799 559 262.199C560 261.799 561.1 260.799 562.1 259.299C563.7 257.199 564.7 255.999 565 255.799C566.3 254.399 567.9 252.399 569.8 249.799C569.9 249.599 570 249.499 570.2 249.499C570.8 249.499 571.3 249.999 571.7 250.999C572.4 252.499 572.6 253.499 572.6 254.499Z" fill="#B5605C"/>
<path d="M478.9 282.9C478.9 283.1 478.8 283.3 478.5 283.3C474.3 284.3 469.3 284.7 463.6 284.6C462.6 284.6 461.2 284.4 459.2 283.9C457.2 283.5 455.8 283.2 454.8 283.2C453.7 283.2 452.8 283.4 452 283.8C451.2 284.2 450 284.4 448.3 284.6C446.5 284.7 445.4 284.6 444.9 284.4C444.4 284.2 444.2 284 444.2 283.9C444.2 283.8 444.6 283.3 445.3 282.6C446 281.9 446.4 281.2 446.4 280.7C446.4 280.2 446.7 279.6 447.4 278.8C448.1 278.1 448.4 277.4 448.4 276.9C448.4 276.5 448.1 275.9 447.4 275.3C446.7 274.7 446.4 274.2 446.4 273.9C446.7 273 447.1 271.5 447.5 269.5C447 266 446 262.2 444.6 258.2C443.3 254.9 442.6 252.8 442.3 251.9C441.3 249.5 440.3 248 439.4 247.4C439 247.1 438.5 247 437.7 247C437 247 436 247.2 434.7 247.6C433 248.2 431.9 248.5 431.4 248.5C429.3 248.6 426.2 248.3 422.2 247.5C421.1 247.3 417.5 247.5 411.4 248.3C411.4 248.2 411.5 248.2 411.7 248.2C409.4 247.7 407.1 247.9 404.6 248.7C403.3 249.3 401.3 249.6 398.5 249.6C395.7 249.6 393.9 249.9 393.2 250.5C392.5 251.1 392.1 252.5 392.1 254.6C392.2 257.3 392.1 258.9 392 259.3C390.7 262 389.3 266.2 387.7 271.7C387.6 272.7 388.2 274.2 389.5 276.4C390.8 278.6 391.4 280.1 391.4 281C391.4 282.6 390.7 283.4 389.2 283.4C389.1 283.4 388.1 283.2 386.1 283C384.8 282.8 383.9 282.9 383.3 283.2C382.7 283.6 381.8 283.6 380.4 283.3C378.8 282.9 377.8 282.7 377.4 282.7C377 282.8 371.8 283 361.7 283.5C359.4 283.5 358.3 283 358.3 281.9C358.3 280.9 359.7 279 362.6 276.1C364.6 273.9 366 272.4 366.7 271.7C368.1 269.9 369.2 268.2 369.9 266.6C370.1 266.1 370 265.3 369.5 264.3C369 263.3 368.8 262.4 368.9 261.8C368.9 261.7 370.5 258.3 373.8 251.6C373.9 251.6 374.4 251.1 375.1 250.2C375.5 249.6 375.5 249.1 375.2 248.7C374.2 247 372.7 246.5 370.8 247.3C370.1 247.6 368.1 249.1 364.8 251.7C362.2 253.8 360.2 254.8 358.7 254.7C357.5 254.5 356.9 253.6 356.9 252.2L358 245.9C358.1 245.5 358.6 244.8 359.2 243.7C359.9 242.6 360.2 241.7 360.2 241C360.2 240.5 360 239.8 359.6 238.8C359.2 237.9 358.9 237.2 358.8 236.8C358.9 235 358.8 232.5 358.5 229.3C358 228.9 357.4 228.2 356.6 227.2C356.5 225.9 357.3 225.2 358.8 225C360.3 224.9 361.4 225 362.3 225.6C363.6 226.6 366.1 228.4 369.8 230.8C372 232.1 374.4 232.7 376.9 232.7C378.4 232.7 379.6 232.3 380.4 231.4C381.3 230.5 382.1 226.9 383 220.4C383.4 219.4 383.9 218 384.4 216.2C385.1 214.7 386.1 212.3 387.2 208.9C386.6 208.2 386.5 207 386.8 205.5C387 205.1 387.9 203.2 389.5 200C390.6 197.9 392.1 194.8 393.9 190.5C394.3 188.8 395 186.5 395.8 183.5C396.7 182.5 397.7 180.9 398.8 179C398.9 177.6 399.3 175.5 399.8 172.7C400.5 171.7 401.4 170 402.2 167.7C402.1 167.6 402 167.4 401.8 167.4C403.1 165.3 404.7 162 406.7 157.7C408.2 152.5 410.3 145.7 413.1 137.1C413.3 135.2 414 132.6 415 129.2C416.3 126.3 417.3 124.8 418 124.8C418.4 124.8 419.4 126.5 421.2 129.8C422.3 131.9 422.9 134.1 422.9 136.2C422.9 137.1 423 137.8 423.2 138.4C424.1 139.8 425.2 142 426.5 144.9C427.4 146.5 427.8 148.6 427.8 151C427.8 153.6 427.9 155.5 428.2 156.6C429.3 158.5 430.9 161.6 432.8 165.9C433.5 168.9 434.5 173.5 435.8 179.6C436.5 181 437.5 183.3 438.7 186.4C439.2 188.7 440.2 192 441.7 196.2C442.7 197.4 444 199.2 445.6 201.7C446.1 204.1 446.9 207.6 448.2 212.1C449.1 213.2 450.3 215 451.5 217.5C451.5 219.9 451.9 223.4 452.6 228.2C453.9 232.4 455.1 234.5 456.4 234.5C457.6 234.5 460.6 234.2 465.5 233.5C467.7 233.2 469.6 231.6 471.3 228.6C472.4 226.5 473.6 225.5 474.8 225.5C475.7 225.5 476.1 226.2 476.1 227.7C475.7 231 475.8 235.3 476.4 240.4C477.1 242 477.4 243.5 477.3 244.9C477.1 246.2 476.8 247.6 476.5 249C476.5 249.7 476.7 250.7 477.1 252C477.5 253.3 477.7 254.1 477.7 254.5C477.7 255 477.4 255.3 476.9 255.4C475.9 255.6 474.6 255.1 473.1 253.9C471.3 252 470.2 250.9 469.7 250.7C468.7 250.1 467.6 249.4 466.3 248.7C465.1 248 464.1 247.6 463.3 247.6C461.7 247.6 460.9 248.7 460.9 251C460.9 252 461.6 254.3 463 258C463.6 259 464.4 260.5 465.4 262.6C465 263.3 464.7 264.3 464.4 265.6C465 266.3 466 267.7 467.6 270C469.1 272.3 471.6 275.8 475 280.8C475.6 281.1 476.3 281.4 477 281.7C478.3 281.9 478.9 282.4 478.9 282.9ZM433.7 230.7C433.7 230.3 433.5 229.6 433.1 228.4C432.7 227.3 432.5 226.3 432.6 225.6C432.7 224.1 432.3 221.8 431.2 218.6C431.1 218 429.4 214.1 426.2 206.9C425.4 205.3 424.3 202.8 422.9 199.6C422.7 198.6 422.5 197.2 422.4 195.3C422.3 193.4 422.1 191.9 421.8 191C421.4 190.5 420.7 189.9 419.8 189C419.7 188.8 419.3 187.9 418.8 186.2C418.4 184.9 417.9 184.3 417.6 184.3C416.7 184.3 416 185.6 415.4 188.1C415.1 189.9 414.7 191.7 414.3 193.3C413.3 194.6 412.2 196.7 410.9 199.6C410.5 201.1 410 203.3 409.5 206.4C408.8 208.2 407.7 210.7 406.3 214.1C406.2 215.8 405.5 218.3 404.4 221.6C403.7 222.4 402.8 223.5 401.6 225C399.6 228.4 398.6 230.2 398.6 230.5C398.6 231 398.7 231.4 399 231.7C399.3 232.1 400.5 232.2 402.7 232C405.7 231.8 407.3 231.7 407.6 231.7C412 232.1 413.9 232.3 413.4 232.3C414.5 232.3 416.6 232.9 419.6 234C420.1 234.4 421.1 234.3 422.4 233.9C423.8 233.5 424.6 233.3 424.9 233.6C425.7 234.1 426.8 234.4 428.1 234.4C429.2 234.4 430.4 234.1 431.8 233.4C433.1 232.7 433.7 231.8 433.7 230.7Z" fill="#B5605C"/>
<path d="M347.501 214.199L348.901 218.799C348.401 219.499 347.501 220.399 346.401 221.599C343.401 223.499 339.001 226.499 333.201 230.499C330.001 233.999 325.001 238.899 318.401 245.299C317.401 245.799 316.201 246.599 314.701 247.699C313.201 248.799 311.101 250.299 308.601 252.099C308.201 252.299 307.501 252.699 306.701 253.199C305.801 253.699 303.901 255.299 300.801 258.099C298.901 258.899 296.401 260.499 293.401 262.999C292.001 264.499 290.001 266.799 287.501 269.999C287.201 270.799 286.501 271.999 285.501 273.399C283.801 273.899 281.501 274.899 278.501 276.399C275.001 278.399 272.601 280.099 271.201 281.599C270.201 282.899 269.301 284.099 268.401 285.399C267.301 286.699 266.301 287.099 265.301 286.599C264.301 286.299 264.001 285.399 264.201 283.999C264.601 281.499 264.801 280.199 264.901 280.199V273.799C264.901 272.099 265.201 269.399 265.801 265.799C266.401 262.199 266.701 259.399 266.701 257.599C266.701 255.099 266.501 252.699 266.001 250.299C265.601 247.399 265.301 244.999 265.201 243.299C265.201 242.799 265.501 240.999 266.201 237.999V229.199L266.601 220.799C265.901 218.099 265.001 213.799 264.101 207.999C264.001 206.899 264.301 205.099 265.001 202.599C265.701 200.099 265.901 198.099 265.701 196.699C265.601 195.699 265.101 194.599 264.301 193.399L262.301 190.399C261.301 188.299 260.701 187.099 260.701 186.499C260.701 185.699 261.001 184.799 261.601 183.999C262.301 183.999 263.501 183.799 265.101 183.599C266.701 183.299 267.901 183.199 268.601 183.199C269.901 183.199 271.001 183.499 272.101 184.099C272.601 183.699 273.201 183.199 273.801 182.699C274.401 182.199 274.901 181.999 275.301 182.299C276.001 182.399 277.301 182.799 279.201 183.499C281.001 184.099 282.401 184.399 283.401 184.399C284.701 184.399 285.801 183.999 286.701 183.299C287.201 183.399 287.901 183.899 288.701 184.599C288.301 186.699 287.601 189.799 286.701 193.899C286.601 194.599 285.701 196.399 284.201 199.299C283.001 201.599 282.601 203.399 282.801 204.699L284.201 216.999L283.201 221.899C284.301 228.099 284.901 231.399 284.901 231.799C284.901 232.299 284.601 232.999 284.101 233.699C283.601 234.499 283.301 235.099 283.301 235.599L285.001 240.899C285.101 241.599 285.101 242.599 285.001 243.899C284.601 245.399 284.301 246.299 284.301 246.699C284.301 247.999 285.001 248.699 286.301 248.699C288.001 248.699 289.801 247.199 291.801 244.199C292.801 242.499 293.901 240.699 295.101 238.899C295.601 237.899 297.001 237.199 299.201 236.699C301.501 236.199 302.801 235.599 303.301 234.799L310.301 226.399L316.301 223.099C318.101 222.199 319.801 221.299 321.401 220.399C323.001 219.499 323.801 218.099 323.601 216.099L317.201 210.699L313.001 203.799C312.501 202.299 311.701 200.399 310.301 197.899C309.901 197.399 309.001 196.999 307.801 196.799C306.601 196.599 305.701 196.199 305.201 195.799C304.701 195.399 302.501 192.399 298.701 187.099C298.001 185.999 297.001 184.499 295.501 182.699C293.701 181.399 292.401 180.299 291.701 179.599C290.701 178.199 289.701 176.799 288.801 175.399C287.901 173.999 286.201 172.299 283.701 170.199C281.001 167.799 279.201 165.999 278.301 164.999C277.801 163.999 277.001 162.399 275.901 160.499C275.701 160.099 273.901 158.699 270.501 156.199C269.001 154.899 267.601 153.799 266.301 152.799C264.301 151.499 262.701 150.699 261.301 150.599H257.301C256.001 150.399 255.101 149.599 254.601 148.299C254.401 147.599 255.001 146.799 256.501 145.999C258.001 145.199 258.901 144.699 259.201 144.299C259.501 143.299 260.101 141.799 261.101 139.999C262.401 139.099 264.201 137.799 266.601 136.099C267.401 134.499 268.901 132.599 271.001 130.099C271.701 129.699 272.401 128.699 273.001 127.099C273.401 126.099 274.101 125.499 274.901 125.499C276.101 125.699 277.201 126.499 278.201 127.999C278.801 129.599 279.601 130.999 280.501 132.499C281.401 133.899 282.301 135.899 283.201 138.399C283.601 139.999 284.601 142.499 286.001 145.799C287.301 148.199 289.301 150.199 291.801 151.999C292.801 152.199 294.001 152.499 295.601 152.999C296.601 154.699 298.101 157.099 300.201 160.099C302.301 163.199 305.501 167.199 309.801 172.299C311.101 173.599 313.001 175.699 315.301 178.499C315.801 178.899 316.601 179.299 317.701 179.899C318.401 180.899 319.301 182.199 320.601 183.999C322.301 185.699 324.601 188.299 327.601 191.799C327.801 192.799 328.301 194.099 329.001 195.799C330.301 196.799 332.101 198.499 334.501 200.699C334.901 201.699 335.601 202.999 336.801 204.599C337.501 204.799 338.601 205.099 339.901 205.599C340.201 206.099 340.301 207.099 340.301 208.499C340.301 209.899 340.601 210.799 341.301 210.999L347.501 214.199Z" fill="#B5605C"/>
<path d="M235.3 216.599L246.7 215.899C246.1 216.699 245.4 217.499 244.4 218.499C242.5 220.399 241.3 221.799 241 222.799C239.5 225.499 237.9 229.499 236.1 234.899C236.1 235.899 236 237.199 235.7 238.799C233.8 239.899 231.6 241.899 229.1 244.699C228.6 246.299 228.1 248.599 227.7 251.699C227.3 254.699 226.8 256.899 226.2 258.299C225.5 258.499 224.7 258.899 223.8 259.399C221.7 261.399 219.9 264.399 218.5 268.599C216.5 274.399 215.4 277.699 215.1 278.499C213.8 279.499 212.3 281.099 210.6 283.499C210.4 284.099 210.7 284.899 211.4 285.899C212.1 286.899 212.3 287.799 212.1 288.299C211.7 289.199 210.8 290.199 209.3 291.199C207.8 292.299 206.8 293.099 206.4 293.699C206 294.299 205.5 296.299 205 299.499C204.7 301.299 204.1 302.399 203.2 302.699L201.5 257.299C201.6 257.399 201.6 257.499 201.7 257.699C201.8 258.099 201.9 258.199 202.1 258.199C202.2 258.199 202.6 256.799 203.4 253.999C204 252.299 205.2 249.999 206.9 246.999C207.4 246.899 208 246.599 208.7 245.999C208.5 244.799 208.5 243.299 208.7 241.499C209.1 240.599 210 239.899 211.6 239.399C213.2 238.899 214.2 237.999 214.6 236.599C214.3 235.899 214.1 234.699 213.9 233.199C214.6 230.799 216 227.699 218 223.899V223.799L231.3 224.599L235.3 216.599Z" fill="#B5605C"/>
<path d="M246.101 209.199L224.601 211.499C225.001 209.399 225.001 207.399 224.601 205.499C223.401 205.199 222.001 204.599 220.401 203.599C220.401 201.999 220.001 199.699 219.301 196.599C217.801 193.999 215.301 189.399 211.701 182.899C210.701 180.699 208.901 177.599 206.501 173.499C205.401 172.199 203.401 170.799 200.301 169.099L204.801 124.199C204.901 124.299 205.101 124.299 205.201 124.399C207.101 125.299 208.501 127.099 209.501 129.799C209.701 130.699 209.801 132.199 209.701 134.199C209.601 136.199 209.701 137.599 210.001 138.399C210.601 139.899 211.801 141.599 213.501 143.499C215.501 145.699 216.701 147.299 217.101 148.299C217.901 150.399 219.201 153.499 220.901 157.399C222.801 159.899 225.401 163.999 228.501 169.699C228.901 171.599 229.801 174.499 231.201 178.199C232.501 179.999 234.301 182.799 236.601 186.599C237.301 188.899 238.501 192.399 239.901 196.999C241.301 199.799 243.401 203.799 246.101 209.199Z" fill="#B5605C"/>
<path d="M204.8 124.299L200.3 169.199C200.2 169.099 200 168.999 199.9 168.999C199.8 168.899 199.6 169.599 199.4 170.899C199.1 172.199 198.3 174.399 197.1 177.299C195.5 179.099 193.2 181.799 190.3 185.499C190.3 186.599 188.9 189.299 186.2 193.699V194.699C185.3 196.399 184.1 198.899 182.7 202.199C181.3 204.299 180 206.899 178.7 209.999C178.7 210.199 178.7 210.399 178.7 210.599L159.9 206.799C160.2 206.199 160.5 205.599 160.9 204.899C162.4 202.999 163.4 201.799 163.7 201.399C164.7 198.999 166.2 195.499 168.2 190.999C168.9 190.199 169.8 188.999 170.8 187.299C171.3 184.599 172.5 180.499 174.3 175.199C175.6 173.899 177.2 171.699 179.4 168.699C180.2 166.599 181.4 163.599 183 159.599C184.4 156.099 186.6 150.999 189.6 144.299C190.1 143.199 191 141.699 192.3 139.699C193 138.099 194.2 135.399 195.9 131.499C196.6 130.199 198 128.299 199.9 125.699C201.6 124.299 203.3 123.799 204.8 124.299Z" fill="#C2B4B3"/>
<path d="M201.401 257.2L203.101 302.6C202.901 302.7 202.601 302.7 202.301 302.7C201.001 302.7 200.201 301.5 199.901 299.1C199.401 295.5 199.001 293.5 198.901 293.1C198.701 292.7 196.901 289.8 193.401 284.3C192.501 283.3 191.401 281.7 190.101 279.5C189.501 277.4 188.401 274.5 186.801 270.8C186.301 270.7 185.601 270.3 184.701 269.7C184.801 268.7 183.801 265.8 181.801 261.1C181.601 259.7 181.001 257.8 180.101 255.5C179.101 254.6 177.701 252.8 175.901 250.2C175.101 247 173.501 242.5 171.101 236.5C169.501 234.8 167.301 232.1 164.501 228.3C162.501 225.2 160.901 222.6 159.801 220.4L180.901 217.3C181.701 218.8 182.101 220.1 182.201 221C182.501 223.8 183.801 227.1 186.201 230.7C187.601 232 189.501 234.2 192.001 237.2C193.001 240.3 194.601 244.8 197.101 250.8C198.301 251.8 199.801 254 201.401 257.2Z" fill="#C2B4B3"/>
<path d="M147.3 254.3C147.3 254.6 147.3 254.9 147.2 255.2C146.4 256.8 145.5 257.7 144.5 258.1C143.5 258.5 142.5 258.8 141.3 259.2C139.8 259.6 138 260.6 135.9 262.2C133.2 264 131.1 265.3 129.7 266C123.5 269 118.5 272.4 114.8 276.1C113.5 277.4 110.9 278.4 107 279.1C103.8 279.6 101.6 280.7 100.6 282.3C100.2 283 99.4004 283.4 98.4004 283.5C97.4004 283.6 96.7004 283.7 96.4004 284C94.8004 285 93.7004 287.2 93.1004 290.5C92.4004 294.1 91.5004 296.5 90.4004 297.6C89.9004 298.1 89.4004 298.4 89.0004 298.4C88.5004 298.4 87.9004 297.7 87.3004 296.4C86.7004 295 86.1004 293.7 85.6004 292.5C85.6004 292.4 85.0004 291.4 83.8004 289.5C83.1004 288.5 82.7004 287.5 82.7004 286.5C82.7004 285.9 82.9004 285.1 83.2004 284C83.5004 282.9 83.7004 282.2 83.7004 281.8C83.7004 281.1 82.2004 279.6 79.0004 277.4C76.5004 275.4 75.1004 274.3 74.9004 274.1C73.3004 272.8 72.4004 271.3 71.9004 269.7C71.6004 268.7 70.2004 268.1 67.7004 267.9C65.2004 267.7 63.9004 267.3 63.9004 266.7C63.9004 266.6 63.9004 266.4 64.0004 266.1C65.5004 263.4 67.8004 262 71.0004 262C72.2004 262 74.2004 262.3 77.1004 262.8C80.0004 263.3 82.2004 263.6 83.7004 263.6C86.9004 263.6 89.7004 262.7 91.9004 260.8C92.9004 260.1 94.2004 259.6 95.7004 259.4C97.2004 259.2 98.8004 259 100.6 258.8C102.3 258.6 104.8 257.1 108 254.3C111.2 251.5 114.4 249.9 117.7 249.6C118.5 249.5 118.9 249.2 118.9 248.5C118.9 247.8 118.3 246.6 117 244.7C115.7 242.8 115 241.5 114.8 240.8C114.1 240.5 113.3 239.9 112.5 239.1C112.4 239 112.5 238.7 112.7 238.3C112.9 237.9 113 237.6 113 237.4C113 236.9 112.6 236.5 111.8 236.3C111 236.1 110.2 235.2 109.5 233.5C108.8 231.5 108 230.2 107.3 229.6C106.6 229 105.5 227 104 223.5C103 221 102.1 217 98.2004 215.7C95.6004 211.8 91.2004 205.2 91.2004 204.7C91.2004 203.6 90.5004 202.5 89.2004 201.4C87.9004 200.3 87.3004 199.6 87.6004 199.1C87.9004 198.7 87.8004 198.2 87.6004 197.9C83.6004 193.3 81.1004 190.3 80.2004 189.2C77.8004 186.1 75.7004 182.6 73.9004 178.7C73.4004 178.6 72.7004 178.2 72.0004 177.5C71.8004 176.8 71.0004 175.2 69.3004 173C68.0004 171.1 67.4004 169.5 67.4004 168.1C67.4004 166.6 68.2004 165.3 69.8004 164C70.1004 163.8 70.5004 163.7 70.9004 163.7C71.3004 163.7 71.8004 163.8 72.5004 164.1C73.2004 164.4 73.7004 164.5 74.1004 164.5C74.8004 164.5 75.3004 164.1 75.8004 163.3C75.8004 163 76.4004 162.4 77.6004 161.6C78.8004 160.7 79.5004 160.3 79.7004 160.3C81.2004 160.8 82.6004 160.5 83.9004 159.6C86.0004 158.5 88.6004 156.6 91.5004 154C94.0004 151.8 96.5004 150.1 99.0004 148.8C100.5 148.1 102.7 147.6 105.4 147.5C107.6 147.3 109.4 146.4 110.8 145C112.2 143.6 114.7 142.2 118.3 140.9C120.9 140 122.5 138.3 123.3 135.8C123.6 134.8 123.7 132.3 123.7 128.5C123.9 125.6 124.7 124.3 126.1 124.7C128.2 125.2 129.5 126.8 130 129.6C130.5 132.3 131 135.1 131.4 137.9C131.9 139.9 133 141.2 134.7 141.8C136 142.4 137.1 143.4 138.1 144.9C139.1 146.4 139.7 148 139.8 149.8C139.9 151.5 141.1 153.1 143.3 154.5C145.6 155.9 146.7 157.4 146.8 159.1C146.9 160.4 146.9 161 146.8 161C146 161 143.9 160.8 140.5 160.3C137.7 160 135.3 159.9 133.3 159.9C130.4 159.9 127.7 160.3 125.5 161C121 162.5 118.2 163.6 117 164.1C114.4 165.4 112 167.3 109.6 170C108.9 170.7 107.2 171.1 104.7 171.1C103.1 171.1 102.2 171.4 101.7 171.9C100.8 173 99.9004 174.2 98.9004 175.4C98.6004 175.8 98.5004 176.4 98.5004 177.1C98.5004 178.6 100.2 181 103.6 184.3C107.6 188.2 109.9 190.9 110.6 192.5C111.2 194.9 113 198.9 115.9 204.4C116 204.5 127.8 220.9 128.8 223.4C129.4 224.9 130.2 227.4 133 230.5C136.5 233.8 138.5 236.4 139.1 238.1C139.3 240.2 140.3 243.3 142 247.3C142.7 248.2 143.9 249.6 145.6 251.6C146.8 252.7 147.3 253.7 147.3 254.3Z" fill="#C2B4B3"/>
<path d="M204.801 124.1V124.3" stroke="#7E7E7E" stroke-width="0.6981" stroke-miterlimit="10"/>
<path d="M214.5 208.399C215.2 210.199 215.5 211.899 215.5 213.399L211.4 213.699L204 214.699L199.4 215.199L202.6 191.399C202.7 191.399 202.8 191.399 202.9 191.499C205.3 192.299 208.3 196.299 211.8 203.499C212.8 205.199 213.7 206.799 214.5 208.399Z" fill="#B5605C"/>
<path d="M211.1 214.899L209.3 223.399C208.6 224.999 207.6 226.799 206.5 228.899C204.4 231.699 202.9 233.399 202 233.799L199.4 215.499V215.399L203.9 214.899H203.7H211.1Z" fill="#B5605C"/>
<path d="M202.6 191.499L199.4 215.299L196.9 197.599C197.8 196.199 198.9 194.699 200.2 193.099C201.1 191.999 201.9 191.399 202.6 191.499Z" fill="#C2B4B3"/>
<path d="M199.401 215.399L202.001 233.699C201.801 233.799 201.601 233.899 201.501 233.799C201.001 233.699 200.501 233.399 200.001 232.999L199.301 215.999L199.401 215.399Z" fill="#C2B4B3"/>
<path d="M199.4 215.399L199.3 216.099L200 233.099C199.3 232.499 198.6 231.599 197.9 230.399C197 228.699 196.1 227.099 195.1 225.499C194.1 223.299 192.2 220.299 189.6 216.499C189.6 216.499 189.6 216.499 189.5 216.499L197.3 215.599L199.2 215.399H199.4Z" fill="#C2B4B3"/>
<path d="M196.8 197.6L199.3 215.3L197.4 215.5L192.5 206.6C193.4 205 194.3 203.2 195 201C195.5 199.9 196.1 198.8 196.8 197.6Z" fill="#C2B4B3"/>
<path d="M192.6 206.499L197.5 215.399L187.9 212.199C188.3 211.499 188.8 210.899 189.6 210.299C190.7 209.399 191.4 208.599 191.7 207.899C192 207.499 192.3 206.999 192.6 206.499Z" fill="#C2B4B3"/>
<path d="M76.7323 375.199H65.9033V373.785C67.074 373.264 68.2447 372.874 69.4154 372.614L81.7565 340.469H83.1711L95.5122 372.614C96.1626 372.744 96.7967 372.89 97.4146 373.053C98.0649 373.216 98.6665 373.459 99.2194 373.785V375.199H86.732V373.785C87.3823 373.524 88.049 373.297 88.7319 373.102C89.4148 372.907 90.0814 372.744 90.7318 372.614L87.4149 363.687H75.7567L72.5373 372.614C73.9031 372.809 75.3014 373.199 76.7323 373.785V375.199ZM76.7323 361.151H86.5856L82.7321 350.81L81.8053 346.615H81.7077L80.4882 350.907L76.7323 361.151ZM112.059 341.054H124.449V342.469C123.864 342.729 123.262 342.973 122.644 343.2C122.026 343.395 121.392 343.558 120.742 343.688V371.004C120.742 373.281 120.482 375.15 119.962 376.614C119.441 378.077 118.791 379.248 118.01 380.126C117.262 381.036 116.449 381.703 115.571 382.126C114.726 382.549 113.945 382.841 113.23 383.004L112.693 382.272C113.181 381.849 113.62 381.362 114.01 380.809C114.433 380.288 114.791 379.622 115.084 378.809C115.409 377.996 115.653 377.004 115.815 375.833C115.978 374.663 116.059 373.232 116.059 371.541V343.688C115.344 343.525 114.645 343.347 113.962 343.151C113.279 342.956 112.645 342.729 112.059 342.469V341.054ZM128.782 363.004C128.782 360.956 129.042 359.151 129.562 357.59C130.115 355.997 130.895 354.663 131.904 353.59C132.912 352.484 134.115 351.655 135.513 351.102C136.944 350.517 138.521 350.224 140.245 350.224C142.261 350.224 144.001 350.533 145.464 351.151C146.928 351.769 148.114 352.647 149.025 353.785C149.968 354.891 150.651 356.224 151.074 357.785C151.529 359.346 151.757 361.086 151.757 363.004C151.757 367.102 150.716 370.256 148.635 372.468C146.554 374.679 143.757 375.785 140.245 375.785C138.294 375.785 136.603 375.492 135.172 374.907C133.741 374.289 132.554 373.427 131.611 372.321C130.668 371.183 129.952 369.834 129.465 368.273C129.009 366.679 128.782 364.923 128.782 363.004ZM133.465 363.004C133.465 364.468 133.595 365.85 133.855 367.151C134.147 368.451 134.586 369.59 135.172 370.565C135.79 371.508 136.586 372.256 137.562 372.809C138.538 373.362 139.708 373.638 141.074 373.638C142.83 373.638 144.261 372.777 145.367 371.053C146.505 369.329 147.074 366.647 147.074 363.004C147.074 361.509 146.928 360.127 146.635 358.858C146.375 357.557 145.952 356.436 145.367 355.493C144.781 354.517 144.033 353.753 143.123 353.2C142.212 352.647 141.123 352.371 139.855 352.371C137.936 352.371 136.391 353.232 135.221 354.956C134.05 356.679 133.465 359.362 133.465 363.004ZM165.646 354.468C165.288 354.663 164.833 355.07 164.28 355.688C163.76 356.273 163.288 357.151 162.865 358.322V372.809C163.516 372.874 164.166 373.004 164.816 373.199C165.467 373.362 166.117 373.622 166.768 373.98V375.199H155.256V373.98C155.841 373.655 156.394 373.411 156.914 373.248C157.435 373.085 157.955 372.939 158.475 372.809V353.639L155.256 353.249V351.98C156.296 351.525 157.37 351.167 158.475 350.907C159.581 350.615 160.638 350.387 161.646 350.224H162.865V355.395H163.06C163.353 354.745 163.76 354.094 164.28 353.444C164.833 352.793 165.451 352.208 166.133 351.688C166.849 351.167 167.613 350.777 168.426 350.517C169.272 350.224 170.133 350.127 171.011 350.224C171.239 350.647 171.434 351.119 171.597 351.639C171.792 352.127 171.971 352.647 172.133 353.2V354.468H165.646ZM200.61 375.199H190.122V373.98C191 373.524 191.96 373.134 193 372.809V361.248C193 358.777 192.643 356.826 191.927 355.395C191.212 353.964 189.911 353.249 188.025 353.249C187.212 353.249 186.448 353.395 185.732 353.688C185.049 353.98 184.432 354.387 183.879 354.907C183.358 355.395 182.903 355.964 182.513 356.614C182.123 357.232 181.814 357.883 181.586 358.566V372.809C182.594 373.004 183.57 373.394 184.513 373.98V375.199H173.977V373.98C174.79 373.557 175.863 373.167 177.196 372.809V353.639L173.977 353.249V351.98C174.822 351.623 175.798 351.298 176.903 351.005C178.009 350.712 179.163 350.452 180.367 350.224H181.586V355.688H181.635C182.318 354.192 183.293 352.907 184.562 351.834C185.862 350.761 187.423 350.224 189.244 350.224C190.545 350.224 191.7 350.387 192.708 350.712C193.748 351.005 194.61 351.541 195.293 352.322C195.976 353.102 196.496 354.159 196.854 355.493C197.212 356.793 197.391 358.452 197.391 360.468V372.809C198.691 373.037 199.764 373.427 200.61 373.98V375.199ZM221.426 368.809C221.426 369.525 221.443 370.142 221.475 370.663C221.508 371.183 221.54 371.736 221.573 372.321L224.938 372.809V373.833C224.125 374.256 223.215 374.63 222.207 374.955C221.231 375.281 220.288 375.524 219.378 375.687H218.158C217.833 374.939 217.638 374.126 217.573 373.248C217.508 372.338 217.459 371.346 217.427 370.273H217.183C217.053 370.923 216.792 371.59 216.402 372.272C216.044 372.923 215.557 373.508 214.939 374.029C214.353 374.549 213.654 374.972 212.841 375.297C212.028 375.622 211.102 375.785 210.061 375.785C208.077 375.785 206.451 375.183 205.183 373.98C203.947 372.777 203.329 371.199 203.329 369.248C203.329 367.752 203.622 366.533 204.207 365.59C204.825 364.614 205.72 363.85 206.89 363.297C208.061 362.744 209.508 362.354 211.232 362.126C212.955 361.866 214.955 361.671 217.231 361.541C217.361 360.143 217.394 358.891 217.329 357.785C217.296 356.647 217.118 355.688 216.792 354.907C216.5 354.094 216.044 353.476 215.427 353.054C214.841 352.598 214.061 352.371 213.085 352.371C212.63 352.371 212.11 352.403 211.524 352.468C210.971 352.501 210.419 352.631 209.866 352.858L207.573 358.712H206.305C205.98 357.736 205.687 356.728 205.427 355.688C205.199 354.647 205.053 353.623 204.988 352.615C206.224 351.867 207.589 351.281 209.085 350.858C210.614 350.436 212.305 350.224 214.158 350.224C215.817 350.224 217.134 350.468 218.109 350.956C219.118 351.411 219.882 352.013 220.402 352.761C220.922 353.509 221.264 354.338 221.426 355.249C221.589 356.159 221.67 357.07 221.67 357.98C221.67 359.931 221.622 361.818 221.524 363.639C221.459 365.427 221.426 367.151 221.426 368.809ZM212.012 372.76C212.825 372.76 213.54 372.598 214.158 372.272C214.776 371.947 215.296 371.557 215.719 371.102C216.142 370.647 216.483 370.191 216.744 369.736C217.004 369.248 217.183 368.842 217.28 368.516V363.395C215.394 363.395 213.849 363.492 212.646 363.687C211.443 363.882 210.5 364.191 209.817 364.614C209.134 365.037 208.663 365.573 208.402 366.224C208.142 366.842 208.012 367.557 208.012 368.37C208.012 369.768 208.37 370.858 209.085 371.638C209.801 372.386 210.776 372.76 212.012 372.76ZM244.249 370.37C244.087 371.086 243.81 371.768 243.42 372.419C243.03 373.069 242.542 373.655 241.957 374.175C241.404 374.663 240.753 375.053 240.005 375.346C239.29 375.638 238.51 375.785 237.664 375.785C234.445 375.785 232.038 374.76 230.445 372.711C228.851 370.663 228.055 367.476 228.055 363.151C228.055 358.988 229.063 355.818 231.079 353.639C233.128 351.46 235.876 350.371 239.323 350.371C240.526 350.371 241.469 350.436 242.152 350.566C242.835 350.663 243.583 350.858 244.396 351.151V341.932L240.688 341.542V340.273C241.631 339.883 242.721 339.542 243.957 339.249C245.225 338.956 246.428 338.713 247.566 338.517H248.786V372.419L252.005 372.809V373.833C251.062 374.289 250.086 374.679 249.078 375.004C248.07 375.329 247.078 375.557 246.103 375.687H244.883L244.444 370.37H244.249ZM238.64 372.76C240.233 372.76 241.501 372.256 242.444 371.248C243.387 370.24 244.038 368.874 244.396 367.151V353.395C243.843 353.07 243.192 352.842 242.444 352.712C241.696 352.582 240.737 352.517 239.566 352.517C237.355 352.517 235.664 353.493 234.493 355.444C233.323 357.362 232.737 359.931 232.737 363.151C232.737 364.484 232.851 365.736 233.079 366.907C233.306 368.045 233.664 369.053 234.152 369.931C234.64 370.809 235.241 371.508 235.957 372.029C236.705 372.516 237.599 372.76 238.64 372.76ZM273.111 368.809C273.111 369.525 273.127 370.142 273.16 370.663C273.192 371.183 273.225 371.736 273.258 372.321L276.623 372.809V373.833C275.81 374.256 274.9 374.63 273.892 374.955C272.916 375.281 271.973 375.524 271.062 375.687H269.843C269.518 374.939 269.323 374.126 269.258 373.248C269.193 372.338 269.144 371.346 269.111 370.273H268.867C268.737 370.923 268.477 371.59 268.087 372.272C267.729 372.923 267.241 373.508 266.624 374.029C266.038 374.549 265.339 374.972 264.526 375.297C263.713 375.622 262.786 375.785 261.746 375.785C259.762 375.785 258.136 375.183 256.868 373.98C255.632 372.777 255.014 371.199 255.014 369.248C255.014 367.752 255.307 366.533 255.892 365.59C256.51 364.614 257.404 363.85 258.575 363.297C259.746 362.744 261.193 362.354 262.916 362.126C264.64 361.866 266.64 361.671 268.916 361.541C269.046 360.143 269.079 358.891 269.014 357.785C268.981 356.647 268.802 355.688 268.477 354.907C268.184 354.094 267.729 353.476 267.111 353.054C266.526 352.598 265.746 352.371 264.77 352.371C264.315 352.371 263.794 352.403 263.209 352.468C262.656 352.501 262.103 352.631 261.551 352.858L259.258 358.712H257.99C257.664 357.736 257.372 356.728 257.112 355.688C256.884 354.647 256.738 353.623 256.673 352.615C257.908 351.867 259.274 351.281 260.77 350.858C262.298 350.436 263.99 350.224 265.843 350.224C267.502 350.224 268.819 350.468 269.794 350.956C270.802 351.411 271.567 352.013 272.087 352.761C272.607 353.509 272.949 354.338 273.111 355.249C273.274 356.159 273.355 357.07 273.355 357.98C273.355 359.931 273.306 361.818 273.209 363.639C273.144 365.427 273.111 367.151 273.111 368.809ZM263.697 372.76C264.51 372.76 265.225 372.598 265.843 372.272C266.461 371.947 266.981 371.557 267.404 371.102C267.827 370.647 268.168 370.191 268.428 369.736C268.689 369.248 268.867 368.842 268.965 368.516V363.395C267.079 363.395 265.534 363.492 264.331 363.687C263.128 363.882 262.185 364.191 261.502 364.614C260.819 365.037 260.347 365.573 260.087 366.224C259.827 366.842 259.697 367.557 259.697 368.37C259.697 369.768 260.055 370.858 260.77 371.638C261.486 372.386 262.461 372.76 263.697 372.76ZM307.795 370.37C307.633 371.086 307.356 371.768 306.966 372.419C306.576 373.069 306.088 373.655 305.503 374.175C304.95 374.663 304.299 375.053 303.552 375.346C302.836 375.638 302.056 375.785 301.21 375.785C297.991 375.785 295.584 374.76 293.991 372.711C292.397 370.663 291.601 367.476 291.601 363.151C291.601 358.988 292.609 355.818 294.625 353.639C296.674 351.46 299.422 350.371 302.869 350.371C304.072 350.371 305.015 350.436 305.698 350.566C306.381 350.663 307.129 350.858 307.942 351.151V341.932L304.234 341.542V340.273C305.178 339.883 306.267 339.542 307.503 339.249C308.771 338.956 309.974 338.713 311.112 338.517H312.332V372.419L315.551 372.809V373.833C314.608 374.289 313.633 374.679 312.624 375.004C311.616 375.329 310.625 375.557 309.649 375.687H308.429L307.99 370.37H307.795ZM302.186 372.76C303.779 372.76 305.047 372.256 305.99 371.248C306.934 370.24 307.584 368.874 307.942 367.151V353.395C307.389 353.07 306.738 352.842 305.99 352.712C305.243 352.582 304.283 352.517 303.113 352.517C300.901 352.517 299.21 353.493 298.04 355.444C296.869 357.362 296.283 359.931 296.283 363.151C296.283 364.484 296.397 365.736 296.625 366.907C296.853 368.045 297.21 369.053 297.698 369.931C298.186 370.809 298.787 371.508 299.503 372.029C300.251 372.516 301.145 372.76 302.186 372.76ZM338.413 371.785C338.153 372.338 337.747 372.858 337.194 373.346C336.641 373.833 336.007 374.256 335.291 374.614C334.576 374.972 333.796 375.248 332.95 375.443C332.105 375.671 331.243 375.785 330.365 375.785C328.446 375.785 326.755 375.492 325.292 374.907C323.828 374.289 322.609 373.427 321.633 372.321C320.658 371.183 319.91 369.834 319.389 368.273C318.902 366.712 318.658 364.956 318.658 363.004C318.658 358.842 319.617 355.671 321.536 353.493C323.454 351.314 326.17 350.224 329.682 350.224C330.82 350.224 331.942 350.387 333.048 350.712C334.153 351.005 335.129 351.509 335.974 352.224C336.852 352.94 337.552 353.899 338.072 355.102C338.625 356.273 338.901 357.736 338.901 359.492C338.901 360.045 338.869 360.614 338.804 361.2C338.771 361.752 338.69 362.354 338.56 363.004H323.341C323.341 364.37 323.503 365.655 323.828 366.858C324.186 368.029 324.706 369.053 325.389 369.931C326.072 370.809 326.934 371.508 327.975 372.029C329.015 372.516 330.235 372.76 331.633 372.76C332.771 372.76 333.926 372.598 335.096 372.272C336.267 371.947 337.145 371.525 337.73 371.004L338.413 371.785ZM329.487 352.371C327.633 352.371 326.219 353.005 325.243 354.273C324.267 355.509 323.682 357.704 323.487 360.858H334.218C334.251 360.566 334.267 360.289 334.267 360.029C334.3 359.736 334.316 359.46 334.316 359.2C334.316 357.118 333.926 355.46 333.145 354.224C332.365 352.989 331.145 352.371 329.487 352.371ZM363.149 372.614C363.897 372.777 364.612 372.955 365.295 373.151C365.978 373.313 366.645 373.524 367.295 373.785V375.199H354.466V373.785C355.182 373.459 355.864 373.216 356.515 373.053C357.165 372.89 357.816 372.744 358.466 372.614V343.688C357.621 343.525 356.873 343.347 356.222 343.151C355.572 342.924 354.986 342.696 354.466 342.469V341.054H358.759C360.059 341.054 361.474 340.989 363.002 340.859C364.563 340.729 366.076 340.664 367.539 340.664C369.132 340.664 370.612 340.843 371.978 341.2C373.376 341.558 374.579 342.127 375.587 342.908C376.596 343.688 377.376 344.68 377.929 345.883C378.514 347.086 378.807 348.533 378.807 350.224C378.807 352.598 378.173 354.566 376.905 356.127C375.669 357.688 373.978 358.809 371.831 359.492C373.23 361.704 374.693 363.899 376.222 366.078C377.75 368.256 379.343 370.419 381.002 372.565L383.636 373.98V375.199H377.734L375.88 373.833C374.97 372.695 374.14 371.59 373.392 370.516C372.644 369.411 371.945 368.305 371.295 367.199C370.645 366.061 370.027 364.923 369.441 363.785C368.888 362.614 368.319 361.379 367.734 360.078H363.149V372.614ZM366.466 343.2C365.685 343.2 365.035 343.216 364.515 343.249C364.027 343.281 363.572 343.347 363.149 343.444V358.029H366.661C368.905 358.029 370.677 357.314 371.978 355.883C373.311 354.452 373.978 352.566 373.978 350.224C373.978 347.818 373.279 346.046 371.88 344.907C370.482 343.769 368.677 343.2 366.466 343.2ZM387.866 365.541C387.866 363.492 387.915 361.492 388.012 359.541C388.11 357.557 388.159 355.59 388.159 353.639L384.939 353.249V351.98C385.98 351.59 387.037 351.249 388.11 350.956C389.216 350.663 390.289 350.419 391.329 350.224H392.549C392.549 352.663 392.5 355.086 392.403 357.492C392.305 359.899 392.256 362.289 392.256 364.663C392.256 365.931 392.321 367.069 392.451 368.077C392.614 369.086 392.874 369.931 393.232 370.614C393.622 371.297 394.142 371.833 394.793 372.224C395.443 372.581 396.272 372.76 397.28 372.76C398.744 372.76 399.963 372.24 400.939 371.199C401.947 370.126 402.727 368.744 403.28 367.053V353.639L400.11 353.249V351.98C401.118 351.59 402.158 351.249 403.231 350.956C404.337 350.663 405.41 350.419 406.451 350.224H407.67V372.419L410.89 372.809V373.833C409.947 374.256 408.987 374.63 408.012 374.955C407.069 375.281 406.077 375.524 405.036 375.687H403.817L403.475 369.882H403.28C403.118 370.565 402.825 371.264 402.402 371.98C402.012 372.663 401.492 373.297 400.841 373.882C400.191 374.435 399.443 374.89 398.597 375.248C397.784 375.606 396.89 375.785 395.915 375.785C394.614 375.785 393.459 375.622 392.451 375.297C391.476 375.004 390.646 374.468 389.964 373.687C389.281 372.907 388.76 371.866 388.403 370.565C388.045 369.232 387.866 367.557 387.866 365.541ZM424.949 375.199H414.12V373.98C414.608 373.72 415.112 373.508 415.632 373.346C416.152 373.151 416.721 372.972 417.339 372.809V353.639L414.12 353.249V351.98C415.063 351.59 416.087 351.249 417.193 350.956C418.299 350.663 419.404 350.419 420.51 350.224H421.729V372.809C422.38 372.972 422.965 373.151 423.485 373.346C424.006 373.508 424.493 373.72 424.949 373.98V375.199ZM416.412 342.517C416.412 341.639 416.689 340.94 417.242 340.42C417.827 339.899 418.591 339.639 419.534 339.639C420.477 339.639 421.225 339.899 421.778 340.42C422.331 340.94 422.607 341.639 422.607 342.517C422.607 343.395 422.331 344.094 421.778 344.615C421.225 345.103 420.477 345.346 419.534 345.346C418.591 345.346 417.827 345.103 417.242 344.615C416.689 344.094 416.412 343.395 416.412 342.517ZM466.798 375.199H456.311V373.98C457.189 373.524 458.148 373.134 459.189 372.809V361.248C459.189 358.777 458.831 356.826 458.116 355.395C457.4 353.964 456.1 353.249 454.213 353.249C453.401 353.249 452.636 353.395 451.921 353.688C451.238 353.98 450.62 354.387 450.067 354.907C449.547 355.395 449.092 355.964 448.701 356.614C448.311 357.232 448.002 357.883 447.775 358.566V372.809C448.783 373.004 449.758 373.394 450.701 373.98V375.199H440.165V373.98C440.978 373.557 442.051 373.167 443.385 372.809V353.639L440.165 353.249V351.98C441.011 351.623 441.986 351.298 443.092 351.005C444.198 350.712 445.352 350.452 446.555 350.224H447.775V355.688H447.823C448.506 354.192 449.482 352.907 450.75 351.834C452.051 350.761 453.612 350.224 455.433 350.224C456.734 350.224 457.888 350.387 458.896 350.712C459.937 351.005 460.799 351.541 461.482 352.322C462.164 353.102 462.685 354.159 463.042 355.493C463.4 356.793 463.579 358.452 463.579 360.468V372.809C464.88 373.037 465.953 373.427 466.798 373.98V375.199ZM487.615 368.809C487.615 369.525 487.631 370.142 487.664 370.663C487.696 371.183 487.729 371.736 487.761 372.321L491.127 372.809V373.833C490.314 374.256 489.403 374.63 488.395 374.955C487.42 375.281 486.477 375.524 485.566 375.687H484.347C484.022 374.939 483.826 374.126 483.761 373.248C483.696 372.338 483.648 371.346 483.615 370.273H483.371C483.241 370.923 482.981 371.59 482.591 372.272C482.233 372.923 481.745 373.508 481.127 374.029C480.542 374.549 479.843 374.972 479.03 375.297C478.217 375.622 477.29 375.785 476.249 375.785C474.266 375.785 472.64 375.183 471.372 373.98C470.136 372.777 469.518 371.199 469.518 369.248C469.518 367.752 469.811 366.533 470.396 365.59C471.014 364.614 471.908 363.85 473.079 363.297C474.249 362.744 475.697 362.354 477.42 362.126C479.144 361.866 481.144 361.671 483.42 361.541C483.55 360.143 483.583 358.891 483.517 357.785C483.485 356.647 483.306 355.688 482.981 354.907C482.688 354.094 482.233 353.476 481.615 353.054C481.03 352.598 480.249 352.371 479.274 352.371C478.818 352.371 478.298 352.403 477.713 352.468C477.16 352.501 476.607 352.631 476.054 352.858L473.762 358.712H472.493C472.168 357.736 471.876 356.728 471.615 355.688C471.388 354.647 471.241 353.623 471.176 352.615C472.412 351.867 473.778 351.281 475.274 350.858C476.802 350.436 478.493 350.224 480.347 350.224C482.005 350.224 483.322 350.468 484.298 350.956C485.306 351.411 486.07 352.013 486.591 352.761C487.111 353.509 487.452 354.338 487.615 355.249C487.778 356.159 487.859 357.07 487.859 357.98C487.859 359.931 487.81 361.818 487.712 363.639C487.647 365.427 487.615 367.151 487.615 368.809ZM478.201 372.76C479.014 372.76 479.729 372.598 480.347 372.272C480.965 371.947 481.485 371.557 481.908 371.102C482.331 370.647 482.672 370.191 482.932 369.736C483.192 369.248 483.371 368.842 483.469 368.516V363.395C481.583 363.395 480.038 363.492 478.835 363.687C477.631 363.882 476.688 364.191 476.006 364.614C475.323 365.037 474.851 365.573 474.591 366.224C474.331 366.842 474.201 367.557 474.201 368.37C474.201 369.768 474.558 370.858 475.274 371.638C475.989 372.386 476.965 372.76 478.201 372.76ZM530.787 366.321H532.055C532.217 367.232 532.364 368.386 532.494 369.785C532.624 371.151 532.656 372.484 532.591 373.785C532.104 374.175 531.518 374.5 530.835 374.76C530.152 374.988 529.421 375.183 528.64 375.346C527.892 375.508 527.112 375.622 526.299 375.687C525.518 375.752 524.771 375.785 524.055 375.785C521.323 375.785 518.885 375.443 516.738 374.76C514.592 374.045 512.771 372.972 511.275 371.541C509.812 370.11 508.673 368.289 507.86 366.078C507.08 363.834 506.69 361.183 506.69 358.127C506.69 354.94 507.129 352.241 508.007 350.029C508.885 347.785 510.072 345.964 511.568 344.566C513.064 343.135 514.803 342.095 516.787 341.444C518.771 340.794 520.852 340.469 523.031 340.469C525.177 340.469 526.982 340.615 528.445 340.908C529.909 341.168 531.193 341.574 532.299 342.127C532.299 342.647 532.282 343.265 532.25 343.981C532.217 344.664 532.169 345.395 532.104 346.176C532.039 346.956 531.957 347.72 531.86 348.468C531.762 349.216 531.665 349.899 531.567 350.517H530.299L527.762 343.493C527.405 343.298 526.803 343.168 525.957 343.103C525.145 343.038 524.332 343.005 523.519 343.005C521.893 343.005 520.348 343.314 518.885 343.932C517.454 344.517 516.185 345.444 515.08 346.712C514.007 347.948 513.145 349.525 512.494 351.444C511.844 353.33 511.519 355.558 511.519 358.127C511.519 360.435 511.812 362.533 512.397 364.419C512.982 366.273 513.828 367.866 514.933 369.199C516.039 370.5 517.389 371.508 518.982 372.224C520.576 372.907 522.38 373.248 524.397 373.248C525.47 373.248 526.364 373.167 527.079 373.004C527.795 372.842 528.266 372.63 528.494 372.37L530.787 366.321ZM555.496 368.809C555.496 369.525 555.512 370.142 555.545 370.663C555.577 371.183 555.61 371.736 555.642 372.321L559.008 372.809V373.833C558.195 374.256 557.284 374.63 556.276 374.955C555.301 375.281 554.358 375.524 553.447 375.687H552.228C551.902 374.939 551.707 374.126 551.642 373.248C551.577 372.338 551.528 371.346 551.496 370.273H551.252C551.122 370.923 550.862 371.59 550.472 372.272C550.114 372.923 549.626 373.508 549.008 374.029C548.423 374.549 547.724 374.972 546.911 375.297C546.098 375.622 545.171 375.785 544.13 375.785C542.147 375.785 540.521 375.183 539.252 373.98C538.017 372.777 537.399 371.199 537.399 369.248C537.399 367.752 537.692 366.533 538.277 365.59C538.895 364.614 539.789 363.85 540.96 363.297C542.13 362.744 543.578 362.354 545.301 362.126C547.025 361.866 549.025 361.671 551.301 361.541C551.431 360.143 551.463 358.891 551.398 357.785C551.366 356.647 551.187 355.688 550.862 354.907C550.569 354.094 550.114 353.476 549.496 353.054C548.911 352.598 548.13 352.371 547.155 352.371C546.699 352.371 546.179 352.403 545.594 352.468C545.041 352.501 544.488 352.631 543.935 352.858L541.643 358.712H540.374C540.049 357.736 539.756 356.728 539.496 355.688C539.269 354.647 539.122 353.623 539.057 352.615C540.293 351.867 541.659 351.281 543.155 350.858C544.683 350.436 546.374 350.224 548.228 350.224C549.886 350.224 551.203 350.468 552.179 350.956C553.187 351.411 553.951 352.013 554.471 352.761C554.992 353.509 555.333 354.338 555.496 355.249C555.658 356.159 555.74 357.07 555.74 357.98C555.74 359.931 555.691 361.818 555.593 363.639C555.528 365.427 555.496 367.151 555.496 368.809ZM546.082 372.76C546.894 372.76 547.61 372.598 548.228 372.272C548.846 371.947 549.366 371.557 549.789 371.102C550.211 370.647 550.553 370.191 550.813 369.736C551.073 369.248 551.252 368.842 551.35 368.516V363.395C549.464 363.395 547.919 363.492 546.716 363.687C545.512 363.882 544.569 364.191 543.886 364.614C543.204 365.037 542.732 365.573 542.472 366.224C542.212 366.842 542.082 367.557 542.082 368.37C542.082 369.768 542.439 370.858 543.155 371.638C543.87 372.386 544.846 372.76 546.082 372.76ZM571.734 375.785L562.222 353.249C561.279 352.923 560.417 352.533 559.636 352.078V350.81H569.831V352.029C569.408 352.257 568.969 352.484 568.514 352.712C568.091 352.907 567.604 353.086 567.051 353.249L572.709 367.931L573.685 370.955H573.782L574.514 367.882L579.733 353.249C579.213 353.119 578.725 352.956 578.27 352.761C577.847 352.566 577.441 352.338 577.05 352.078V350.81H585.343V352.078C585.018 352.306 584.611 352.517 584.123 352.712C583.668 352.907 583.148 353.086 582.562 353.249L573.929 375.199L571.734 375.785ZM605.745 371.785C605.485 372.338 605.078 372.858 604.526 373.346C603.973 373.833 603.339 374.256 602.623 374.614C601.908 374.972 601.127 375.248 600.282 375.443C599.436 375.671 598.575 375.785 597.697 375.785C595.778 375.785 594.087 375.492 592.624 374.907C591.16 374.289 589.941 373.427 588.965 372.321C587.99 371.183 587.242 369.834 586.721 368.273C586.233 366.712 585.99 364.956 585.99 363.004C585.99 358.842 586.949 355.671 588.868 353.493C590.786 351.314 593.502 350.224 597.014 350.224C598.152 350.224 599.274 350.387 600.379 350.712C601.485 351.005 602.461 351.509 603.306 352.224C604.184 352.94 604.883 353.899 605.404 355.102C605.956 356.273 606.233 357.736 606.233 359.492C606.233 360.045 606.2 360.614 606.135 361.2C606.103 361.752 606.021 362.354 605.891 363.004H590.672C590.672 364.37 590.835 365.655 591.16 366.858C591.518 368.029 592.038 369.053 592.721 369.931C593.404 370.809 594.266 371.508 595.306 372.029C596.347 372.516 597.566 372.76 598.965 372.76C600.103 372.76 601.257 372.598 602.428 372.272C603.599 371.947 604.477 371.525 605.062 371.004L605.745 371.785ZM596.819 352.371C594.965 352.371 593.55 353.005 592.575 354.273C591.599 355.509 591.014 357.704 590.819 360.858H601.55C601.583 360.566 601.599 360.289 601.599 360.029C601.631 359.736 601.648 359.46 601.648 359.2C601.648 357.118 601.257 355.46 600.477 354.224C599.696 352.989 598.477 352.371 596.819 352.371ZM620.424 354.468C620.066 354.663 619.611 355.07 619.058 355.688C618.538 356.273 618.066 357.151 617.644 358.322V372.809C618.294 372.874 618.944 373.004 619.595 373.199C620.245 373.362 620.896 373.622 621.546 373.98V375.199H610.034V373.98C610.62 373.655 611.172 373.411 611.693 373.248C612.213 373.085 612.733 372.939 613.254 372.809V353.639L610.034 353.249V351.98C611.075 351.525 612.148 351.167 613.254 350.907C614.359 350.615 615.416 350.387 616.424 350.224H617.644V355.395H617.839C618.131 354.745 618.538 354.094 619.058 353.444C619.611 352.793 620.229 352.208 620.912 351.688C621.627 351.167 622.392 350.777 623.205 350.517C624.05 350.224 624.912 350.127 625.79 350.224C626.017 350.647 626.213 351.119 626.375 351.639C626.57 352.127 626.749 352.647 626.912 353.2V354.468H620.424ZM655.388 375.199H644.901V373.98C645.779 373.524 646.738 373.134 647.779 372.809V361.248C647.779 358.777 647.421 356.826 646.706 355.395C645.99 353.964 644.69 353.249 642.803 353.249C641.99 353.249 641.226 353.395 640.511 353.688C639.828 353.98 639.21 354.387 638.657 354.907C638.137 355.395 637.682 355.964 637.291 356.614C636.901 357.232 636.592 357.883 636.365 358.566V372.809C637.373 373.004 638.348 373.394 639.291 373.98V375.199H628.755V373.98C629.568 373.557 630.641 373.167 631.974 372.809V353.639L628.755 353.249V351.98C629.601 351.623 630.576 351.298 631.682 351.005C632.787 350.712 633.942 350.452 635.145 350.224H636.365V355.688H636.413C637.096 354.192 638.072 352.907 639.34 351.834C640.641 350.761 642.202 350.224 644.023 350.224C645.324 350.224 646.478 350.387 647.486 350.712C648.527 351.005 649.389 351.541 650.071 352.322C650.754 353.102 651.275 354.159 651.632 355.493C651.99 356.793 652.169 358.452 652.169 360.468V372.809C653.47 373.037 654.543 373.427 655.388 373.98V375.199ZM676.205 368.809C676.205 369.525 676.221 370.142 676.254 370.663C676.286 371.183 676.319 371.736 676.351 372.321L679.717 372.809V373.833C678.904 374.256 677.993 374.63 676.985 374.955C676.01 375.281 675.067 375.524 674.156 375.687H672.937C672.611 374.939 672.416 374.126 672.351 373.248C672.286 372.338 672.237 371.346 672.205 370.273H671.961C671.831 370.923 671.571 371.59 671.181 372.272C670.823 372.923 670.335 373.508 669.717 374.029C669.132 374.549 668.433 374.972 667.62 375.297C666.807 375.622 665.88 375.785 664.839 375.785C662.856 375.785 661.23 375.183 659.961 373.98C658.726 372.777 658.108 371.199 658.108 369.248C658.108 367.752 658.4 366.533 658.986 365.59C659.604 364.614 660.498 363.85 661.669 363.297C662.839 362.744 664.286 362.354 666.01 362.126C667.734 361.866 669.733 361.671 672.01 361.541C672.14 360.143 672.172 358.891 672.107 357.785C672.075 356.647 671.896 355.688 671.571 354.907C671.278 354.094 670.823 353.476 670.205 353.054C669.62 352.598 668.839 352.371 667.864 352.371C667.408 352.371 666.888 352.403 666.303 352.468C665.75 352.501 665.197 352.631 664.644 352.858L662.352 358.712H661.083C660.758 357.736 660.465 356.728 660.205 355.688C659.978 354.647 659.831 353.623 659.766 352.615C661.002 351.867 662.368 351.281 663.864 350.858C665.392 350.436 667.083 350.224 668.937 350.224C670.595 350.224 671.912 350.468 672.888 350.956C673.896 351.411 674.66 352.013 675.18 352.761C675.701 353.509 676.042 354.338 676.205 355.249C676.367 356.159 676.449 357.07 676.449 357.98C676.449 359.931 676.4 361.818 676.302 363.639C676.237 365.427 676.205 367.151 676.205 368.809ZM666.79 372.76C667.603 372.76 668.319 372.598 668.937 372.272C669.555 371.947 670.075 371.557 670.498 371.102C670.92 370.647 671.262 370.191 671.522 369.736C671.782 369.248 671.961 368.842 672.059 368.516V363.395C670.172 363.395 668.628 363.492 667.425 363.687C666.221 363.882 665.278 364.191 664.595 364.614C663.913 365.037 663.441 365.573 663.181 366.224C662.921 366.842 662.791 367.557 662.791 368.37C662.791 369.768 663.148 370.858 663.864 371.638C664.579 372.386 665.555 372.76 666.79 372.76ZM710.889 370.37C710.726 371.086 710.45 371.768 710.06 372.419C709.669 373.069 709.182 373.655 708.596 374.175C708.044 374.663 707.393 375.053 706.645 375.346C705.93 375.638 705.149 375.785 704.304 375.785C701.084 375.785 698.678 374.76 697.085 372.711C695.491 370.663 694.694 367.476 694.694 363.151C694.694 358.988 695.702 355.818 697.719 353.639C699.767 351.46 702.515 350.371 705.962 350.371C707.166 350.371 708.109 350.436 708.791 350.566C709.474 350.663 710.222 350.858 711.035 351.151V341.932L707.328 341.542V340.273C708.271 339.883 709.361 339.542 710.596 339.249C711.865 338.956 713.068 338.713 714.206 338.517H715.425V372.419L718.645 372.809V373.833C717.702 374.289 716.726 374.679 715.718 375.004C714.71 375.329 713.718 375.557 712.743 375.687H711.523L711.084 370.37H710.889ZM705.279 372.76C706.873 372.76 708.141 372.256 709.084 371.248C710.027 370.24 710.678 368.874 711.035 367.151V353.395C710.482 353.07 709.832 352.842 709.084 352.712C708.336 352.582 707.377 352.517 706.206 352.517C703.995 352.517 702.304 353.493 701.133 355.444C699.962 357.362 699.377 359.931 699.377 363.151C699.377 364.484 699.491 365.736 699.719 366.907C699.946 368.045 700.304 369.053 700.792 369.931C701.28 370.809 701.881 371.508 702.597 372.029C703.344 372.516 704.239 372.76 705.279 372.76ZM741.507 371.785C741.247 372.338 740.84 372.858 740.287 373.346C739.735 373.833 739.101 374.256 738.385 374.614C737.67 374.972 736.889 375.248 736.044 375.443C735.198 375.671 734.336 375.785 733.458 375.785C731.54 375.785 729.849 375.492 728.385 374.907C726.922 374.289 725.703 373.427 724.727 372.321C723.751 371.183 723.003 369.834 722.483 368.273C721.995 366.712 721.751 364.956 721.751 363.004C721.751 358.842 722.711 355.671 724.629 353.493C726.548 351.314 729.263 350.224 732.776 350.224C733.914 350.224 735.036 350.387 736.141 350.712C737.247 351.005 738.223 351.509 739.068 352.224C739.946 352.94 740.645 353.899 741.166 355.102C741.718 356.273 741.995 357.736 741.995 359.492C741.995 360.045 741.962 360.614 741.897 361.2C741.865 361.752 741.783 362.354 741.653 363.004H726.434C726.434 364.37 726.597 365.655 726.922 366.858C727.28 368.029 727.8 369.053 728.483 369.931C729.166 370.809 730.028 371.508 731.068 372.029C732.109 372.516 733.328 372.76 734.727 372.76C735.865 372.76 737.019 372.598 738.19 372.272C739.361 371.947 740.239 371.525 740.824 371.004L741.507 371.785ZM732.58 352.371C730.727 352.371 729.312 353.005 728.337 354.273C727.361 355.509 726.776 357.704 726.581 360.858H737.312C737.344 360.566 737.361 360.289 737.361 360.029C737.393 359.736 737.41 359.46 737.41 359.2C737.41 357.118 737.019 355.46 736.239 354.224C735.458 352.989 734.239 352.371 732.58 352.371ZM782.827 366.321H784.096C784.258 367.232 784.405 368.386 784.535 369.785C784.665 371.151 784.697 372.484 784.632 373.785C784.144 374.175 783.559 374.5 782.876 374.76C782.193 374.988 781.462 375.183 780.681 375.346C779.933 375.508 779.153 375.622 778.34 375.687C777.559 375.752 776.811 375.785 776.096 375.785C773.364 375.785 770.925 375.443 768.779 374.76C766.633 374.045 764.812 372.972 763.316 371.541C761.852 370.11 760.714 368.289 759.901 366.078C759.121 363.834 758.73 361.183 758.73 358.127C758.73 354.94 759.17 352.241 760.048 350.029C760.926 347.785 762.113 345.964 763.608 344.566C765.104 343.135 766.844 342.095 768.828 341.444C770.811 340.794 772.893 340.469 775.071 340.469C777.218 340.469 779.023 340.615 780.486 340.908C781.949 341.168 783.234 341.574 784.339 342.127C784.339 342.647 784.323 343.265 784.291 343.981C784.258 344.664 784.209 345.395 784.144 346.176C784.079 346.956 783.998 347.72 783.9 348.468C783.803 349.216 783.705 349.899 783.608 350.517H782.34L779.803 343.493C779.445 343.298 778.844 343.168 777.998 343.103C777.185 343.038 776.372 343.005 775.559 343.005C773.933 343.005 772.389 343.314 770.925 343.932C769.494 344.517 768.226 345.444 767.12 346.712C766.047 347.948 765.186 349.525 764.535 351.444C763.885 353.33 763.56 355.558 763.56 358.127C763.56 360.435 763.852 362.533 764.438 364.419C765.023 366.273 765.868 367.866 766.974 369.199C768.08 370.5 769.429 371.508 771.023 372.224C772.616 372.907 774.421 373.248 776.437 373.248C777.51 373.248 778.405 373.167 779.12 373.004C779.836 372.842 780.307 372.63 780.535 372.37L782.827 366.321ZM799.439 354.468C799.082 354.663 798.626 355.07 798.073 355.688C797.553 356.273 797.082 357.151 796.659 358.322V372.809C797.309 372.874 797.96 373.004 798.61 373.199C799.26 373.362 799.911 373.622 800.561 373.98V375.199H789.049V373.98C789.635 373.655 790.187 373.411 790.708 373.248C791.228 373.085 791.748 372.939 792.269 372.809V353.639L789.049 353.249V351.98C790.09 351.525 791.163 351.167 792.269 350.907C793.374 350.615 794.431 350.387 795.439 350.224H796.659V355.395H796.854C797.147 354.745 797.553 354.094 798.073 353.444C798.626 352.793 799.244 352.208 799.927 351.688C800.642 351.167 801.407 350.777 802.22 350.517C803.065 350.224 803.927 350.127 804.805 350.224C805.033 350.647 805.228 351.119 805.39 351.639C805.585 352.127 805.764 352.647 805.927 353.2V354.468H799.439ZM819.087 375.199H808.258V373.98C808.746 373.72 809.25 373.508 809.77 373.346C810.29 373.151 810.859 372.972 811.477 372.809V353.639L808.258 353.249V351.98C809.201 351.59 810.225 351.249 811.331 350.956C812.437 350.663 813.542 350.419 814.648 350.224H815.867V372.809C816.518 372.972 817.103 373.151 817.624 373.346C818.144 373.508 818.632 373.72 819.087 373.98V375.199ZM810.551 342.517C810.551 341.639 810.827 340.94 811.38 340.42C811.965 339.899 812.729 339.639 813.672 339.639C814.615 339.639 815.363 339.899 815.916 340.42C816.469 340.94 816.745 341.639 816.745 342.517C816.745 343.395 816.469 344.094 815.916 344.615C815.363 345.103 814.615 345.346 813.672 345.346C812.729 345.346 811.965 345.103 811.38 344.615C810.827 344.094 810.551 343.395 810.551 342.517ZM835.32 369.638C835.32 368.728 835.027 367.964 834.442 367.346C833.889 366.695 833.173 366.094 832.295 365.541C831.417 364.988 830.474 364.452 829.466 363.931C828.491 363.411 827.564 362.809 826.686 362.126C825.808 361.411 825.076 360.598 824.491 359.687C823.938 358.777 823.661 357.655 823.661 356.322C823.661 355.444 823.857 354.631 824.247 353.883C824.67 353.135 825.222 352.501 825.905 351.98C826.588 351.428 827.385 351.005 828.295 350.712C829.206 350.387 830.182 350.224 831.222 350.224C832.978 350.224 834.409 350.322 835.515 350.517C836.653 350.712 837.742 350.989 838.783 351.346C838.653 352.387 838.49 353.444 838.295 354.517C838.133 355.558 837.889 356.631 837.563 357.736H836.344L834.49 352.761C834.1 352.598 833.661 352.501 833.173 352.468C832.686 352.403 832.181 352.371 831.661 352.371C831.076 352.371 830.556 352.484 830.1 352.712C829.678 352.907 829.304 353.167 828.978 353.493C828.686 353.818 828.458 354.192 828.295 354.614C828.133 355.037 828.052 355.46 828.052 355.883C828.052 356.761 828.328 357.525 828.881 358.175C829.466 358.793 830.198 359.379 831.076 359.931C831.954 360.452 832.881 360.972 833.856 361.492C834.864 362.013 835.807 362.598 836.685 363.248C837.563 363.899 838.279 364.663 838.832 365.541C839.417 366.386 839.71 367.411 839.71 368.614C839.71 369.72 839.466 370.712 838.978 371.59C838.523 372.468 837.872 373.216 837.027 373.833C836.214 374.451 835.255 374.923 834.149 375.248C833.076 375.606 831.921 375.785 830.686 375.785C829.287 375.785 828.003 375.654 826.832 375.394C825.661 375.167 824.442 374.825 823.174 374.37C823.239 373.199 823.385 372.077 823.613 371.004C823.84 369.899 824.133 368.842 824.491 367.834H825.71L827.856 373.151C828.214 373.411 828.637 373.557 829.125 373.59C829.645 373.622 830.117 373.638 830.539 373.638C831.97 373.638 833.125 373.248 834.003 372.468C834.881 371.687 835.32 370.744 835.32 369.638ZM842.764 351.98C844 351.2 845.301 350.647 846.666 350.322V346.176C847.089 345.818 847.577 345.509 848.13 345.249C848.715 344.956 849.284 344.68 849.837 344.42H851.057V350.81H858.373V353.249H851.057V367.395C851.057 369.346 851.366 370.728 851.983 371.541C852.601 372.354 853.528 372.76 854.764 372.76C855.349 372.76 856.081 372.728 856.959 372.663C857.837 372.565 858.585 372.403 859.203 372.175L859.544 372.907C859.284 373.199 858.91 373.508 858.422 373.833C857.967 374.159 857.43 374.468 856.813 374.76C856.227 375.053 855.577 375.297 854.861 375.492C854.146 375.687 853.414 375.785 852.666 375.785C850.715 375.785 849.219 375.232 848.179 374.126C847.171 373.02 846.666 371.232 846.666 368.76V353.249H842.764V351.98ZM880.133 368.809C880.133 369.525 880.15 370.142 880.182 370.663C880.215 371.183 880.247 371.736 880.28 372.321L883.646 372.809V373.833C882.833 374.256 881.922 374.63 880.914 374.955C879.938 375.281 878.995 375.524 878.085 375.687H876.865C876.54 374.939 876.345 374.126 876.28 373.248C876.215 372.338 876.166 371.346 876.134 370.273H875.89C875.76 370.923 875.499 371.59 875.109 372.272C874.751 372.923 874.264 373.508 873.646 374.029C873.06 374.549 872.361 374.972 871.548 375.297C870.735 375.622 869.809 375.785 868.768 375.785C866.784 375.785 865.158 375.183 863.89 373.98C862.654 372.777 862.036 371.199 862.036 369.248C862.036 367.752 862.329 366.533 862.914 365.59C863.532 364.614 864.427 363.85 865.597 363.297C866.768 362.744 868.215 362.354 869.939 362.126C871.662 361.866 873.662 361.671 875.938 361.541C876.069 360.143 876.101 358.891 876.036 357.785C876.003 356.647 875.825 355.688 875.499 354.907C875.207 354.094 874.751 353.476 874.134 353.054C873.548 352.598 872.768 352.371 871.792 352.371C871.337 352.371 870.817 352.403 870.231 352.468C869.678 352.501 869.126 352.631 868.573 352.858L866.28 358.712H865.012C864.687 357.736 864.394 356.728 864.134 355.688C863.906 354.647 863.76 353.623 863.695 352.615C864.931 351.867 866.296 351.281 867.792 350.858C869.321 350.436 871.012 350.224 872.865 350.224C874.524 350.224 875.841 350.468 876.816 350.956C877.825 351.411 878.589 352.013 879.109 352.761C879.629 353.509 879.971 354.338 880.133 355.249C880.296 356.159 880.377 357.07 880.377 357.98C880.377 359.931 880.329 361.818 880.231 363.639C880.166 365.427 880.133 367.151 880.133 368.809ZM870.719 372.76C871.532 372.76 872.247 372.598 872.865 372.272C873.483 371.947 874.004 371.557 874.426 371.102C874.849 370.647 875.19 370.191 875.451 369.736C875.711 369.248 875.89 368.842 875.987 368.516V363.395C874.101 363.395 872.556 363.492 871.353 363.687C870.15 363.882 869.207 364.191 868.524 364.614C867.841 365.037 867.37 365.573 867.109 366.224C866.849 366.842 866.719 367.557 866.719 368.37C866.719 369.768 867.077 370.858 867.792 371.638C868.508 372.386 869.483 372.76 870.719 372.76ZM897.591 375.199H886.762V373.98C887.835 373.459 888.908 373.069 889.981 372.809V341.932L886.274 341.542V340.273C887.119 339.883 888.176 339.542 889.445 339.249C890.713 338.956 891.948 338.713 893.152 338.517H894.371V372.809C895.444 373.069 896.517 373.459 897.591 373.98V375.199Z" fill="#7E7E7E"/>
<path d="M117.5 36.9002C121.366 36.9002 124.5 34.393 124.5 31.3002C124.5 28.2074 121.366 25.7002 117.5 25.7002C113.634 25.7002 110.5 28.2074 110.5 31.3002C110.5 34.393 113.634 36.9002 117.5 36.9002Z" fill="#CDB78E"/>
<path d="M337.699 283.6C341.565 283.6 344.699 281.093 344.699 278C344.699 274.908 341.565 272.4 337.699 272.4C333.833 272.4 330.699 274.908 330.699 278C330.699 281.093 333.833 283.6 337.699 283.6Z" fill="#CDB78E"/>
<path d="M31.0996 219.5C34.9656 219.5 38.0996 216.993 38.0996 213.9C38.0996 210.807 34.9656 208.3 31.0996 208.3C27.2336 208.3 24.0996 210.807 24.0996 213.9C24.0996 216.993 27.2336 219.5 31.0996 219.5Z" fill="#CDB78E"/>
<path d="M936.899 124.7C940.765 124.7 943.899 122.193 943.899 119.1C943.899 116.007 940.765 113.5 936.899 113.5C933.033 113.5 929.899 116.007 929.899 119.1C929.899 122.193 933.033 124.7 936.899 124.7Z" fill="#CDB78E"/>
<path d="M138.4 187.4C139.946 187.4 141.2 186.146 141.2 184.6C141.2 183.053 139.946 181.8 138.4 181.8C136.853 181.8 135.6 183.053 135.6 184.6C135.6 186.146 136.853 187.4 138.4 187.4Z" fill="#CDB78E"/>
<path d="M138.4 307.3C139.946 307.3 141.2 306.047 141.2 304.5C141.2 302.954 139.946 301.7 138.4 301.7C136.853 301.7 135.6 302.954 135.6 304.5C135.6 306.047 136.853 307.3 138.4 307.3Z" fill="#CDB78E"/>
<path d="M911.9 268.3C913.446 268.3 914.7 267.047 914.7 265.5C914.7 263.954 913.446 262.7 911.9 262.7C910.353 262.7 909.1 263.954 909.1 265.5C909.1 267.047 910.353 268.3 911.9 268.3Z" fill="#CDB78E"/>
<path d="M31.0998 115C32.6462 115 33.8998 113.747 33.8998 112.2C33.8998 110.654 32.6462 109.4 31.0998 109.4C29.5534 109.4 28.2998 110.654 28.2998 112.2C28.2998 113.747 29.5534 115 31.0998 115Z" fill="#CDB78E"/>
<path d="M396.199 106.6C397.746 106.6 398.999 105.346 398.999 103.8C398.999 102.254 397.746 101 396.199 101C394.653 101 393.399 102.254 393.399 103.8C393.399 105.346 394.653 106.6 396.199 106.6Z" fill="#CDB78E"/>
<path d="M773.9 206.9C775.446 206.9 776.7 205.646 776.7 204.1C776.7 202.553 775.446 201.3 773.9 201.3C772.353 201.3 771.1 202.553 771.1 204.1C771.1 205.646 772.353 206.9 773.9 206.9Z" fill="#CDB78E"/>
<path d="M700 69.0006C702.319 69.0006 704.2 67.1202 704.2 64.8006C704.2 62.481 702.319 60.6006 700 60.6006C697.68 60.6006 695.8 62.481 695.8 64.8006C695.8 67.1202 697.68 69.0006 700 69.0006Z" fill="#CDB78E"/>
<path d="M849.099 59.1998C851.419 59.1998 853.299 57.3194 853.299 54.9998C853.299 52.6802 851.419 50.7998 849.099 50.7998C846.78 50.7998 844.899 52.6802 844.899 54.9998C844.899 57.3194 846.78 59.1998 849.099 59.1998Z" fill="#CDB78E"/>
<path d="M222 103.8C224.319 103.8 226.2 101.92 226.2 99.6004C226.2 97.2808 224.319 95.4004 222 95.4004C219.68 95.4004 217.8 97.2808 217.8 99.6004C217.8 101.92 219.68 103.8 222 103.8Z" fill="#CDB78E"/>
<path d="M464.5 177.7C466.819 177.7 468.7 175.819 468.7 173.5C468.7 171.18 466.819 169.3 464.5 169.3C462.18 169.3 460.3 171.18 460.3 173.5C460.3 175.819 462.18 177.7 464.5 177.7Z" fill="#CDB78E"/>
<path d="M665.2 208.3C667.52 208.3 669.4 206.42 669.4 204.1C669.4 201.781 667.52 199.9 665.2 199.9C662.88 199.9 661 201.781 661 204.1C661 206.42 662.88 208.3 665.2 208.3Z" fill="#CDB78E"/>
<path d="M932.8 202.8C935.119 202.8 937 200.92 937 198.6C937 196.281 935.119 194.4 932.8 194.4C930.48 194.4 928.6 196.281 928.6 198.6C928.6 200.92 930.48 202.8 932.8 202.8Z" fill="#CDB78E"/>
<path d="M869.4 135.9C870.56 135.9 871.5 134.96 871.5 133.8C871.5 132.64 870.56 131.7 869.4 131.7C868.24 131.7 867.3 132.64 867.3 133.8C867.3 134.96 868.24 135.9 869.4 135.9Z" fill="#CDB78E"/>
<path d="M224.1 304.5C225.26 304.5 226.2 303.56 226.2 302.4C226.2 301.24 225.26 300.3 224.1 300.3C222.94 300.3 222 301.24 222 302.4C222 303.56 222.94 304.5 224.1 304.5Z" fill="#CDB78E"/>
<path d="M572.499 163.7C573.659 163.7 574.599 162.76 574.599 161.6C574.599 160.44 573.659 159.5 572.499 159.5C571.34 159.5 570.399 160.44 570.399 161.6C570.399 162.76 571.34 163.7 572.499 163.7Z" fill="#CDB78E"/>
<path d="M771.799 92.7C772.959 92.7 773.899 91.7598 773.899 90.6C773.899 89.4402 772.959 88.5 771.799 88.5C770.639 88.5 769.699 89.4402 769.699 90.6C769.699 91.7598 770.639 92.7 771.799 92.7Z" fill="#CDB78E"/>
<path d="M329.999 162.301C331.159 162.301 332.099 161.36 332.099 160.201C332.099 159.041 331.159 158.101 329.999 158.101C328.84 158.101 327.899 159.041 327.899 160.201C327.899 161.36 328.84 162.301 329.999 162.301Z" fill="#CDB78E"/>
<path d="M534.9 234.801C536.06 234.801 537 233.86 537 232.701C537 231.541 536.06 230.601 534.9 230.601C533.74 230.601 532.8 231.541 532.8 232.701C532.8 233.86 533.74 234.801 534.9 234.801Z" fill="#CDB78E"/>
<path d="M674.899 133.1C677.219 133.1 679.099 131.22 679.099 128.9C679.099 126.581 677.219 124.7 674.899 124.7C672.58 124.7 670.699 126.581 670.699 128.9C670.699 131.22 672.58 133.1 674.899 133.1Z" fill="#CDB78E"/>
</svg>
