<svg width="968" height="412" viewBox="0 0 968 412" fill="none" xmlns="http://www.w3.org/2000/svg">
<path d="M894.1 282.9C894.1 283.1 893.9 283.3 893.7 283.3C889.5 284.3 884.5 284.7 878.8 284.6C877.8 284.6 876.4 284.4 874.4 283.9C872.4 283.5 871 283.2 870 283.2C868.9 283.2 867.9 283.4 867.2 283.8C866.4 284.2 865.2 284.4 863.5 284.6C861.7 284.7 860.6 284.6 860.1 284.4C859.6 284.2 859.4 284 859.4 283.9C859.4 283.8 859.8 283.3 860.5 282.6C861.2 281.9 861.6 281.2 861.6 280.7C861.6 280.2 861.9 279.6 862.6 278.8C863.3 278.1 863.6 277.4 863.6 276.9C863.6 276.5 863.3 275.9 862.6 275.3C861.9 274.7 861.6 274.2 861.6 273.9C861.9 273 862.3 271.5 862.7 269.5C862.2 266 861.2 262.2 859.8 258.2C858.5 254.9 857.8 252.8 857.5 251.9C856.5 249.5 855.5 248 854.6 247.4C854.2 247.1 853.7 247 852.9 247C852.2 247 851.2 247.2 849.9 247.6C848.2 248.2 847.1 248.5 846.6 248.5C844.5 248.6 841.4 248.3 837.4 247.5C836.3 247.3 832.7 247.5 826.6 248.3C826.6 248.2 826.7 248.2 826.9 248.2C824.6 247.7 822.3 247.9 819.8 248.7C818.5 249.3 816.5 249.6 813.7 249.6C810.9 249.6 809.2 249.9 808.4 250.5C807.7 251.1 807.4 252.5 807.4 254.6C807.5 257.3 807.4 258.9 807.3 259.3C806 262 804.6 266.2 803 271.7C802.9 272.7 803.5 274.2 804.8 276.4C806.1 278.6 806.7 280.1 806.7 281C806.7 282.6 806 283.4 804.5 283.4C804.4 283.4 803.4 283.2 801.4 283C800.1 282.8 799.2 282.9 798.6 283.2C798 283.5 797.1 283.6 795.7 283.3C794.1 282.9 793.1 282.7 792.7 282.7C792.3 282.8 787.1 283 777 283.5C774.7 283.5 773.6 283 773.6 281.9C773.6 280.9 775 279 777.9 276.1C779.9 273.9 781.3 272.4 782 271.7C783.4 269.9 784.5 268.2 785.2 266.6C785.4 266.1 785.3 265.3 784.8 264.3C784.3 263.3 784.1 262.4 784.2 261.8C784.2 261.7 785.8 258.3 789.1 251.6C789.3 251.6 789.7 251.1 790.4 250.2C790.8 249.6 790.8 249.1 790.5 248.7C789.5 247 788 246.5 786.1 247.3C785.4 247.6 783.4 249.1 780.1 251.7C777.5 253.8 775.5 254.8 774 254.7C772.8 254.5 772.2 253.6 772.2 252.2L773.3 245.9C773.5 245.5 773.9 244.8 774.5 243.7C775.2 242.6 775.5 241.7 775.5 241C775.5 240.5 775.3 239.8 774.9 238.8C774.5 237.9 774.2 237.2 774.1 236.8C774.3 235 774.1 232.5 773.8 229.3C773.3 228.9 772.7 228.2 771.9 227.2C771.8 225.9 772.6 225.2 774.1 225C775.6 224.9 776.8 225 777.6 225.6C778.9 226.6 781.4 228.4 785.1 230.8C787.3 232.1 789.7 232.7 792.2 232.7C793.7 232.7 794.8 232.3 795.7 231.4C796.6 230.5 797.4 226.9 798.2 220.4C798.6 219.4 799.1 218 799.6 216.2C800.3 214.7 801.3 212.3 802.4 208.9C801.8 208.2 801.7 207 802 205.5C802.2 205.1 803.1 203.2 804.7 200C805.8 197.9 807.3 194.8 809.1 190.5C809.5 188.8 810.2 186.5 811 183.5C811.9 182.5 812.9 180.9 814 179C814.2 177.6 814.5 175.5 815 172.7C815.7 171.7 816.6 170 817.4 167.7C817.3 167.6 817.2 167.4 817 167.4C818.3 165.3 819.9 162 821.9 157.7C823.4 152.5 825.5 145.7 828.3 137.1C828.5 135.2 829.1 132.6 830.2 129.2C831.5 126.3 832.5 124.8 833.2 124.8C833.6 124.8 834.6 126.5 836.4 129.8C837.5 131.9 838.1 134.1 838.1 136.2C838.1 137.1 838.2 137.8 838.4 138.4C839.3 139.8 840.4 142 841.7 144.9C842.6 146.5 843 148.6 843 151C843 153.6 843.1 155.5 843.4 156.6C844.5 158.5 846 161.6 848 165.9C848.7 168.9 849.7 173.5 851 179.6C851.7 181 852.7 183.3 853.9 186.4C854.4 188.7 855.4 192 856.9 196.2C857.9 197.4 859.2 199.2 860.8 201.7C861.2 204.1 862.1 207.6 863.3 212.1C864.3 213.2 865.4 215 866.6 217.5C866.6 219.9 867 223.4 867.7 228.2C869 232.4 870.2 234.5 871.5 234.5C872.7 234.5 875.7 234.2 880.6 233.5C882.8 233.2 884.7 231.6 886.4 228.6C887.5 226.5 888.7 225.5 889.9 225.5C890.8 225.5 891.2 226.2 891.2 227.7C890.8 231 890.9 235.3 891.5 240.4C892.2 242 892.5 243.5 892.4 244.9C892.2 246.2 891.9 247.6 891.6 249C891.6 249.7 891.8 250.7 892.2 252C892.6 253.3 892.8 254.1 892.8 254.5C892.8 255 892.5 255.3 892 255.4C891 255.6 889.7 255.1 888.2 253.9C886.4 252 885.3 250.9 884.8 250.7C883.8 250.1 882.6 249.4 881.4 248.7C880.2 248 879.2 247.6 878.4 247.6C876.8 247.6 876 248.7 876 251C876 252 876.7 254.3 878.1 258C878.7 259 879.5 260.5 880.5 262.6C880.1 263.3 879.8 264.3 879.5 265.6C880.1 266.3 881.1 267.7 882.7 270C884.3 272.3 886.7 275.8 890 280.8C890.6 281.1 891.3 281.4 892 281.7C893.5 281.9 894.1 282.4 894.1 282.9ZM849 230.7C849 230.3 848.8 229.6 848.4 228.4C848 227.3 847.8 226.3 847.9 225.6C848.1 224.1 847.6 221.8 846.5 218.6C846.4 218 844.7 214.1 841.5 206.9C840.7 205.3 839.6 202.8 838.2 199.6C838 198.6 837.8 197.2 837.7 195.3C837.6 193.4 837.4 191.9 837.1 191C836.7 190.5 836 189.9 835.1 189C834.9 188.8 834.6 187.9 834.1 186.2C833.7 184.9 833.2 184.3 832.9 184.3C832 184.3 831.3 185.6 830.7 188.1C830.4 189.9 830 191.7 829.6 193.3C828.6 194.6 827.5 196.7 826.2 199.6C825.8 201.1 825.4 203.3 824.8 206.4C824.1 208.2 823 210.7 821.6 214.1C821.5 215.8 820.8 218.3 819.7 221.6C819 222.4 818.1 223.5 816.9 225C814.9 228.4 813.9 230.2 813.9 230.5C813.9 231 814 231.4 814.3 231.7C814.6 232.1 815.8 232.2 818 232C821 231.8 822.7 231.7 822.9 231.7C827.3 232.1 829.2 232.3 828.7 232.3C829.8 232.3 831.9 232.9 834.9 234C835.4 234.4 836.4 234.3 837.7 233.9C839 233.5 839.9 233.3 840.2 233.6C841 234.1 842.1 234.4 843.4 234.4C844.5 234.4 845.7 234.1 847.1 233.4C848.3 232.7 849 231.8 849 230.7Z" fill="#B59A5C"/>
<path d="M763.701 157.2C763.801 157.9 763.801 158.7 763.701 159.4C763.501 160.2 763.201 160.5 762.701 160.4C761.201 160.1 759.601 159.2 757.801 157.7C755.701 156.1 754.201 155.1 753.301 154.6C751.601 153.9 750.001 153.7 748.401 154.2C746.901 155.1 744.801 156.2 742.001 157.6C739.601 158 736.001 158.7 731.201 159.5C730.901 159.6 730.301 159.8 729.301 160.3C728.301 160.8 727.501 161 726.801 160.9C726.301 160.9 725.701 160.6 725.001 160C724.301 159.4 723.801 159.1 723.401 159.1C723.001 159.1 722.801 159.4 722.801 160C722.801 160.6 722.601 160.9 722.401 160.9C721.401 161.1 720.101 161.1 718.301 160.9C716.301 160.5 715.001 160.3 714.401 160.3C713.001 160.3 711.901 160.6 711.101 161.3C709.101 163 707.601 167 706.601 173.2C706.401 174.2 706.601 175.5 707.001 177.1C707.701 179 708.101 180.4 708.101 181.1C707.701 183.8 707.501 187.8 707.701 192.9C708.201 196 708.501 197.7 708.501 198C707.801 198.7 707.401 200.1 707.101 202.3C707.001 203.6 707.401 205.2 708.101 207.3C708.801 209.8 709.201 211.5 709.301 212.5L708.601 224.4L707.701 245C707.301 252.7 707.001 256.7 707.001 256.8C707.701 257.8 708.501 259.2 709.201 261.2C708.801 262.5 708.401 264.5 708.101 267.1C708.401 270 709.301 273.4 710.601 277.5C713.001 279.3 714.101 280.5 714.101 281.1C714.101 281.4 713.801 281.8 713.301 282.3C712.701 282.8 711.601 282.9 710.001 282.7C707.701 282.5 706.301 282.4 705.901 282.4C705.001 282.6 703.701 282.3 702.001 281.6C700.301 280.8 699.001 280.4 698.101 280.4C697.101 280.4 695.301 280.8 692.801 281.6C690.301 282.4 688.301 282.6 686.801 282.4C685.801 282.2 685.501 280.9 685.901 278.5C687.201 273.6 688.501 266.2 690.001 256.5C690.101 253.1 689.901 248.5 689.501 242.7C689.101 236.1 688.901 231.5 688.901 228.9C689.401 227.7 689.901 226.1 690.201 224C690.301 222.4 690.301 220.5 690.201 218.1C690.001 215.1 690.001 213.3 690.001 212.5V194.5C689.901 193.1 689.701 189.6 689.501 184.1C689.401 182.9 689.501 181.2 689.701 178.9C689.901 176.6 690.001 175 690.001 173.9C690.001 171.2 689.501 169.1 688.301 167.4C688.001 166.8 687.401 166.5 686.401 166.5C685.701 166.5 684.601 166.8 683.301 167.4C681.301 168.4 680.201 168.9 679.901 169.1C679.701 169.6 679.201 170.2 678.501 171C678.201 171 677.701 170.8 677.101 170.5C676.501 170.2 676.001 170 675.601 170C674.801 169.9 672.701 170.1 669.201 170.4C666.901 170.4 663.601 170.7 659.401 171.4C657.601 172.4 654.801 173.7 651.001 175.3C650.401 175 649.601 175 648.701 175.3C648.801 176.3 648.601 177.6 648.301 179.3C644.601 183.5 642.401 185.6 641.501 185.6C639.601 185.6 638.401 184 638.001 180.7C638.101 178.3 638.101 174.8 637.901 170.4C637.201 165.7 636.801 162.9 636.801 162C636.801 158.9 637.201 157.1 637.901 156.6C638.401 156.2 639.001 156 639.801 155.8C640.301 155.8 641.101 155.9 642.201 156C643.301 156.1 643.901 156.2 644.201 156.2C644.501 156.2 644.801 156.3 645.201 156.5C645.601 156.7 645.901 156.8 646.101 156.6C646.301 156.5 646.501 156.2 646.501 155.6C646.601 155 646.801 154.7 647.301 154.7C648.501 155.3 650.201 155.8 652.501 156.2C653.501 156.1 654.801 155.6 656.201 154.8C657.601 153.9 658.701 153.4 659.501 153.2C660.301 153.4 661.501 153.6 663.001 153.6C665.401 152.7 669.201 151.6 674.401 150.2C677.001 150.5 681.001 150.5 686.501 150.2C687.801 150 689.401 149.3 691.501 148.2C693.601 147.1 695.101 146.5 695.901 146.3C698.801 145.3 701.501 144.6 704.201 144.2C705.801 144.4 708.301 144.4 711.601 144.2C713.601 143.7 716.501 142.9 720.401 142C723.901 141.6 729.101 140.9 735.801 139.8C737.001 139.5 739.101 138.7 742.101 137.5C743.901 136 747.001 134.4 751.401 132.5C754.101 132.1 756.101 132.4 757.401 133.4C758.701 134.4 759.401 136.5 759.701 139.7C759.901 142.1 760.101 144.5 760.401 146.8C761.201 149.1 762.301 152.6 763.701 157.2Z" fill="#B59A5C"/>
<path d="M628.9 207.1C629 208.5 627.7 209.7 625 210.7C621.6 212 619.8 212.7 619.6 212.9C617.8 214.2 615.6 216.1 613 218.5C612.6 219.2 612.5 222.1 612.9 227.5C612.9 228.5 613.1 230.5 613.4 233.6C613.6 236.2 613.7 238.4 613.7 239.9C613.7 242.6 613.4 245 612.9 246.9C611.6 250.7 611.7 254.9 613.1 259.6C613.5 260.4 613.6 261.8 613.5 263.7C613.4 265.7 613.5 267 613.8 267.9C614.5 270.1 615.5 271.8 616.7 273.1C618.3 274.5 620.6 276.9 623.5 280.3C624 281 624 281.6 623.5 281.9C623.2 282 622.6 282.1 621.7 282C619.5 282.3 616.2 282.3 611.9 282C608.6 281.6 605.9 281.4 603.5 281.7C600.9 281.8 597 282.2 591.8 282.7C586.4 283.4 584.1 282.9 584.8 281.2C585.7 279.5 586.9 278 588.4 276.8C590.6 275.2 592.1 273.9 592.9 272.8C594.2 271 595 269 595.6 266.8V260.5C595.6 260.1 595.5 258.1 595.4 254.3C595.2 251.1 595.2 248.5 595.4 246.6C595.5 243.9 595.8 241.9 596.4 240.7C597 239.5 597.3 238.6 597.3 238C597.3 237.7 597.1 237.1 596.6 236.2C596.1 235.3 595.8 234.3 595.6 233.2C595.3 231 595.2 228.7 595.2 226.2C595.2 225.7 595.4 224.4 595.6 222.3C596 220.6 596 219.3 595.6 218.3C595.2 216.7 594.3 215.5 592.7 214.8C591.1 214.1 589.5 213.5 588 212.9C585.9 211.9 584.6 211.3 584.2 211.1C582.5 210.1 581.4 209 580.9 207.8C580.7 207.3 581.6 206.5 583.7 205.5C585.3 205 587.3 203.9 589.7 202.2C591.7 200.5 593.7 198.5 595.9 196.1C596.1 195.5 596.2 194.9 596.2 194.3C596.2 193.9 596.1 192.9 595.9 191.5C595.7 190.1 595.6 189 595.6 188.1C595.6 186.7 595.8 185.4 596.3 184.3C597 183 596.8 180.6 595.9 177V167.3C596.2 165.8 596.1 163.7 595.7 160.8C594.6 158.7 594.6 156.6 595.7 154.3C595.9 153.9 596 153.5 596 153C596 152.3 595.7 151.3 595.1 150.2C594.4 148.4 593.9 147.4 593.8 147C593.5 145.9 592.8 144.3 591.8 142.1C590.3 140.5 588.1 138 585.5 134.6C585.3 134.3 585.3 133.9 585.5 133.5C585.7 133.1 586 132.8 586.5 132.7C588 132.4 589.7 132.2 591.5 131.9C593.2 131.7 594.8 131.9 596.3 132.7C599.1 134 602.1 134.4 605.3 133.7C607.7 133.1 611.2 132.9 615.9 133.1C616.6 133.3 617.7 133.1 619.2 132.7C620.7 132.3 621.7 132 622.2 132C623 132 623.6 132.3 624 133C624.5 134 623.9 135.7 622.1 137.9C620.7 139.4 619.3 141 618 142.7C616.7 143.7 615.2 145.4 613.4 147.6C612.7 149.2 612.4 150.7 612.4 152.1C612.4 152.6 612.5 153.4 612.7 154.4C612.9 155.4 613 156.2 613 156.7C613 157.8 612.7 158.9 612.2 159.9C611.8 160.9 611.9 162 612.6 163.2C613.3 164.3 613.5 165.9 613.3 167.9C613.2 169.8 613.1 171.7 612.9 173.4C612.9 178.3 613 181.7 613.2 183.5C613.4 184.8 613.2 186.5 612.9 188.5C612.6 191 612.5 192.7 612.5 193.6C612.5 194.4 612.6 195.3 612.8 196.1C613 197 613.7 197.8 615 198.4C617.1 199.4 618.2 200 618.2 200.1C619 200.8 620.3 201.8 622.1 203.1C622.4 203.3 623.9 204 626.6 205.2C628 205.9 628.9 206.5 628.9 207.1Z" fill="#B59A5C"/>
<path d="M572.6 254.5C572.6 254.9 572.5 255.4 572.4 255.8C571.3 258.8 570.7 261.9 570.7 265.2C570.8 268.5 570.8 271.8 570.8 275.2C571 277.2 570.8 279.5 570.1 282.1C569.6 282.8 567.9 282.8 565.1 282.1C563.7 281.6 561.7 281 559.1 280.2C558.7 280.1 558 280.3 557.1 280.6C556.2 281 555.6 281.2 555.1 281.2C554.1 281.2 552.8 281 551.2 280.6C549.2 280.3 547.9 280.2 547.2 280.2C542.9 279.7 539.7 279.5 537.5 279.5C535 279.6 530.9 279.9 525.2 280.2C520 280.5 515.9 280.6 513 280.6C512.1 280.6 510.9 280.4 509.4 280.1C507.9 279.7 506.8 279.5 506 279.5C504.4 279.5 502.1 279.8 498.8 280.4C495.6 281 493.2 281.3 491.7 281.3C490 281.3 488.5 281.1 487.2 280.6C486.8 280.5 486.5 280.3 486.5 279.8C486.5 279.3 486.9 278.4 487.7 277.2C488.8 275.4 489.4 274.4 489.5 274.2C490.2 273.5 491.1 272.4 492.1 270.9C494 268.2 495 266.7 495.1 266.5C496.4 264.7 497.1 263.1 497.2 261.5C496.8 259.4 496.5 256.3 496.3 252.2C496.5 251.8 496.9 251.1 497.3 250.3C497.7 249.5 498 248.7 497.9 248.1C497.9 247.8 497.5 247.6 496.7 247.4C495.9 247.3 495.5 247 495.5 246.6C494.9 244 494.9 241.3 495.5 238.3C496.5 237.1 497.5 235.3 498.5 232.8C498.6 231.5 498.6 229.8 498.4 227.6C498.2 224.7 498 223.1 498 222.6C498.1 221.3 498.1 219.3 498 216.6C497.6 216.2 497 215.3 496.3 214.1C496.3 213.4 496.5 212.3 496.9 210.9C497.3 209.5 497.4 208.4 497.4 207.7C497.8 204.2 497.8 200.9 497.4 198C497.4 197.3 497.1 196 496.6 194.3C496.1 192.6 495.8 191.2 495.8 190.3C495.9 189.8 496.3 189.2 497 188.4C497.6 187.7 497.9 187.1 497.9 186.7C497.9 186.3 497.6 186.1 497 185.9C496.4 185.7 496 185.5 495.8 185.3C495.4 183.6 495.3 181 495.5 177.5C495.7 176.1 496 173.9 496.3 170.9C496.6 167.9 497 163.4 497.3 157.2C497.4 157.1 497.6 156.5 497.9 155.5C498.1 154.7 498.1 154.1 497.9 153.6C496.5 151.5 494.5 148.1 492 143.4C489.8 139.5 488.7 136.8 488.7 135.2C488.7 133.9 489.3 133.3 490.6 133.3C491.6 133.3 492.8 133.7 494.4 134.4C495.3 134.8 496.5 135 497.9 134.7C499.7 134.4 500.8 134.3 501.3 134.4C501.6 134.4 502 134.6 502.5 135C503 135.4 503.5 135.6 503.8 135.6C504.9 135.1 506.7 134.6 509.1 134C510.1 134 511.5 133.9 513.4 133.6C515.3 133.3 516.8 133.2 518 133.2C521.8 133.2 523.8 134.1 523.8 136C523.8 136.7 523 138.3 521.5 140.8C520 143.3 519 145.3 518.6 146.7C517.9 147.7 517 149.2 516.1 151.2C515.1 159.8 514.6 169.5 514.6 180.3C514.6 180.6 514.9 181.1 515.4 181.8C515.9 182.5 516.2 183 516.2 183.3C516.2 184 516 185.2 515.7 186.7C515.4 188.3 515.2 189.4 515.2 190.1C515.2 191.6 515.4 193.7 515.6 196.4C515.9 199.3 516.1 201.5 516.2 202.8C516.4 208.4 516.4 213 516.2 216.5C516.2 216.8 516 217.3 515.7 218C515.4 218.7 515.2 219.2 515.2 219.5C515.2 220 515.4 220.8 515.7 221.9C516 223 516.2 223.8 516.2 224.3C516.2 224.6 516 225 515.7 225.6C515.5 226 515.3 226.4 515.2 226.6C515.3 226.6 515.5 228.8 515.7 233.2C516 238.5 516.2 241.6 516.2 242.5C516.2 243 516 243.7 515.7 244.5C515.4 245.4 515.2 246 515.2 246.3C515.2 247 515.4 248.2 515.7 249.7C516 251.2 516.2 252.4 516.2 253.2C516.2 253.5 516 254.1 515.6 254.9C515.2 255.8 515.1 256.3 515.2 256.6C516 258.7 517.3 260.1 519.2 260.6C520.5 261 522.3 261.1 524.4 261.1C527.4 261 529 261 529.5 261.1C532.1 261.3 536 261.7 541.2 262.2C544.3 262.4 547.4 262.7 550.4 262.9C553.9 263 556.7 262.8 559 262.2C560 261.8 561.1 260.8 562.1 259.3C563.7 257.2 564.7 256 565 255.8C566.3 254.4 567.9 252.4 569.8 249.8C569.9 249.6 570 249.5 570.2 249.5C570.8 249.5 571.3 250 571.7 251C572.4 252.5 572.6 253.5 572.6 254.5Z" fill="#B59A5C"/>
<path d="M478.9 282.9C478.9 283.1 478.8 283.3 478.5 283.3C474.3 284.3 469.3 284.7 463.6 284.6C462.6 284.6 461.2 284.4 459.2 283.9C457.2 283.5 455.8 283.2 454.8 283.2C453.7 283.2 452.8 283.4 452 283.8C451.2 284.2 450 284.4 448.3 284.6C446.5 284.7 445.4 284.6 444.9 284.4C444.4 284.2 444.2 284 444.2 283.9C444.2 283.8 444.6 283.3 445.3 282.6C446 281.9 446.4 281.2 446.4 280.7C446.4 280.2 446.7 279.6 447.4 278.8C448.1 278.1 448.4 277.4 448.4 276.9C448.4 276.5 448.1 275.9 447.4 275.3C446.7 274.7 446.4 274.2 446.4 273.9C446.7 273 447.1 271.5 447.5 269.5C447 266 446 262.2 444.6 258.2C443.3 254.9 442.6 252.8 442.3 251.9C441.3 249.5 440.3 248 439.4 247.4C439 247.1 438.5 247 437.7 247C437 247 436 247.2 434.7 247.6C433 248.2 431.9 248.5 431.4 248.5C429.3 248.6 426.2 248.3 422.2 247.5C421.1 247.3 417.5 247.5 411.4 248.3C411.4 248.2 411.5 248.2 411.7 248.2C409.4 247.7 407.1 247.9 404.6 248.7C403.3 249.3 401.3 249.6 398.5 249.6C395.7 249.6 393.9 249.9 393.2 250.5C392.5 251.1 392.1 252.5 392.1 254.6C392.2 257.3 392.1 258.9 392 259.3C390.7 262 389.3 266.2 387.7 271.7C387.6 272.7 388.2 274.2 389.5 276.4C390.8 278.6 391.4 280.1 391.4 281C391.4 282.6 390.7 283.4 389.2 283.4C389.1 283.4 388.1 283.2 386.1 283C384.8 282.8 383.9 282.9 383.3 283.2C382.7 283.6 381.8 283.6 380.4 283.3C378.8 282.9 377.8 282.7 377.4 282.7C377 282.8 371.8 283 361.7 283.5C359.4 283.5 358.3 283 358.3 281.9C358.3 280.9 359.7 279 362.6 276.1C364.6 273.9 366 272.4 366.7 271.7C368.1 269.9 369.2 268.2 369.9 266.6C370.1 266.1 370 265.3 369.5 264.3C369 263.3 368.8 262.4 368.9 261.8C368.9 261.7 370.5 258.3 373.8 251.6C373.9 251.6 374.4 251.1 375.1 250.2C375.5 249.6 375.5 249.1 375.2 248.7C374.2 247 372.7 246.5 370.8 247.3C370.1 247.6 368.1 249.1 364.8 251.7C362.2 253.8 360.2 254.8 358.7 254.7C357.5 254.5 356.9 253.6 356.9 252.2L358 245.9C358.1 245.5 358.6 244.8 359.2 243.7C359.9 242.6 360.2 241.7 360.2 241C360.2 240.5 360 239.8 359.6 238.8C359.2 237.9 358.9 237.2 358.8 236.8C358.9 235 358.8 232.5 358.5 229.3C358 228.9 357.4 228.2 356.6 227.2C356.5 225.9 357.3 225.2 358.8 225C360.3 224.9 361.4 225 362.3 225.6C363.6 226.6 366.1 228.4 369.8 230.8C372 232.1 374.4 232.7 376.9 232.7C378.4 232.7 379.6 232.3 380.4 231.4C381.3 230.5 382.1 226.9 383 220.4C383.4 219.4 383.9 218 384.4 216.2C385.1 214.7 386.1 212.3 387.2 208.9C386.6 208.2 386.5 207 386.8 205.5C387 205.1 387.9 203.2 389.5 200C390.6 197.9 392.1 194.8 393.9 190.5C394.3 188.8 395 186.5 395.8 183.5C396.7 182.5 397.7 180.9 398.8 179C398.9 177.6 399.3 175.5 399.8 172.7C400.5 171.7 401.4 170 402.2 167.7C402.1 167.6 402 167.4 401.8 167.4C403.1 165.3 404.7 162 406.7 157.7C408.2 152.5 410.3 145.7 413.1 137.1C413.3 135.2 414 132.6 415 129.2C416.3 126.3 417.3 124.8 418 124.8C418.4 124.8 419.4 126.5 421.2 129.8C422.3 131.9 422.9 134.1 422.9 136.2C422.9 137.1 423 137.8 423.2 138.4C424.1 139.8 425.2 142 426.5 144.9C427.4 146.5 427.8 148.6 427.8 151C427.8 153.6 427.9 155.5 428.2 156.6C429.3 158.5 430.9 161.6 432.8 165.9C433.5 168.9 434.5 173.5 435.8 179.6C436.5 181 437.5 183.3 438.7 186.4C439.2 188.7 440.2 192 441.7 196.2C442.7 197.4 444 199.2 445.6 201.7C446.1 204.1 446.9 207.6 448.2 212.1C449.1 213.2 450.3 215 451.5 217.5C451.5 219.9 451.9 223.4 452.6 228.2C453.9 232.4 455.1 234.5 456.4 234.5C457.6 234.5 460.6 234.2 465.5 233.5C467.7 233.2 469.6 231.6 471.3 228.6C472.4 226.5 473.6 225.5 474.8 225.5C475.7 225.5 476.1 226.2 476.1 227.7C475.7 231 475.8 235.3 476.4 240.4C477.1 242 477.4 243.5 477.3 244.9C477.1 246.2 476.8 247.6 476.5 249C476.5 249.7 476.7 250.7 477.1 252C477.5 253.3 477.7 254.1 477.7 254.5C477.7 255 477.4 255.3 476.9 255.4C475.9 255.6 474.6 255.1 473.1 253.9C471.3 252 470.2 250.9 469.7 250.7C468.7 250.1 467.6 249.4 466.3 248.7C465.1 248 464.1 247.6 463.3 247.6C461.7 247.6 460.9 248.7 460.9 251C460.9 252 461.6 254.3 463 258C463.6 259 464.4 260.5 465.4 262.6C465 263.3 464.7 264.3 464.4 265.6C465 266.3 466 267.7 467.6 270C469.1 272.3 471.6 275.8 475 280.8C475.6 281.1 476.3 281.4 477 281.7C478.3 281.9 478.9 282.4 478.9 282.9ZM433.7 230.7C433.7 230.3 433.5 229.6 433.1 228.4C432.7 227.3 432.5 226.3 432.6 225.6C432.7 224.1 432.3 221.8 431.2 218.6C431.1 218 429.4 214.1 426.2 206.9C425.4 205.3 424.3 202.8 422.9 199.6C422.7 198.6 422.5 197.2 422.4 195.3C422.3 193.4 422.1 191.9 421.8 191C421.4 190.5 420.7 189.9 419.8 189C419.7 188.8 419.3 187.9 418.8 186.2C418.4 184.9 417.9 184.3 417.6 184.3C416.7 184.3 416 185.6 415.4 188.1C415.1 189.9 414.7 191.7 414.3 193.3C413.3 194.6 412.2 196.7 410.9 199.6C410.5 201.1 410 203.3 409.5 206.4C408.8 208.2 407.7 210.7 406.3 214.1C406.2 215.8 405.5 218.3 404.4 221.6C403.7 222.4 402.8 223.5 401.6 225C399.6 228.4 398.6 230.2 398.6 230.5C398.6 231 398.7 231.4 399 231.7C399.3 232.1 400.5 232.2 402.7 232C405.7 231.8 407.3 231.7 407.6 231.7C412 232.1 413.9 232.3 413.4 232.3C414.5 232.3 416.6 232.9 419.6 234C420.1 234.4 421.1 234.3 422.4 233.9C423.8 233.5 424.6 233.3 424.9 233.6C425.7 234.1 426.8 234.4 428.1 234.4C429.2 234.4 430.4 234.1 431.8 233.4C433.1 232.7 433.7 231.8 433.7 230.7Z" fill="#B59A5C"/>
<path d="M347.501 214.2L348.901 218.8C348.401 219.5 347.501 220.4 346.401 221.6C343.401 223.5 339.001 226.5 333.201 230.5C330.001 234 325.001 238.9 318.401 245.3C317.401 245.8 316.201 246.6 314.701 247.7C313.201 248.8 311.101 250.3 308.601 252.1C308.201 252.3 307.501 252.7 306.701 253.2C305.801 253.7 303.901 255.3 300.801 258.1C298.901 258.9 296.401 260.5 293.401 263C292.001 264.5 290.001 266.8 287.501 270C287.201 270.8 286.501 272 285.501 273.4C283.801 273.9 281.501 274.9 278.501 276.4C275.001 278.4 272.601 280.1 271.201 281.6C270.201 282.9 269.301 284.1 268.401 285.4C267.301 286.7 266.301 287.1 265.301 286.6C264.301 286.3 264.001 285.4 264.201 284C264.601 281.5 264.801 280.2 264.901 280.2V273.8C264.901 272.1 265.201 269.4 265.801 265.8C266.401 262.2 266.701 259.4 266.701 257.6C266.701 255.1 266.501 252.7 266.001 250.3C265.601 247.4 265.301 245 265.201 243.3C265.201 242.8 265.501 241 266.201 238V229.2L266.601 220.8C265.901 218.1 265.001 213.8 264.101 208C264.001 206.9 264.301 205.1 265.001 202.6C265.701 200.1 265.901 198.1 265.701 196.7C265.601 195.7 265.101 194.6 264.301 193.4L262.301 190.4C261.301 188.3 260.701 187.1 260.701 186.5C260.701 185.7 261.001 184.8 261.601 184C262.301 184 263.501 183.8 265.101 183.6C266.701 183.3 267.901 183.2 268.601 183.2C269.901 183.2 271.001 183.5 272.101 184.1C272.601 183.7 273.201 183.2 273.801 182.7C274.401 182.2 274.901 182 275.301 182.3C276.001 182.4 277.301 182.8 279.201 183.5C281.001 184.1 282.401 184.4 283.401 184.4C284.701 184.4 285.801 184 286.701 183.3C287.201 183.4 287.901 183.9 288.701 184.6C288.301 186.7 287.601 189.8 286.701 193.9C286.601 194.6 285.701 196.4 284.201 199.3C283.001 201.6 282.601 203.4 282.801 204.7L284.201 217L283.201 221.9C284.301 228.1 284.901 231.4 284.901 231.8C284.901 232.3 284.601 233 284.101 233.7C283.601 234.5 283.301 235.1 283.301 235.6L285.001 240.9C285.101 241.6 285.101 242.6 285.001 243.9C284.601 245.4 284.301 246.3 284.301 246.7C284.301 248 285.001 248.7 286.301 248.7C288.001 248.7 289.801 247.2 291.801 244.2C292.801 242.5 293.901 240.7 295.101 238.9C295.601 237.9 297.001 237.2 299.201 236.7C301.501 236.2 302.801 235.6 303.301 234.8L310.301 226.4L316.301 223.1C318.101 222.2 319.801 221.3 321.401 220.4C323.001 219.5 323.801 218.1 323.601 216.1L317.201 210.7L313.001 203.8C312.501 202.3 311.701 200.4 310.301 197.9C309.901 197.4 309.001 197 307.801 196.8C306.601 196.6 305.701 196.2 305.201 195.8C304.701 195.4 302.501 192.4 298.701 187.1C298.001 186 297.001 184.5 295.501 182.7C293.701 181.4 292.401 180.3 291.701 179.6C290.701 178.2 289.701 176.8 288.801 175.4C287.901 174 286.201 172.3 283.701 170.2C281.001 167.8 279.201 166 278.301 165C277.801 164 277.001 162.4 275.901 160.5C275.701 160.1 273.901 158.7 270.501 156.2C269.001 154.9 267.601 153.8 266.301 152.8C264.301 151.5 262.701 150.7 261.301 150.6H257.301C256.001 150.4 255.101 149.6 254.601 148.3C254.401 147.6 255.001 146.8 256.501 146C258.001 145.2 258.901 144.7 259.201 144.3C259.501 143.3 260.101 141.8 261.101 140C262.401 139.1 264.201 137.8 266.601 136.1C267.401 134.5 268.901 132.6 271.001 130.1C271.701 129.7 272.401 128.7 273.001 127.1C273.401 126.1 274.101 125.5 274.901 125.5C276.101 125.7 277.201 126.5 278.201 128C278.801 129.6 279.601 131 280.501 132.5C281.401 133.9 282.301 135.9 283.201 138.4C283.601 140 284.601 142.5 286.001 145.8C287.301 148.2 289.301 150.2 291.801 152C292.801 152.2 294.001 152.5 295.601 153C296.601 154.7 298.101 157.1 300.201 160.1C302.301 163.2 305.501 167.2 309.801 172.3C311.101 173.6 313.001 175.7 315.301 178.5C315.801 178.9 316.601 179.3 317.701 179.9C318.401 180.9 319.301 182.2 320.601 184C322.301 185.7 324.601 188.3 327.601 191.8C327.801 192.8 328.301 194.1 329.001 195.8C330.301 196.8 332.101 198.5 334.501 200.7C334.901 201.7 335.601 203 336.801 204.6C337.501 204.8 338.601 205.1 339.901 205.6C340.201 206.1 340.301 207.1 340.301 208.5C340.301 209.9 340.601 210.8 341.301 211L347.501 214.2Z" fill="#B59A5C"/>
<path d="M235.3 216.6L246.7 215.9C246.1 216.7 245.4 217.5 244.4 218.5C242.5 220.4 241.3 221.8 241 222.8C239.5 225.5 237.9 229.5 236.1 234.9C236.1 235.9 236 237.2 235.7 238.8C233.8 239.9 231.6 241.9 229.1 244.7C228.6 246.3 228.1 248.6 227.7 251.7C227.3 254.7 226.8 256.9 226.2 258.3C225.5 258.5 224.7 258.9 223.8 259.4C221.7 261.4 219.9 264.4 218.5 268.6C216.5 274.4 215.4 277.7 215.1 278.5C213.8 279.5 212.3 281.1 210.6 283.5C210.4 284.1 210.7 284.9 211.4 285.9C212.1 286.9 212.3 287.8 212.1 288.3C211.7 289.2 210.8 290.2 209.3 291.2C207.8 292.3 206.8 293.1 206.4 293.7C206 294.3 205.5 296.3 205 299.5C204.7 301.3 204.1 302.4 203.2 302.7L201.5 257.3C201.6 257.4 201.6 257.5 201.7 257.7C201.8 258.1 201.9 258.2 202.1 258.2C202.2 258.2 202.6 256.8 203.4 254C204 252.3 205.2 250 206.9 247C207.4 246.9 208 246.6 208.7 246C208.5 244.8 208.5 243.3 208.7 241.5C209.1 240.6 210 239.9 211.6 239.4C213.2 238.9 214.2 238 214.6 236.6C214.3 235.9 214.1 234.7 213.9 233.2C214.6 230.8 216 227.7 218 223.9V223.8L231.3 224.6L235.3 216.6Z" fill="#B59A5C"/>
<path d="M246.101 209.2L224.601 211.5C225.001 209.4 225.001 207.4 224.601 205.5C223.401 205.2 222.001 204.6 220.401 203.6C220.401 202 220.001 199.7 219.301 196.6C217.801 194 215.301 189.4 211.701 182.9C210.701 180.7 208.901 177.6 206.501 173.5C205.401 172.2 203.401 170.8 200.301 169.1L204.801 124.2C204.901 124.3 205.101 124.3 205.201 124.4C207.101 125.3 208.501 127.1 209.501 129.8C209.701 130.7 209.801 132.2 209.701 134.2C209.601 136.2 209.701 137.6 210.001 138.4C210.601 139.9 211.801 141.6 213.501 143.5C215.501 145.7 216.701 147.3 217.101 148.3C217.901 150.4 219.201 153.5 220.901 157.4C222.801 159.9 225.401 164 228.501 169.7C228.901 171.6 229.801 174.5 231.201 178.2C232.501 180 234.301 182.8 236.601 186.6C237.301 188.9 238.501 192.4 239.901 197C241.301 199.8 243.401 203.8 246.101 209.2Z" fill="#B59A5C"/>
<path d="M204.8 124.3L200.3 169.2C200.2 169.1 200 169 199.9 169C199.8 168.9 199.6 169.6 199.4 170.9C199.1 172.2 198.3 174.4 197.1 177.3C195.5 179.1 193.2 181.8 190.3 185.5C190.3 186.6 188.9 189.3 186.2 193.7V194.7C185.3 196.4 184.1 198.9 182.7 202.2C181.3 204.3 180 206.9 178.7 210C178.7 210.2 178.7 210.4 178.7 210.6L159.9 206.8C160.2 206.2 160.5 205.6 160.9 204.9C162.4 203 163.4 201.8 163.7 201.4C164.7 199 166.2 195.5 168.2 191C168.9 190.2 169.8 189 170.8 187.3C171.3 184.6 172.5 180.5 174.3 175.2C175.6 173.9 177.2 171.7 179.4 168.7C180.2 166.6 181.4 163.6 183 159.6C184.4 156.1 186.6 151 189.6 144.3C190.1 143.2 191 141.7 192.3 139.7C193 138.1 194.2 135.4 195.9 131.5C196.6 130.2 198 128.3 199.9 125.7C201.6 124.3 203.3 123.8 204.8 124.3Z" fill="#C2BEB3"/>
<path d="M201.401 257.2L203.101 302.6C202.901 302.7 202.601 302.7 202.301 302.7C201.001 302.7 200.201 301.5 199.901 299.1C199.401 295.5 199.001 293.5 198.901 293.1C198.701 292.7 196.901 289.8 193.401 284.3C192.501 283.3 191.401 281.7 190.101 279.5C189.501 277.4 188.401 274.5 186.801 270.8C186.301 270.7 185.601 270.3 184.701 269.7C184.801 268.7 183.801 265.8 181.801 261.1C181.601 259.7 181.001 257.8 180.101 255.5C179.101 254.6 177.701 252.8 175.901 250.2C175.101 247 173.501 242.5 171.101 236.5C169.501 234.8 167.301 232.1 164.501 228.3C162.501 225.2 160.901 222.6 159.801 220.4L180.901 217.3C181.701 218.8 182.101 220.1 182.201 221C182.501 223.8 183.801 227.1 186.201 230.7C187.601 232 189.501 234.2 192.001 237.2C193.001 240.3 194.601 244.8 197.101 250.8C198.301 251.8 199.801 254 201.401 257.2Z" fill="#C2BEB3"/>
<path d="M147.3 254.3C147.3 254.6 147.3 254.9 147.2 255.2C146.4 256.8 145.5 257.7 144.5 258.1C143.5 258.5 142.5 258.8 141.3 259.2C139.8 259.6 138 260.6 135.9 262.2C133.2 264 131.1 265.3 129.7 266C123.5 269 118.5 272.4 114.8 276.1C113.5 277.4 110.9 278.4 107 279.1C103.8 279.6 101.6 280.7 100.6 282.3C100.2 283 99.4004 283.4 98.4004 283.5C97.4004 283.6 96.7004 283.7 96.4004 284C94.8004 285 93.7004 287.2 93.1004 290.5C92.4004 294.1 91.5004 296.5 90.4004 297.6C89.9004 298.1 89.4004 298.4 89.0004 298.4C88.5004 298.4 87.9004 297.7 87.3004 296.4C86.7004 295 86.1004 293.7 85.6004 292.5C85.6004 292.4 85.0004 291.4 83.8004 289.5C83.1004 288.5 82.7004 287.5 82.7004 286.5C82.7004 285.9 82.9004 285.1 83.2004 284C83.5004 282.9 83.7004 282.2 83.7004 281.8C83.7004 281.1 82.2004 279.6 79.0004 277.4C76.5004 275.4 75.1004 274.3 74.9004 274.1C73.3004 272.8 72.4004 271.3 71.9004 269.7C71.6004 268.7 70.2004 268.1 67.7004 267.9C65.2004 267.7 63.9004 267.3 63.9004 266.7C63.9004 266.6 63.9004 266.4 64.0004 266.1C65.5004 263.4 67.8004 262 71.0004 262C72.2004 262 74.2004 262.3 77.1004 262.8C80.0004 263.3 82.2004 263.6 83.7004 263.6C86.9004 263.6 89.7004 262.7 91.9004 260.8C92.9004 260.1 94.2004 259.6 95.7004 259.4C97.2004 259.2 98.8004 259 100.6 258.8C102.3 258.6 104.8 257.1 108 254.3C111.2 251.5 114.4 249.9 117.7 249.6C118.5 249.5 118.9 249.2 118.9 248.5C118.9 247.8 118.3 246.6 117 244.7C115.7 242.8 115 241.5 114.8 240.8C114.1 240.5 113.3 239.9 112.5 239.1C112.4 239 112.5 238.7 112.7 238.3C112.9 237.9 113 237.6 113 237.4C113 236.9 112.6 236.5 111.8 236.3C111 236.1 110.2 235.2 109.5 233.5C108.8 231.5 108 230.2 107.3 229.6C106.6 229 105.5 227 104 223.5C103 221 102.1 217 98.2004 215.7C95.6004 211.8 91.2004 205.2 91.2004 204.7C91.2004 203.6 90.5004 202.5 89.2004 201.4C87.9004 200.3 87.3004 199.6 87.6004 199.1C87.9004 198.7 87.8004 198.2 87.6004 197.9C83.6004 193.3 81.1004 190.3 80.2004 189.2C77.8004 186.1 75.7004 182.6 73.9004 178.7C73.4004 178.6 72.7004 178.2 72.0004 177.5C71.8004 176.8 71.0004 175.2 69.3004 173C68.0004 171.1 67.4004 169.5 67.4004 168.1C67.4004 166.6 68.2004 165.3 69.8004 164C70.1004 163.8 70.5004 163.7 70.9004 163.7C71.3004 163.7 71.8004 163.8 72.5004 164.1C73.2004 164.4 73.7004 164.5 74.1004 164.5C74.8004 164.5 75.3004 164.1 75.8004 163.3C75.8004 163 76.4004 162.4 77.6004 161.6C78.8004 160.7 79.5004 160.3 79.7004 160.3C81.2004 160.8 82.6004 160.5 83.9004 159.6C86.0004 158.5 88.6004 156.6 91.5004 154C94.0004 151.8 96.5004 150.1 99.0004 148.8C100.5 148.1 102.7 147.6 105.4 147.5C107.6 147.3 109.4 146.4 110.8 145C112.2 143.6 114.7 142.2 118.3 140.9C120.9 140 122.5 138.3 123.3 135.8C123.6 134.8 123.7 132.3 123.7 128.5C123.9 125.6 124.7 124.3 126.1 124.7C128.2 125.2 129.5 126.8 130 129.6C130.5 132.3 131 135.1 131.4 137.9C131.9 139.9 133 141.2 134.7 141.8C136 142.4 137.1 143.4 138.1 144.9C139.1 146.4 139.7 148 139.8 149.8C139.9 151.5 141.1 153.1 143.3 154.5C145.6 155.9 146.7 157.4 146.8 159.1C146.9 160.4 146.9 161 146.8 161C146 161 143.9 160.8 140.5 160.3C137.7 160 135.3 159.9 133.3 159.9C130.4 159.9 127.7 160.3 125.5 161C121 162.5 118.2 163.6 117 164.1C114.4 165.4 112 167.3 109.6 170C108.9 170.7 107.2 171.1 104.7 171.1C103.1 171.1 102.2 171.4 101.7 171.9C100.8 173 99.9004 174.2 98.9004 175.4C98.6004 175.8 98.5004 176.4 98.5004 177.1C98.5004 178.6 100.2 181 103.6 184.3C107.6 188.2 109.9 190.9 110.6 192.5C111.2 194.9 113 198.9 115.9 204.4C116 204.5 127.8 220.9 128.8 223.4C129.4 224.9 130.2 227.4 133 230.5C136.5 233.8 138.5 236.4 139.1 238.1C139.3 240.2 140.3 243.3 142 247.3C142.7 248.2 143.9 249.6 145.6 251.6C146.8 252.7 147.3 253.7 147.3 254.3Z" fill="#C2BEB3"/>
<path d="M204.801 124.1V124.3" stroke="#7E7E7E" stroke-width="0.6981" stroke-miterlimit="10"/>
<path d="M214.5 208.4C215.2 210.2 215.5 211.9 215.5 213.4L211.4 213.7L204 214.7L199.4 215.2L202.6 191.4C202.7 191.4 202.8 191.4 202.9 191.5C205.3 192.3 208.3 196.3 211.8 203.5C212.8 205.2 213.7 206.8 214.5 208.4Z" fill="#B59A5C"/>
<path d="M211.1 214.9L209.3 223.4C208.6 225 207.6 226.8 206.5 228.9C204.4 231.7 202.9 233.4 202 233.8L199.4 215.5V215.4L203.9 214.9H203.7H211.1Z" fill="#B59A5C"/>
<path d="M202.6 191.5L199.4 215.3L196.9 197.6C197.8 196.2 198.9 194.7 200.2 193.1C201.1 192 201.9 191.4 202.6 191.5Z" fill="#C2BEB3"/>
<path d="M199.401 215.4L202.001 233.7C201.801 233.8 201.601 233.9 201.501 233.8C201.001 233.7 200.501 233.4 200.001 233L199.301 216L199.401 215.4Z" fill="#C2BEB3"/>
<path d="M199.4 215.4L199.3 216.1L200 233.1C199.3 232.5 198.6 231.6 197.9 230.4C197 228.7 196.1 227.1 195.1 225.5C194.1 223.3 192.2 220.3 189.6 216.5C189.6 216.5 189.6 216.5 189.5 216.5L197.3 215.6L199.2 215.4H199.4Z" fill="#C2BEB3"/>
<path d="M196.8 197.6L199.3 215.3L197.4 215.5L192.5 206.6C193.4 205 194.3 203.2 195 201C195.5 199.9 196.1 198.8 196.8 197.6Z" fill="#C2BEB3"/>
<path d="M192.6 206.5L197.5 215.4L187.9 212.2C188.3 211.5 188.8 210.9 189.6 210.3C190.7 209.4 191.4 208.6 191.7 207.9C192 207.5 192.3 207 192.6 206.5Z" fill="#C2BEB3"/>
<path d="M76.7323 375.199H65.9033V373.785C67.074 373.265 68.2447 372.874 69.4154 372.614L81.7565 340.469H83.1711L95.5122 372.614C96.1626 372.744 96.7967 372.891 97.4146 373.053C98.0649 373.216 98.6665 373.46 99.2194 373.785V375.199H86.732V373.785C87.3823 373.525 88.049 373.297 88.7319 373.102C89.4148 372.907 90.0814 372.744 90.7318 372.614L87.4149 363.688H75.7567L72.5373 372.614C73.9031 372.809 75.3014 373.2 76.7323 373.785V375.199ZM76.7323 361.151H86.5856L82.7321 350.81L81.8053 346.615H81.7077L80.4882 350.908L76.7323 361.151ZM112.059 341.054H124.449V342.469C123.864 342.729 123.262 342.973 122.644 343.2C122.026 343.396 121.392 343.558 120.742 343.688V371.004C120.742 373.281 120.482 375.151 119.962 376.614C119.441 378.077 118.791 379.248 118.01 380.126C117.262 381.037 116.449 381.703 115.571 382.126C114.726 382.549 113.945 382.842 113.23 383.004L112.693 382.272C113.181 381.85 113.62 381.362 114.01 380.809C114.433 380.289 114.791 379.622 115.084 378.809C115.409 377.996 115.653 377.004 115.815 375.834C115.978 374.663 116.059 373.232 116.059 371.541V343.688C115.344 343.526 114.645 343.347 113.962 343.152C113.279 342.957 112.645 342.729 112.059 342.469V341.054ZM128.782 363.005C128.782 360.956 129.042 359.151 129.562 357.59C130.115 355.997 130.895 354.664 131.904 353.59C132.912 352.485 134.115 351.655 135.513 351.103C136.944 350.517 138.521 350.225 140.245 350.225C142.261 350.225 144.001 350.534 145.464 351.151C146.928 351.769 148.114 352.647 149.025 353.785C149.968 354.891 150.651 356.224 151.074 357.785C151.529 359.346 151.757 361.086 151.757 363.005C151.757 367.102 150.716 370.257 148.635 372.468C146.554 374.679 143.757 375.785 140.245 375.785C138.294 375.785 136.603 375.492 135.172 374.907C133.741 374.289 132.554 373.427 131.611 372.322C130.668 371.183 129.952 369.834 129.465 368.273C129.009 366.679 128.782 364.923 128.782 363.005ZM133.465 363.005C133.465 364.468 133.595 365.85 133.855 367.151C134.147 368.452 134.586 369.59 135.172 370.565C135.79 371.509 136.586 372.256 137.562 372.809C138.538 373.362 139.708 373.639 141.074 373.639C142.83 373.639 144.261 372.777 145.367 371.053C146.505 369.33 147.074 366.647 147.074 363.005C147.074 361.509 146.928 360.127 146.635 358.858C146.375 357.558 145.952 356.436 145.367 355.493C144.781 354.517 144.033 353.753 143.123 353.2C142.212 352.647 141.123 352.371 139.855 352.371C137.936 352.371 136.391 353.233 135.221 354.956C134.05 356.68 133.465 359.363 133.465 363.005ZM165.646 354.468C165.288 354.664 164.833 355.07 164.28 355.688C163.76 356.273 163.288 357.151 162.865 358.322V372.809C163.516 372.874 164.166 373.004 164.816 373.2C165.467 373.362 166.117 373.622 166.768 373.98V375.199H155.256V373.98C155.841 373.655 156.394 373.411 156.914 373.248C157.435 373.086 157.955 372.939 158.475 372.809V353.639L155.256 353.249V351.981C156.296 351.525 157.37 351.168 158.475 350.908C159.581 350.615 160.638 350.387 161.646 350.225H162.865V355.395H163.06C163.353 354.745 163.76 354.094 164.28 353.444C164.833 352.794 165.451 352.208 166.133 351.688C166.849 351.168 167.613 350.777 168.426 350.517C169.272 350.225 170.133 350.127 171.011 350.225C171.239 350.647 171.434 351.119 171.597 351.639C171.792 352.127 171.971 352.647 172.133 353.2V354.468H165.646ZM200.61 375.199H190.122V373.98C191 373.525 191.96 373.134 193 372.809V361.249C193 358.777 192.643 356.826 191.927 355.395C191.212 353.964 189.911 353.249 188.025 353.249C187.212 353.249 186.448 353.395 185.732 353.688C185.049 353.981 184.432 354.387 183.879 354.907C183.358 355.395 182.903 355.964 182.513 356.615C182.123 357.233 181.814 357.883 181.586 358.566V372.809C182.594 373.004 183.57 373.395 184.513 373.98V375.199H173.977V373.98C174.79 373.557 175.863 373.167 177.196 372.809V353.639L173.977 353.249V351.981C174.822 351.623 175.798 351.298 176.903 351.005C178.009 350.712 179.163 350.452 180.367 350.225H181.586V355.688H181.635C182.318 354.192 183.293 352.907 184.562 351.834C185.862 350.761 187.423 350.225 189.244 350.225C190.545 350.225 191.7 350.387 192.708 350.712C193.748 351.005 194.61 351.542 195.293 352.322C195.976 353.103 196.496 354.159 196.854 355.493C197.212 356.794 197.391 358.452 197.391 360.468V372.809C198.691 373.037 199.764 373.427 200.61 373.98V375.199ZM221.426 368.809C221.426 369.525 221.443 370.143 221.475 370.663C221.508 371.183 221.54 371.736 221.573 372.322L224.938 372.809V373.834C224.125 374.256 223.215 374.63 222.207 374.956C221.231 375.281 220.288 375.525 219.378 375.687H218.158C217.833 374.939 217.638 374.126 217.573 373.248C217.508 372.338 217.459 371.346 217.427 370.273H217.183C217.053 370.923 216.792 371.59 216.402 372.273C216.044 372.923 215.557 373.508 214.939 374.029C214.353 374.549 213.654 374.972 212.841 375.297C212.028 375.622 211.102 375.785 210.061 375.785C208.077 375.785 206.451 375.183 205.183 373.98C203.947 372.777 203.329 371.2 203.329 369.248C203.329 367.753 203.622 366.533 204.207 365.59C204.825 364.614 205.72 363.85 206.89 363.297C208.061 362.745 209.508 362.354 211.232 362.127C212.955 361.867 214.955 361.671 217.231 361.541C217.361 360.143 217.394 358.891 217.329 357.785C217.296 356.647 217.118 355.688 216.792 354.907C216.5 354.094 216.044 353.477 215.427 353.054C214.841 352.599 214.061 352.371 213.085 352.371C212.63 352.371 212.11 352.403 211.524 352.468C210.971 352.501 210.419 352.631 209.866 352.859L207.573 358.712H206.305C205.98 357.737 205.687 356.728 205.427 355.688C205.199 354.647 205.053 353.623 204.988 352.615C206.224 351.867 207.589 351.281 209.085 350.859C210.614 350.436 212.305 350.225 214.158 350.225C215.817 350.225 217.134 350.469 218.109 350.956C219.118 351.412 219.882 352.013 220.402 352.761C220.922 353.509 221.264 354.338 221.426 355.249C221.589 356.159 221.67 357.07 221.67 357.98C221.67 359.932 221.622 361.818 221.524 363.639C221.459 365.427 221.426 367.151 221.426 368.809ZM212.012 372.761C212.825 372.761 213.54 372.598 214.158 372.273C214.776 371.948 215.296 371.557 215.719 371.102C216.142 370.647 216.483 370.191 216.744 369.736C217.004 369.248 217.183 368.842 217.28 368.517V363.395C215.394 363.395 213.849 363.493 212.646 363.688C211.443 363.883 210.5 364.192 209.817 364.614C209.134 365.037 208.663 365.574 208.402 366.224C208.142 366.842 208.012 367.557 208.012 368.37C208.012 369.769 208.37 370.858 209.085 371.639C209.801 372.387 210.776 372.761 212.012 372.761ZM244.249 370.37C244.087 371.086 243.81 371.769 243.42 372.419C243.03 373.069 242.542 373.655 241.957 374.175C241.404 374.663 240.753 375.053 240.005 375.346C239.29 375.638 238.51 375.785 237.664 375.785C234.445 375.785 232.038 374.76 230.445 372.712C228.851 370.663 228.055 367.476 228.055 363.151C228.055 358.989 229.063 355.818 231.079 353.639C233.128 351.46 235.876 350.371 239.323 350.371C240.526 350.371 241.469 350.436 242.152 350.566C242.835 350.664 243.583 350.859 244.396 351.151V341.932L240.688 341.542V340.274C241.631 339.883 242.721 339.542 243.957 339.249C245.225 338.957 246.428 338.713 247.566 338.518H248.786V372.419L252.005 372.809V373.834C251.062 374.289 250.086 374.679 249.078 375.004C248.07 375.33 247.078 375.557 246.103 375.687H244.883L244.444 370.37H244.249ZM238.64 372.761C240.233 372.761 241.501 372.256 242.444 371.248C243.387 370.24 244.038 368.874 244.396 367.151V353.395C243.843 353.07 243.192 352.842 242.444 352.712C241.696 352.582 240.737 352.517 239.566 352.517C237.355 352.517 235.664 353.493 234.493 355.444C233.323 357.363 232.737 359.932 232.737 363.151C232.737 364.484 232.851 365.736 233.079 366.907C233.306 368.045 233.664 369.053 234.152 369.931C234.64 370.809 235.241 371.509 235.957 372.029C236.705 372.517 237.599 372.761 238.64 372.761ZM273.111 368.809C273.111 369.525 273.127 370.143 273.16 370.663C273.192 371.183 273.225 371.736 273.258 372.322L276.623 372.809V373.834C275.81 374.256 274.9 374.63 273.892 374.956C272.916 375.281 271.973 375.525 271.062 375.687H269.843C269.518 374.939 269.323 374.126 269.258 373.248C269.193 372.338 269.144 371.346 269.111 370.273H268.867C268.737 370.923 268.477 371.59 268.087 372.273C267.729 372.923 267.241 373.508 266.624 374.029C266.038 374.549 265.339 374.972 264.526 375.297C263.713 375.622 262.786 375.785 261.746 375.785C259.762 375.785 258.136 375.183 256.868 373.98C255.632 372.777 255.014 371.2 255.014 369.248C255.014 367.753 255.307 366.533 255.892 365.59C256.51 364.614 257.404 363.85 258.575 363.297C259.746 362.745 261.193 362.354 262.916 362.127C264.64 361.867 266.64 361.671 268.916 361.541C269.046 360.143 269.079 358.891 269.014 357.785C268.981 356.647 268.802 355.688 268.477 354.907C268.184 354.094 267.729 353.477 267.111 353.054C266.526 352.599 265.746 352.371 264.77 352.371C264.315 352.371 263.794 352.403 263.209 352.468C262.656 352.501 262.103 352.631 261.551 352.859L259.258 358.712H257.99C257.664 357.737 257.372 356.728 257.112 355.688C256.884 354.647 256.738 353.623 256.673 352.615C257.908 351.867 259.274 351.281 260.77 350.859C262.298 350.436 263.99 350.225 265.843 350.225C267.502 350.225 268.819 350.469 269.794 350.956C270.802 351.412 271.567 352.013 272.087 352.761C272.607 353.509 272.949 354.338 273.111 355.249C273.274 356.159 273.355 357.07 273.355 357.98C273.355 359.932 273.306 361.818 273.209 363.639C273.144 365.427 273.111 367.151 273.111 368.809ZM263.697 372.761C264.51 372.761 265.225 372.598 265.843 372.273C266.461 371.948 266.981 371.557 267.404 371.102C267.827 370.647 268.168 370.191 268.428 369.736C268.689 369.248 268.867 368.842 268.965 368.517V363.395C267.079 363.395 265.534 363.493 264.331 363.688C263.128 363.883 262.185 364.192 261.502 364.614C260.819 365.037 260.347 365.574 260.087 366.224C259.827 366.842 259.697 367.557 259.697 368.37C259.697 369.769 260.055 370.858 260.77 371.639C261.486 372.387 262.461 372.761 263.697 372.761ZM307.795 370.37C307.633 371.086 307.356 371.769 306.966 372.419C306.576 373.069 306.088 373.655 305.503 374.175C304.95 374.663 304.299 375.053 303.552 375.346C302.836 375.638 302.056 375.785 301.21 375.785C297.991 375.785 295.584 374.76 293.991 372.712C292.397 370.663 291.601 367.476 291.601 363.151C291.601 358.989 292.609 355.818 294.625 353.639C296.674 351.46 299.422 350.371 302.869 350.371C304.072 350.371 305.015 350.436 305.698 350.566C306.381 350.664 307.129 350.859 307.942 351.151V341.932L304.234 341.542V340.274C305.178 339.883 306.267 339.542 307.503 339.249C308.771 338.957 309.974 338.713 311.112 338.518H312.332V372.419L315.551 372.809V373.834C314.608 374.289 313.633 374.679 312.624 375.004C311.616 375.33 310.625 375.557 309.649 375.687H308.429L307.99 370.37H307.795ZM302.186 372.761C303.779 372.761 305.047 372.256 305.99 371.248C306.934 370.24 307.584 368.874 307.942 367.151V353.395C307.389 353.07 306.738 352.842 305.99 352.712C305.243 352.582 304.283 352.517 303.113 352.517C300.901 352.517 299.21 353.493 298.04 355.444C296.869 357.363 296.283 359.932 296.283 363.151C296.283 364.484 296.397 365.736 296.625 366.907C296.853 368.045 297.21 369.053 297.698 369.931C298.186 370.809 298.787 371.509 299.503 372.029C300.251 372.517 301.145 372.761 302.186 372.761ZM338.413 371.785C338.153 372.338 337.747 372.858 337.194 373.346C336.641 373.834 336.007 374.256 335.291 374.614C334.576 374.972 333.796 375.248 332.95 375.443C332.105 375.671 331.243 375.785 330.365 375.785C328.446 375.785 326.755 375.492 325.292 374.907C323.828 374.289 322.609 373.427 321.633 372.322C320.658 371.183 319.91 369.834 319.389 368.273C318.902 366.712 318.658 364.956 318.658 363.005C318.658 358.842 319.617 355.672 321.536 353.493C323.454 351.314 326.17 350.225 329.682 350.225C330.82 350.225 331.942 350.387 333.048 350.712C334.153 351.005 335.129 351.509 335.974 352.225C336.852 352.94 337.552 353.899 338.072 355.103C338.625 356.273 338.901 357.737 338.901 359.493C338.901 360.045 338.869 360.615 338.804 361.2C338.771 361.753 338.69 362.354 338.56 363.005H323.341C323.341 364.371 323.503 365.655 323.828 366.858C324.186 368.029 324.706 369.053 325.389 369.931C326.072 370.809 326.934 371.509 327.975 372.029C329.015 372.517 330.235 372.761 331.633 372.761C332.771 372.761 333.926 372.598 335.096 372.273C336.267 371.948 337.145 371.525 337.73 371.004L338.413 371.785ZM329.487 352.371C327.633 352.371 326.219 353.005 325.243 354.273C324.267 355.509 323.682 357.704 323.487 360.858H334.218C334.251 360.566 334.267 360.289 334.267 360.029C334.3 359.737 334.316 359.46 334.316 359.2C334.316 357.119 333.926 355.46 333.145 354.224C332.365 352.989 331.145 352.371 329.487 352.371ZM363.149 372.614C363.897 372.777 364.612 372.956 365.295 373.151C365.978 373.313 366.645 373.525 367.295 373.785V375.199H354.466V373.785C355.182 373.46 355.864 373.216 356.515 373.053C357.165 372.891 357.816 372.744 358.466 372.614V343.688C357.621 343.526 356.873 343.347 356.222 343.152C355.572 342.924 354.986 342.696 354.466 342.469V341.054H358.759C360.059 341.054 361.474 340.989 363.002 340.859C364.563 340.729 366.076 340.664 367.539 340.664C369.132 340.664 370.612 340.843 371.978 341.2C373.376 341.558 374.579 342.127 375.587 342.908C376.596 343.688 377.376 344.68 377.929 345.883C378.514 347.086 378.807 348.534 378.807 350.225C378.807 352.599 378.173 354.566 376.905 356.127C375.669 357.688 373.978 358.81 371.831 359.493C373.23 361.704 374.693 363.899 376.222 366.078C377.75 368.257 379.343 370.419 381.002 372.565L383.636 373.98V375.199H377.734L375.88 373.834C374.97 372.695 374.14 371.59 373.392 370.517C372.644 369.411 371.945 368.305 371.295 367.2C370.645 366.062 370.027 364.923 369.441 363.785C368.888 362.614 368.319 361.379 367.734 360.078H363.149V372.614ZM366.466 343.2C365.685 343.2 365.035 343.217 364.515 343.249C364.027 343.282 363.572 343.347 363.149 343.444V358.029H366.661C368.905 358.029 370.677 357.314 371.978 355.883C373.311 354.452 373.978 352.566 373.978 350.225C373.978 347.818 373.279 346.046 371.88 344.908C370.482 343.77 368.677 343.2 366.466 343.2ZM387.866 365.541C387.866 363.493 387.915 361.493 388.012 359.541C388.11 357.558 388.159 355.59 388.159 353.639L384.939 353.249V351.981C385.98 351.59 387.037 351.249 388.11 350.956C389.216 350.664 390.289 350.42 391.329 350.225H392.549C392.549 352.664 392.5 355.086 392.403 357.493C392.305 359.899 392.256 362.289 392.256 364.663C392.256 365.931 392.321 367.07 392.451 368.078C392.614 369.086 392.874 369.931 393.232 370.614C393.622 371.297 394.142 371.834 394.793 372.224C395.443 372.582 396.272 372.761 397.28 372.761C398.744 372.761 399.963 372.24 400.939 371.2C401.947 370.126 402.727 368.744 403.28 367.053V353.639L400.11 353.249V351.981C401.118 351.59 402.158 351.249 403.231 350.956C404.337 350.664 405.41 350.42 406.451 350.225H407.67V372.419L410.89 372.809V373.834C409.947 374.256 408.987 374.63 408.012 374.956C407.069 375.281 406.077 375.525 405.036 375.687H403.817L403.475 369.883H403.28C403.118 370.565 402.825 371.265 402.402 371.98C402.012 372.663 401.492 373.297 400.841 373.882C400.191 374.435 399.443 374.891 398.597 375.248C397.784 375.606 396.89 375.785 395.915 375.785C394.614 375.785 393.459 375.622 392.451 375.297C391.476 375.004 390.646 374.468 389.964 373.687C389.281 372.907 388.76 371.866 388.403 370.565C388.045 369.232 387.866 367.557 387.866 365.541ZM424.949 375.199H414.12V373.98C414.608 373.72 415.112 373.508 415.632 373.346C416.152 373.151 416.721 372.972 417.339 372.809V353.639L414.12 353.249V351.981C415.063 351.59 416.087 351.249 417.193 350.956C418.299 350.664 419.404 350.42 420.51 350.225H421.729V372.809C422.38 372.972 422.965 373.151 423.485 373.346C424.006 373.508 424.493 373.72 424.949 373.98V375.199ZM416.412 342.518C416.412 341.64 416.689 340.94 417.242 340.42C417.827 339.9 418.591 339.64 419.534 339.64C420.477 339.64 421.225 339.9 421.778 340.42C422.331 340.94 422.607 341.64 422.607 342.518C422.607 343.396 422.331 344.095 421.778 344.615C421.225 345.103 420.477 345.347 419.534 345.347C418.591 345.347 417.827 345.103 417.242 344.615C416.689 344.095 416.412 343.396 416.412 342.518ZM466.798 375.199H456.311V373.98C457.189 373.525 458.148 373.134 459.189 372.809V361.249C459.189 358.777 458.831 356.826 458.116 355.395C457.4 353.964 456.1 353.249 454.213 353.249C453.401 353.249 452.636 353.395 451.921 353.688C451.238 353.981 450.62 354.387 450.067 354.907C449.547 355.395 449.092 355.964 448.701 356.615C448.311 357.233 448.002 357.883 447.775 358.566V372.809C448.783 373.004 449.758 373.395 450.701 373.98V375.199H440.165V373.98C440.978 373.557 442.051 373.167 443.385 372.809V353.639L440.165 353.249V351.981C441.011 351.623 441.986 351.298 443.092 351.005C444.198 350.712 445.352 350.452 446.555 350.225H447.775V355.688H447.823C448.506 354.192 449.482 352.907 450.75 351.834C452.051 350.761 453.612 350.225 455.433 350.225C456.734 350.225 457.888 350.387 458.896 350.712C459.937 351.005 460.799 351.542 461.482 352.322C462.164 353.103 462.685 354.159 463.042 355.493C463.4 356.794 463.579 358.452 463.579 360.468V372.809C464.88 373.037 465.953 373.427 466.798 373.98V375.199ZM487.615 368.809C487.615 369.525 487.631 370.143 487.664 370.663C487.696 371.183 487.729 371.736 487.761 372.322L491.127 372.809V373.834C490.314 374.256 489.403 374.63 488.395 374.956C487.42 375.281 486.477 375.525 485.566 375.687H484.347C484.022 374.939 483.826 374.126 483.761 373.248C483.696 372.338 483.648 371.346 483.615 370.273H483.371C483.241 370.923 482.981 371.59 482.591 372.273C482.233 372.923 481.745 373.508 481.127 374.029C480.542 374.549 479.843 374.972 479.03 375.297C478.217 375.622 477.29 375.785 476.249 375.785C474.266 375.785 472.64 375.183 471.372 373.98C470.136 372.777 469.518 371.2 469.518 369.248C469.518 367.753 469.811 366.533 470.396 365.59C471.014 364.614 471.908 363.85 473.079 363.297C474.249 362.745 475.697 362.354 477.42 362.127C479.144 361.867 481.144 361.671 483.42 361.541C483.55 360.143 483.583 358.891 483.517 357.785C483.485 356.647 483.306 355.688 482.981 354.907C482.688 354.094 482.233 353.477 481.615 353.054C481.03 352.599 480.249 352.371 479.274 352.371C478.818 352.371 478.298 352.403 477.713 352.468C477.16 352.501 476.607 352.631 476.054 352.859L473.762 358.712H472.493C472.168 357.737 471.876 356.728 471.615 355.688C471.388 354.647 471.241 353.623 471.176 352.615C472.412 351.867 473.778 351.281 475.274 350.859C476.802 350.436 478.493 350.225 480.347 350.225C482.005 350.225 483.322 350.469 484.298 350.956C485.306 351.412 486.07 352.013 486.591 352.761C487.111 353.509 487.452 354.338 487.615 355.249C487.778 356.159 487.859 357.07 487.859 357.98C487.859 359.932 487.81 361.818 487.712 363.639C487.647 365.427 487.615 367.151 487.615 368.809ZM478.201 372.761C479.014 372.761 479.729 372.598 480.347 372.273C480.965 371.948 481.485 371.557 481.908 371.102C482.331 370.647 482.672 370.191 482.932 369.736C483.192 369.248 483.371 368.842 483.469 368.517V363.395C481.583 363.395 480.038 363.493 478.835 363.688C477.631 363.883 476.688 364.192 476.006 364.614C475.323 365.037 474.851 365.574 474.591 366.224C474.331 366.842 474.201 367.557 474.201 368.37C474.201 369.769 474.558 370.858 475.274 371.639C475.989 372.387 476.965 372.761 478.201 372.761ZM530.787 366.322H532.055C532.217 367.232 532.364 368.387 532.494 369.785C532.624 371.151 532.656 372.484 532.591 373.785C532.104 374.175 531.518 374.5 530.835 374.76C530.152 374.988 529.421 375.183 528.64 375.346C527.892 375.508 527.112 375.622 526.299 375.687C525.518 375.752 524.771 375.785 524.055 375.785C521.323 375.785 518.885 375.443 516.738 374.76C514.592 374.045 512.771 372.972 511.275 371.541C509.812 370.11 508.673 368.289 507.86 366.078C507.08 363.834 506.69 361.184 506.69 358.127C506.69 354.94 507.129 352.241 508.007 350.029C508.885 347.786 510.072 345.965 511.568 344.566C513.064 343.135 514.803 342.095 516.787 341.444C518.771 340.794 520.852 340.469 523.031 340.469C525.177 340.469 526.982 340.615 528.445 340.908C529.909 341.168 531.193 341.574 532.299 342.127C532.299 342.648 532.282 343.265 532.25 343.981C532.217 344.664 532.169 345.395 532.104 346.176C532.039 346.956 531.957 347.721 531.86 348.469C531.762 349.217 531.665 349.899 531.567 350.517H530.299L527.762 343.493C527.405 343.298 526.803 343.168 525.957 343.103C525.145 343.038 524.332 343.005 523.519 343.005C521.893 343.005 520.348 343.314 518.885 343.932C517.454 344.517 516.185 345.444 515.08 346.713C514.007 347.948 513.145 349.525 512.494 351.444C511.844 353.33 511.519 355.558 511.519 358.127C511.519 360.436 511.812 362.533 512.397 364.419C512.982 366.273 513.828 367.866 514.933 369.2C516.039 370.5 517.389 371.509 518.982 372.224C520.576 372.907 522.38 373.248 524.397 373.248C525.47 373.248 526.364 373.167 527.079 373.004C527.795 372.842 528.266 372.63 528.494 372.37L530.787 366.322ZM555.496 368.809C555.496 369.525 555.512 370.143 555.545 370.663C555.577 371.183 555.61 371.736 555.642 372.322L559.008 372.809V373.834C558.195 374.256 557.284 374.63 556.276 374.956C555.301 375.281 554.358 375.525 553.447 375.687H552.228C551.902 374.939 551.707 374.126 551.642 373.248C551.577 372.338 551.528 371.346 551.496 370.273H551.252C551.122 370.923 550.862 371.59 550.472 372.273C550.114 372.923 549.626 373.508 549.008 374.029C548.423 374.549 547.724 374.972 546.911 375.297C546.098 375.622 545.171 375.785 544.13 375.785C542.147 375.785 540.521 375.183 539.252 373.98C538.017 372.777 537.399 371.2 537.399 369.248C537.399 367.753 537.692 366.533 538.277 365.59C538.895 364.614 539.789 363.85 540.96 363.297C542.13 362.745 543.578 362.354 545.301 362.127C547.025 361.867 549.025 361.671 551.301 361.541C551.431 360.143 551.463 358.891 551.398 357.785C551.366 356.647 551.187 355.688 550.862 354.907C550.569 354.094 550.114 353.477 549.496 353.054C548.911 352.599 548.13 352.371 547.155 352.371C546.699 352.371 546.179 352.403 545.594 352.468C545.041 352.501 544.488 352.631 543.935 352.859L541.643 358.712H540.374C540.049 357.737 539.756 356.728 539.496 355.688C539.269 354.647 539.122 353.623 539.057 352.615C540.293 351.867 541.659 351.281 543.155 350.859C544.683 350.436 546.374 350.225 548.228 350.225C549.886 350.225 551.203 350.469 552.179 350.956C553.187 351.412 553.951 352.013 554.471 352.761C554.992 353.509 555.333 354.338 555.496 355.249C555.658 356.159 555.74 357.07 555.74 357.98C555.74 359.932 555.691 361.818 555.593 363.639C555.528 365.427 555.496 367.151 555.496 368.809ZM546.082 372.761C546.894 372.761 547.61 372.598 548.228 372.273C548.846 371.948 549.366 371.557 549.789 371.102C550.211 370.647 550.553 370.191 550.813 369.736C551.073 369.248 551.252 368.842 551.35 368.517V363.395C549.464 363.395 547.919 363.493 546.716 363.688C545.512 363.883 544.569 364.192 543.886 364.614C543.204 365.037 542.732 365.574 542.472 366.224C542.212 366.842 542.082 367.557 542.082 368.37C542.082 369.769 542.439 370.858 543.155 371.639C543.87 372.387 544.846 372.761 546.082 372.761ZM571.734 375.785L562.222 353.249C561.279 352.924 560.417 352.533 559.636 352.078V350.81H569.831V352.029C569.408 352.257 568.969 352.485 568.514 352.712C568.091 352.907 567.604 353.086 567.051 353.249L572.709 367.931L573.685 370.956H573.782L574.514 367.883L579.733 353.249C579.213 353.119 578.725 352.956 578.27 352.761C577.847 352.566 577.441 352.338 577.05 352.078V350.81H585.343V352.078C585.018 352.306 584.611 352.517 584.123 352.712C583.668 352.907 583.148 353.086 582.562 353.249L573.929 375.199L571.734 375.785ZM605.745 371.785C605.485 372.338 605.078 372.858 604.526 373.346C603.973 373.834 603.339 374.256 602.623 374.614C601.908 374.972 601.127 375.248 600.282 375.443C599.436 375.671 598.575 375.785 597.697 375.785C595.778 375.785 594.087 375.492 592.624 374.907C591.16 374.289 589.941 373.427 588.965 372.322C587.99 371.183 587.242 369.834 586.721 368.273C586.233 366.712 585.99 364.956 585.99 363.005C585.99 358.842 586.949 355.672 588.868 353.493C590.786 351.314 593.502 350.225 597.014 350.225C598.152 350.225 599.274 350.387 600.379 350.712C601.485 351.005 602.461 351.509 603.306 352.225C604.184 352.94 604.883 353.899 605.404 355.103C605.956 356.273 606.233 357.737 606.233 359.493C606.233 360.045 606.2 360.615 606.135 361.2C606.103 361.753 606.021 362.354 605.891 363.005H590.672C590.672 364.371 590.835 365.655 591.16 366.858C591.518 368.029 592.038 369.053 592.721 369.931C593.404 370.809 594.266 371.509 595.306 372.029C596.347 372.517 597.566 372.761 598.965 372.761C600.103 372.761 601.257 372.598 602.428 372.273C603.599 371.948 604.477 371.525 605.062 371.004L605.745 371.785ZM596.819 352.371C594.965 352.371 593.55 353.005 592.575 354.273C591.599 355.509 591.014 357.704 590.819 360.858H601.55C601.583 360.566 601.599 360.289 601.599 360.029C601.631 359.737 601.648 359.46 601.648 359.2C601.648 357.119 601.257 355.46 600.477 354.224C599.696 352.989 598.477 352.371 596.819 352.371ZM620.424 354.468C620.066 354.664 619.611 355.07 619.058 355.688C618.538 356.273 618.066 357.151 617.644 358.322V372.809C618.294 372.874 618.944 373.004 619.595 373.2C620.245 373.362 620.896 373.622 621.546 373.98V375.199H610.034V373.98C610.62 373.655 611.172 373.411 611.693 373.248C612.213 373.086 612.733 372.939 613.254 372.809V353.639L610.034 353.249V351.981C611.075 351.525 612.148 351.168 613.254 350.908C614.359 350.615 615.416 350.387 616.424 350.225H617.644V355.395H617.839C618.131 354.745 618.538 354.094 619.058 353.444C619.611 352.794 620.229 352.208 620.912 351.688C621.627 351.168 622.392 350.777 623.205 350.517C624.05 350.225 624.912 350.127 625.79 350.225C626.017 350.647 626.213 351.119 626.375 351.639C626.57 352.127 626.749 352.647 626.912 353.2V354.468H620.424ZM655.388 375.199H644.901V373.98C645.779 373.525 646.738 373.134 647.779 372.809V361.249C647.779 358.777 647.421 356.826 646.706 355.395C645.99 353.964 644.69 353.249 642.803 353.249C641.99 353.249 641.226 353.395 640.511 353.688C639.828 353.981 639.21 354.387 638.657 354.907C638.137 355.395 637.682 355.964 637.291 356.615C636.901 357.233 636.592 357.883 636.365 358.566V372.809C637.373 373.004 638.348 373.395 639.291 373.98V375.199H628.755V373.98C629.568 373.557 630.641 373.167 631.974 372.809V353.639L628.755 353.249V351.981C629.601 351.623 630.576 351.298 631.682 351.005C632.787 350.712 633.942 350.452 635.145 350.225H636.365V355.688H636.413C637.096 354.192 638.072 352.907 639.34 351.834C640.641 350.761 642.202 350.225 644.023 350.225C645.324 350.225 646.478 350.387 647.486 350.712C648.527 351.005 649.389 351.542 650.071 352.322C650.754 353.103 651.275 354.159 651.632 355.493C651.99 356.794 652.169 358.452 652.169 360.468V372.809C653.47 373.037 654.543 373.427 655.388 373.98V375.199ZM676.205 368.809C676.205 369.525 676.221 370.143 676.254 370.663C676.286 371.183 676.319 371.736 676.351 372.322L679.717 372.809V373.834C678.904 374.256 677.993 374.63 676.985 374.956C676.01 375.281 675.067 375.525 674.156 375.687H672.937C672.611 374.939 672.416 374.126 672.351 373.248C672.286 372.338 672.237 371.346 672.205 370.273H671.961C671.831 370.923 671.571 371.59 671.181 372.273C670.823 372.923 670.335 373.508 669.717 374.029C669.132 374.549 668.433 374.972 667.62 375.297C666.807 375.622 665.88 375.785 664.839 375.785C662.856 375.785 661.23 375.183 659.961 373.98C658.726 372.777 658.108 371.2 658.108 369.248C658.108 367.753 658.4 366.533 658.986 365.59C659.604 364.614 660.498 363.85 661.669 363.297C662.839 362.745 664.286 362.354 666.01 362.127C667.734 361.867 669.733 361.671 672.01 361.541C672.14 360.143 672.172 358.891 672.107 357.785C672.075 356.647 671.896 355.688 671.571 354.907C671.278 354.094 670.823 353.477 670.205 353.054C669.62 352.599 668.839 352.371 667.864 352.371C667.408 352.371 666.888 352.403 666.303 352.468C665.75 352.501 665.197 352.631 664.644 352.859L662.352 358.712H661.083C660.758 357.737 660.465 356.728 660.205 355.688C659.978 354.647 659.831 353.623 659.766 352.615C661.002 351.867 662.368 351.281 663.864 350.859C665.392 350.436 667.083 350.225 668.937 350.225C670.595 350.225 671.912 350.469 672.888 350.956C673.896 351.412 674.66 352.013 675.18 352.761C675.701 353.509 676.042 354.338 676.205 355.249C676.367 356.159 676.449 357.07 676.449 357.98C676.449 359.932 676.4 361.818 676.302 363.639C676.237 365.427 676.205 367.151 676.205 368.809ZM666.79 372.761C667.603 372.761 668.319 372.598 668.937 372.273C669.555 371.948 670.075 371.557 670.498 371.102C670.92 370.647 671.262 370.191 671.522 369.736C671.782 369.248 671.961 368.842 672.059 368.517V363.395C670.172 363.395 668.628 363.493 667.425 363.688C666.221 363.883 665.278 364.192 664.595 364.614C663.913 365.037 663.441 365.574 663.181 366.224C662.921 366.842 662.791 367.557 662.791 368.37C662.791 369.769 663.148 370.858 663.864 371.639C664.579 372.387 665.555 372.761 666.79 372.761ZM710.889 370.37C710.726 371.086 710.45 371.769 710.06 372.419C709.669 373.069 709.182 373.655 708.596 374.175C708.044 374.663 707.393 375.053 706.645 375.346C705.93 375.638 705.149 375.785 704.304 375.785C701.084 375.785 698.678 374.76 697.085 372.712C695.491 370.663 694.694 367.476 694.694 363.151C694.694 358.989 695.702 355.818 697.719 353.639C699.767 351.46 702.515 350.371 705.962 350.371C707.166 350.371 708.109 350.436 708.791 350.566C709.474 350.664 710.222 350.859 711.035 351.151V341.932L707.328 341.542V340.274C708.271 339.883 709.361 339.542 710.596 339.249C711.865 338.957 713.068 338.713 714.206 338.518H715.425V372.419L718.645 372.809V373.834C717.702 374.289 716.726 374.679 715.718 375.004C714.71 375.33 713.718 375.557 712.743 375.687H711.523L711.084 370.37H710.889ZM705.279 372.761C706.873 372.761 708.141 372.256 709.084 371.248C710.027 370.24 710.678 368.874 711.035 367.151V353.395C710.482 353.07 709.832 352.842 709.084 352.712C708.336 352.582 707.377 352.517 706.206 352.517C703.995 352.517 702.304 353.493 701.133 355.444C699.962 357.363 699.377 359.932 699.377 363.151C699.377 364.484 699.491 365.736 699.719 366.907C699.946 368.045 700.304 369.053 700.792 369.931C701.28 370.809 701.881 371.509 702.597 372.029C703.344 372.517 704.239 372.761 705.279 372.761ZM741.507 371.785C741.247 372.338 740.84 372.858 740.287 373.346C739.735 373.834 739.101 374.256 738.385 374.614C737.67 374.972 736.889 375.248 736.044 375.443C735.198 375.671 734.336 375.785 733.458 375.785C731.54 375.785 729.849 375.492 728.385 374.907C726.922 374.289 725.703 373.427 724.727 372.322C723.751 371.183 723.003 369.834 722.483 368.273C721.995 366.712 721.751 364.956 721.751 363.005C721.751 358.842 722.711 355.672 724.629 353.493C726.548 351.314 729.263 350.225 732.776 350.225C733.914 350.225 735.036 350.387 736.141 350.712C737.247 351.005 738.223 351.509 739.068 352.225C739.946 352.94 740.645 353.899 741.166 355.103C741.718 356.273 741.995 357.737 741.995 359.493C741.995 360.045 741.962 360.615 741.897 361.2C741.865 361.753 741.783 362.354 741.653 363.005H726.434C726.434 364.371 726.597 365.655 726.922 366.858C727.28 368.029 727.8 369.053 728.483 369.931C729.166 370.809 730.028 371.509 731.068 372.029C732.109 372.517 733.328 372.761 734.727 372.761C735.865 372.761 737.019 372.598 738.19 372.273C739.361 371.948 740.239 371.525 740.824 371.004L741.507 371.785ZM732.58 352.371C730.727 352.371 729.312 353.005 728.337 354.273C727.361 355.509 726.776 357.704 726.581 360.858H737.312C737.344 360.566 737.361 360.289 737.361 360.029C737.393 359.737 737.41 359.46 737.41 359.2C737.41 357.119 737.019 355.46 736.239 354.224C735.458 352.989 734.239 352.371 732.58 352.371ZM782.827 366.322H784.096C784.258 367.232 784.405 368.387 784.535 369.785C784.665 371.151 784.697 372.484 784.632 373.785C784.144 374.175 783.559 374.5 782.876 374.76C782.193 374.988 781.462 375.183 780.681 375.346C779.933 375.508 779.153 375.622 778.34 375.687C777.559 375.752 776.811 375.785 776.096 375.785C773.364 375.785 770.925 375.443 768.779 374.76C766.633 374.045 764.812 372.972 763.316 371.541C761.852 370.11 760.714 368.289 759.901 366.078C759.121 363.834 758.73 361.184 758.73 358.127C758.73 354.94 759.17 352.241 760.048 350.029C760.926 347.786 762.113 345.965 763.608 344.566C765.104 343.135 766.844 342.095 768.828 341.444C770.811 340.794 772.893 340.469 775.071 340.469C777.218 340.469 779.023 340.615 780.486 340.908C781.949 341.168 783.234 341.574 784.339 342.127C784.339 342.648 784.323 343.265 784.291 343.981C784.258 344.664 784.209 345.395 784.144 346.176C784.079 346.956 783.998 347.721 783.9 348.469C783.803 349.217 783.705 349.899 783.608 350.517H782.34L779.803 343.493C779.445 343.298 778.844 343.168 777.998 343.103C777.185 343.038 776.372 343.005 775.559 343.005C773.933 343.005 772.389 343.314 770.925 343.932C769.494 344.517 768.226 345.444 767.12 346.713C766.047 347.948 765.186 349.525 764.535 351.444C763.885 353.33 763.56 355.558 763.56 358.127C763.56 360.436 763.852 362.533 764.438 364.419C765.023 366.273 765.868 367.866 766.974 369.2C768.08 370.5 769.429 371.509 771.023 372.224C772.616 372.907 774.421 373.248 776.437 373.248C777.51 373.248 778.405 373.167 779.12 373.004C779.836 372.842 780.307 372.63 780.535 372.37L782.827 366.322ZM799.439 354.468C799.082 354.664 798.626 355.07 798.073 355.688C797.553 356.273 797.082 357.151 796.659 358.322V372.809C797.309 372.874 797.96 373.004 798.61 373.2C799.26 373.362 799.911 373.622 800.561 373.98V375.199H789.049V373.98C789.635 373.655 790.187 373.411 790.708 373.248C791.228 373.086 791.748 372.939 792.269 372.809V353.639L789.049 353.249V351.981C790.09 351.525 791.163 351.168 792.269 350.908C793.374 350.615 794.431 350.387 795.439 350.225H796.659V355.395H796.854C797.147 354.745 797.553 354.094 798.073 353.444C798.626 352.794 799.244 352.208 799.927 351.688C800.642 351.168 801.407 350.777 802.22 350.517C803.065 350.225 803.927 350.127 804.805 350.225C805.033 350.647 805.228 351.119 805.39 351.639C805.585 352.127 805.764 352.647 805.927 353.2V354.468H799.439ZM819.087 375.199H808.258V373.98C808.746 373.72 809.25 373.508 809.77 373.346C810.29 373.151 810.859 372.972 811.477 372.809V353.639L808.258 353.249V351.981C809.201 351.59 810.225 351.249 811.331 350.956C812.437 350.664 813.542 350.42 814.648 350.225H815.867V372.809C816.518 372.972 817.103 373.151 817.624 373.346C818.144 373.508 818.632 373.72 819.087 373.98V375.199ZM810.551 342.518C810.551 341.64 810.827 340.94 811.38 340.42C811.965 339.9 812.729 339.64 813.672 339.64C814.615 339.64 815.363 339.9 815.916 340.42C816.469 340.94 816.745 341.64 816.745 342.518C816.745 343.396 816.469 344.095 815.916 344.615C815.363 345.103 814.615 345.347 813.672 345.347C812.729 345.347 811.965 345.103 811.38 344.615C810.827 344.095 810.551 343.396 810.551 342.518ZM835.32 369.639C835.32 368.728 835.027 367.964 834.442 367.346C833.889 366.696 833.173 366.094 832.295 365.541C831.417 364.988 830.474 364.452 829.466 363.932C828.491 363.411 827.564 362.81 826.686 362.127C825.808 361.411 825.076 360.598 824.491 359.688C823.938 358.777 823.661 357.655 823.661 356.322C823.661 355.444 823.857 354.631 824.247 353.883C824.67 353.135 825.222 352.501 825.905 351.981C826.588 351.428 827.385 351.005 828.295 350.712C829.206 350.387 830.182 350.225 831.222 350.225C832.978 350.225 834.409 350.322 835.515 350.517C836.653 350.712 837.742 350.989 838.783 351.347C838.653 352.387 838.49 353.444 838.295 354.517C838.133 355.558 837.889 356.631 837.563 357.737H836.344L834.49 352.761C834.1 352.599 833.661 352.501 833.173 352.468C832.686 352.403 832.181 352.371 831.661 352.371C831.076 352.371 830.556 352.485 830.1 352.712C829.678 352.907 829.304 353.168 828.978 353.493C828.686 353.818 828.458 354.192 828.295 354.615C828.133 355.037 828.052 355.46 828.052 355.883C828.052 356.761 828.328 357.525 828.881 358.176C829.466 358.793 830.198 359.379 831.076 359.932C831.954 360.452 832.881 360.972 833.856 361.493C834.864 362.013 835.807 362.598 836.685 363.249C837.563 363.899 838.279 364.663 838.832 365.541C839.417 366.387 839.71 367.411 839.71 368.614C839.71 369.72 839.466 370.712 838.978 371.59C838.523 372.468 837.872 373.216 837.027 373.834C836.214 374.452 835.255 374.923 834.149 375.248C833.076 375.606 831.921 375.785 830.686 375.785C829.287 375.785 828.003 375.655 826.832 375.395C825.661 375.167 824.442 374.825 823.174 374.37C823.239 373.2 823.385 372.078 823.613 371.004C823.84 369.899 824.133 368.842 824.491 367.834H825.71L827.856 373.151C828.214 373.411 828.637 373.557 829.125 373.59C829.645 373.622 830.117 373.639 830.539 373.639C831.97 373.639 833.125 373.248 834.003 372.468C834.881 371.687 835.32 370.744 835.32 369.639ZM842.764 351.981C844 351.2 845.301 350.647 846.666 350.322V346.176C847.089 345.818 847.577 345.509 848.13 345.249C848.715 344.956 849.284 344.68 849.837 344.42H851.057V350.81H858.373V353.249H851.057V367.395C851.057 369.346 851.366 370.728 851.983 371.541C852.601 372.354 853.528 372.761 854.764 372.761C855.349 372.761 856.081 372.728 856.959 372.663C857.837 372.565 858.585 372.403 859.203 372.175L859.544 372.907C859.284 373.2 858.91 373.508 858.422 373.834C857.967 374.159 857.43 374.468 856.813 374.76C856.227 375.053 855.577 375.297 854.861 375.492C854.146 375.687 853.414 375.785 852.666 375.785C850.715 375.785 849.219 375.232 848.179 374.126C847.171 373.021 846.666 371.232 846.666 368.761V353.249H842.764V351.981ZM880.133 368.809C880.133 369.525 880.15 370.143 880.182 370.663C880.215 371.183 880.247 371.736 880.28 372.322L883.646 372.809V373.834C882.833 374.256 881.922 374.63 880.914 374.956C879.938 375.281 878.995 375.525 878.085 375.687H876.865C876.54 374.939 876.345 374.126 876.28 373.248C876.215 372.338 876.166 371.346 876.134 370.273H875.89C875.76 370.923 875.499 371.59 875.109 372.273C874.751 372.923 874.264 373.508 873.646 374.029C873.06 374.549 872.361 374.972 871.548 375.297C870.735 375.622 869.809 375.785 868.768 375.785C866.784 375.785 865.158 375.183 863.89 373.98C862.654 372.777 862.036 371.2 862.036 369.248C862.036 367.753 862.329 366.533 862.914 365.59C863.532 364.614 864.427 363.85 865.597 363.297C866.768 362.745 868.215 362.354 869.939 362.127C871.662 361.867 873.662 361.671 875.938 361.541C876.069 360.143 876.101 358.891 876.036 357.785C876.003 356.647 875.825 355.688 875.499 354.907C875.207 354.094 874.751 353.477 874.134 353.054C873.548 352.599 872.768 352.371 871.792 352.371C871.337 352.371 870.817 352.403 870.231 352.468C869.678 352.501 869.126 352.631 868.573 352.859L866.28 358.712H865.012C864.687 357.737 864.394 356.728 864.134 355.688C863.906 354.647 863.76 353.623 863.695 352.615C864.931 351.867 866.296 351.281 867.792 350.859C869.321 350.436 871.012 350.225 872.865 350.225C874.524 350.225 875.841 350.469 876.816 350.956C877.825 351.412 878.589 352.013 879.109 352.761C879.629 353.509 879.971 354.338 880.133 355.249C880.296 356.159 880.377 357.07 880.377 357.98C880.377 359.932 880.329 361.818 880.231 363.639C880.166 365.427 880.133 367.151 880.133 368.809ZM870.719 372.761C871.532 372.761 872.247 372.598 872.865 372.273C873.483 371.948 874.004 371.557 874.426 371.102C874.849 370.647 875.19 370.191 875.451 369.736C875.711 369.248 875.89 368.842 875.987 368.517V363.395C874.101 363.395 872.556 363.493 871.353 363.688C870.15 363.883 869.207 364.192 868.524 364.614C867.841 365.037 867.37 365.574 867.109 366.224C866.849 366.842 866.719 367.557 866.719 368.37C866.719 369.769 867.077 370.858 867.792 371.639C868.508 372.387 869.483 372.761 870.719 372.761ZM897.591 375.199H886.762V373.98C887.835 373.46 888.908 373.069 889.981 372.809V341.932L886.274 341.542V340.274C887.119 339.883 888.176 339.542 889.445 339.249C890.713 338.957 891.948 338.713 893.152 338.518H894.371V372.809C895.444 373.069 896.517 373.46 897.591 373.98V375.199Z" fill="#7E7E7E"/>
<path d="M117.5 36.9C121.366 36.9 124.5 34.3927 124.5 31.2999C124.5 28.2072 121.366 25.7 117.5 25.7C113.634 25.7 110.5 28.2072 110.5 31.2999C110.5 34.3927 113.634 36.9 117.5 36.9Z" fill="#CDB78E"/>
<path d="M337.699 283.6C341.565 283.6 344.699 281.093 344.699 278C344.699 274.907 341.565 272.4 337.699 272.4C333.833 272.4 330.699 274.907 330.699 278C330.699 281.093 333.833 283.6 337.699 283.6Z" fill="#CDB78E"/>
<path d="M31.0996 219.5C34.9656 219.5 38.0996 216.993 38.0996 213.9C38.0996 210.807 34.9656 208.3 31.0996 208.3C27.2336 208.3 24.0996 210.807 24.0996 213.9C24.0996 216.993 27.2336 219.5 31.0996 219.5Z" fill="#CDB78E"/>
<path d="M936.899 124.7C940.765 124.7 943.899 122.193 943.899 119.1C943.899 116.007 940.765 113.5 936.899 113.5C933.033 113.5 929.899 116.007 929.899 119.1C929.899 122.193 933.033 124.7 936.899 124.7Z" fill="#CDB78E"/>
<path d="M138.4 187.4C139.946 187.4 141.2 186.146 141.2 184.6C141.2 183.054 139.946 181.8 138.4 181.8C136.853 181.8 135.6 183.054 135.6 184.6C135.6 186.146 136.853 187.4 138.4 187.4Z" fill="#CDB78E"/>
<path d="M138.4 307.3C139.946 307.3 141.2 306.046 141.2 304.5C141.2 302.954 139.946 301.7 138.4 301.7C136.853 301.7 135.6 302.954 135.6 304.5C135.6 306.046 136.853 307.3 138.4 307.3Z" fill="#CDB78E"/>
<path d="M911.9 268.3C913.446 268.3 914.7 267.046 914.7 265.5C914.7 263.954 913.446 262.7 911.9 262.7C910.353 262.7 909.1 263.954 909.1 265.5C909.1 267.046 910.353 268.3 911.9 268.3Z" fill="#CDB78E"/>
<path d="M31.0998 115C32.6462 115 33.8998 113.746 33.8998 112.2C33.8998 110.654 32.6462 109.4 31.0998 109.4C29.5534 109.4 28.2998 110.654 28.2998 112.2C28.2998 113.746 29.5534 115 31.0998 115Z" fill="#CDB78E"/>
<path d="M396.199 106.6C397.746 106.6 398.999 105.346 398.999 103.8C398.999 102.254 397.746 101 396.199 101C394.653 101 393.399 102.254 393.399 103.8C393.399 105.346 394.653 106.6 396.199 106.6Z" fill="#CDB78E"/>
<path d="M773.9 206.9C775.446 206.9 776.7 205.646 776.7 204.1C776.7 202.554 775.446 201.3 773.9 201.3C772.353 201.3 771.1 202.554 771.1 204.1C771.1 205.646 772.353 206.9 773.9 206.9Z" fill="#CDB78E"/>
<path d="M700 68.9999C702.319 68.9999 704.2 67.1195 704.2 64.7999C704.2 62.4803 702.319 60.5999 700 60.5999C697.68 60.5999 695.8 62.4803 695.8 64.7999C695.8 67.1195 697.68 68.9999 700 68.9999Z" fill="#CDB78E"/>
<path d="M849.099 59.2001C851.419 59.2001 853.299 57.3196 853.299 55C853.299 52.6805 851.419 50.8 849.099 50.8C846.78 50.8 844.899 52.6805 844.899 55C844.899 57.3196 846.78 59.2001 849.099 59.2001Z" fill="#CDB78E"/>
<path d="M222 103.8C224.319 103.8 226.2 101.919 226.2 99.5999C226.2 97.2803 224.319 95.3999 222 95.3999C219.68 95.3999 217.8 97.2803 217.8 99.5999C217.8 101.919 219.68 103.8 222 103.8Z" fill="#CDB78E"/>
<path d="M464.5 177.7C466.819 177.7 468.7 175.82 468.7 173.5C468.7 171.18 466.819 169.3 464.5 169.3C462.18 169.3 460.3 171.18 460.3 173.5C460.3 175.82 462.18 177.7 464.5 177.7Z" fill="#CDB78E"/>
<path d="M665.2 208.3C667.52 208.3 669.4 206.42 669.4 204.1C669.4 201.78 667.52 199.9 665.2 199.9C662.88 199.9 661 201.78 661 204.1C661 206.42 662.88 208.3 665.2 208.3Z" fill="#CDB78E"/>
<path d="M932.8 202.8C935.119 202.8 937 200.92 937 198.6C937 196.28 935.119 194.4 932.8 194.4C930.48 194.4 928.6 196.28 928.6 198.6C928.6 200.92 930.48 202.8 932.8 202.8Z" fill="#CDB78E"/>
<path d="M869.4 135.9C870.56 135.9 871.5 134.96 871.5 133.8C871.5 132.64 870.56 131.7 869.4 131.7C868.24 131.7 867.3 132.64 867.3 133.8C867.3 134.96 868.24 135.9 869.4 135.9Z" fill="#CDB78E"/>
<path d="M224.1 304.5C225.26 304.5 226.2 303.56 226.2 302.4C226.2 301.24 225.26 300.3 224.1 300.3C222.94 300.3 222 301.24 222 302.4C222 303.56 222.94 304.5 224.1 304.5Z" fill="#CDB78E"/>
<path d="M572.499 163.7C573.659 163.7 574.599 162.76 574.599 161.6C574.599 160.44 573.659 159.5 572.499 159.5C571.34 159.5 570.399 160.44 570.399 161.6C570.399 162.76 571.34 163.7 572.499 163.7Z" fill="#CDB78E"/>
<path d="M771.799 92.7C772.959 92.7 773.899 91.7598 773.899 90.6C773.899 89.4402 772.959 88.5 771.799 88.5C770.639 88.5 769.699 89.4402 769.699 90.6C769.699 91.7598 770.639 92.7 771.799 92.7Z" fill="#CDB78E"/>
<path d="M329.999 162.3C331.159 162.3 332.099 161.36 332.099 160.2C332.099 159.04 331.159 158.1 329.999 158.1C328.84 158.1 327.899 159.04 327.899 160.2C327.899 161.36 328.84 162.3 329.999 162.3Z" fill="#CDB78E"/>
<path d="M534.9 234.8C536.06 234.8 537 233.86 537 232.7C537 231.54 536.06 230.6 534.9 230.6C533.74 230.6 532.8 231.54 532.8 232.7C532.8 233.86 533.74 234.8 534.9 234.8Z" fill="#CDB78E"/>
<path d="M674.899 133.1C677.219 133.1 679.099 131.22 679.099 128.9C679.099 126.58 677.219 124.7 674.899 124.7C672.58 124.7 670.699 126.58 670.699 128.9C670.699 131.22 672.58 133.1 674.899 133.1Z" fill="#CDB78E"/>
</svg>
