<svg width="36" height="36" viewBox="0 0 36 36" fill="none" xmlns="http://www.w3.org/2000/svg">
<path d="M14 27V11L27 6V22" stroke="white" stroke-width="2" stroke-linejoin="round"/>
<path d="M11.5 29C12.8807 29 14 27.8807 14 26.5C14 25.1193 12.8807 24 11.5 24C10.1193 24 9 25.1193 9 26.5C9 27.8807 10.1193 29 11.5 29Z" stroke="white" stroke-width="2" stroke-linejoin="round"/>
<path d="M24.5 25C25.8807 25 27 23.8807 27 22.5C27 21.1193 25.8807 20 24.5 20C23.1193 20 22 21.1193 22 22.5C22 23.8807 23.1193 25 24.5 25Z" stroke="white" stroke-width="2" stroke-linejoin="round"/>
<path d="M14 15L27 10" stroke="white" stroke-width="2"/>
</svg>
