<svg width="36" height="36" viewBox="0 0 36 36" fill="none" xmlns="http://www.w3.org/2000/svg">
<path opacity="0.5" fill-rule="evenodd" clip-rule="evenodd" d="M13 15.8284V23.3368C12.5454 23.1208 12.0368 23 11.5 23C9.567 23 8 24.567 8 26.5C8 28.433 9.567 30 11.5 30C13.2632 30 14.7219 28.6962 14.9646 27H15V26.5V17.8284L13 15.8284ZM22.474 19.6456C23.0458 19.2391 23.745 19 24.5 19C25.0368 19 25.5454 19.1208 26 19.3368V11.456L17.5388 14.7103L15.9912 13.1628L26 9.3132V7.45604L15 11.6868V12.1716L13.2123 10.3839C13.3215 10.2443 13.4681 10.1332 13.641 10.0667L26.641 5.06666C26.9485 4.94839 27.2946 4.98917 27.5661 5.17569C27.8377 5.36222 28 5.67054 28 6.00001V22H27.9646C27.9879 22.1633 28 22.3302 28 22.5C28 23.255 27.7609 23.9542 27.3544 24.526L25.891 23.0625C25.9613 22.8888 26 22.6989 26 22.5C26 21.6716 25.3284 21 24.5 21C24.3011 21 24.1112 21.0387 23.9375 21.109L22.474 19.6456ZM21.5397 24.3682C21.818 24.8082 22.1918 25.182 22.6318 25.4603L21.5397 24.3682ZM11.5 25C12.3284 25 13 25.6716 13 26.5C13 27.3284 12.3284 28 11.5 28C10.6716 28 10 27.3284 10 26.5C10 25.6716 10.6716 25 11.5 25Z" fill="white"/>
<path d="M29 29L8 8" stroke="white" stroke-width="2" stroke-linecap="round" stroke-linejoin="round"/>
</svg>
