<svg width="36" height="36" viewBox="0 0 36 36" fill="none" xmlns="http://www.w3.org/2000/svg">
<path d="M17.9182 28.431C17.1932 28.431 10.3974 28.4309 10.3694 24.9899C10.3694 24.9899 8.59008 26.0159 9.13308 21.7309C9.18552 21.3115 9.26404 20.8957 9.36745 20.4859C9.03572 20.4483 8.72215 20.3134 8.46706 20.098C8.34206 20.007 8.22278 19.917 8.10378 19.826C7.80821 19.5918 7.59003 19.2741 7.47683 18.9144C7.36363 18.5546 7.36084 18.1692 7.46902 17.8079L7.7073 17.0479C7.73859 16.9517 7.73426 16.8475 7.69558 16.754C7.6569 16.6605 7.58648 16.5839 7.49636 16.5379L6.9241 16.2039C6.59883 16.0075 6.33927 15.7189 6.178 15.3748C6.01673 15.0308 5.96074 14.6466 6.01785 14.271C6.1112 13.6553 6.26301 13.0499 6.47097 12.463C7.17097 10.377 9.0098 7.08994 12.1448 8.23494C14.3598 9.04294 14.3785 11.896 14.1995 13.482C14.9953 12.993 15.9238 12.7637 16.8557 12.826C17.2797 12.854 17.2796 13.5179 17.2796 13.5179C17.2796 13.5179 19.934 12.073 20.93 12.645C21.174 12.792 21.1409 13.245 21.1409 13.245C21.3302 13.3322 21.5145 13.4293 21.6936 13.536C21.5076 11.961 21.5025 9.05192 23.7425 8.23592C26.9105 7.11892 28.7206 10.413 29.4436 12.493C30.1666 14.573 30.7133 17.8379 27.4553 20.0999C27.181 20.347 26.8245 20.4832 26.4553 20.482C26.5622 20.8935 26.6432 21.3113 26.6975 21.733C27.2405 26.052 25.4612 24.9919 25.4612 24.9919C25.4342 28.3999 18.8972 28.4329 17.9612 28.4329L17.9182 28.431Z" fill="white"/>
</svg>
