<svg width="36" height="36" viewBox="0 0 36 36" fill="none" xmlns="http://www.w3.org/2000/svg">
<path fill-rule="evenodd" clip-rule="evenodd" d="M31 19C31 26.1797 25.1797 32 18 32C10.8203 32 5 26.1797 5 19C5 11.8203 10.8203 6 18 6C25.1797 6 31 11.8203 31 19ZM12.9393 18.0607C12.3536 17.4749 12.3536 16.5251 12.9393 15.9393L16.9393 11.9393C17.0832 11.7955 17.2489 11.687 17.4258 11.6138C17.6027 11.5405 17.7966 11.5 18 11.5C18.2034 11.5 18.3973 11.5405 18.5742 11.6138C18.7511 11.687 18.9168 11.7955 19.0607 11.9393L23.0607 15.9393C23.6464 16.5251 23.6464 17.4749 23.0607 18.0607C22.4749 18.6464 21.5251 18.6464 20.9393 18.0607L19.5 16.6213V25C19.5 25.8284 18.8284 26.5 18 26.5C17.1716 26.5 16.5 25.8284 16.5 25V16.6213L15.0607 18.0607C14.4749 18.6464 13.5251 18.6464 12.9393 18.0607Z" fill="white"/>
</svg>
