<?xml version="1.0" encoding="utf-8"?>
<!-- Generator: Adobe Illustrator 24.0.1, SVG Export Plug-In . SVG Version: 6.00 Build 0)  -->
<svg version="1.1" xmlns="http://www.w3.org/2000/svg" xmlns:xlink="http://www.w3.org/1999/xlink" x="0px" y="0px"
	 viewBox="0 0 968 412" style="enable-background:new 0 0 968 412;" xml:space="preserve">
<style type="text/css">
	.st0{fill:#FFFFFF;}
	.st1{fill:#5C6E96;}
	.st2{fill:none;stroke:#1B1F2B;stroke-width:1.0256;stroke-miterlimit:10;}
	.st3{fill:#1B1F2B;}
	.st4{fill:#5C70B5;}
	.st5{fill:#283886;}
	.st6{fill:#051859;}
	.st7{fill:#B3B7C2;}
	.st8{fill:#CCB78E;}
	.st9{fill:#CDB78E;}
	.st10{fill:none;stroke:#F2F2F2;stroke-width:0.6981;stroke-miterlimit:10;}
	.st11{fill:#F2F2F2;}
	.st12{font-family:'PTSerif-Regular';}
	.st13{font-size:48.779px;}
	.st14{fill:none;stroke:#000000;stroke-width:1.0226;stroke-miterlimit:10;}
	.st15{clip-path:url(#SVGID_2_);fill:#051859;}
</style>
<g id="Camada_1">
	<g>
		<g>
			<g id="XMLID_9_">
				<g>
					<path class="st4" d="M894.1,282.9c0,0.2-0.2,0.4-0.4,0.4c-4.2,1-9.2,1.4-14.9,1.3c-1,0-2.4-0.2-4.4-0.7c-2-0.4-3.4-0.7-4.4-0.7
						c-1.1,0-2.1,0.2-2.8,0.6c-0.8,0.4-2,0.6-3.7,0.8c-1.8,0.1-2.9,0-3.4-0.2s-0.7-0.4-0.7-0.5c0-0.1,0.4-0.6,1.1-1.3
						c0.7-0.7,1.1-1.4,1.1-1.9c0-0.5,0.3-1.1,1-1.9c0.7-0.7,1-1.4,1-1.9c0-0.4-0.3-1-1-1.6c-0.7-0.6-1-1.1-1-1.4
						c0.3-0.9,0.7-2.4,1.1-4.4c-0.5-3.5-1.5-7.3-2.9-11.3c-1.3-3.3-2-5.4-2.3-6.3c-1-2.4-2-3.9-2.9-4.5c-0.4-0.3-0.9-0.4-1.7-0.4
						c-0.7,0-1.7,0.2-3,0.6c-1.7,0.6-2.8,0.9-3.3,0.9c-2.1,0.1-5.2-0.2-9.2-1c-1.1-0.2-4.7,0-10.8,0.8c0-0.1,0.1-0.1,0.3-0.1
						c-2.3-0.5-4.6-0.3-7.1,0.5c-1.3,0.6-3.3,0.9-6.1,0.9c-2.8,0-4.5,0.3-5.3,0.9c-0.7,0.6-1,2-1,4.1c0.1,2.7,0,4.3-0.1,4.7
						c-1.3,2.7-2.7,6.9-4.3,12.4c-0.1,1,0.5,2.5,1.8,4.7c1.3,2.2,1.9,3.7,1.9,4.6c0,1.6-0.7,2.4-2.2,2.4c-0.1,0-1.1-0.2-3.1-0.4
						c-1.3-0.2-2.2-0.1-2.8,0.2s-1.5,0.4-2.9,0.1c-1.6-0.4-2.6-0.6-3-0.6c-0.4,0.1-5.6,0.3-15.7,0.8c-2.3,0-3.4-0.5-3.4-1.6
						c0-1,1.4-2.9,4.3-5.8c2-2.2,3.4-3.7,4.1-4.4c1.4-1.8,2.5-3.5,3.2-5.1c0.2-0.5,0.1-1.3-0.4-2.3c-0.5-1-0.7-1.9-0.6-2.5
						c0-0.1,1.6-3.5,4.9-10.2c0.2,0,0.6-0.5,1.3-1.4c0.4-0.6,0.4-1.1,0.1-1.5c-1-1.7-2.5-2.2-4.4-1.4c-0.7,0.3-2.7,1.8-6,4.4
						c-2.6,2.1-4.6,3.1-6.1,3c-1.2-0.2-1.8-1.1-1.8-2.5l1.1-6.3c0.2-0.4,0.6-1.1,1.2-2.2c0.7-1.1,1-2,1-2.7c0-0.5-0.2-1.2-0.6-2.2
						c-0.4-0.9-0.7-1.6-0.8-2c0.2-1.8,0-4.3-0.3-7.5c-0.5-0.4-1.1-1.1-1.9-2.1c-0.1-1.3,0.7-2,2.2-2.2c1.5-0.1,2.7,0,3.5,0.6
						c1.3,1,3.8,2.8,7.5,5.2c2.2,1.3,4.6,1.9,7.1,1.9c1.5,0,2.6-0.4,3.5-1.3c0.9-0.9,1.7-4.5,2.5-11c0.4-1,0.9-2.4,1.4-4.2
						c0.7-1.5,1.7-3.9,2.8-7.3c-0.6-0.7-0.7-1.9-0.4-3.4c0.2-0.4,1.1-2.3,2.7-5.5c1.1-2.1,2.6-5.2,4.4-9.5c0.4-1.7,1.1-4,1.9-7
						c0.9-1,1.9-2.6,3-4.5c0.2-1.4,0.5-3.5,1-6.3c0.7-1,1.6-2.7,2.4-5c-0.1-0.1-0.2-0.3-0.4-0.3c1.3-2.1,2.9-5.4,4.9-9.7
						c1.5-5.2,3.6-12,6.4-20.6c0.2-1.9,0.8-4.5,1.9-7.9c1.3-2.9,2.3-4.4,3-4.4c0.4,0,1.4,1.7,3.2,5c1.1,2.1,1.7,4.3,1.7,6.4
						c0,0.9,0.1,1.6,0.3,2.2c0.9,1.4,2,3.6,3.3,6.5c0.9,1.6,1.3,3.7,1.3,6.1c0,2.6,0.1,4.5,0.4,5.6c1.1,1.9,2.6,5,4.6,9.3
						c0.7,3,1.7,7.6,3,13.7c0.7,1.4,1.7,3.7,2.9,6.8c0.5,2.3,1.5,5.6,3,9.8c1,1.2,2.3,3,3.9,5.5c0.4,2.4,1.3,5.9,2.5,10.4
						c1,1.1,2.1,2.9,3.3,5.4c0,2.4,0.4,5.9,1.1,10.7c1.3,4.2,2.5,6.3,3.8,6.3c1.2,0,4.2-0.3,9.1-1c2.2-0.3,4.1-1.9,5.8-4.9
						c1.1-2.1,2.3-3.1,3.5-3.1c0.9,0,1.3,0.7,1.3,2.2c-0.4,3.3-0.3,7.6,0.3,12.7c0.7,1.6,1,3.1,0.9,4.5c-0.2,1.3-0.5,2.7-0.8,4.1
						c0,0.7,0.2,1.7,0.6,3c0.4,1.3,0.6,2.1,0.6,2.5c0,0.5-0.3,0.8-0.8,0.9c-1,0.2-2.3-0.3-3.8-1.5c-1.8-1.9-2.9-3-3.4-3.2
						c-1-0.6-2.2-1.3-3.4-2c-1.2-0.7-2.2-1.1-3-1.1c-1.6,0-2.4,1.1-2.4,3.4c0,1,0.7,3.3,2.1,7c0.6,1,1.4,2.5,2.4,4.6
						c-0.4,0.7-0.7,1.7-1,3c0.6,0.7,1.6,2.1,3.2,4.4s4,5.8,7.3,10.8c0.6,0.3,1.3,0.6,2,0.9C893.5,281.9,894.1,282.4,894.1,282.9z
						 M849,230.7c0-0.4-0.2-1.1-0.6-2.3c-0.4-1.1-0.6-2.1-0.5-2.8c0.2-1.5-0.3-3.8-1.4-7c-0.1-0.6-1.8-4.5-5-11.7
						c-0.8-1.6-1.9-4.1-3.3-7.3c-0.2-1-0.4-2.4-0.5-4.3s-0.3-3.4-0.6-4.3c-0.4-0.5-1.1-1.1-2-2c-0.2-0.2-0.5-1.1-1-2.8
						c-0.4-1.3-0.9-1.9-1.2-1.9c-0.9,0-1.6,1.3-2.2,3.8c-0.3,1.8-0.7,3.6-1.1,5.2c-1,1.3-2.1,3.4-3.4,6.3c-0.4,1.5-0.8,3.7-1.4,6.8
						c-0.7,1.8-1.8,4.3-3.2,7.7c-0.1,1.7-0.8,4.2-1.9,7.5c-0.7,0.8-1.6,1.9-2.8,3.4c-2,3.4-3,5.2-3,5.5c0,0.5,0.1,0.9,0.4,1.2
						c0.3,0.4,1.5,0.5,3.7,0.3c3-0.2,4.7-0.3,4.9-0.3c4.4,0.4,6.3,0.6,5.8,0.6c1.1,0,3.2,0.6,6.2,1.7c0.5,0.4,1.5,0.3,2.8-0.1
						s2.2-0.6,2.5-0.3c0.8,0.5,1.9,0.8,3.2,0.8c1.1,0,2.3-0.3,3.7-1C848.3,232.7,849,231.8,849,230.7z"/>
					<path class="st4" d="M763.7,157.2c0.1,0.7,0.1,1.5,0,2.2c-0.2,0.8-0.5,1.1-1,1c-1.5-0.3-3.1-1.2-4.9-2.7
						c-2.1-1.6-3.6-2.6-4.5-3.1c-1.7-0.7-3.3-0.9-4.9-0.4c-1.5,0.9-3.6,2-6.4,3.4c-2.4,0.4-6,1.1-10.8,1.9c-0.3,0.1-0.9,0.3-1.9,0.8
						c-1,0.5-1.8,0.7-2.5,0.6c-0.5,0-1.1-0.3-1.8-0.9c-0.7-0.6-1.2-0.9-1.6-0.9s-0.6,0.3-0.6,0.9c0,0.6-0.2,0.9-0.4,0.9
						c-1,0.2-2.3,0.2-4.1,0c-2-0.4-3.3-0.6-3.9-0.6c-1.4,0-2.5,0.3-3.3,1c-2,1.7-3.5,5.7-4.5,11.9c-0.2,1,0,2.3,0.4,3.9
						c0.7,1.9,1.1,3.3,1.1,4c-0.4,2.7-0.6,6.7-0.4,11.8c0.5,3.1,0.8,4.8,0.8,5.1c-0.7,0.7-1.1,2.1-1.4,4.3c-0.1,1.3,0.3,2.9,1,5
						c0.7,2.5,1.1,4.2,1.2,5.2l-0.7,11.9l-0.9,20.6c-0.4,7.7-0.7,11.7-0.7,11.8c0.7,1,1.5,2.4,2.2,4.4c-0.4,1.3-0.8,3.3-1.1,5.9
						c0.3,2.9,1.2,6.3,2.5,10.4c2.4,1.8,3.5,3,3.5,3.6c0,0.3-0.3,0.7-0.8,1.2c-0.6,0.5-1.7,0.6-3.3,0.4c-2.3-0.2-3.7-0.3-4.1-0.3
						c-0.9,0.2-2.2-0.1-3.9-0.8c-1.7-0.8-3-1.2-3.9-1.2c-1,0-2.8,0.4-5.3,1.2c-2.5,0.8-4.5,1-6,0.8c-1-0.2-1.3-1.5-0.9-3.9
						c1.3-4.9,2.6-12.3,4.1-22c0.1-3.4-0.1-8-0.5-13.8c-0.4-6.6-0.6-11.2-0.6-13.8c0.5-1.2,1-2.8,1.3-4.9c0.1-1.6,0.1-3.5,0-5.9
						c-0.2-3-0.2-4.8-0.2-5.6v-18c-0.1-1.4-0.3-4.9-0.5-10.4c-0.1-1.2,0-2.9,0.2-5.2c0.2-2.3,0.3-3.9,0.3-5c0-2.7-0.5-4.8-1.7-6.5
						c-0.3-0.6-0.9-0.9-1.9-0.9c-0.7,0-1.8,0.3-3.1,0.9c-2,1-3.1,1.5-3.4,1.7c-0.2,0.5-0.7,1.1-1.4,1.9c-0.3,0-0.8-0.2-1.4-0.5
						c-0.6-0.3-1.1-0.5-1.5-0.5c-0.8-0.1-2.9,0.1-6.4,0.4c-2.3,0-5.6,0.3-9.8,1c-1.8,1-4.6,2.3-8.4,3.9c-0.6-0.3-1.4-0.3-2.3,0
						c0.1,1-0.1,2.3-0.4,4c-3.7,4.2-5.9,6.3-6.8,6.3c-1.9,0-3.1-1.6-3.5-4.9c0.1-2.4,0.1-5.9-0.1-10.3c-0.7-4.7-1.1-7.5-1.1-8.4
						c0-3.1,0.4-4.9,1.1-5.4c0.5-0.4,1.1-0.6,1.9-0.8c0.5,0,1.3,0.1,2.4,0.2c1.1,0.1,1.7,0.2,2,0.2c0.3,0,0.6,0.1,1,0.3
						c0.4,0.2,0.7,0.3,0.9,0.1c0.2-0.1,0.4-0.4,0.4-1c0.1-0.6,0.3-0.9,0.8-0.9c1.2,0.6,2.9,1.1,5.2,1.5c1-0.1,2.3-0.6,3.7-1.4
						c1.4-0.9,2.5-1.4,3.3-1.6c0.8,0.2,2,0.4,3.5,0.4c2.4-0.9,6.2-2,11.4-3.4c2.6,0.3,6.6,0.3,12.1,0c1.3-0.2,2.9-0.9,5-2
						c2.1-1.1,3.6-1.7,4.4-1.9c2.9-1,5.6-1.7,8.3-2.1c1.6,0.2,4.1,0.2,7.4,0c2-0.5,4.9-1.3,8.8-2.2c3.5-0.4,8.7-1.1,15.4-2.2
						c1.2-0.3,3.3-1.1,6.3-2.3c1.8-1.5,4.9-3.1,9.3-5c2.7-0.4,4.7-0.1,6,0.9c1.3,1,2,3.1,2.3,6.3c0.2,2.4,0.4,4.8,0.7,7.1
						C761.2,149.1,762.3,152.6,763.7,157.2z"/>
					<path class="st4" d="M628.9,207.1c0.1,1.4-1.2,2.6-3.9,3.6c-3.4,1.3-5.2,2-5.4,2.2c-1.8,1.3-4,3.2-6.6,5.6
						c-0.4,0.7-0.5,3.6-0.1,9c0,1,0.2,3,0.5,6.1c0.2,2.6,0.3,4.8,0.3,6.3c0,2.7-0.3,5.1-0.8,7c-1.3,3.8-1.2,8,0.2,12.7
						c0.4,0.8,0.5,2.2,0.4,4.1c-0.1,2,0,3.3,0.3,4.2c0.7,2.2,1.7,3.9,2.9,5.2c1.6,1.4,3.9,3.8,6.8,7.2c0.5,0.7,0.5,1.3,0,1.6
						c-0.3,0.1-0.9,0.2-1.8,0.1c-2.2,0.3-5.5,0.3-9.8,0c-3.3-0.4-6-0.6-8.4-0.3c-2.6,0.1-6.5,0.5-11.7,1c-5.4,0.7-7.7,0.2-7-1.5
						c0.9-1.7,2.1-3.2,3.6-4.4c2.2-1.6,3.7-2.9,4.5-4c1.3-1.8,2.1-3.8,2.7-6v-6.3c0-0.4-0.1-2.4-0.2-6.2c-0.2-3.2-0.2-5.8,0-7.7
						c0.1-2.7,0.4-4.7,1-5.9c0.6-1.2,0.9-2.1,0.9-2.7c0-0.3-0.2-0.9-0.7-1.8s-0.8-1.9-1-3c-0.3-2.2-0.4-4.5-0.4-7
						c0-0.5,0.2-1.8,0.4-3.9c0.4-1.7,0.4-3,0-4c-0.4-1.6-1.3-2.8-2.9-3.5c-1.6-0.7-3.2-1.3-4.7-1.9c-2.1-1-3.4-1.6-3.8-1.8
						c-1.7-1-2.8-2.1-3.3-3.3c-0.2-0.5,0.7-1.3,2.8-2.3c1.6-0.5,3.6-1.6,6-3.3c2-1.7,4-3.7,6.2-6.1c0.2-0.6,0.3-1.2,0.3-1.8
						c0-0.4-0.1-1.4-0.3-2.8c-0.2-1.4-0.3-2.5-0.3-3.4c0-1.4,0.2-2.7,0.7-3.8c0.7-1.3,0.5-3.7-0.4-7.3v-9.7c0.3-1.5,0.2-3.6-0.2-6.5
						c-1.1-2.1-1.1-4.2,0-6.5c0.2-0.4,0.3-0.8,0.3-1.3c0-0.7-0.3-1.7-0.9-2.8c-0.7-1.8-1.2-2.8-1.3-3.2c-0.3-1.1-1-2.7-2-4.9
						c-1.5-1.6-3.7-4.1-6.3-7.5c-0.2-0.3-0.2-0.7,0-1.1c0.2-0.4,0.5-0.7,1-0.8c1.5-0.3,3.2-0.5,5-0.8c1.7-0.2,3.3,0,4.8,0.8
						c2.8,1.3,5.8,1.7,9,1c2.4-0.6,5.9-0.8,10.6-0.6c0.7,0.2,1.8,0,3.3-0.4c1.5-0.4,2.5-0.7,3-0.7c0.8,0,1.4,0.3,1.8,1
						c0.5,1-0.1,2.7-1.9,4.9c-1.4,1.5-2.8,3.1-4.1,4.8c-1.3,1-2.8,2.7-4.6,4.9c-0.7,1.6-1,3.1-1,4.5c0,0.5,0.1,1.3,0.3,2.3
						c0.2,1,0.3,1.8,0.3,2.3c0,1.1-0.3,2.2-0.8,3.2c-0.4,1-0.3,2.1,0.4,3.3c0.7,1.1,0.9,2.7,0.7,4.7c-0.1,1.9-0.2,3.8-0.4,5.5
						c0,4.9,0.1,8.3,0.3,10.1c0.2,1.3,0,3-0.3,5c-0.3,2.5-0.4,4.2-0.4,5.1c0,0.8,0.1,1.7,0.3,2.5c0.2,0.9,0.9,1.7,2.2,2.3
						c2.1,1,3.2,1.6,3.2,1.7c0.8,0.7,2.1,1.7,3.9,3c0.3,0.2,1.8,0.9,4.5,2.1C628,205.9,628.9,206.5,628.9,207.1z"/>
					<path class="st4" d="M572.6,254.5c0,0.4-0.1,0.9-0.2,1.3c-1.1,3-1.7,6.1-1.7,9.4c0.1,3.3,0.1,6.6,0.1,10c0.2,2,0,4.3-0.7,6.9
						c-0.5,0.7-2.2,0.7-5,0c-1.4-0.5-3.4-1.1-6-1.9c-0.4-0.1-1.1,0.1-2,0.4c-0.9,0.4-1.5,0.6-2,0.6c-1,0-2.3-0.2-3.9-0.6
						c-2-0.3-3.3-0.4-4-0.4c-4.3-0.5-7.5-0.7-9.7-0.7c-2.5,0.1-6.6,0.4-12.3,0.7c-5.2,0.3-9.3,0.4-12.2,0.4c-0.9,0-2.1-0.2-3.6-0.5
						c-1.5-0.4-2.6-0.6-3.4-0.6c-1.6,0-3.9,0.3-7.2,0.9c-3.2,0.6-5.6,0.9-7.1,0.9c-1.7,0-3.2-0.2-4.5-0.7c-0.4-0.1-0.7-0.3-0.7-0.8
						c0-0.5,0.4-1.4,1.2-2.6c1.1-1.8,1.7-2.8,1.8-3c0.7-0.7,1.6-1.8,2.6-3.3c1.9-2.7,2.9-4.2,3-4.4c1.3-1.8,2-3.4,2.1-5
						c-0.4-2.1-0.7-5.2-0.9-9.3c0.2-0.4,0.6-1.1,1-1.9s0.7-1.6,0.6-2.2c0-0.3-0.4-0.5-1.2-0.7c-0.8-0.1-1.2-0.4-1.2-0.8
						c-0.6-2.6-0.6-5.3,0-8.3c1-1.2,2-3,3-5.5c0.1-1.3,0.1-3-0.1-5.2c-0.2-2.9-0.4-4.5-0.4-5c0.1-1.3,0.1-3.3,0-6
						c-0.4-0.4-1-1.3-1.7-2.5c0-0.7,0.2-1.8,0.6-3.2c0.4-1.4,0.5-2.5,0.5-3.2c0.4-3.5,0.4-6.8,0-9.7c0-0.7-0.3-2-0.8-3.7
						c-0.5-1.7-0.8-3.1-0.8-4c0.1-0.5,0.5-1.1,1.2-1.9c0.6-0.7,0.9-1.3,0.9-1.7c0-0.4-0.3-0.6-0.9-0.8c-0.6-0.2-1-0.4-1.2-0.6
						c-0.4-1.7-0.5-4.3-0.3-7.8c0.2-1.4,0.5-3.6,0.8-6.6c0.3-3,0.7-7.5,1-13.7c0.1-0.1,0.3-0.7,0.6-1.7c0.2-0.8,0.2-1.4,0-1.9
						c-1.4-2.1-3.4-5.5-5.9-10.2c-2.2-3.9-3.3-6.6-3.3-8.2c0-1.3,0.6-1.9,1.9-1.9c1,0,2.2,0.4,3.8,1.1c0.9,0.4,2.1,0.6,3.5,0.3
						c1.8-0.3,2.9-0.4,3.4-0.3c0.3,0,0.7,0.2,1.2,0.6c0.5,0.4,1,0.6,1.3,0.6c1.1-0.5,2.9-1,5.3-1.6c1,0,2.4-0.1,4.3-0.4
						c1.9-0.3,3.4-0.4,4.6-0.4c3.8,0,5.8,0.9,5.8,2.8c0,0.7-0.8,2.3-2.3,4.8c-1.5,2.5-2.5,4.5-2.9,5.9c-0.7,1-1.6,2.5-2.5,4.5
						c-1,8.6-1.5,18.3-1.5,29.1c0,0.3,0.3,0.8,0.8,1.5c0.5,0.7,0.8,1.2,0.8,1.5c0,0.7-0.2,1.9-0.5,3.4c-0.3,1.6-0.5,2.7-0.5,3.4
						c0,1.5,0.2,3.6,0.4,6.3c0.3,2.9,0.5,5.1,0.6,6.4c0.2,5.6,0.2,10.2,0,13.7c0,0.3-0.2,0.8-0.5,1.5c-0.3,0.7-0.5,1.2-0.5,1.5
						c0,0.5,0.2,1.3,0.5,2.4s0.5,1.9,0.5,2.4c0,0.3-0.2,0.7-0.5,1.3c-0.2,0.4-0.4,0.8-0.5,1c0.1,0,0.3,2.2,0.5,6.6
						c0.3,5.3,0.5,8.4,0.5,9.3c0,0.5-0.2,1.2-0.5,2c-0.3,0.9-0.5,1.5-0.5,1.8c0,0.7,0.2,1.9,0.5,3.4s0.5,2.7,0.5,3.5
						c0,0.3-0.2,0.9-0.6,1.7c-0.4,0.9-0.5,1.4-0.4,1.7c0.8,2.1,2.1,3.5,4,4c1.3,0.4,3.1,0.5,5.2,0.5c3-0.1,4.6-0.1,5.1,0
						c2.6,0.2,6.5,0.6,11.7,1.1c3.1,0.2,6.2,0.5,9.2,0.7c3.5,0.1,6.3-0.1,8.6-0.7c1-0.4,2.1-1.4,3.1-2.9c1.6-2.1,2.6-3.3,2.9-3.5
						c1.3-1.4,2.9-3.4,4.8-6c0.1-0.2,0.2-0.3,0.4-0.3c0.6,0,1.1,0.5,1.5,1.5C572.4,252.5,572.6,253.5,572.6,254.5z"/>
					<path class="st4" d="M478.9,282.9c0,0.2-0.1,0.4-0.4,0.4c-4.2,1-9.2,1.4-14.9,1.3c-1,0-2.4-0.2-4.4-0.7c-2-0.4-3.4-0.7-4.4-0.7
						c-1.1,0-2,0.2-2.8,0.6c-0.8,0.4-2,0.6-3.7,0.8c-1.8,0.1-2.9,0-3.4-0.2c-0.5-0.2-0.7-0.4-0.7-0.5c0-0.1,0.4-0.6,1.1-1.3
						c0.7-0.7,1.1-1.4,1.1-1.9c0-0.5,0.3-1.1,1-1.9c0.7-0.7,1-1.4,1-1.9c0-0.4-0.3-1-1-1.6c-0.7-0.6-1-1.1-1-1.4
						c0.3-0.9,0.7-2.4,1.1-4.4c-0.5-3.5-1.5-7.3-2.9-11.3c-1.3-3.3-2-5.4-2.3-6.3c-1-2.4-2-3.9-2.9-4.5c-0.4-0.3-0.9-0.4-1.7-0.4
						c-0.7,0-1.7,0.2-3,0.6c-1.7,0.6-2.8,0.9-3.3,0.9c-2.1,0.1-5.2-0.2-9.2-1c-1.1-0.2-4.7,0-10.8,0.8c0-0.1,0.1-0.1,0.3-0.1
						c-2.3-0.5-4.6-0.3-7.1,0.5c-1.3,0.6-3.3,0.9-6.1,0.9c-2.8,0-4.6,0.3-5.3,0.9c-0.7,0.6-1.1,2-1.1,4.1c0.1,2.7,0,4.3-0.1,4.7
						c-1.3,2.7-2.7,6.9-4.3,12.4c-0.1,1,0.5,2.5,1.8,4.7c1.3,2.2,1.9,3.7,1.9,4.6c0,1.6-0.7,2.4-2.2,2.4c-0.1,0-1.1-0.2-3.1-0.4
						c-1.3-0.2-2.2-0.1-2.8,0.2c-0.6,0.4-1.5,0.4-2.9,0.1c-1.6-0.4-2.6-0.6-3-0.6c-0.4,0.1-5.6,0.3-15.7,0.8c-2.3,0-3.4-0.5-3.4-1.6
						c0-1,1.4-2.9,4.3-5.8c2-2.2,3.4-3.7,4.1-4.4c1.4-1.8,2.5-3.5,3.2-5.1c0.2-0.5,0.1-1.3-0.4-2.3s-0.7-1.9-0.6-2.5
						c0-0.1,1.6-3.5,4.9-10.2c0.1,0,0.6-0.5,1.3-1.4c0.4-0.6,0.4-1.1,0.1-1.5c-1-1.7-2.5-2.2-4.4-1.4c-0.7,0.3-2.7,1.8-6,4.4
						c-2.6,2.1-4.6,3.1-6.1,3c-1.2-0.2-1.8-1.1-1.8-2.5l1.1-6.3c0.1-0.4,0.6-1.1,1.2-2.2c0.7-1.1,1-2,1-2.7c0-0.5-0.2-1.2-0.6-2.2
						c-0.4-0.9-0.7-1.6-0.8-2c0.1-1.8,0-4.3-0.3-7.5c-0.5-0.4-1.1-1.1-1.9-2.1c-0.1-1.3,0.7-2,2.2-2.2c1.5-0.1,2.6,0,3.5,0.6
						c1.3,1,3.8,2.8,7.5,5.2c2.2,1.3,4.6,1.9,7.1,1.9c1.5,0,2.7-0.4,3.5-1.3c0.9-0.9,1.7-4.5,2.6-11c0.4-1,0.9-2.4,1.4-4.2
						c0.7-1.5,1.7-3.9,2.8-7.3c-0.6-0.7-0.7-1.9-0.4-3.4c0.2-0.4,1.1-2.3,2.7-5.5c1.1-2.1,2.6-5.2,4.4-9.5c0.4-1.7,1.1-4,1.9-7
						c0.9-1,1.9-2.6,3-4.5c0.1-1.4,0.5-3.5,1-6.3c0.7-1,1.6-2.7,2.4-5c-0.1-0.1-0.2-0.3-0.4-0.3c1.3-2.1,2.9-5.4,4.9-9.7
						c1.5-5.2,3.6-12,6.4-20.6c0.2-1.9,0.9-4.5,1.9-7.9c1.3-2.9,2.3-4.4,3-4.4c0.4,0,1.4,1.7,3.2,5c1.1,2.1,1.7,4.3,1.7,6.4
						c0,0.9,0.1,1.6,0.3,2.2c0.9,1.4,2,3.6,3.3,6.5c0.9,1.6,1.3,3.7,1.3,6.1c0,2.6,0.1,4.5,0.4,5.6c1.1,1.9,2.7,5,4.6,9.3
						c0.7,3,1.7,7.6,3,13.7c0.7,1.4,1.7,3.7,2.9,6.8c0.5,2.3,1.5,5.6,3,9.8c1,1.2,2.3,3,3.9,5.5c0.5,2.4,1.3,5.9,2.6,10.4
						c0.9,1.1,2.1,2.9,3.3,5.4c0,2.4,0.4,5.9,1.1,10.7c1.3,4.2,2.5,6.3,3.8,6.3c1.2,0,4.2-0.3,9.1-1c2.2-0.3,4.1-1.9,5.8-4.9
						c1.1-2.1,2.3-3.1,3.5-3.1c0.9,0,1.3,0.7,1.3,2.2c-0.4,3.3-0.3,7.6,0.3,12.7c0.7,1.6,1,3.1,0.9,4.5c-0.2,1.3-0.5,2.7-0.8,4.1
						c0,0.7,0.2,1.7,0.6,3c0.4,1.3,0.6,2.1,0.6,2.5c0,0.5-0.3,0.8-0.8,0.9c-1,0.2-2.3-0.3-3.8-1.5c-1.8-1.9-2.9-3-3.4-3.2
						c-1-0.6-2.1-1.3-3.4-2c-1.2-0.7-2.2-1.1-3-1.1c-1.6,0-2.4,1.1-2.4,3.4c0,1,0.7,3.3,2.1,7c0.6,1,1.4,2.5,2.4,4.6
						c-0.4,0.7-0.7,1.7-1,3c0.6,0.7,1.6,2.1,3.2,4.4c1.5,2.3,4,5.8,7.4,10.8c0.6,0.3,1.3,0.6,2,0.9
						C478.3,281.9,478.9,282.4,478.9,282.9z M433.7,230.7c0-0.4-0.2-1.1-0.6-2.3c-0.4-1.1-0.6-2.1-0.5-2.8c0.1-1.5-0.3-3.8-1.4-7
						c-0.1-0.6-1.8-4.5-5-11.7c-0.8-1.6-1.9-4.1-3.3-7.3c-0.2-1-0.4-2.4-0.5-4.3c-0.1-1.9-0.3-3.4-0.6-4.3c-0.4-0.5-1.1-1.1-2-2
						c-0.1-0.2-0.5-1.1-1-2.8c-0.4-1.3-0.9-1.9-1.2-1.9c-0.9,0-1.6,1.3-2.2,3.8c-0.3,1.8-0.7,3.6-1.1,5.2c-1,1.3-2.1,3.4-3.4,6.3
						c-0.4,1.5-0.9,3.7-1.4,6.8c-0.7,1.8-1.8,4.3-3.2,7.7c-0.1,1.7-0.8,4.2-1.9,7.5c-0.7,0.8-1.6,1.9-2.8,3.4c-2,3.4-3,5.2-3,5.5
						c0,0.5,0.1,0.9,0.4,1.2c0.3,0.4,1.5,0.5,3.7,0.3c3-0.2,4.6-0.3,4.9-0.3c4.4,0.4,6.3,0.6,5.8,0.6c1.1,0,3.2,0.6,6.2,1.7
						c0.5,0.4,1.5,0.3,2.8-0.1c1.4-0.4,2.2-0.6,2.5-0.3c0.8,0.5,1.9,0.8,3.2,0.8c1.1,0,2.3-0.3,3.7-1
						C433.1,232.7,433.7,231.8,433.7,230.7z"/>
					<path class="st4" d="M347.5,214.2l1.4,4.6c-0.5,0.7-1.4,1.6-2.5,2.8c-3,1.9-7.4,4.9-13.2,8.9c-3.2,3.5-8.2,8.4-14.8,14.8
						c-1,0.5-2.2,1.3-3.7,2.4c-1.5,1.1-3.6,2.6-6.1,4.4c-0.4,0.2-1.1,0.6-1.9,1.1c-0.9,0.5-2.8,2.1-5.9,4.9
						c-1.9,0.8-4.4,2.4-7.4,4.9c-1.4,1.5-3.4,3.8-5.9,7c-0.3,0.8-1,2-2,3.4c-1.7,0.5-4,1.5-7,3c-3.5,2-5.9,3.7-7.3,5.2
						c-1,1.3-1.9,2.5-2.8,3.8c-1.1,1.3-2.1,1.7-3.1,1.2c-1-0.3-1.3-1.2-1.1-2.6c0.4-2.5,0.6-3.8,0.7-3.8v-6.4c0-1.7,0.3-4.4,0.9-8
						c0.6-3.6,0.9-6.4,0.9-8.2c0-2.5-0.2-4.9-0.7-7.3c-0.4-2.9-0.7-5.3-0.8-7c0-0.5,0.3-2.3,1-5.3v-8.8l0.4-8.4
						c-0.7-2.7-1.6-7-2.5-12.8c-0.1-1.1,0.2-2.9,0.9-5.4c0.7-2.5,0.9-4.5,0.7-5.9c-0.1-1-0.6-2.1-1.4-3.3l-2-3
						c-1-2.1-1.6-3.3-1.6-3.9c0-0.8,0.3-1.7,0.9-2.5c0.7,0,1.9-0.2,3.5-0.4c1.6-0.3,2.8-0.4,3.5-0.4c1.3,0,2.4,0.3,3.5,0.9
						c0.5-0.4,1.1-0.9,1.7-1.4c0.6-0.5,1.1-0.7,1.5-0.4c0.7,0.1,2,0.5,3.9,1.2c1.8,0.6,3.2,0.9,4.2,0.9c1.3,0,2.4-0.4,3.3-1.1
						c0.5,0.1,1.2,0.6,2,1.3c-0.4,2.1-1.1,5.2-2,9.3c-0.1,0.7-1,2.5-2.5,5.4c-1.2,2.3-1.6,4.1-1.4,5.4l1.4,12.3l-1,4.9
						c1.1,6.2,1.7,9.5,1.7,9.9c0,0.5-0.3,1.2-0.8,1.9c-0.5,0.8-0.8,1.4-0.8,1.9l1.7,5.3c0.1,0.7,0.1,1.7,0,3
						c-0.4,1.5-0.7,2.4-0.7,2.8c0,1.3,0.7,2,2,2c1.7,0,3.5-1.5,5.5-4.5c1-1.7,2.1-3.5,3.3-5.3c0.5-1,1.9-1.7,4.1-2.2
						c2.3-0.5,3.6-1.1,4.1-1.9l7-8.4l6-3.3c1.8-0.9,3.5-1.8,5.1-2.7c1.6-0.9,2.4-2.3,2.2-4.3l-6.4-5.4l-4.2-6.9
						c-0.5-1.5-1.3-3.4-2.7-5.9c-0.4-0.5-1.3-0.9-2.5-1.1c-1.2-0.2-2.1-0.6-2.6-1c-0.5-0.4-2.7-3.4-6.5-8.7
						c-0.7-1.1-1.7-2.6-3.2-4.4c-1.8-1.3-3.1-2.4-3.8-3.1c-1-1.4-2-2.8-2.9-4.2c-0.9-1.4-2.6-3.1-5.1-5.2c-2.7-2.4-4.5-4.2-5.4-5.2
						c-0.5-1-1.3-2.6-2.4-4.5c-0.2-0.4-2-1.8-5.4-4.3c-1.5-1.3-2.9-2.4-4.2-3.4c-2-1.3-3.6-2.1-5-2.2h-4c-1.3-0.2-2.2-1-2.7-2.3
						c-0.2-0.7,0.4-1.5,1.9-2.3c1.5-0.8,2.4-1.3,2.7-1.7c0.3-1,0.9-2.5,1.9-4.3c1.3-0.9,3.1-2.2,5.5-3.9c0.8-1.6,2.3-3.5,4.4-6
						c0.7-0.4,1.4-1.4,2-3c0.4-1,1.1-1.6,1.9-1.6c1.2,0.2,2.3,1,3.3,2.5c0.6,1.6,1.4,3,2.3,4.5c0.9,1.4,1.8,3.4,2.7,5.9
						c0.4,1.6,1.4,4.1,2.8,7.4c1.3,2.4,3.3,4.4,5.8,6.2c1,0.2,2.2,0.5,3.8,1c1,1.7,2.5,4.1,4.6,7.1c2.1,3.1,5.3,7.1,9.6,12.2
						c1.3,1.3,3.2,3.4,5.5,6.2c0.5,0.4,1.3,0.8,2.4,1.4c0.7,1,1.6,2.3,2.9,4.1c1.7,1.7,4,4.3,7,7.8c0.2,1,0.7,2.3,1.4,4
						c1.3,1,3.1,2.7,5.5,4.9c0.4,1,1.1,2.3,2.3,3.9c0.7,0.2,1.8,0.5,3.1,1c0.3,0.5,0.4,1.5,0.4,2.9c0,1.4,0.3,2.3,1,2.5L347.5,214.2
						z"/>
					<path class="st5" d="M246.4,209.8c1.1,2.3,1.6,3.5,1.5,3.8c-0.2,0.7-0.6,1.5-1.3,2.4l-11.4,0.7l-4,8l-13.3-0.8
						c1.5-2.1,3.5-5.2,5.9-9.4c0.3-0.9,0.5-1.8,0.7-2.7l21.5-2.3C246.2,209.4,246.3,209.6,246.4,209.8z"/>
					<path class="st4" d="M235.3,216.6l11.4-0.7c-0.6,0.8-1.3,1.6-2.3,2.6c-1.9,1.9-3.1,3.3-3.4,4.3c-1.5,2.7-3.1,6.7-4.9,12.1
						c0,1-0.1,2.3-0.4,3.9c-1.9,1.1-4.1,3.1-6.6,5.9c-0.5,1.6-1,3.9-1.4,7c-0.4,3-0.9,5.2-1.5,6.6c-0.7,0.2-1.5,0.6-2.4,1.1
						c-2.1,2-3.9,5-5.3,9.2c-2,5.8-3.1,9.1-3.4,9.9c-1.3,1-2.8,2.6-4.5,5c-0.2,0.6,0.1,1.4,0.8,2.4c0.7,1,0.9,1.9,0.7,2.4
						c-0.4,0.9-1.3,1.9-2.8,2.9c-1.5,1.1-2.5,1.9-2.9,2.5c-0.4,0.6-0.9,2.6-1.4,5.8c-0.3,1.8-0.9,2.9-1.8,3.2l-1.7-45.4
						c0.1,0.1,0.1,0.2,0.2,0.4c0.1,0.4,0.2,0.5,0.4,0.5c0.1,0,0.5-1.4,1.3-4.2c0.6-1.7,1.8-4,3.5-7c0.5-0.1,1.1-0.4,1.8-1
						c-0.2-1.2-0.2-2.7,0-4.5c0.4-0.9,1.3-1.6,2.9-2.1c1.6-0.5,2.6-1.4,3-2.8c-0.3-0.7-0.5-1.9-0.7-3.4c0.7-2.4,2.1-5.5,4.1-9.3
						c0,0,0-0.1,0-0.1l13.3,0.8L235.3,216.6z"/>
					<path class="st4" d="M246.1,209.2l-21.5,2.3c0.4-2.1,0.4-4.1,0-6c-1.2-0.3-2.6-0.9-4.2-1.9c0-1.6-0.4-3.9-1.1-7
						c-1.5-2.6-4-7.2-7.6-13.7c-1-2.2-2.8-5.3-5.2-9.4c-1.1-1.3-3.1-2.7-6.2-4.4l4.5-44.9c0.1,0.1,0.3,0.1,0.4,0.2
						c1.9,0.9,3.3,2.7,4.3,5.4c0.2,0.9,0.3,2.4,0.2,4.4c-0.1,2,0,3.4,0.3,4.2c0.6,1.5,1.8,3.2,3.5,5.1c2,2.2,3.2,3.8,3.6,4.8
						c0.8,2.1,2.1,5.2,3.8,9.1c1.9,2.5,4.5,6.6,7.6,12.3c0.4,1.9,1.3,4.8,2.7,8.5c1.3,1.8,3.1,4.6,5.4,8.4c0.7,2.3,1.9,5.8,3.3,10.4
						C241.3,199.8,243.4,203.8,246.1,209.2z"/>
					<path class="st4" d="M214.3,208.1c0.7,1.9,1.1,3.7,1,5.3c-0.2,1-0.9,2.4-2.2,4.1c-0.7,0.6-1.7,1.6-3,3.2c-0.7,2-2,4.5-3.8,7.6
						c-2.6,3.5-4.3,5.2-5,5c-1.2-0.2-2.4-1.4-3.5-3.4c-0.9-1.7-1.8-3.3-2.8-4.9c-1-2.1-2.8-5.1-5.4-9c-0.7-0.4-1.5-1.5-2.2-3.1
						c0.3-1,1-2,2.1-2.9c1.1-0.9,1.8-1.7,2.1-2.4c1.3-1.8,2.5-4.1,3.4-7c1-2.3,2.6-4.9,5-7.7c1.1-1.3,2-1.8,2.8-1.6
						c2.4,0.8,5.3,4.8,8.8,11.9C212.6,205,213.5,206.6,214.3,208.1z"/>
					<path class="st7" d="M204.8,124.3l-4.5,44.9c-0.1-0.1-0.3-0.2-0.4-0.2c-0.1-0.1-0.3,0.6-0.5,1.9c-0.3,1.3-1.1,3.5-2.3,6.4
						c-1.6,1.8-3.9,4.5-6.8,8.2c0,1.1-1.4,3.8-4.1,8.2v1c-0.9,1.7-2.1,4.2-3.5,7.5c-1.4,2.1-2.7,4.7-4,7.8c0,0.2,0,0.4,0,0.6
						l-18.8-3.8c0.3-0.6,0.6-1.2,1-1.9c1.5-1.9,2.5-3.1,2.8-3.5c1-2.4,2.5-5.9,4.5-10.4c0.7-0.8,1.6-2,2.6-3.7
						c0.5-2.7,1.7-6.8,3.5-12.1c1.3-1.3,2.9-3.5,5.1-6.5c0.8-2.1,2-5.1,3.6-9.1c1.4-3.5,3.6-8.6,6.6-15.3c0.5-1.1,1.4-2.6,2.7-4.6
						c0.7-1.6,1.9-4.3,3.6-8.2c0.7-1.3,2.1-3.2,4-5.8C201.6,124.3,203.3,123.8,204.8,124.3z"/>
					<path class="st7" d="M201.4,257.2l1.7,45.4c-0.2,0.1-0.5,0.1-0.8,0.1c-1.3,0-2.1-1.2-2.4-3.6c-0.5-3.6-0.9-5.6-1-6
						c-0.2-0.4-2-3.3-5.5-8.8c-0.9-1-2-2.6-3.3-4.8c-0.6-2.1-1.7-5-3.3-8.7c-0.5-0.1-1.2-0.5-2.1-1.1c0.1-1-0.9-3.9-2.9-8.6
						c-0.2-1.4-0.8-3.3-1.7-5.6c-1-0.9-2.4-2.7-4.2-5.3c-0.8-3.2-2.4-7.7-4.8-13.7c-1.6-1.7-3.8-4.4-6.6-8.2c-2-3.1-3.6-5.7-4.7-7.9
						l21.1-3.1c0.8,1.5,1.2,2.8,1.3,3.7c0.3,2.8,1.6,6.1,4,9.7c1.4,1.3,3.3,3.5,5.8,6.5c1,3.1,2.6,7.6,5.1,13.6
						C198.3,251.8,199.8,254,201.4,257.2z"/>
					<path class="st5" d="M180.9,217.1l-21.1,3.1c-1.1-2.1-1.7-3.8-2-5.1c-0.2-0.8-0.2-1.7,0.1-2.6c0.7-1.9,1.1-3.1,1.2-3.7
						c0.2-0.6,0.4-1.3,0.8-2.1l18.8,3.8c0.1,1.5,0.5,3.2,1.3,5C180.3,216,180.6,216.5,180.9,217.1z"/>
					<path class="st7" d="M147.3,254.3c0,0.3,0,0.6-0.1,0.9c-0.8,1.6-1.7,2.5-2.7,2.9c-1,0.4-2,0.7-3.2,1.1c-1.5,0.4-3.3,1.4-5.4,3
						c-2.7,1.8-4.8,3.1-6.2,3.8c-6.2,3-11.2,6.4-14.9,10.1c-1.3,1.3-3.9,2.3-7.8,3c-3.2,0.5-5.4,1.6-6.4,3.2
						c-0.4,0.7-1.2,1.1-2.2,1.2c-1,0.1-1.7,0.2-2,0.5c-1.6,1-2.7,3.2-3.3,6.5c-0.7,3.6-1.6,6-2.7,7.1c-0.5,0.5-1,0.8-1.4,0.8
						c-0.5,0-1.1-0.7-1.7-2c-0.6-1.4-1.2-2.7-1.7-3.9c0-0.1-0.6-1.1-1.8-3c-0.7-1-1.1-2-1.1-3c0-0.6,0.2-1.4,0.5-2.5
						c0.3-1.1,0.5-1.8,0.5-2.2c0-0.7-1.5-2.2-4.7-4.4c-2.5-2-3.9-3.1-4.1-3.3c-1.6-1.3-2.5-2.8-3-4.4c-0.3-1-1.7-1.6-4.2-1.8
						c-2.5-0.2-3.8-0.6-3.8-1.2c0-0.1,0-0.3,0.1-0.6c1.5-2.7,3.8-4.1,7-4.1c1.2,0,3.2,0.3,6.1,0.8c2.9,0.5,5.1,0.8,6.6,0.8
						c3.2,0,6-0.9,8.2-2.8c1-0.7,2.3-1.2,3.8-1.4c1.5-0.2,3.1-0.4,4.9-0.6c1.7-0.2,4.2-1.7,7.4-4.5c3.2-2.8,6.4-4.4,9.7-4.7
						c0.8-0.1,1.2-0.4,1.2-1.1c0-0.7-0.6-1.9-1.9-3.8c-1.3-1.9-2-3.2-2.2-3.9c-0.7-0.3-1.5-0.9-2.3-1.7c-0.1-0.1,0-0.4,0.2-0.8
						c0.2-0.4,0.3-0.7,0.3-0.9c0-0.5-0.4-0.9-1.2-1.1c-0.8-0.2-1.6-1.1-2.3-2.8c-0.7-2-1.5-3.3-2.2-3.9s-1.8-2.6-3.3-6.1
						c-1-2.5-1.9-6.5-5.8-7.8c-2.6-3.9-7-10.5-7-11c0-1.1-0.7-2.2-2-3.3c-1.3-1.1-1.9-1.8-1.6-2.3c0.3-0.4,0.2-0.9,0-1.2
						c-4-4.6-6.5-7.6-7.4-8.7c-2.4-3.1-4.5-6.6-6.3-10.5c-0.5-0.1-1.2-0.5-1.9-1.2c-0.2-0.7-1-2.3-2.7-4.5c-1.3-1.9-1.9-3.5-1.9-4.9
						c0-1.5,0.8-2.8,2.4-4.1c0.3-0.2,0.7-0.3,1.1-0.3c0.4,0,0.9,0.1,1.6,0.4c0.7,0.3,1.2,0.4,1.6,0.4c0.7,0,1.2-0.4,1.7-1.2
						c0-0.3,0.6-0.9,1.8-1.7c1.2-0.9,1.9-1.3,2.1-1.3c1.5,0.5,2.9,0.2,4.2-0.7c2.1-1.1,4.7-3,7.6-5.6c2.5-2.2,5-3.9,7.5-5.2
						c1.5-0.7,3.7-1.2,6.4-1.3c2.2-0.2,4-1.1,5.4-2.5c1.4-1.4,3.9-2.8,7.5-4.1c2.6-0.9,4.2-2.6,5-5.1c0.3-1,0.4-3.5,0.4-7.3
						c0.2-2.9,1-4.2,2.4-3.8c2.1,0.5,3.4,2.1,3.9,4.9c0.5,2.7,1,5.5,1.4,8.3c0.5,2,1.6,3.3,3.3,3.9c1.3,0.6,2.4,1.6,3.4,3.1
						c1,1.5,1.6,3.1,1.7,4.9c0.1,1.7,1.3,3.3,3.5,4.7c2.3,1.4,3.4,2.9,3.5,4.6c0.1,1.3,0.1,1.9,0,1.9c-0.8,0-2.9-0.2-6.3-0.7
						c-2.8-0.3-5.2-0.4-7.2-0.4c-2.9,0-5.6,0.4-7.8,1.1c-4.5,1.5-7.3,2.6-8.5,3.1c-2.6,1.3-5,3.2-7.4,5.9c-0.7,0.7-2.4,1.1-4.9,1.1
						c-1.6,0-2.5,0.3-3,0.8c-0.9,1.1-1.8,2.3-2.8,3.5c-0.3,0.4-0.4,1-0.4,1.7c0,1.5,1.7,3.9,5.1,7.2c4,3.9,6.3,6.6,7,8.2
						c0.6,2.4,2.4,6.4,5.3,11.9c0.1,0.1,11.9,16.5,12.9,19c0.6,1.5,1.4,4,4.2,7.1c3.5,3.3,5.5,5.9,6.1,7.6c0.2,2.1,1.2,5.2,2.9,9.2
						c0.7,0.9,1.9,2.3,3.6,4.3C146.8,252.7,147.3,253.7,147.3,254.3z"/>
				</g>
				<g>
					<line class="st10" x1="204.8" y1="124.1" x2="204.8" y2="124.3"/>
				</g>
			</g>
			<g id="XMLID_8_">
				<g>
					<path class="st4" d="M214.5,208.4c0.7,1.8,1,3.5,1,5l-4.1,0.3l-7.4,1l-4.6,0.5l3.2-23.8c0.1,0,0.2,0,0.3,0.1
						c2.4,0.8,5.4,4.8,8.9,12C212.8,205.2,213.7,206.8,214.5,208.4z"/>
					<polygon class="st5" points="215.5,213.4 211.8,213.8 204,214.7 211.4,213.7 					"/>
					<path class="st5" d="M211.8,213.8l3.7-0.4c0,0.1,0,0.2,0,0.4c-0.1,1.1-0.9,2.4-2.2,4.1c-0.7,0.6-1.8,1.7-3,3.2
						c-0.3,0.7-0.6,1.4-0.9,2.3L211.8,213.8l-7.9,0.9l0.1,0L211.8,213.8z"/>
					<polygon class="st5" points="211.8,213.8 209.3,223.3 211.1,214.9 203.7,214.7 203.9,214.7 					"/>
					<path class="st4" d="M211.1,214.9l-1.8,8.5c-0.7,1.6-1.7,3.4-2.8,5.5c-2.1,2.8-3.6,4.5-4.5,4.9l-2.6-18.3v0l0-0.1l4.5-0.5
						l-0.2,0L211.1,214.9z"/>
					<path class="st7" d="M202.6,191.5l-3.2,23.8l0,0l-2.5-17.7c0.9-1.4,2-2.9,3.3-4.5C201.1,192,201.9,191.4,202.6,191.5z"/>
					<path class="st7" d="M199.4,215.4l2.6,18.3c-0.2,0.1-0.4,0.2-0.5,0.1c-0.5-0.1-1-0.4-1.5-0.8l-0.7-17L199.4,215.4z"/>
					<path class="st7" d="M199.4,215.4L199.4,215.4l-0.1,0.7l0.7,17c-0.7-0.6-1.4-1.5-2.1-2.7c-0.9-1.7-1.8-3.3-2.8-4.9
						c-1-2.2-2.9-5.2-5.5-9c0,0,0,0-0.1,0l7.8-0.9l0,0l1.9-0.2l0,0v0L199.4,215.4z"/>
					<path class="st7" d="M196.8,197.6l2.5,17.7l-1.9,0.2l-4.9-8.9c0.9-1.6,1.8-3.4,2.5-5.6C195.5,199.9,196.1,198.8,196.8,197.6z"
						/>
					<path class="st7" d="M192.6,206.5l4.9,8.9l0,0l-9.6-3.2c0.4-0.7,0.9-1.3,1.7-1.9c1.1-0.9,1.8-1.7,2.1-2.4
						C192,207.5,192.3,207,192.6,206.5z"/>
					<path class="st5" d="M197.4,215.5l-7.8,0.9c-0.7-0.5-1.4-1.5-2.2-3.1c0.1-0.4,0.2-0.7,0.4-1L197.4,215.5z"/>
				</g>
			</g>
		</g>
		<g>
			<g>
				<text transform="matrix(1 0 0 1 65.9033 372.9785)" class="st11 st12 st13">A Jornada de Rui na Caverna de Cristal</text>
			</g>
			<ellipse class="st9" cx="117.5" cy="31.3" rx="7" ry="5.6"/>
			<ellipse class="st9" cx="337.7" cy="278" rx="7" ry="5.6"/>
			<ellipse class="st9" cx="31.1" cy="213.9" rx="7" ry="5.6"/>
			<ellipse class="st9" cx="936.9" cy="119.1" rx="7" ry="5.6"/>
			<circle class="st9" cx="138.4" cy="184.6" r="2.8"/>
			<circle class="st9" cx="138.4" cy="304.5" r="2.8"/>
			<circle class="st9" cx="911.9" cy="265.5" r="2.8"/>
			<circle class="st9" cx="31.1" cy="112.2" r="2.8"/>
			<circle class="st9" cx="396.2" cy="103.8" r="2.8"/>
			<circle class="st9" cx="773.9" cy="204.1" r="2.8"/>
			<circle class="st9" cx="700" cy="64.8" r="4.2"/>
			<circle class="st9" cx="849.1" cy="55" r="4.2"/>
			<circle class="st9" cx="222" cy="99.6" r="4.2"/>
			<circle class="st9" cx="464.5" cy="173.5" r="4.2"/>
			<circle class="st9" cx="665.2" cy="204.1" r="4.2"/>
			<circle class="st9" cx="932.8" cy="198.6" r="4.2"/>
			<circle class="st9" cx="869.4" cy="133.8" r="2.1"/>
			<circle class="st9" cx="224.1" cy="302.4" r="2.1"/>
			<circle class="st9" cx="572.5" cy="161.6" r="2.1"/>
			<circle class="st9" cx="771.8" cy="90.6" r="2.1"/>
			<circle class="st9" cx="330" cy="160.2" r="2.1"/>
			<circle class="st9" cx="534.9" cy="232.7" r="2.1"/>
			<circle class="st9" cx="674.9" cy="128.9" r="4.2"/>
		</g>
	</g>
</g>
<g id="Camada_2">
</g>
</svg>
