<?xml version="1.0" encoding="utf-8"?>
<!-- Generator: Adobe Illustrator 24.0.1, SVG Export Plug-In . SVG Version: 6.00 Build 0)  -->
<svg version="1.1" id="Capa_1" xmlns="http://www.w3.org/2000/svg" xmlns:xlink="http://www.w3.org/1999/xlink" x="0px" y="0px"
	 viewBox="0 0 512 512" style="enable-background:new 0 0 512 512;" xml:space="preserve">
<style type="text/css">
	.st0{fill:#FFC84D;}
	.st1{fill:#90CED3;}
	.st2{fill:#424141;}
	.st3{fill:#0A0A0A;}
</style>
<g>
	<g>
		<g>
			<path class="st0" d="M88.5,101.5L6,125.3C34.7,235.2,171.1,506,171.1,506l302.6-116.7c0,0-131.6-206.2-162.7-351.2L88.5,101.5z"
				/>
			<g>
				<path d="M88.5,89c-9.3,2.7-18.5,5.3-27.8,8c-14.8,4.3-29.6,8.5-44.4,12.8c-3.4,1-6.9,2-10.3,3c-2.9,0.8-4,3.4-4.7,6.2
					c-1.1,4-1.1,8.6,0,12.6c7.3,27.8,17.5,55,28,81.7c12.9,32.7,26.8,65,41.1,97.2c14.2,32,28.9,63.8,43.9,95.5
					c11.8,24.9,23.7,49.7,35.9,74.4c5.6,11.4,11.1,22.8,16.9,34c0.1,0.1,0.2,0.3,0.2,0.4c1.2,2.3,2.6,4.3,5.4,3.2
					c2.7-1,5.4-2.1,8.1-3.1c7.3-2.8,14.7-5.7,22-8.5c10.8-4.2,21.7-8.4,32.5-12.6c13.2-5.1,26.5-10.2,39.7-15.3
					c14.5-5.6,29-11.2,43.5-16.8c14.6-5.6,29.3-11.3,43.9-16.9c13.7-5.3,27.3-10.5,41-15.8c11.5-4.5,23.1-8.9,34.6-13.4
					c8.3-3.2,16.6-6.4,24.9-9.6c3.9-1.5,8.1-2.7,11.8-4.6c0.2-0.1,0.3-0.1,0.5-0.2c1.1-0.4,2-2.3,2.4-3.2c1-2.2,1.4-4.8,1.5-7.2
					c0.3-4.3-0.3-8.8-2.6-12.5c-4.5-7.1-8.9-14.3-13.3-21.5c-5-8.2-9.8-16.4-14.7-24.7c-3-5.1-5.9-10.2-8.8-15.3
					c-0.7-1.3-1.4-2.5-2.2-3.8c0.1,0.1,1.1,1.9,0.4,0.7c-0.2-0.3-0.3-0.6-0.5-0.9c-0.5-0.9-1-1.7-1.5-2.6c-1.6-2.8-3.2-5.7-4.8-8.6
					c-14.7-26.2-28.8-52.8-42.2-79.7c-14.9-29.9-28.9-60.3-41.4-91.3c-3.1-7.6-6.1-15.3-8.9-23c-1.5-3.9-2.9-7.8-4.3-11.8
					c-0.6-1.8-1.3-3.6-1.9-5.4c-0.1-0.4-0.3-0.8-0.4-1.2c-0.1-0.2-0.8-2.2-0.2-0.5c0.6,1.7-0.1-0.3-0.2-0.5
					c-0.2-0.6-0.4-1.2-0.6-1.8c-4.9-14.6-9.2-29.3-12.9-44.2c-0.9-3.5-1.7-7.1-2.4-10.6c-0.3-1.5-2.2-6.9-4.7-6.2
					c-7.4,2.1-14.8,4.2-22.2,6.3C271.1,37,253.4,42,235.6,47.1c-21.4,6.1-42.8,12.2-64.1,18.3c-18.5,5.3-37,10.5-55.5,15.8
					c-9,2.6-18.1,5.1-27.1,7.7C88.8,89,88.7,89,88.5,89c-4.8,1.4-5.6,8.3-5.5,12.5c0.1,2.9,0.3,6.2,1.6,8.8c0.6,1.2,2.1,4.2,3.9,3.7
					c7.4-2.1,14.8-4.2,22.2-6.3c17.7-5.1,35.5-10.1,53.2-15.2c21.4-6.1,42.8-12.2,64.1-18.3c18.5-5.3,37-10.5,55.5-15.8
					c6.2-1.8,12.3-3.5,18.5-5.3c2.8-0.8,5.9-1.4,8.6-2.5c0.1,0,0.3-0.1,0.4-0.1c-1.6-2.1-3.2-4.1-4.7-6.2
					c6.8,31.5,17.1,62.3,28.8,92.3c12.1,31.3,25.9,62,40.7,92.1c13.6,27.8,27.9,55.2,42.9,82.2c11.6,20.9,23.4,41.5,35.7,62
					c5.4,8.9,10.6,18,16.4,26.7c0.1,0.1,0.2,0.2,0.2,0.4c0.4-7.6,0.9-15.2,1.3-22.8c-2.7,1-5.4,2.1-8.1,3.1
					c-7.3,2.8-14.7,5.7-22,8.5c-10.8,4.2-21.7,8.4-32.5,12.6c-13.2,5.1-26.5,10.2-39.7,15.3c-14.5,5.6-29,11.2-43.5,16.8
					c-14.6,5.6-29.3,11.3-43.9,16.9c-13.7,5.3-27.3,10.5-41,15.8c-11.5,4.5-23.1,8.9-34.6,13.4c-8.3,3.2-16.6,6.4-24.9,9.6
					c-3.9,1.5-8,2.8-11.8,4.6c-0.2,0.1-0.3,0.1-0.5,0.2c1.8,1.1,3.6,2.1,5.4,3.2c-4.7-9.2-9.2-18.5-13.8-27.8
					c-11.5-23.3-22.8-46.7-33.9-70.1c-14.8-31.1-29.4-62.4-43.5-93.9c-14.5-32.3-28.6-64.7-41.8-97.5c-5.9-14.8-11.7-29.6-17.1-44.6
					c-1.2-3.5-2.5-6.9-3.7-10.4c-0.2-0.7-0.5-1.4-0.7-2.1c-0.1-0.4-0.3-0.8-0.4-1.3c1.1,3.3,0.5,1.6,0.3,0.9
					c-0.6-1.6-1.1-3.3-1.6-4.9c-2-6.1-3.9-12.2-5.7-18.4c-0.8-2.7-1.5-5.4-2.2-8.1c-1.6,6.3-3.2,12.5-4.7,18.8
					c9.3-2.7,18.5-5.3,27.8-8c14.8-4.3,29.6-8.5,44.4-12.8c3.4-1,6.9-2,10.3-3c4.8-1.4,5.6-8.2,5.5-12.5c-0.1-2.9-0.3-6.2-1.6-8.8
					C91.8,91.5,90.3,88.5,88.5,89z"/>
			</g>
		</g>
		<g>
			<g>
				<path d="M77.7,103.8c-0.1,0-0.2,0.1-0.3,0.1c0.6,0.5,1.2,1.1,1.7,1.6c0,0,0,0,0,0c0.1,0.4,0.3,0.8,0.4,1.1
					c-0.1-0.3-0.2-0.5-0.2-0.8c-0.1-0.3-0.1-0.5-0.2-0.8c0.2,1.2,0.3,1.5,0.2,1.1c0,0,0-0.1,0-0.1c0-0.1,0-0.2,0-0.3
					c0-0.2-0.1-0.4-0.1-0.6c0-0.2,0-0.4-0.1-0.6c0-0.3-0.1-1.3,0-0.1c0.1,1.3,0,0.2,0-0.1c0-0.3,0-0.5,0-0.8c0-0.3,0-0.6,0-0.9
					c0-0.6-0.1,1.7-0.1,0.9c0-0.2,0-0.3,0-0.5c0.1-0.7,0.2-1.4,0.3-2c-1.6-0.5-3.2-1-4.8-1.5c0,3.8,0.3,7.5,0.8,11.3
					c0.1,1.1,0.4,2.5,1.1,3.3c0.4,0.5,1.2,1,1.9,0.6c0.8-0.5,1.2-1.6,1.5-2.6c0.3-1.4,0.4-2.9,0.2-4.3c-0.3-1.9-0.5-3.7-0.6-5.6
					c-0.1-0.9,0.1,1.6,0,0.7c0-0.2,0-0.4,0-0.6c0-0.3,0-0.7,0-1c0-0.6,0-1.2,0-1.9c0-1.2-0.2-2.8-0.7-3.9c-0.3-0.6-0.7-1.3-1.4-1.5
					c-1.9-0.6-2.5,2.9-2.7,4c-0.6,3.3-0.6,6.8-0.2,10.1c0.2,1.8,0.6,3.5,1.2,5.2c0.1,0.4,1,1.8,1.7,1.6c0.1,0,0.2-0.1,0.3-0.1
					c0.4,0,0.7-0.2,0.9-0.5c0.4-0.3,0.6-0.7,0.8-1.1c0.5-1.1,0.7-2.7,0.7-3.9c0-1.3-0.1-2.7-0.7-3.9c-0.2-0.3-0.3-0.6-0.5-0.9
					C78.7,104.1,78.2,103.9,77.7,103.8z"/>
			</g>
		</g>
		<g>
			<g>
				<path d="M252,51c-1.1,0.3-2.1,0.6-3.2,1c0.7,0.9,1.4,1.8,2.1,2.8c0-0.1,0-0.2-0.1-0.3c0.1,0.4,0.2,0.9,0.2,1.3
					c-0.4-2.4-0.8-4.7-1-7.1c-1.2,2.1-2.4,4.2-3.6,6.3c1.3,1.5,2.5,3.2,3.5,4.9c-0.2-0.3-0.3-0.6-0.5-0.9c0.3,0.5,0.6,1,0.8,1.6
					c0.3,0.6,0.9,1.6,1.7,1.6c0.8,0,1.5-1,1.7-1.6c0.5-1.2,0.7-2.6,0.7-3.9c0-1.3-0.1-2.8-0.7-3.9c-1.3-2.6-2.9-5.1-4.8-7.3
					c-0.2-0.2-0.4-0.4-0.6-0.6c-0.2-0.1-0.4-0.1-0.7-0.2c-0.2,0.1-0.4,0.1-0.7,0.2c-0.4,0.3-0.7,0.6-0.8,1c-1,1.7-1.1,3.9-0.9,5.8
					c0.3,2.9,0.8,5.9,1.3,8.8c0.2,0.7,0.5,1.4,0.9,2c0.3,0.5,0.7,0.7,1.2,0.8c1.1-0.3,2.1-0.6,3.2-1c0.4,0,0.7-0.2,0.9-0.5
					c0.4-0.3,0.6-0.7,0.8-1.1c0.5-1.1,0.7-2.7,0.7-3.9c0-1.3-0.1-2.7-0.7-3.9c-0.2-0.3-0.3-0.6-0.5-0.9C253,51.3,252.5,51.1,252,51z
					"/>
			</g>
		</g>
		<g>
			<g>
				<path d="M246.7,60.4c2.3,12.2,6.8,24,13,34.8c2.3,4.1,4.9,8,7.7,11.7c0.2-3.4,0.4-6.8,0.6-10.2c-3.3,2-7,3.5-10.6,4.9
					c-5.3,2.1-10.7,3.9-16.1,5.7c-7,2.3-12.9,4.1-19.8,6.1c-7.6,2.2-15.1,4.4-22.7,6.5c-15.7,4.3-31.5,8.4-47.2,12.4
					c-12.9,3.3-25.8,6.5-38.8,9.6c-6.2,1.5-12.3,2.9-18.5,4.4c-0.1,0-0.2,0-0.3,0.1c-2.1,0.5-2.5,3.8-2.4,5.6c0,1.3,0.1,2.7,0.7,3.9
					c0.3,0.6,0.9,1.8,1.7,1.6c5.1-1.2,10.1-2.4,15.1-3.6c12.4-3,24.8-6.1,37.2-9.2c15.7-4,31.3-8,46.9-12.3c15-4.1,29.9-8.3,44.7-13
					c5.8-1.8,11.6-3.7,17.2-5.8c4.1-1.5,8.2-3.1,12.1-5.1c0.7-0.3,1.3-0.7,2-1.1c1.4-0.8,1.7-3.3,1.8-4.6c0.1-1.8,0-4-1.2-5.5
					c-4.5-6-8.1-12-11.2-18.7c-1.4-3-2.6-6-3.7-9.1c-0.1-0.3-0.2-0.7-0.4-1c-0.2-0.5,0.1,0.3,0.1,0.3c-0.1-0.2-0.1-0.3-0.2-0.5
					c-0.2-0.7-0.5-1.4-0.7-2.1c-0.4-1.3-0.8-2.6-1.1-3.8c-0.7-2.5-1.3-5-1.7-7.6c-0.3-1.5-1.9-4-3.3-2C246,54.9,246.2,58,246.7,60.4
					L246.7,60.4z"/>
			</g>
		</g>
		<g>
			<path class="st1" d="M52.7,145l243.2-68c0,0,32.7,161.6,120.4,270.4c0,0-93.3,80.1-233.7,94.4C182.6,441.8,77.4,254.5,52.7,145z"
				/>
			<g>
				<path d="M52.7,152.5c2.2-0.6,4.3-1.2,6.5-1.8c5.9-1.7,11.8-3.3,17.7-5c8.7-2.4,17.4-4.9,26.1-7.3c10.6-3,21.3-6,31.9-8.9
					c11.7-3.3,23.3-6.5,35-9.8c11.8-3.3,23.6-6.6,35.3-9.9c11-3.1,22-6.1,32.9-9.2c9.3-2.6,18.6-5.2,27.8-7.8
					c6.6-1.9,13.3-3.7,19.9-5.6c3.1-0.9,6.5-1.5,9.5-2.7c0.1,0,0.3-0.1,0.4-0.1c-0.9-1.2-1.9-2.5-2.8-3.7c1.1,5.7,2.5,11.3,3.9,16.9
					c3.7,15,7.9,29.8,12.5,44.6c6.6,21.4,14,42.5,22.3,63.3c9.6,24.1,20.3,47.8,32.5,70.7c13,24.3,27.5,47.9,44.3,69.8
					c2,2.6,4.1,5.3,6.2,7.8c0.3-4.6,0.5-9.1,0.8-13.7c-3.3,2.8-6.8,5.5-10.4,8.1c-9.5,7-19.3,13.6-29.4,19.7
					c-15.1,9.3-30.8,17.7-46.8,25.2c-20,9.4-40.6,17.4-61.7,23.9c-24.3,7.5-49.3,12.9-74.5,16.1c-3.3,0.4-6.7,0.8-10,1.1
					c0.8,0.7,1.6,1.5,2.3,2.2c-3.6-6.5-7.2-13-10.7-19.5c-9-16.7-17.8-33.4-26.4-50.3c-11.7-22.9-23-46-33.8-69.3
					C102.4,272,91.2,246.4,81,220.4c-2.5-6.4-4.9-12.7-7.2-19.2c-1.1-3-2.2-6.1-3.3-9.1c-0.5-1.5-1-3-1.6-4.5
					c-0.1-0.4-0.2-0.7-0.4-1.1c0.5,1.6,0,0.1-0.1-0.2c-0.3-0.8-0.6-1.7-0.9-2.5c-3.8-11.5-7.3-23.1-10.3-34.8
					c-0.7-2.6-1.3-5.3-1.9-7.9c-0.5-2-2.5-5.3-4.5-2.7c-2.1,2.6-1.9,7.2-1.2,10.3c5.6,24.7,13.8,48.7,22.7,72.3
					c9.9,26.1,20.9,51.8,32.5,77.2c10.9,23.9,22.3,47.5,34.1,70.9c9.1,18,18.4,35.9,27.9,53.6c4.3,8,8.6,16,13.1,23.9
					c0.1,0.1,0.1,0.2,0.2,0.3c0.4,0.7,1.2,2.3,2.3,2.2c25.9-2.7,51.5-7.7,76.6-14.9c21.9-6.3,43.4-14.1,64.2-23.5
					c16.8-7.5,33.1-16,48.9-25.4c10.9-6.5,21.6-13.4,31.9-20.9c4.4-3.2,8.8-6.3,12.8-9.9c0.1,0,0.1-0.1,0.2-0.1
					c1.8-1.5,2.2-4,2.4-6.2c0.1-2.3,0-5.5-1.6-7.5c-8.6-10.7-16.6-21.8-24.2-33.2c-3.8-5.7-7.4-11.5-10.9-17.4
					c-1.7-2.8-3.4-5.7-5.1-8.6c-1.5-2.7-2.9-5.1-4.6-8.2c-12.6-22.8-23.7-46.4-33.6-70.5c-4.5-10.9-8.7-22-12.7-33.1
					c-0.9-2.6-1.9-5.3-2.8-7.9c-0.4-1.3-0.9-2.5-1.3-3.8c-0.2-0.6-0.4-1.1-0.6-1.7c-0.5-1.4,0.3,1,0,0.1c-0.1-0.3-0.2-0.7-0.3-1
					c-1.7-4.9-3.3-9.8-4.8-14.7c-4.9-15.5-9.4-31.1-13.4-46.8c-1.7-6.9-3.2-13.8-4.9-20.7c0-0.1,0-0.2-0.1-0.3
					c-0.2-0.9-1.3-4.1-2.8-3.7c-2.2,0.6-4.3,1.2-6.5,1.8c-5.9,1.7-11.8,3.3-17.7,5c-8.7,2.4-17.4,4.9-26.1,7.3
					c-10.6,3-21.3,6-31.9,8.9c-11.7,3.3-23.3,6.5-35,9.8c-11.8,3.3-23.6,6.6-35.3,9.9c-11,3.1-22,6.1-32.9,9.2
					c-9.3,2.6-18.6,5.2-27.8,7.8c-6.6,1.9-13.3,3.7-19.9,5.6c-3.2,0.9-6.4,1.8-9.5,2.7c-0.1,0-0.3,0.1-0.4,0.1
					c-2.9,0.8-3.3,5-3.3,7.5c0,1.8,0.2,3.7,1,5.3C50.7,151,51.6,152.8,52.7,152.5z"/>
			</g>
		</g>
		<g>
			<g>
				<path d="M90.1,184.5c3.6,7.6,7.1,15.2,10.7,22.8c0.5,1.1,1,2.1,1.5,3.2c0.3,0.6,0.8,1.4,1.6,1.5c10.7,0.4,21.8-0.4,32.3-2.6
					c7-1.4,14.6-3.5,20.3-8.1c1.2-0.9,2.1-1.8,2.5-3.4c0.5-1.7,0.3-3.5,0-5.1c-0.1-0.5-0.2-1-0.3-1.5c-0.5-2.3-1-4.6-1.5-6.8
					c-1.6-6.8-3.3-13.6-5.5-20.2c-0.8-2.3-1.6-4.8-3.1-6.8c-0.7-1-1.5-1.7-2.7-1.6c-9.8,0.9-19.5,2.4-29.1,4.6
					c-6,1.4-12.1,3-17.7,5.8c-4.8,2.3-8.8,5.8-9.6,11.3c-0.3,2-0.1,4,0.3,5.9c0.3,1.4,1.7,3.5,3,1.8c1.4-1.8,1.2-4.8,0.8-6.8
					c0,0.1,0.2,1.4,0.1,0.7c-0.1-0.8,0.1,1,0,0.8c0-0.9-0.2,1.5,0,0.4c0.1-0.3-0.3,1.4-0.1,0.7c0.2-0.7-0.1,0.3-0.2,0.5
					c0.1-0.2,0.3-0.6,0.3-0.8c0.2-0.5-0.5,0.7-0.2,0.3c0.1-0.1,0.2-0.3,0.2-0.4c0.2-0.3,0.4-0.5,0.6-0.7c0.2-0.2,0.4-0.4,0.6-0.7
					c0.3-0.3-0.5,0.4-0.1,0.1c0.2-0.1,0.3-0.3,0.5-0.4c2.5-2.1,5.6-3.5,8.7-4.7c4-1.5,7.3-2.5,11.5-3.5c4.1-1,8.3-1.8,12.4-2.5
					c5.8-1,11.6-1.8,17.4-2.3c0.1,0,1,0,1-0.1c0,0.1-0.8-0.4-0.2,0c0.2,0.2-0.4-0.6-0.3-0.3c0.1,0.1,0.2,0.2,0.2,0.3
					c0.1,0.2,0.3,0.4,0.4,0.6c0.3,0.5-0.3-0.5-0.2-0.3c0.1,0.2,0.2,0.3,0.3,0.5c0.7,1.5,1.2,3,1.8,4.5c-0.5-1.3,0.1,0.2,0.2,0.6
					c0.2,0.5,0.3,1,0.5,1.6c0.3,1.1,0.6,2.1,0.9,3.2c2,7,3.5,14,5.1,21c0,0.1,0.1,0.3,0.1,0.4c0.4-2.4,0.9-4.9,1.3-7.3
					c-6.3,5.9-15.3,8-23.5,9.4c-8,1.4-16.1,1.9-24.1,2c-1.7,0-3.4,0-5.1,0c0.5,0.5,1,1,1.6,1.5c-3.6-7.6-7.1-15.2-10.7-22.8
					c-0.5-1.1-1-2.1-1.5-3.2c-0.3-0.6-0.8-1.5-1.6-1.5c-0.7,0-1.3,0.9-1.6,1.5C89.2,179.5,89.1,182.4,90.1,184.5z"/>
			</g>
		</g>
		<g>
			<g>
				<path d="M121.7,249.5c3.3,8.9,6.6,17.9,10,26.8c0.5,1.3,0.9,2.5,1.4,3.8c0.2,0.6,0.8,1.4,1.6,1.5c7.5,0.3,15.1-0.2,22.4-1.4
					c5.9-0.9,11.8-2.4,17.2-5c2.4-1.1,4.6-2.5,6.6-4.3c0.6-0.6,1.3-1.2,1.8-1.9c0.9-1.5,1-3.6,0.8-5.3c0-0.3-0.1-0.5-0.1-0.8
					c-1.7-9-3.4-18.1-5.9-27c-0.6-2.2-1.3-4.4-2.2-6.5c-0.5-1.2-1.3-3.1-2.5-3.8c-0.7-0.4-1.6-0.2-2.4-0.1c-1.7,0.1-3.5,0.3-5.2,0.5
					c-13,1.5-26.4,5-37.7,12c-1.6,1-3.1,2.1-4.6,3.2c-1.7,1.3-1.8,4.2-1.5,6.2c0.1,0.8,1,4.8,2.7,3.5c12.5-9.7,28.8-13.8,44.4-15.1
					c0.8-0.1,1.7-0.1,2.5-0.2c0.2,0,1.1,0.1,1.2-0.1c0,0,0,0,0,0c0-0.1,7.5,3.2-0.5-0.2c0.2,0.1,0.3,0.4,0-0.1
					c-0.4-0.5,0.2,0.3,0.3,0.5c-0.1-0.2-0.4-0.8-0.1-0.2c0.1,0.2,0.2,0.4,0.3,0.6c0.2,0.5,0.4,1,0.6,1.5c0.1,0.2,0.2,0.5,0.3,0.8
					c0.2,0.5-0.4-1.1-0.1-0.4c0,0.1,0.1,0.2,0.1,0.4c0.2,0.7,0.4,1.3,0.6,2c0.4,1.5,0.8,2.9,1.2,4.4c0.8,3.2,1.5,6.3,2.2,9.5
					c0.7,3.1,1.3,6.1,1.9,9.2c0.2,1,0.4,2,0.6,3c0.2,0.9-0.2-1.1-0.1-0.7c0,0.1,0.1,0.3,0.1,0.4c0,0.1,0,0.2,0.1,0.3
					c0.3-1.9,0.7-3.8,1-5.6c-0.2,0.2-0.3,0.3-0.5,0.5c-0.5,0.6,0.3-0.2-0.1,0.1c-0.3,0.3-0.7,0.6-1,0.9c-0.7,0.6-1.5,1.1-2.2,1.6
					c-1.6,1-3.2,1.8-4.9,2.5c-3.7,1.6-7.4,2.5-11.4,3.3c-6.9,1.3-14,1.9-21,2c-1.5,0-2.9,0-4.4,0c0.5,0.5,1,1,1.6,1.5
					c-3.3-8.9-6.6-17.9-10-26.8c-0.5-1.3-0.9-2.5-1.4-3.8c-0.2-0.6-0.8-1.5-1.6-1.5c-0.7,0-1.3,0.9-1.6,1.5
					C120.7,244.7,120.8,247.3,121.7,249.5z"/>
			</g>
		</g>
		<g>
			<g>
				<path d="M156,317.6c1.1,4.8,2.3,9.7,3.4,14.5c1.8,7.7,3.7,15.5,5.5,23.2c0.4,1.8,0.8,3.6,1.3,5.3c0.2,0.9,0.8,2.4,1.9,2.5
					c7.2,0.4,14.7-0.3,21.8-1.6c5.8-1.1,11.7-2.7,16.9-5.6c2.6-1.4,5-3.2,7.1-5.3c1.9-1.9,3.1-3.7,3.1-6.6c0-1-0.2-1.9-0.4-2.9
					c-2-7.9-4.3-15.8-6.7-23.6c-1.5-4.7-2.9-9.5-4.8-14.1c-0.6-1.5-1.3-3.1-2.2-4.5c-0.6-0.9-1.2-1.5-2.3-1.5
					c-4.2-0.1-8.5,0.7-12.6,1.5c-8.2,1.6-16.3,4.2-23.9,7.7c-2.3,1.1-4.5,2.2-6.7,3.4c-2.7,1.5-1.6,11.2,1.2,9.6
					c9.3-5.2,19.3-8.8,29.7-10.8c3.2-0.6,6.3-1.1,9.5-1.3c0.8-0.1,1.6-0.1,2.5-0.1c0.2,0,0.4,0,0.6,0c0.4-0.1-0.5-0.2-0.3-0.1
					c0.3,0.2-0.4-0.6-0.3-0.2c0,0.1,0.2,0.2,0.2,0.3c0.1,0.1,0.1,0.2,0.2,0.3c0.5,0.7-0.4-0.7-0.1-0.2c0.4,0.8,0.8,1.7,1.2,2.5
					c0.5,1.1,0.9,2.2,1.3,3.4c0.2,0.6,0.4,1.2,0.6,1.8c0.1,0.2,0.1,0.4,0.2,0.5c0.2,0.5-0.3-1-0.1-0.3c0.1,0.4,0.2,0.7,0.4,1.1
					c2,6.1,3.8,12.2,5.5,18.4c1.1,3.8,2.1,7.6,3.1,11.4c0.3-2.3,0.5-4.6,0.8-6.8c-1.4,1.8-2.1,2.5-3.8,3.8c-1.6,1.2-3.3,2.3-5,3.2
					c-3.7,1.9-7.5,3.1-11.5,4.1c-6.8,1.6-13.9,2.3-20.9,2.4c-1.5,0-2.9,0-4.4,0c0.6,0.8,1.3,1.7,1.9,2.5c-1.1-4.8-2.3-9.7-3.4-14.5
					c-1.8-7.7-3.7-15.5-5.5-23.2c-0.4-1.8-0.8-3.6-1.3-5.3c-0.3-1.3-1.6-3.5-3-1.8C155.4,312.5,155.5,315.6,156,317.6z"/>
			</g>
		</g>
		<g>
			<g>
				<path d="M179.7,383.2c4.7,10.6,9.4,21.1,14.1,31.7c0.7,1.5,1.4,3,2,4.6c0.3,0.6,0.8,1.4,1.6,1.5c3.7,0.2,7.4,0.1,11.1-0.1
					c7.7-0.4,15.4-1.4,22.8-3.7c4.1-1.3,8.1-3,11.6-5.4c2.3-1.6,1.9-6.1,1-8.4c-1.8-4.4-3.6-8.9-5.4-13.3
					c-2.9-7.1-5.8-14.3-8.7-21.4c-0.7-1.6-1.3-3.3-2-4.9c-0.2-0.5-0.8-1.5-1.6-1.5c-4.4,0.3-8.7,0.9-13.1,1.6
					c-8,1.2-16.1,2.8-23.7,5.8c-3.4,1.3-6.8,3-9.2,5.8c-1.4,1.6-1.4,4.9-0.8,6.8c0.4,1.4,1.5,3.5,3,1.8c0.2-0.2,1-0.9,0.3-0.4
					c0.2-0.2,0.5-0.4,0.7-0.6c0.6-0.5,1.2-0.9,1.8-1.3c1.4-0.9,2.9-1.6,4.4-2.2c3.6-1.5,7-2.5,10.8-3.4c6.9-1.6,14-2.7,21.1-3.5
					c1.5-0.2,3-0.3,4.5-0.4c-0.5-0.5-1-1-1.6-1.5c1.8,4.4,3.6,8.9,5.4,13.3c2.9,7.1,5.8,14.3,8.7,21.4c0.7,1.6,1.3,3.3,2,4.9
					c0.3-2.8,0.6-5.6,1-8.4c-6.2,4.4-13.8,6.4-21.2,7.6c-6.3,1-12.8,1.4-19.2,1.4c-1.3,0-2.6,0-3.9-0.1c0.5,0.5,1,1,1.6,1.5
					c-4.7-10.6-9.4-21.1-14.1-31.7c-0.7-1.5-1.4-3-2-4.6c-0.3-0.6-0.8-1.5-1.6-1.5c-0.7,0-1.3,0.9-1.6,1.5
					C178.8,378.2,178.7,381.1,179.7,383.2z"/>
			</g>
		</g>
		<g>
			<g>
				<path d="M169.9,169.1c8.1-2.4,16.3-4.8,24.4-7.3c13-3.9,26-7.7,39-11.6c3-0.9,6-1.8,9-2.7c2.9-0.8,3.4-4.9,3.3-7.5
					c0-1.8-0.2-3.7-1-5.3c-0.4-0.7-1.3-2.5-2.3-2.2c-8.1,2.4-16.3,4.8-24.4,7.3c-13,3.9-26,7.7-39,11.6c-3,0.9-6,1.8-9,2.7
					c-2.9,0.8-3.4,4.9-3.3,7.5c0,1.8,0.2,3.7,1,5.3C167.9,167.6,168.8,169.4,169.9,169.1L169.9,169.1z"/>
			</g>
		</g>
		<g>
			<g>
				<path d="M178.5,187.5c3.2-1.1,6.5-2.2,9.7-3.3c7.8-2.6,15.6-5.2,23.5-7.9c9.4-3.2,18.9-6.3,28.3-9.5c8.2-2.7,16.4-5.5,24.6-8.2
					c2.7-0.9,5.4-1.8,8.1-2.7c1.3-0.4,2.6-0.7,3.8-1.3c0.1,0,0.1,0,0.2-0.1c1-0.3,1.8-2.6,2-3.4c0.5-1.8,0.6-4,0.3-5.8
					c-0.2-1.5-0.5-3.3-1.5-4.5c-0.8-0.9-1.4-1.1-2.5-0.8c-3.2,1.1-6.5,2.2-9.7,3.3c-7.8,2.6-15.6,5.2-23.5,7.9
					c-9.4,3.2-18.9,6.3-28.3,9.5c-8.2,2.7-16.4,5.5-24.6,8.2c-2.7,0.9-5.4,1.8-8.1,2.7c-1.3,0.4-2.6,0.7-3.8,1.3
					c-0.1,0-0.1,0-0.2,0.1c-1,0.3-1.8,2.6-2,3.4c-0.5,1.8-0.6,4-0.3,5.8c0.2,1.5,0.5,3.3,1.5,4.5
					C176.8,187.6,177.4,187.9,178.5,187.5L178.5,187.5z"/>
			</g>
		</g>
		<g>
			<g>
				<path d="M192,236.5c8.1-2.4,16.3-4.8,24.4-7.3c13-3.9,26-7.7,39-11.6c3-0.9,6-1.8,9-2.7c2.9-0.8,3.4-4.9,3.3-7.5
					c0-1.8-0.2-3.7-1-5.3c-0.4-0.7-1.3-2.5-2.3-2.2c-8.1,2.4-16.3,4.8-24.4,7.3c-13,3.9-26,7.7-39,11.6c-3,0.9-6,1.8-9,2.7
					c-2.9,0.8-3.4,4.9-3.3,7.5c0,1.8,0.2,3.7,1,5.3C190,235,190.9,236.8,192,236.5L192,236.5z"/>
			</g>
		</g>
		<g>
			<g>
				<path d="M200.7,254.9c3.2-1.1,6.5-2.2,9.7-3.3c7.8-2.6,15.6-5.2,23.5-7.9c9.4-3.2,18.9-6.3,28.3-9.5c8.2-2.7,16.4-5.5,24.6-8.2
					c2.7-0.9,5.4-1.8,8.1-2.7c1.3-0.4,2.6-0.7,3.8-1.3c0.1,0,0.1,0,0.2-0.1c1-0.3,1.8-2.6,2-3.4c0.5-1.8,0.6-4,0.3-5.8
					c-0.2-1.5-0.5-3.3-1.5-4.5c-0.8-0.9-1.4-1.1-2.5-0.8c-3.2,1.1-6.5,2.2-9.7,3.3c-7.8,2.6-15.6,5.2-23.5,7.9
					c-9.4,3.2-18.9,6.3-28.3,9.5c-8.2,2.7-16.4,5.5-24.6,8.2c-2.7,0.9-5.4,1.8-8.1,2.7c-1.3,0.4-2.6,0.7-3.8,1.3
					c-0.1,0-0.1,0-0.2,0.1c-1,0.3-1.8,2.6-2,3.4c-0.5,1.8-0.6,4-0.3,5.8c0.2,1.5,0.5,3.3,1.5,4.5C198.9,255,199.5,255.3,200.7,254.9
					L200.7,254.9z"/>
			</g>
		</g>
		<g>
			<g>
				<path d="M221.9,314.1c8.1-2.4,16.3-4.8,24.4-7.3c13-3.9,26-7.7,39-11.6c3-0.9,6-1.8,9-2.7c2.9-0.8,3.4-4.9,3.3-7.5
					c0-1.8-0.2-3.7-1-5.3c-0.4-0.7-1.3-2.5-2.3-2.2c-8.1,2.4-16.3,4.8-24.4,7.3c-13,3.9-26,7.7-39,11.6c-3,0.9-6,1.8-9,2.7
					c-2.9,0.8-3.4,4.9-3.3,7.5c0,1.8,0.2,3.7,1,5.3C219.9,312.6,220.8,314.4,221.9,314.1L221.9,314.1z"/>
			</g>
		</g>
		<g>
			<g>
				<path d="M230.6,332.5c3.2-1.1,6.5-2.2,9.7-3.3c7.8-2.6,15.6-5.2,23.5-7.9c9.4-3.2,18.9-6.3,28.3-9.5c8.2-2.7,16.4-5.5,24.6-8.2
					c2.7-0.9,5.4-1.8,8.1-2.7c1.3-0.4,2.6-0.7,3.8-1.3c0.1,0,0.1,0,0.2-0.1c1-0.3,1.8-2.6,2-3.4c0.5-1.8,0.6-4,0.3-5.8
					c-0.2-1.5-0.5-3.3-1.5-4.5c-0.8-0.9-1.4-1.1-2.5-0.8c-3.2,1.1-6.5,2.2-9.7,3.3c-7.8,2.6-15.6,5.2-23.5,7.9
					c-9.4,3.2-18.9,6.3-28.3,9.5c-8.2,2.7-16.4,5.5-24.6,8.2c-2.7,0.9-5.4,1.8-8.1,2.7c-1.3,0.4-2.6,0.7-3.8,1.3
					c-0.1,0-0.1,0-0.2,0.1c-1,0.3-1.8,2.6-2,3.4c-0.5,1.8-0.6,4-0.3,5.8c0.2,1.5,0.5,3.3,1.5,4.5
					C228.8,332.7,229.4,332.9,230.6,332.5L230.6,332.5z"/>
			</g>
		</g>
		<g>
			<g>
				<path d="M245.2,377.5c8.1-2.4,16.3-4.8,24.4-7.3c13-3.9,26-7.7,39-11.6c3-0.9,6-1.8,9-2.7c2.9-0.8,3.4-4.9,3.3-7.5
					c0-1.8-0.2-3.7-1-5.3c-0.4-0.7-1.3-2.5-2.3-2.2c-8.1,2.4-16.3,4.8-24.4,7.3c-13,3.9-26,7.7-39,11.6c-3,0.9-6,1.8-9,2.7
					c-2.9,0.8-3.4,4.9-3.3,7.5c0,1.8,0.2,3.7,1,5.3C243.3,376.1,244.2,377.9,245.2,377.5L245.2,377.5z"/>
			</g>
		</g>
		<g>
			<g>
				<path d="M253.9,396c3.2-1.1,6.5-2.2,9.7-3.3c7.8-2.6,15.6-5.2,23.5-7.9c9.4-3.2,18.9-6.3,28.3-9.5c8.2-2.7,16.4-5.5,24.6-8.2
					c2.7-0.9,5.4-1.8,8.1-2.7c1.3-0.4,2.6-0.7,3.8-1.3c0.1,0,0.1,0,0.2-0.1c1-0.3,1.8-2.6,2-3.4c0.5-1.8,0.6-4,0.3-5.8
					c-0.2-1.5-0.5-3.3-1.5-4.5c-0.8-0.9-1.4-1.1-2.5-0.8c-3.2,1.1-6.5,2.2-9.7,3.3c-7.8,2.6-15.6,5.2-23.5,7.9
					c-9.4,3.2-18.9,6.3-28.3,9.5c-8.2,2.7-16.4,5.5-24.6,8.2c-2.7,0.9-5.4,1.8-8.1,2.7c-1.3,0.4-2.6,0.7-3.8,1.3
					c-0.1,0-0.1,0-0.2,0.1c-1,0.3-1.8,2.6-2,3.4c-0.5,1.8-0.6,4-0.3,5.8c0.2,1.5,0.5,3.3,1.5,4.5C252.1,396.1,252.7,396.4,253.9,396
					L253.9,396z"/>
			</g>
		</g>
		<g>
			<g>
				<path class="st2" d="M246.8,49.1c-16.2-16.7-46.6-5.3-46.6-5.3c-11.2,7.6-12-3-12-3s0.8-4.5-2.4-19.6
					C182.6,6,157.1,2.2,139.6,9.8C122,17.3,118,40,123.6,53.6c5.6,13.6-10,15.9-10,15.9c-24.3,7.3-33,18.2-35.8,26.8
					c-0.4,1.2-0.7,2.3-0.8,3.3c0,2.2,0.1,5.5,0.7,9.8c1.4,9.9,5.4,24.9,16.2,42.6c0,0,150.1-35.1,174.6-49.8
					C257.8,85.1,246.8,49.1,246.8,49.1z M169.5,45.3C167.2,59.2,153,57.9,153,57.9c-17.4-2.2-15.6-14.8-15.6-14.8
					c1.4-19.1,16.9-16.1,16.9-16.1C161.7,26.2,171.8,31.5,169.5,45.3z"/>
			</g>
			<g>
				<path d="M248.4,42.6c-3.5-3.6-7.6-6.3-12.3-7.9c-4.4-1.5-9-2.2-13.7-2.2c-6.7-0.1-13.5,1.1-20,3c-0.9,0.3-2,0.5-2.9,0.9
					c-1.7,0.7-3.1,1.9-4.8,2.4c0.3-0.1,0.6-0.2,0.9-0.3c-1.2,0.3-2.4,0.5-3.6,0.2c0.3,0.1,0.6,0.2,0.9,0.3c-0.4-0.1-0.7-0.3-1-0.5
					c-0.2-0.1-0.3-0.3-0.5-0.4c-0.6-0.3,0.7,0.8,0.4,0.3c-0.2-0.3-0.4-0.6-0.6-0.8c1,1,0.6,1.1,0.3,0.5c-0.1-0.1-0.1-0.3-0.2-0.4
					c-0.5-1.1,0.5,1.9,0.2,0.6c-0.1-0.4-0.3-1.5,0,0.2c0.3,1.6,0.1,0.6,0.1,0.2c0,1.3,0,2.7,0,4c0.5-2.9,0.2-6.2-0.1-9.1
					c-0.2-2.7-0.6-5.4-1.1-8c-0.7-4.1-1.3-8.3-2.8-12.1C183.3,2.9,171.1-1,160.7-1.5c-6.1-0.2-12.2,0.7-18,2.5
					C136.9,2.9,132,6,128,10.5c-8.6,9.7-11.2,24.3-9.7,36.9c0.4,3.4,1.2,6.6,2.3,9.8c0.2,0.5,0.4,1.1,0.6,1.6
					c0.1,0.3,0.2,0.6,0.4,0.9c0.2,0.6-0.3-0.8-0.3-0.7c0,0.2,0.2,0.5,0.2,0.8c0.1,0.3,0.3,1.4,0.1,0.1c-0.2-1.3-0.1-0.2,0,0.1
					c0.1,0.7-0.1-1.5-0.1-1.3c0,0.2,0,0.4,0,0.5c0,1,0.2-2.2,0.1-0.9c-0.2,1.2,0.4-1.6,0.2-0.8c0,0.1-0.2,0.6-0.2,0.6
					c-0.1-0.2,0.7-1.7,0.2-0.7c-0.1,0.1-0.1,0.3-0.2,0.4c-0.2,0.6,0.4-0.6,0.4-0.6c-0.2,0.3-0.4,0.7-0.7,1c-0.1,0.2-0.3,0.3-0.4,0.5
					c-0.5,0.6-0.3,0.1,0.2-0.1c-0.7,0.3-1.4,1.1-2.1,1.5c-0.7,0.4-1.4,0.8-2.1,1.1c-0.6,0.3-1.2,0.5-1.9,0.7
					c0.3-0.1,0.6-0.2,0.9-0.3c-1.6,0.5-3.3,0.8-4.9,1.3c-4.6,1.4-9.1,3.2-13.3,5.3c-6.2,3.1-12.1,7.3-16.5,12.8
					c-4.6,5.7-7.6,13.1-7.4,20.4c0.2,8.6,1.7,17.2,4.1,25.4c3.3,11.2,8.3,21.8,14.4,31.8c0.4,0.6,1,1,1.7,1
					c5.1-1.2,10.1-2.4,15.1-3.6c12.4-3,24.8-6.1,37.2-9.2c15.7-4,31.3-8,46.9-12.3c15-4.1,30.1-8.3,44.9-13
					c5.8-1.8,11.6-3.7,17.2-5.8c4.1-1.5,8.2-3.1,12.1-5.1c0.7-0.3,1.3-0.7,2-1.1c1.9-1.1,2.3-4.4,2.4-6.2c0.2-2.6-0.2-5.3-1.6-7.5
					c-0.5-0.9-1-1.7-1.6-2.6c0.9,1.5,0,0-0.2-0.3c-0.3-0.5-0.6-1.1-0.9-1.6c-1.1-2-2.1-4.1-3.1-6.2c-2.1-4.4-4-9-5.8-13.5
					c-1.7-4.3-3.3-8.6-4.8-12.9c-0.3-0.9-0.6-1.7-0.9-2.6c-0.2-0.5-0.3-0.9-0.5-1.4c-0.1-0.2-0.1-0.4-0.2-0.6
					c-0.3-1,0.6,1.7,0.1,0.4c-0.5-1.4-1-2.9-1.4-4.3c-0.5-1.5-1-3-1.5-4.6c-0.3-1.1-0.9-2.8-2-3.4c-1-0.5-1.9-0.1-2.5,0.8
					c-1.9,2.6-2.1,7.3-1.2,10.3c4.3,14.1,9.3,28,15.4,41.4c2.2,4.9,4.7,9.7,7.6,14.3c0.3-4.6,0.5-9.1,0.8-13.7
					c-3.4,2-7,3.5-10.7,4.9c-5.4,2.1-10.9,4-16.3,5.7c-3.7,1.2-7.4,2.4-11.2,3.5c0.3-0.1,0.6-0.2,0.9-0.3
					c-11.1,3.4-22.3,6.6-33.5,9.6c-11.8,3.2-23.6,6.4-35.5,9.4c-10.8,2.8-21.6,5.5-32.4,8.2c-8,2-16.1,3.9-24.1,5.9
					c-2.5,0.6-4.9,1.2-7.4,1.8c-1.1,0.3-2.3,0.4-3.4,0.8c0,0-0.1,0-0.2,0c0.6,0.3,1.1,0.7,1.7,1c-0.6-1-1.2-2-1.8-2.9
					c0,0-0.4-0.7-0.1-0.2c0.3,0.5-0.2-0.3-0.3-0.4c-0.3-0.5-0.6-1.1-0.9-1.6c-1-1.8-1.9-3.7-2.9-5.6c-1.7-3.5-3.2-7-4.5-10.6
					c-0.1-0.4-0.3-0.8-0.4-1.2c-0.1-0.2-0.2-0.5-0.2-0.7c-0.2-0.6,0.2,0.7,0.2,0.7c-0.3-0.8-0.6-1.7-0.8-2.5
					c-0.5-1.5-0.9-3.1-1.3-4.6c-0.4-1.4-0.7-2.7-1-4.1c-0.1-0.6-0.3-1.3-0.4-1.9c-0.2-1.1,0.3,1.9,0.1,0.6c-0.1-0.3-0.1-0.7-0.2-1
					c-0.3-1.9-0.6-3.8-0.7-5.7c0-0.5-0.1-1.1-0.1-1.6c-0.1-0.8,0.1,1.2,0.1,1.1c0-0.3,0-0.6,0-0.9c0-0.8,0-1.7,0-2.5
					c-0.2,1.3-0.3,2.5-0.5,3.8c0.2-1.1,0.5-2.2,0.8-3.3c0.2-0.8-0.6,1.7-0.3,0.8c0.1-0.2,0.2-0.5,0.3-0.7c0.4-0.9,0.8-1.8,1.3-2.7
					c0.2-0.4,0.8-1.3-0.2,0.3c0.1-0.2,0.3-0.5,0.4-0.7c0.3-0.5,0.6-0.9,0.9-1.4c0.7-1,1.4-1.9,2.2-2.8c0.4-0.5,0.8-0.9,1.2-1.3
					c0.2-0.2,0.5-0.5,0.7-0.7c0.4-0.4-0.6,0.6-0.2,0.2c0.2-0.1,0.3-0.3,0.5-0.4c1.1-1,2.3-1.9,3.5-2.8c2.8-2.1,5.9-3.9,9-5.4
					c4.5-2.2,9.2-4,14-5.4c-0.3,0.1-0.6,0.2-0.9,0.3c2.7-0.8,5.5-1.3,7.9-2.9c6.9-4.5,7.8-13.6,6.3-21c-0.4-2-1.2-3.8-1.9-5.7
					c0-0.1-0.1-0.2-0.1-0.4c-0.3-0.8,0.3,0.8,0.3,0.8c0.1,0-0.3-0.9-0.3-1c-0.2-0.7-0.4-1.3-0.5-2c0-0.2-0.1-0.4-0.1-0.5
					c-0.2-0.8,0.3,1.8,0.2,1c0-0.3-0.1-0.6-0.2-1c-0.1-0.7-0.2-1.5-0.3-2.3c0-0.2,0-0.4,0-0.6c0-0.2,0.1,2,0.1,1.3c0-0.3,0-0.7,0-1
					c0-0.8,0-1.6,0-2.3c0.1-1.7-0.1,1.5,0,0.5c0-0.3,0.1-0.7,0.1-1c0.1-0.8,0.2-1.6,0.3-2.4c0-0.1,0-0.3,0.1-0.4
					c0.2-1-0.2,0.9-0.2,0.9c0.1-0.1,0.2-1,0.2-1.2c0.2-0.7,0.4-1.5,0.6-2.2c0.1-0.4,0.2-0.8,0.4-1.2c0.2-0.6-0.3,0.9-0.3,0.8
					c0.1-0.2,0.1-0.4,0.2-0.6c0.3-0.8,0.6-1.5,0.9-2.3c0.3-0.6,0.6-1.3,0.9-1.9c0.2-0.4,1-1.4,0.1-0.2c0.2-0.3,0.4-0.7,0.6-1
					c0.9-1.5,2-2.8,3.1-4.1c0.3-0.3,0.6-0.7,0.9-1c0.1-0.1,0.6-0.6,0.2-0.2c-0.5,0.4,0.3-0.2,0.3-0.3c0.7-0.6,1.3-1.1,2.1-1.7
					c3-2.2,6.5-3.7,10-4.8c-0.3,0.1-0.6,0.2-0.9,0.3c8.7-2.6,18.4-3,27.2-0.3c-0.3-0.1-0.6-0.2-0.9-0.3c2.7,0.8,5.2,1.9,7.5,3.5
					c0.5,0.3,1,0.7,1.5,1.1c0.2,0.2,0.5,0.4,0.7,0.6c0.1,0.1,0.4,0.4,0,0c-0.5-0.5,0,0,0.1,0.2c0.4,0.4,0.8,0.9,1.2,1.3
					c0.2,0.2,0.3,0.5,0.5,0.7c0.2,0.2,0.7,1.2,0.3,0.4c-0.5-0.9,0,0.1,0.1,0.3c0.1,0.3,0.2,0.5,0.4,0.8c0.1,0.2,0.1,0.3,0.2,0.5
					c0.2,0.5-0.3-1-0.3-0.9c0,0.2,0.2,0.7,0.3,1c0.2,0.9,0.4,1.9,0.6,2.8c0.1,0.6,0.2,1.2,0.3,1.7c0,0.1-0.3-1.5-0.1-0.8
					c0.1,0.3,0.1,0.7,0.2,1c0.5,2.9,0.9,5.7,1.2,8.6c0,0.2,0,0.5,0.1,0.7c0.1,0.7-0.1-2.4-0.1-1.2c0,0.4,0,0.8,0,1.1
					c0,0.5,0,1,0,1.5c0.1-3.3,0.1-2.1,0.1-1.3c-0.1,1.4-0.2,2.8,0,4.3c0.6,4.3,2.3,9.8,7.1,10.9c1.3,0.3,2.6,0,3.9-0.3
					c0.9-0.3,1.7-0.6,2.6-1c0.9-0.4,1.6-1.1,2.5-1.5c0.7-0.3,1.5-0.5,2.2-0.7c-0.3,0.1-0.6,0.2-0.9,0.3c7.6-2.3,15.7-3.5,23.6-2.9
					c2.9,0.2,5.7,0.7,8.4,1.6c-0.3-0.1-0.6-0.2-0.9-0.3c2.2,0.7,4.3,1.6,6.3,2.7c1,0.6,2,1.2,2.9,1.9c0.5,0.4,0.9,0.7,1.4,1.1
					c0.2,0.2,0.5,0.4,0.7,0.7c-0.5-0.5-0.1-0.1,0.2,0.2c0.7,0.7,1.5,1.4,2.5,0.8c1.1-0.6,1.7-2.4,2-3.4c0.4-1.9,0.6-3.9,0.3-5.8
					C249.7,45.7,249.5,43.7,248.4,42.6z"/>
				<path d="M166.3,43.3c0.4-2.3,0.1-0.7,0-0.1c-0.1,0.5-0.8,1.8,0.1,0c-0.3,0.6-0.5,1.3-0.8,1.9c-0.4,0.8,0.7-1.1,0,0
					c-0.2,0.3-0.4,0.6-0.6,0.8c-0.2,0.3-0.4,0.5-0.6,0.8c-0.1,0.1-0.8,0.9-0.3,0.3c0.5-0.6-0.2,0.2-0.3,0.3
					c-0.2,0.2-0.5,0.4-0.7,0.6c-0.5,0.3-0.9,0.6-1.4,0.9c-0.9,0.5-1.9,0.9-3,1.2c0.3-0.1,0.6-0.2,0.9-0.3c-3.9,1.2-7.6,0.9-11.5-0.3
					c0.3,0.1,0.6,0.2,0.9,0.3c-1.7-0.5-3.3-1.2-4.7-2.1c-0.6-0.4-1.1-0.9-1.7-1.3c-0.6-0.4,0.3,0.3,0.3,0.3c0,0-0.3-0.3-0.3-0.3
					c-0.3-0.3-0.5-0.6-0.8-0.9c-0.3-0.4-0.6-0.9-0.9-1.4c1,1.3,0.5,0.8,0.2,0.3c-0.1-0.3-0.2-0.5-0.3-0.8c-0.5-1.2,0.4,1.2,0.2,0.7
					c-0.1-0.2-0.1-0.4-0.2-0.6c-0.1-0.2-0.1-0.4-0.2-0.6c-0.2-1,0.3,2.2,0.2,1c0-0.2,0-0.4-0.1-0.5c-0.1-1.1,0.1,1.4,0.1,1.4
					c0-0.3,0-0.6,0-0.9c0-1.2-0.2,2.6-0.1,1.2c0-0.5,0.1-1,0.1-1.5c0-0.3,0.4-2.2,0.1-0.8c-0.3,1.4,0.1-0.4,0.2-0.7
					c0.1-0.4,0.2-1.1,0.4-1.5c0,0-0.6,1.6-0.2,0.7c0.1-0.2,0.1-0.3,0.2-0.5c0.2-0.4,0.3-0.7,0.5-1.1c0.1-0.2,0.2-0.4,0.3-0.6
					c0,0-0.7,1.2-0.3,0.5c0.2-0.3,0.4-0.7,0.7-1c0.2-0.3,0.5-0.6,0.7-0.9c0.1-0.1,0.2-0.2,0.3-0.3c0.6-0.7,0,0.2-0.2,0.2
					c0.3,0,1.3-1.1,1.6-1.2c1.1-0.7,2.2-1.2,3.4-1.6c-0.3,0.1-0.6,0.2-0.9,0.3c1.9-0.6,4-0.8,6-0.6c0.5,0,0.9,0.1,1.4,0.1
					c1.8-0.1,3.6,0.1,5.3,0.6c-0.3-0.1-0.6-0.2-0.9-0.3c1.3,0.4,2.6,1,3.8,1.8c0.3,0.2,0.6,0.4,0.9,0.7c0.1,0.1,0.2,0.2,0.4,0.3
					c0.7,0.5-0.5-0.5-0.1-0.2c0.5,0.6,1,1.1,1.5,1.8c0.1,0.1,0.2,0.3,0.3,0.4c0.4,0.5-0.5-1-0.3-0.5c0.2,0.4,0.4,0.7,0.5,1.1
					c0.1,0.2,0.2,0.4,0.3,0.7c0.3,0.6-0.4-1.4-0.2-0.7c0,0.2,0.4,1.2,0.3,1.3c0,0-0.3-1.9-0.2-0.9c0,0.3,0,0.5,0.1,0.8
					c0.2,0.8-0.1-1.9,0-1c0,0.2,0,0.5,0,0.7c0,0.2,0.1,0.7,0,0.9c0-0.1,0.2-1.9,0-0.9C166.5,42,166.4,42.7,166.3,43.3
					c-0.3,1.8-0.1,4,0.3,5.8c0.3,1.1,0.9,2.8,2,3.4c2.8,1.6,3.8-3.8,4.1-5.2c1.1-7.2,0.5-16.3-4.5-22.1c-3-3.5-7.4-5.6-12.1-5.7
					c-0.8,0-1.6,0.1-2.4,0c-0.9-0.1-1.8-0.1-2.6-0.1c-3.1,0.2-6.3,1.2-8.7,3.1c-4.9,3.9-6.8,9.9-7.8,15.9c-0.5,3.2-0.7,6.6-0.2,9.9
					c0.8,4.9,2.7,9.3,6.5,12.5c1.8,1.5,3.9,2.5,6.1,3.2c2,0.7,4.2,1.3,6.3,1.4c7.7,0.5,14.9-4.1,17.6-11.4c0.8-2.2,1.3-4.4,1.8-6.8
					c0.3-1.8,0.1-4-0.3-5.8c-0.3-1.1-0.9-2.8-2-3.4C167.6,36.5,166.6,41.9,166.3,43.3z"/>
			</g>
		</g>
		<g>
			<path class="st3" d="M423.5,71.7c-33.3,1.5-51.6,18.5-60.2,29.8l-14-30.6c0,0,8.4-46.5,61-28.3L423.5,71.7z"/>
			<g>
				<path d="M423.5,59.2c-11.7,0.6-23.4,3.1-34,8.1c-8.2,3.8-15.3,9-21.8,15.3c-2.6,2.5-5,5.3-7.2,8.2c2.2,0.7,4.4,1.3,6.7,2
					c-4.1-8.9-8.2-17.9-12.3-26.8c-0.6-1.3-1.2-2.5-1.7-3.8c0.5,4.1,0.9,8.1,1.4,12.2c-1,5.4-0.4,2.2,0.1,0.5
					c0.1-0.4,0.2-0.9,0.4-1.3c0.1-0.2,0.1-0.4,0.2-0.7c0.4-1.2-0.9,2.7-0.7,2.1c0.1-0.2,0.1-0.3,0.2-0.5c0.4-1.2,0.9-2.3,1.4-3.4
					c0.7-1.5,1.4-3,2.2-4.4c-0.4,0.7-0.7,1.3-1.1,2c2-3.4,4.4-6.6,7.2-9.4c-0.4,0.4-0.9,0.8-1.3,1.3c4-3.8,8.8-6.7,14.1-8.3
					c-0.5,0.1-1,0.3-1.5,0.4c10.2-3.1,21.2-1.6,31.2,1.4c-0.5-0.1-1-0.3-1.5-0.4c1.1,0.3,2.2,0.7,3.3,1.1c-0.8-1.1-1.6-2.1-2.4-3.2
					c3.9,8.5,7.7,17,11.6,25.5c0.5,1.2,1.1,2.4,1.6,3.6c0.6,1.4,2,3.7,3.9,3.7c1.9,0,3.3-2.2,3.9-3.7c1.2-2.8,1.7-5.9,1.6-8.8
					c-0.1-3-0.4-6.1-1.6-8.8c-4.1-9.1-8.2-18.1-12.3-27.2c-0.3-0.6-0.5-1.1-0.8-1.7c0-0.1-0.1-0.2-0.1-0.2c-0.5-1.1-1.3-2.6-2.4-3.2
					c-0.3-0.2-0.8-0.3-1.1-0.4c-0.6-0.2-1.2-0.4-1.8-0.6c-4.8-1.5-9.8-2.8-14.8-3.3c-7.4-0.8-14.7-0.1-21.7,2.5
					c-10.6,3.9-18.2,12.8-23.1,22.7c-4.3,8.7-7.5,20-3.3,29.2c4.4,9.6,8.8,19.2,13.2,28.9c0.1,0.3,0.3,0.6,0.4,0.8
					c0.7,1.5,1.6,3,3.2,3.4c1.4,0.4,2.6-0.3,3.5-1.5c2.3-3,4.8-5.9,7.6-8.5c-0.4,0.4-0.9,0.8-1.3,1.3c8.5-8.1,18.9-14.1,30.1-17.5
					c-0.5,0.1-1,0.3-1.5,0.4c7.3-2.2,14.9-3.4,22.5-3.8c1.9-0.1,3.2-2.1,3.9-3.7c1.2-2.6,1.7-6,1.6-8.8c-0.1-2.9-0.3-6.2-1.6-8.8
					C426.7,61.4,425.5,59.1,423.5,59.2z"/>
			</g>
		</g>
		<g>
			<path class="st0" d="M506,253.4l-61,26.1l-74.5-162.2c9.6-10.4,29.3-26.8,60.6-28.8L506,253.4z"/>
			<g>
				<path d="M504.5,241.3c-6.9,2.9-13.8,5.9-20.7,8.8c-10.9,4.7-21.9,9.3-32.8,14c-2.5,1.1-5,2.1-7.5,3.2c1.8,1.1,3.6,2.1,5.4,3.2
					c-0.7-1.4-1.3-2.9-2-4.3c-1.8-3.9-3.6-7.9-5.4-11.8c-2.7-5.8-5.3-11.6-8-17.4c-3.3-7.1-6.5-14.2-9.8-21.3
					c-3.6-7.8-7.1-15.5-10.7-23.3c-3.6-7.8-7.2-15.7-10.8-23.5c-3.4-7.4-6.7-14.7-10.1-22.1c-2.8-6.2-5.7-12.4-8.5-18.5
					c-2-4.4-4.1-8.9-6.1-13.3c-1-2.1-1.9-4.2-2.9-6.3c0-0.1-0.1-0.2-0.1-0.3c-0.4,6.5-0.7,13.1-1.1,19.6c1.3-1.4,2.6-2.8,4-4.1
					c-0.4,0.4-0.9,0.8-1.3,1.3c7.5-7.1,16.1-13,25.6-17.2c3.3-1.5,6.6-2.7,10.1-3.8c-0.5,0.1-1,0.3-1.5,0.4
					c6.8-2.1,13.8-3.3,20.9-3.8c-1.3-1.2-2.6-2.4-3.9-3.7c0.7,1.5,1.3,2.9,2,4.4c1.8,4,3.6,8,5.5,12c2.7,5.9,5.4,11.8,8,17.7
					c3.3,7.2,6.6,14.5,9.9,21.7c3.6,7.9,7.2,15.8,10.8,23.7c3.6,8,7.2,15.9,10.9,23.9c3.4,7.5,6.8,14.9,10.2,22.4
					c2.9,6.3,5.7,12.6,8.6,18.8c2.1,4.5,4.1,9.1,6.2,13.6c1,2.1,1.9,4.3,2.9,6.4c0,0.1,0.1,0.2,0.1,0.3c0.6,1.4,2,3.7,3.9,3.7
					c1.9,0,3.3-2.2,3.9-3.7c1.2-2.8,1.7-5.9,1.6-8.8c-0.1-3-0.4-6.1-1.6-8.8c-0.7-1.5-1.3-2.9-2-4.4c-1.8-4-3.6-8-5.5-12
					c-2.7-5.9-5.4-11.8-8-17.7c-3.3-7.2-6.6-14.5-9.9-21.7c-3.6-7.9-7.2-15.8-10.8-23.7c-3.6-8-7.2-15.9-10.9-23.9
					c-3.4-7.5-6.8-14.9-10.2-22.4c-2.9-6.3-5.7-12.6-8.6-18.8c-2.1-4.5-4.1-9.1-6.2-13.6c-1-2.1-1.9-4.3-2.9-6.4
					c0-0.1-0.1-0.2-0.1-0.3c-0.6-1.3-2-3.8-3.9-3.7c-19.9,1.4-39.2,8.9-54.3,21.9c-3.2,2.7-6.2,5.6-9,8.7c-0.9,1.4-1.6,2.9-2,4.5
					c-0.4,1.5-0.6,3.1-0.7,4.6c-0.2,3.5,0,7.3,1.5,10.5c0.7,1.4,1.3,2.9,2,4.3c1.8,3.9,3.6,7.9,5.4,11.8c2.7,5.8,5.3,11.6,8,17.4
					c3.3,7.1,6.5,14.2,9.8,21.3c3.6,7.8,7.1,15.5,10.7,23.3c3.6,7.8,7.2,15.7,10.8,23.5c3.4,7.4,6.7,14.7,10.1,22.1
					c2.8,6.2,5.7,12.4,8.5,18.5c2,4.4,4.1,8.9,6.1,13.3c1,2.1,1.9,4.2,2.9,6.3c0,0.1,0.1,0.2,0.1,0.3c0.5,1.3,1.3,2.4,2.4,3.2
					c1,0.6,1.9,0.6,2.9,0c6.9-2.9,13.8-5.9,20.7-8.8c10.9-4.7,21.9-9.3,32.8-14c2.5-1.1,5-2.1,7.5-3.2c1.8-0.8,2.9-4.2,3.3-5.7
					c0.8-3,1-6.6,0.6-9.6C510.8,246.8,509.3,239.3,504.5,241.3z"/>
			</g>
		</g>
		<g>
			<polygon class="st1" points="497.6,316.8 445,279.4 506,253.4 			"/>
			<g>
				<path d="M499.1,304.7c-5.9-4.2-11.9-8.4-17.8-12.6c-9.5-6.7-18.9-13.4-28.4-20.1c-2.2-1.5-4.3-3.1-6.5-4.6c0,8,0,16.1,0,24.1
					c6.9-2.9,13.8-5.9,20.7-8.8c10.9-4.7,21.9-9.3,32.8-14c2.5-1.1,5-2.1,7.5-3.2c-2.3-5.1-4.5-10.3-6.8-15.4
					c-0.9,7.2-1.9,14.3-2.8,21.5c-1.5,11.4-3,22.8-4.5,34.2c-0.3,2.6-0.7,5.2-1,7.8c-0.4,3.1-0.2,6.6,0.6,9.6
					c0.4,1.6,1.5,4.9,3.3,5.7c4.7,2.2,6.4-5.8,6.8-8.7c0.9-7.2,1.9-14.3,2.8-21.5c1.5-11.4,3-22.8,4.5-34.2c0.3-2.6,0.7-5.2,1-7.8
					c0.5-3.9,0.3-8.5-1.4-12.2c-0.5-1.3-1.3-2.4-2.4-3.2c-1-0.6-1.9-0.6-2.9,0c-6.9,2.9-13.8,5.9-20.7,8.8
					c-10.9,4.7-21.9,9.3-32.8,14c-2.5,1.1-5,2.1-7.5,3.2c-0.4,0.4-0.9,0.8-1.3,1.3c-0.7,1-1.2,2.1-1.5,3.2c-0.8,2.4-1.2,5-1.2,7.6
					c0,2.1,0.3,4.2,0.8,6.3c0.5,2,1.5,4.5,3.3,5.7c5.9,4.2,11.9,8.4,17.8,12.6c9.5,6.7,18.9,13.4,28.4,20.1c2.2,1.5,4.3,3.1,6.5,4.6
					c1.5,1.1,3.3-0.1,4.2-1.3c1.5-1.9,2.3-5.1,2.5-7.5c0.3-3.2,0.3-6.6-0.6-9.6C501.8,308.4,501,306.1,499.1,304.7z"/>
			</g>
		</g>
		<g>
			<path class="st2" d="M437.4,101.9c-31.2,2.1-51,18.4-60.6,28.8l-13.5-29.2c8.6-11.4,26.8-28.3,60.2-29.8L437.4,101.9z"/>
			<g>
				<path d="M437.4,89.4c-19.9,1.4-39.2,8.9-54.3,21.9c-3.2,2.7-6.2,5.6-9,8.7c2.2,0.7,4.4,1.3,6.7,2c-3.9-8.5-7.9-17-11.8-25.5
					c-0.6-1.2-1.1-2.4-1.7-3.7c-0.4,6.5-0.7,13.1-1.1,19.6c2.3-3,4.8-5.9,7.6-8.5c-0.4,0.4-0.9,0.8-1.3,1.3
					c8.5-8.1,18.9-14.1,30.1-17.5c-0.5,0.1-1,0.3-1.5,0.4c7.3-2.2,14.9-3.4,22.5-3.8c-1.3-1.2-2.6-2.4-3.9-3.7
					c4.1,8.8,8.1,17.6,12.2,26.5c0.6,1.2,1.1,2.5,1.7,3.7c0.7,1.4,2,3.7,3.9,3.7c1.9,0,3.3-2.2,3.9-3.7c1.2-2.8,1.7-5.9,1.6-8.8
					c-0.1-3-0.4-6.1-1.6-8.8c-4.1-8.8-8.1-17.6-12.2-26.5c-0.6-1.2-1.1-2.5-1.7-3.7c-0.6-1.3-2-3.8-3.9-3.7
					c-11.7,0.6-23.4,3.1-34,8.1c-8.2,3.8-15.3,9-21.8,15.3c-2.6,2.5-5,5.3-7.2,8.2c-1.9,2.6-2.4,6-2.6,9.1c-0.2,3.5,0,7.3,1.5,10.5
					c3.9,8.5,7.9,17,11.8,25.5c0.6,1.2,1.1,2.4,1.7,3.7c0.7,1.5,1.6,2.9,3.2,3.4c1.5,0.5,2.5-0.4,3.5-1.5c1.3-1.4,2.6-2.8,4-4.1
					c-0.4,0.4-0.9,0.8-1.3,1.3c7.5-7.1,16.1-13,25.6-17.2c3.3-1.5,6.6-2.7,10.1-3.8c-0.5,0.1-1,0.3-1.5,0.4
					c6.8-2.1,13.8-3.3,20.9-3.8c1.9-0.1,3.2-2.1,3.9-3.7c1.2-2.6,1.7-6,1.6-8.8c-0.1-2.9-0.3-6.2-1.6-8.8
					C440.6,91.6,439.4,89.3,437.4,89.4z"/>
			</g>
		</g>
	</g>
	<g>
		<g>
			<path d="M115.2,187.4c4.1,4.4,8.2,8.8,12.4,13.2c1.2,1.3,2.5,1.9,3.9,0.5c1.6-1.6,2.4-4.3,2.5-6.5c0.1-0.9,0.2-1.9,0.3-2.8
				c0.1-1.1,0.3-2.1,0.5-3.2c0.2-1.1-0.4,2.2-0.3,1.8c0-0.2,0.1-0.3,0.1-0.5c0.1-0.3,0.1-0.6,0.2-1c0.2-0.8,0.3-1.5,0.5-2.3
				c0.4-1.6,0.8-3.1,1.2-4.7c0.3-0.9,0.5-1.7,0.8-2.6c0.1-0.2,0.1-0.4,0.2-0.6c0.4-1.1-0.4,1.3-0.4,1.2c0.2-0.5,0.4-1.1,0.6-1.6
				c0.7-1.9,1.4-3.7,2.3-5.5c0.4-1,0.9-1.9,1.4-2.9c0.2-0.5,0.5-0.9,0.7-1.4c0.1-0.2,0.2-0.4,0.3-0.6c0.6-1.1-0.8,1.4-0.2,0.4
				c2.7-4.5,5.7-8.6,9.5-12.2c-0.4,0.3-0.7,0.7-1.1,1c0.1-0.1,0.2-0.2,0.3-0.3c1.4-1.4,2.1-2.7,2.6-4.6c0.6-2.4,0.8-5.3,0.4-7.7
				c-0.3-2-0.7-4.4-2-6c-0.7-0.8-2.2-2.1-3.4-1c-7.3,7-12.8,15.5-16.5,25c-2.9,7.4-4.9,15-6.1,22.8c-0.2,1.2-0.4,2.5-0.5,3.7
				c2.2-2,4.3-4,6.5-6c-4.1-4.4-8.2-8.8-12.4-13.2c-1-1-2-1.8-3.4-1c-1.4,0.8-2.3,3.2-2.6,4.6c-0.6,2.5-0.8,5.2-0.4,7.7
				C113.5,183.3,113.8,185.9,115.2,187.4L115.2,187.4z"/>
		</g>
	</g>
</g>
</svg>
