<?xml version="1.0" encoding="utf-8"?>
<!-- Generator: Adobe Illustrator 24.0.1, SVG Export Plug-In . SVG Version: 6.00 Build 0)  -->
<svg version="1.1" id="Capa_1" xmlns="http://www.w3.org/2000/svg" xmlns:xlink="http://www.w3.org/1999/xlink" x="0px" y="0px"
	 viewBox="0 0 512 512" style="enable-background:new 0 0 512 512;" xml:space="preserve">
<style type="text/css">
	.st0{fill:#90CED3;}
	.st1{fill:#FFC84D;}
	.st2{fill:#FFFFFF;}
</style>
<g>
	<g>
		<g>
			<path class="st0" d="M474.5,255.4c0,0-179,195.5-192.2,210.3c-13.2,14.9-25,4.7-25,4.7l-28.7-14.9l-39.6-20.5l-135-69.8
				c0,0,0,0,0,0c-17-26.2-12.7-83.1-12.7-83.1c-0.5-1.1-1-2-1.5-2.7c9.4,2.8,22.3,11.5,22.3,11.5l143.8,66.8
				c-0.5,1.5-0.9,2.4-0.9,2.4s-4.4,7.3,6,11.1c10.4,3.8,50,26.7,50,26.7s17.2,13.2,26-5.9c8.8-19.1,25.8-42.2,29.7-46.9
				c3.9-4.7,9.4-8.2,7.3-13.5c-0.8-2.1-3.3-4.4-6-6.4L443.4,176h0c0.4,0,0.8,0.1,1.2,0.1c0,0,14.1,2.3,29.1-17.6l7,61.1v0.1
				c0.2,2.9,0.3,6.1,0.5,9c0.1,1,0.1,1.9,0.2,2.8c0,0.5,0.1,0.9,0.1,1.4c0.1,1.8,0.2,3.5,0.3,4.9c0,0.4,0.1,0.7,0.1,1.1
				c0.1,0.9,0.1,1.7,0.2,2.5C482.8,249.9,474.5,255.4,474.5,255.4z"/>
			<g>
				<path d="M472.7,248.7c-7,7.6-14,15.2-20.9,22.9c-16.4,17.9-32.9,35.9-49.3,53.8c-19.4,21.2-38.7,42.3-58.1,63.5
					c-15.8,17.3-31.6,34.6-47.4,51.9c-4.6,5-9.1,10-13.7,15c-1.8,2-3.5,4.1-5.5,5.8c-3.4,2.8-7.3,4.7-11.8,4.4
					c-1.4-0.1-2.9-0.4-3.6-0.7c-1.1-0.4-2.2-1-3.2-1.6c-2.5-1.6-5.2-2.9-7.9-4.3c-5.8-3-11.7-6-17.5-9.1c-7-3.6-14-7.2-21-10.9
					c-12.6-6.5-25.1-13-37.7-19.5c-22.5-11.6-45-23.3-67.5-34.9c-17.2-8.9-34.3-17.7-51.5-26.6c-0.4-0.2-0.8-0.4-1.2-0.6
					c0,0,0,0-0.1,0c1.1,0.8,0.3,0,0.1-0.4c-0.1-0.1-0.8-1.5-0.3-0.4c-0.9-1.7-1.8-3.5-2.6-5.3c-0.4-0.9-0.8-1.9-1.1-2.8
					c-0.2-0.5-0.4-1-0.5-1.5c-0.6-1.6,0.4,1.3-0.1-0.4c-0.6-2-1.2-4.1-1.8-6.2c-0.5-1.9-0.9-3.9-1.3-5.9c-0.1-0.3-0.4-2.2-0.1-0.3
					c-0.1-0.5-0.2-1.1-0.3-1.6c-0.2-1.3-0.4-2.6-0.6-3.8c-0.6-4.2-1.1-8.5-1.4-12.8c-0.1-1-0.1-1.9-0.2-2.9c0-0.2,0-0.3,0-0.5
					c-0.1-0.9,0-0.7,0,0.5c0.1-0.2-0.1-1.3-0.1-1.5c-0.1-2-0.2-4-0.2-6c-0.2-6.2-0.1-12.3,0.1-18.5c0-0.8,0.1-1.7,0.1-2.5
					c0-0.4,0-0.7,0.1-1.1c-0.2,3.3-0.1,1.9-0.1,1.2c0-0.2,0-0.4,0-0.7c0.3-4.5-0.7-7.9-3.1-11.6c-0.9,4.8-1.8,9.5-2.6,14.3
					c5.6,1.8,10.8,4.6,15.9,7.5c2.2,1.3,4.3,2.8,6.5,4c1.7,0.9,3.6,1.7,5.3,2.5c10.4,4.8,20.8,9.7,31.2,14.5
					c15,6.9,29.9,13.9,44.9,20.8c13.8,6.4,27.5,12.8,41.3,19.2c6.9,3.2,13.7,6.7,20.7,9.6c0.1,0,0.2,0.1,0.3,0.1
					c-0.5-4.4-1-8.7-1.5-13.1c-0.2,0.6-0.5,1.2-0.6,1.8c-0.2,0.7-0.8,1.1,0.4-0.6c-0.3,0.4-0.6,1-0.8,1.5c-0.5,1.1-0.9,2.3-1.2,3.4
					c-1.2,5-0.9,11.4,2.2,15.7c2.1,3,5.3,4.2,8.5,5.5c2.4,1,4.7,2.2,7,3.3c11.9,6,23.5,12.5,35,19.1c5.9,3.3,11.9,8,18.8,8.2
					c9.1,0.3,14-7.1,17.5-14.4c4.2-8.7,9.3-17,14.6-25.1c4.2-6.3,8.5-12.8,13.3-18.6c1.7-2,3.6-3.8,5.3-5.8c2.2-2.6,3.6-5.8,4.1-9.2
					c0.6-4,0.2-8.4-1.7-12c-1.6-3.1-4.3-5.4-7.1-7.4c0.3,4.8,0.5,9.5,0.8,14.3c4.2-4.9,8.3-9.9,12.5-14.8c10-11.9,20-23.8,30.1-35.7
					c12.1-14.4,24.2-28.7,36.2-43.1c10.5-12.5,21-24.9,31.4-37.4c3.4-4.1,6.9-8.2,10.3-12.3c1.6-1.9,3.5-3.8,4.9-5.8
					c0.1-0.1,0.1-0.2,0.2-0.3c-0.6,0.4-1.2,0.7-1.7,1.1c1.1,0,2.1,0.2,3.2,0.2c2.5-0.1,4.9-0.7,7.2-1.5c8.9-3,16-10,21.6-17.3
					c-1.7-1.6-3.4-3.1-5.1-4.7c1.2,10.5,2.4,21.1,3.6,31.6c0.8,7.1,1.6,14.2,2.4,21.3c0.2,2.1,0.5,4.3,0.7,6.4
					c0.1,0.5,0.1,1,0.2,1.5c0,0.1,0,0.2,0,0.3c0,0-0.1-2-0.1-2c0,0.4,0,0.8,0.1,1.2c0.1,1.1,0.1,2.2,0.2,3.3
					c0.1,2.4,0.3,4.9,0.4,7.3c0,0.1,0.1,1.3,0,0.4c-0.1-1.6,0.2,3.1,0.1,1.4c-0.1-1.5,0.1,1.4,0.1,2.1c0,0.5,0.1,1,0.1,1.5
					c0.1,1.6,0.2,3.2,0.3,4.8c0,0.3,0,0.6,0.1,0.9c0.1,1.1,0-1.4,0-0.3c0,1.2,0.1-1.4,0-0.3c-0.1,1.1,0.1-1.2,0-0.2
					c-0.1,0.7,0-0.1,0.1-0.3c-0.1,0.3-0.3,0.7-0.4,1c-0.4,0.9-0.2,0.4,0,0.2c-0.2,0.3-0.4,0.6-0.5,0.8c-0.6,0.9-1.4,1.8-2.2,2.6
					c-0.1,0.1-0.3,0.3-0.4,0.4c0.3-0.3,0.4-0.3,0-0.1c-0.3,0.2-0.6,0.5-0.9,0.7c-0.3,0.2-0.5,0.4-0.8,0.6c-2.7,1.8-2.8,6.8-2.4,9.6
					c0.2,1.5,1.5,7.3,4.2,5.5c2.7-1.8,5.1-4.4,6.7-7.2c4.1-6.9,3.4-14.3,2.9-22c0-0.4,0-0.7-0.1-1.1c0-0.2-0.1-1.8-0.1-0.8
					c0.1,1.4-0.1-2-0.1-1.8c0,0.5,0.1,1.8,0-0.3c0,0.5-0.2-2.8-0.1-1.4c0.1,0.9,0-0.4,0-0.5c-0.1-1.1-0.1-2.2-0.2-3.3
					c-0.1-2.4-0.2-4.8-0.4-7.2c-0.1-1.4-0.3-2.8-0.5-4.2c-1.7-14.5-3.3-29-5-43.5c-0.5-4.4-1-8.9-1.5-13.3c-0.2-1.9-2.2-8.3-5.1-4.7
					c-4.7,6.2-10.4,11.7-17.6,14.8c-2.8,1.2-5.8,2-9.3,1.8c-1.4-0.1-2.3-0.3-3.4,0.9c-0.1,0.1-0.3,0.3-0.4,0.5
					c-0.8,0.9-1.6,1.9-2.4,2.8c-8.6,10.3-17.3,20.5-25.9,30.8c-13.3,15.8-26.5,31.6-39.8,47.3c-12.6,14.9-25.1,29.9-37.7,44.8
					c-6.4,7.6-13.2,14.9-19.1,22.8c-0.1,0.1-0.2,0.2-0.3,0.3c-1.6,2-1.8,5.4-1.6,7.8c0.1,2.2,0.6,5.1,2.5,6.5c1,0.8,2.1,1.5,3,2.4
					c0.3,0.3,0.6,0.6,0.9,1c0.2,0.2,1,0.9,0.5,0.5c0.1,0.2,0.1,0.3,0.2,0.5c-0.2-1.1-0.4-2.1-0.5-3.2c0,0.6,0-2.7,0.5-3.1
					c-0.7,0.5-1.3,1.8-1.9,2.5c-2.1,2.4-4.3,4.5-6.3,7c-4.1,5.4-8,11-11.8,16.6c-5.2,7.8-10.1,15.9-14.4,24.2
					c-3.1,6-5.5,12.8-12.9,13.3c-4.4,0.3-7.8-1.1-11.5-3.5c-1.4-0.9-2.8-1.7-4.3-2.6c-10.1-5.8-20.3-11.5-30.6-17
					c-5-2.7-10.1-5.4-15.4-7.5c-1.7-0.7-3.6-1.3-5-2.6c0.4,0.4-0.2-0.3-0.3-0.4c-0.1-0.2-0.3-0.3-0.4-0.5c0.3,0.6,0.4,0.7,0.2,0.4
					c-0.2-0.9,0.4,1.6,0.1,0.4c0.2,1.3,0.3,1.6,0.2,1.1c-0.1-0.6,0-0.2,0.1,1.3c0,3.5,0.2,0.1-0.2,1.9c-0.3,1.5,0,0.3,0.1,0
					c-0.2,0.7-0.7,1.5-0.1,0.5c0,0,0.1-0.2,0.1-0.3c-0.2,0.4-0.4,0.8-0.6,1.1c0.2-0.4,0.5-0.8,0.7-1.2c0.4-0.8,0.6-1.6,0.9-2.4
					c0.9-2.5,1.2-5,0.9-7.6c-0.2-1.6-0.7-4.7-2.4-5.5c-5.7-2.6-11.4-5.3-17-7.9c-13.2-6.1-26.3-12.2-39.5-18.4
					c-15.1-7-30.2-14-45.3-21.1c-11.3-5.3-22.6-10.5-34-15.8c-2.5-1.1-4.9-2.2-7.4-3.4c-0.6-0.3-1.2-0.7-1.8-1.1
					c-4.2-2.7-8.5-5.2-12.9-7.3c-2.6-1.3-5.3-2.5-8.2-3.3c-2.7-0.8-3.7,2.4-4.1,4.5c-0.6,3.2-0.4,7,1.4,9.8c0.3,0.5,0.4,0.6,0.8,1.5
					c-0.3-2.5-0.6-5.1-0.9-7.6c-0.8,10.2-0.8,20.5-0.3,30.7c0.8,18,2.8,37.1,10.4,53.7c1.5,3.3,3,7.3,6.3,9c2.3,1.2,4.7,2.4,7,3.6
					c9.1,4.7,18.1,9.4,27.2,14.1c23.8,12.3,47.6,24.6,71.4,36.9c11.6,6,23.2,12,34.9,18c18.7,9.6,37.3,19.3,56,29
					c2.5,1.3,4.9,2.7,7.4,4.1c7.1,4.1,15.4,2.6,21.5-2.5c4.7-3.9,8.6-9,12.7-13.5c13.9-15.3,27.8-30.5,41.7-45.7
					c19.2-21,38.4-41.9,57.5-62.9c17.8-19.5,35.7-39,53.5-58.5c9.9-10.8,19.8-21.6,29.7-32.4c0.5-0.5,0.9-1,1.4-1.5
					c2.3-2.5,2-7.7,1.2-10.7C476.8,249.2,475,246.1,472.7,248.7z"/>
			</g>
		</g>
		<g>
			<g>
				<path d="M168.1,438.7c1,0.5,2.1,1,3.1,1.4c0.6-5,1.2-10,1.8-15.1c-1.1-0.5-2.1-0.9-3.1-1.4c-0.5-0.3-0.9-0.4-1.4-0.1
					c-0.6,0.1-1,0.4-1.3,0.9c-0.5,0.6-0.8,1.3-1,2c-0.3,0.9-0.5,1.7-0.6,2.7c0,0.7-0.1,1.4-0.1,2.1c0,1.3,0.1,2.6,0.5,3.9
					c0.2,0.5,0.4,1.1,0.5,1.6C166.9,437.5,167.4,438.2,168.1,438.7c1,0.5,2.1,1,3.1,1.4c0.5,0.3,0.9,0.4,1.4,0.1
					c0.6-0.1,1-0.4,1.3-0.9c0.5-0.6,0.8-1.3,1-2c0.3-0.9,0.5-1.7,0.6-2.7c0-0.7,0.1-1.4,0.1-2.1c0-1.3-0.1-2.6-0.5-3.9
					c-0.2-0.5-0.4-1.1-0.5-1.6c-0.3-0.8-0.8-1.5-1.5-2c-1.1-0.5-2.1-1-3.1-1.4c-0.5-0.3-0.9-0.4-1.4-0.1c-0.6,0.1-1,0.4-1.3,0.9
					c-0.5,0.6-0.8,1.3-1,2c-0.3,0.9-0.5,1.7-0.6,2.7c0,0.7-0.1,1.4-0.1,2.1c0,1.3,0.1,2.6,0.5,3.9c0.2,0.5,0.4,1.1,0.5,1.6
					C166.9,437.5,167.4,438.2,168.1,438.7z"/>
			</g>
		</g>
		<g>
			<path class="st1" d="M41.2,282.2"/>
			<g>
				<path d="M41.2,297.8c2.4,0,4-2.8,4.9-4.6c1.5-3.2,2.1-7.5,2-11.1c-0.1-3.7-0.4-7.7-2-11.1c-1-1.9-2.3-4.6-4.9-4.6
					c-2.4,0-4,2.8-4.9,4.6c-1.5,3.2-2.1,7.5-2,11.1c0.1,3.7,0.4,7.7,2,11.1C37.3,295.1,38.7,297.8,41.2,297.8L41.2,297.8z"/>
			</g>
		</g>
		<g>
			<path class="st1" d="M37.6,360.2l1.5,14.4c-2.3-0.2-4.3,0.8-4.3,0.8C23.7,377,15,360.2,15,360.2c-9-16.4-9.3-67.3-9-90.4
				c0-2.3,0.3-4.6,0.8-6.7c0.9-4,2.4-7.7,4.6-11c0.5-0.8,1.1-1.5,1.7-2.3C110.1,130.3,234.3,6.6,234.3,6.6c7.8-2.9,22.4,5.9,25,17.6
				s12.5,11.7,12.5,11.7c67.1,34,135.8,52.2,135.8,52.2s9.3,12.2,25.9,20c13.2,0,32.4,2.6,39.7,24.1c5.6,16.6-11.1,14.4-9,22.6
				c2,8-32.5,18.2-20.6,19.3L317.8,325.3l-0.2,0.2c0,0-3.3,19.6-12.1,23.2c0,0-28.5,5.9-31.6,18.5c-3.1,12.6-51.7-3.4-51.7-3.4
				L34.8,284.4"/>
			<g>
				<path d="M31.2,364.2c0.5,4.8,1,9.6,1.5,14.4c2.1-6.3,4.2-12.7,6.4-19c-2,0-4.2,0.5-6,1.4c0.6-0.2,1.2-0.4,1.8-0.5
					c-1.7,0.2-3.3,0-4.9-0.5c0.6,0.2,1.2,0.4,1.8,0.5c-1.6-0.5-3.1-1.3-4.4-2.3c-0.6-0.4-1.1-0.8-1.6-1.3c-0.8-0.6-0.8-1.4,0.1,0.1
					c-0.2-0.4-0.7-0.8-1.1-1.1c-1.9-2-3.5-4.3-5-6.6c-0.2-0.3-0.4-0.7-0.6-1.1c-0.7-1.2,1.6,2.9,0.8,1.5c-0.3-0.7-0.7-1.4-1-2.1
					c-0.3-0.6-0.5-1.2-0.7-1.8c-0.1-0.3-0.2-0.5-0.3-0.8c-0.6-1.6,0.8,2,0.6,1.8c-0.8-1.1-1-3.3-1.3-4.6c-0.4-1.5-0.7-3.1-1-4.7
					c-0.6-3.1,0.6,3.7,0.1,0.4c-0.2-0.9-0.3-1.8-0.4-2.7c-0.6-3.9-1.1-7.9-1.4-11.8c-0.4-4-0.7-8-0.9-12c0.4,5.8,0.1,1.4,0,0.1
					c0-1-0.1-1.9-0.1-2.9c-0.1-2.2-0.2-4.5-0.3-6.7c-0.2-7.6-0.3-15.3-0.3-22.9c0-3.1,0-6.2,0.1-9.2c0-2,0.6-0.8-0.1,1.2
					c0.2-0.4,0.1-1.3,0.2-1.7c0.3-2.9-0.6,2.5-0.1,0.7c0.2-0.6,0.3-1.3,0.5-2c0.6-2.3-0.2,0.8-0.3,0.7c0,0,0.7-1.7,0.8-1.9
					c0.2-0.5,0.5-1.4,0.9-1.8c-0.6,1.1-0.7,1.3-0.4,0.6c0.2-0.3,0.4-0.7,0.6-1c2.9-4.3,6.5-8.2,9.7-12.2c3.4-4.2,6.8-8.3,10.3-12.4
					c6.9-8.3,13.9-16.5,20.9-24.7c27.2-31.7,55-62.7,83.3-93.3c22-23.7,44.2-47.2,66.7-70.4c10.4-10.7,20.6-21.6,31.4-31.9
					c1.1-1-0.3,0.8-0.8,1c-0.6,0.2-1.2,0.4-1.8,0.5c2.6-0.8,5.3-0.4,7.8,0.4c-0.6-0.2-1.2-0.4-1.8-0.5c2.1,0.7,4.1,1.7,6,2.9
					c1,0.6,1.9,1.4,2.8,2.1c0.2,0.2,1.5,1.4,0.5,0.5c-0.9-0.9,0.5,0.6,0.7,0.8c0.8,0.9,1.5,1.9,2.2,2.9c1,1.4-0.2,0.1-0.3-0.6
					c0.1,0.5,0.6,1.1,0.8,1.6c1,2.3,0.2-0.5-0.2-0.8c0.2,0.1,0.4,1.7,0.5,1.8c0.5,2.1,1.2,4.1,2.1,6.1c2.8,6.2,8.6,12.3,15.9,12.4
					c-0.6-0.2-1.2-0.4-1.8-0.5c40.9,20.7,84.2,37.1,128.2,50c3.1,0.9,6.3,1.8,9.4,2.7c-1.1-0.7-2.2-1.4-3.3-2
					c4.7,6.1,11.1,11.5,17.4,15.8c2.7,1.9,5.6,3.5,8.6,5c2.6,1.3,4.9,1.2,7.7,1.4c4.4,0.2,8.8,0.9,13,2.2c-0.6-0.2-1.2-0.4-1.8-0.5
					c4.2,1.3,8.2,3.3,11.6,6c0.4,0.3,0.8,0.7,1.3,1.1c1.4,1.2-0.8-1.1-0.2-0.1c0.6,0.8,1.5,1.6,2.1,2.4c0.8,1,1.4,2,2.1,3
					c1.3,1.9-1.1-2.2-0.1-0.1c0.4,0.8,0.8,1.6,1.2,2.4c0.3,0.6,0.5,1.3,0.8,1.9c1,2.4-0.7-2.8-0.1-0.4c0.1,0.6,0.3,1.2,0.4,1.8
					c-0.2-0.8-0.3-1.7-0.5-2.5c0.2,1.5,0.1,0.7-0.1-2.5c0,0.3,0,0.6,0,0.9c0.1-1,0.1-2.1,0.2-3.1c-0.2,1.4,0,0.6,0.5-2.4
					c-0.5,1.8,1.3-3.3,0.6-1.6c-0.9,2,1.5-2,0.5-0.8c-0.4,0.5-1,1-1.3,1.5c1.1-1.7,1.4-1.2,0.6-0.6c-0.3,0.2-0.5,0.4-0.8,0.6
					c-1,0.8-2,1.4-3,2.2c-5.8,4.5-7.6,11.6-7.6,18.7c0,1.7,0.1,3.5,0.3,5.2c0.2,1.2,0.4,2.4,0.7,3.6c0.3,1.4,0.1,0.4-0.5-2.9
					c-0.5-4.1-0.3-9.2,1.5-13.1c-0.7,1.6,2-2.6,0.5-0.8c-0.2,0.2-0.4,0.4-0.6,0.6c-1.1,1.4,1.5-1.2,0.5-0.4
					c-5,3.8-10.5,6.5-15.9,9.6c-3.2,1.8-5.8,3.8-7.4,7.2c-2,4.5-2.3,10.1-1.7,14.9c0.4,3.1,1.2,6.8,3.2,9.3c1.5,1.8,3.3,2.4,5.6,2.7
					c-1.1-9.3-2.2-18.6-3.3-28c-5.1,6.1-10.2,12.2-15.3,18.4c-11.8,14.2-23.5,28.3-35.3,42.5c-13.4,16.1-26.7,32.1-40.1,48.2
					c-9.7,11.7-19.4,23.4-29.2,35.1c-1.9,2.3-3.9,4.5-5.7,6.9c-0.4,0.5-0.7,0.9-1.1,1.6c-1.4,2.5-1.9,5-2.4,7.8
					c-0.2,1.2-0.6,2.5,0.6-3.1c-0.1,0.7-0.3,1.4-0.4,2.1c-0.2,0.9-0.5,1.9-0.7,2.8c-0.3,1.3-2,5.8-0.3,1.3c-0.5,1.2-0.9,2.5-1.5,3.7
					c-0.3,0.6-0.6,1.2-0.9,1.8c-1.2,2.3,1.2-1.9-0.1,0.2c-0.5,0.8-2.1,2.1-2.3,2.9c0.2-1.1,1.4-1.2,0.6-0.6
					c-0.3,0.2-0.6,0.4-0.9,0.6c-0.5,0.3-1.1,0.6-1.6,0.9c0.6-0.2,1.2-0.4,1.8-0.5c-7.5,1.6-15.2,4-22,7.6
					c-5.5,2.9-10.2,6.9-13.2,12.4c-0.9,1.8-1.6,3.6-2.1,5.5c-0.7,2.2,1.3-3.2,0.6-1.8c-0.6,1.2,1.8-2.8,0.7-1.4
					c-1,1.2,1.8-1.2,0.8-0.7c-0.3,0.1-0.5,0.4-0.8,0.5c-0.6,0.4-1.3,0.6-2,0.8c0.6-0.2,1.2-0.4,1.8-0.5c-7.2,2.2-15.8,0.3-23-1.1
					c-7.2-1.4-14.4-3.3-21.4-5.5c0.6,0.2,1.2,0.4,1.8,0.5c-5.7-1.7-11.1-4.4-16.6-6.7c-14.6-6.2-29.2-12.4-43.8-18.6
					c-18.6-7.9-37.2-15.7-55.7-23.6c-16.5-7-33-14-49.4-21c-8.1-3.4-16.1-7-24.2-10.3c-0.1,0-0.2-0.1-0.4-0.1
					c-5.6-2.4-7.7,6.6-8.1,10.5c-0.4,3.8-0.4,7.9,0.7,11.6c0.6,2.2,1.6,5.9,3.9,6.9c10.9,4.6,21.8,9.2,32.7,13.9
					c23.2,9.8,46.3,19.6,69.5,29.5c21.7,9.2,43.3,18.4,65,27.5c9.5,4,18.8,8.3,28.8,11.1c5.9,1.7,11.9,3.2,18,4.4
					c5.9,1.1,12.2,2.2,18.2,1.7c2.6-0.2,5.5-0.8,7.8-2.1c3.1-1.8,6.3-6.5,6.5-10.1c0.1-1.8-1.4,3.2-0.5,1.6c0.1-0.3,0.3-0.6,0.4-0.9
					c0.5-1.1-1.7,2.4-0.6,1.1c0.3-0.3,0.5-0.7,0.7-1c0.2-0.2,0.4-0.4,0.5-0.6c0.6-0.8,1.3-0.6-0.4,0.3c0.7-0.4,1.4-1.2,2.1-1.7
					c2.8-2.1,6-3.8,9.3-5.2c2.9-1.3,5.9-2.3,9-3.3c-0.6,0.2-1.2,0.4-1.8,0.5c2.3-0.7,4.6-1.3,7-1.9c4.2-1,7.4-4.2,9.6-7.8
					c5-8,7.6-17.2,9.1-26.4c-1,3-2,6-3,9c4.2-5,8.3-10,12.4-15c10-12,20-24,29.9-36c12.1-14.6,24.2-29.2,36.4-43.7
					c10.5-12.7,21.1-25.4,31.6-38c5.1-6.1,10.5-12.1,15.4-18.5c0.1-0.1,0.1-0.2,0.2-0.3c3.4-4.1,3.8-12,3-16.9
					c-0.5-3.7-1.7-10.5-6.4-11c-0.6-0.1-1.1-0.1-1.7-0.3c0.6,0.2,1.2,0.4,1.8,0.5c-0.1-0.1-0.3-0.1-0.4-0.2c2.5,1.6,4,7.4,4.2,9.9
					c0,2.7,0,5.3,0,8c-0.3,1.1-0.5,2.1-0.8,3.2c-0.1,1.6-0.6,3-1.4,4.2c-1.1,1.9-0.8,1.3-0.5,1c0.6-0.8-1.4,1.1-1.1,1
					c0.4-0.1,0.9-0.7,1.3-0.9c1.2-0.8,2.4-1.5,3.7-2.1c3.1-1.7,6.3-3.3,9.3-5.1c3.2-1.9,6.4-4.1,8.7-7.1c2.4-3.1,3.6-7.3,4-11.2
					c0.4-3.6,0.3-7.1-0.4-10.6c-0.9-4.7,0.1,0.5,0.1,0.8c-0.1-1-0.1,7.5,0,7c0.1-0.6-0.9,4.3-0.5,2.8c-0.2,0.7-1.1,3.9-1.8,4.1
					c0.1-0.1,0.4-0.5,0.5-0.6c1-1.1-1.7,1.3-0.7,0.7c0.3-0.2,0.5-0.4,0.8-0.6c1.1-0.9,2.3-1.6,3.4-2.5c5.4-4.4,7.8-10.5,8.6-17.3
					c1.8-15.5-4.6-33.1-17.4-42.6c-8.4-6.2-19.5-8-29.8-8c0.6,0.2,1.2,0.4,1.8,0.5c-6-2.8-11.6-6.4-16.6-10.7
					c-0.9-0.8-1.9-1.6-2.8-2.4c-0.2-0.2-0.4-0.4-0.6-0.5c-0.7-0.6,0.8,0.7,0.7,0.7c-0.5-0.3-0.9-0.9-1.3-1.3c-1-1-2-2.1-3-3.2
					c-1.2-1.4-2.2-2.5-4.1-3c-0.2-0.1-0.4-0.1-0.6-0.2c-1.6-0.4-3.1-0.9-4.7-1.3c-3.5-1-7-2-10.4-3.1c0.6,0.2,1.2,0.4,1.8,0.5
					c-34.3-10.5-68-23.1-100.5-38.2c-5.7-2.7-11.4-5.4-17.1-8.2c-1.6-0.8-3-1.5-4.7-1.8c-0.9-0.1-1.7-0.3-2.5-0.5
					c0.6,0.2,1.2,0.4,1.8,0.5c-1.3-0.4-2.5-1-3.6-1.7c-0.4-0.2-0.7-0.5-1-0.8c-1.3-0.9,1.3,1.6,0.3,0.2c-0.2-0.3-0.5-0.7-0.8-1
					c-1.5-1.7,0.8,2,0.1,0.2c-0.2-0.5-0.4-1.2-0.7-1.7c1.5,2.6,0.6,1.8,0.3,0.4c-0.5-1.8-1-3.6-1.7-5.3c-1.1-2.9-2.7-5.6-4.5-8.1
					c-3-4-7-7.5-11.5-9.7c-3.5-1.7-7.8-3.1-11.8-2.3c-2.1,0.4-3,0.9-4.6,2.4c-0.1,0.1-0.2,0.2-0.3,0.3c-0.5,0.5-1,1-1.5,1.5
					c-2.1,2.1-4.2,4.2-6.2,6.3c-20.2,20.5-40.2,41.2-59.9,62.1c-31.5,33.3-62.4,67-92.6,101.4c-16.6,18.9-32.9,38-49,57.4
					c-4,4.8-8.1,9.6-11.9,14.6c-5,6.6-7.7,14.5-9.1,22.6c-1.6,9.5-1,19.8-0.9,29.4c0.2,20.7,1.1,41.6,4.9,62
					c1.3,6.7,2.9,13.7,6.2,19.8c3.5,6.5,8.2,13.4,14.9,17.2c1.9,1.1,4.2,1.9,6.4,2.2c2.1,0.3,3.8-0.2,5.8-0.9
					c-0.6,0.2-1.2,0.4-1.8,0.5c1.1-0.3,2.1-0.5,3.3-0.4c3,0.1,4.4-3.7,5.2-5.9c1.4-4.2,1.6-8.7,1.2-13.1c-0.5-4.8-1-9.6-1.5-14.4
					c-0.3-2.8-1.2-6.7-3-9c-1.2-1.5-3.2-2.8-5.1-1.5C30.7,349.2,30.7,358.9,31.2,364.2L31.2,364.2z"/>
			</g>
		</g>
		<g>
			<g>
				<path d="M63.8,269.7c1-1.3,2.1-2.7,3.1-4c2.9-3.7,5.8-7.4,8.7-11.1c4.4-5.6,8.8-11.2,13.3-16.8c5.6-7,11.2-14.1,16.9-21.1
					c6.5-8.1,13-16.2,19.6-24.2c7.1-8.7,14.2-17.3,21.3-25.9c7.3-8.8,14.7-17.6,22.1-26.3c7.2-8.5,14.5-16.9,21.8-25.2
					c6.8-7.8,13.7-15.4,20.8-23c6.1-6.6,12.3-13.1,18.7-19.4c1.4-1.3,2.7-2.7,4.1-4c-0.4,0.3-0.7,0.7-1.1,1c4.8-4.6,9.7-9.1,15-13.1
					c1.1-0.9,2.3-1.7,3.5-2.5c1.5-1,2.2-3,2.6-4.6c0.6-2.4,0.8-5.3,0.4-7.7c-0.3-2-0.7-4.4-2-6c-0.9-1-2.1-1.9-3.4-1
					c-5.6,3.8-10.6,8.3-15.5,12.9c-7.2,6.7-14,13.7-20.8,20.8c-7.8,8.2-15.4,16.6-22.9,25c-8.3,9.4-16.5,18.8-24.7,28.4
					c-8.4,9.8-16.7,19.7-25,29.7c-8,9.6-15.9,19.3-23.8,29c-7.1,8.8-14.3,17.6-21.3,26.4c-5.9,7.3-11.7,14.7-17.6,22.1
					c-4.1,5.2-8.2,10.4-12.3,15.6c-1.9,2.4-3.9,4.9-5.7,7.3c-0.1,0.1-0.2,0.2-0.2,0.3c-1.2,1.6-1.8,4-2,6c-0.3,2.4-0.2,5.3,0.4,7.7
					c0.4,1.5,1.1,3.9,2.6,4.6C61.8,271.3,62.9,270.9,63.8,269.7L63.8,269.7z"/>
			</g>
		</g>
		<g>
			<path d="M316.6,345.2c-3.9,4.7-20.8,27.9-29.7,46.9c-8.8,19.1-26,5.9-26,5.9s-39.6-22.9-50-26.7c-10.4-3.8-6-11.1-6-11.1
				s0.3-0.9,0.9-2.4c2-5.6,6.9-19.6,8-27.5c1.3-10,8.1-10,8.1-10s15.9,9.4,27.6,19.1c11.7,9.7,28.4,1.5,31.5-11.1s10.7-12,10.7-12
				c8.8-3.5,26,9.4,26,9.4l0.2-0.2c2.7,2,5.2,4.3,6,6.4C325.9,337,320.5,340.5,316.6,345.2z"/>
			<g>
				<path d="M314.8,338.5c-4.6,5.6-8.7,11.7-12.8,17.8c-6.3,9.4-12.3,19.1-17.1,29.4c-0.3,0.7-0.6,1.4-1,2.1
					c-0.1,0.1-0.2,0.5-0.4,0.7c0.4-0.7,0.4-0.8,0.1-0.3c-0.1,0.2-0.2,0.4-0.4,0.6c-0.4,0.6-0.8,1.1-1.2,1.6
					c-0.2,0.3-0.9,1.4-1.2,1.4c0,0,0.8-0.7,0.2-0.2c-0.3,0.2-0.6,0.5-0.9,0.7c-0.4,0.3-0.8,0.6-1.2,0.8c-0.9,0.5-1.8,1-2.8,1.3
					c0.3-0.1,0.6-0.2,0.9-0.3c-3,0.9-6.1,0.7-9.1-0.2c0.3,0.1,0.6,0.2,0.9,0.3c-3.7-1.1-6.7-3.3-10-5.2c-7.3-4.2-14.7-8.4-22.1-12.4
					c-7.6-4.2-15.3-8.6-23.3-12c-2.1-0.9-4.2-1.7-6.1-3.1c-0.6-0.5,0.5,0.6,0,0c-0.2-0.2-0.4-0.4-0.6-0.7c-0.1-0.2-0.6-1-0.1-0.1
					c0.5,0.9,0.1,0-0.1-0.3c-0.1-0.2,0.5,1.8,0.3,0.7c0,0.1,0.3,2.2,0.2,1.1c0,0.1,0.1,2.6,0.1,1.3c0-0.4-0.2,2.5-0.1,1.3
					c0.1-1.1-0.5,2.2-0.1,0.8c0.3-1.1-0.8,1.8-0.2,0.7c0.1-0.2,0.2-0.3,0.2-0.5c0.3-0.8-1.3,2.3-0.2,0.4c1.2-2.1,1.8-4.6,2.6-6.9
					c2.2-6.3,4.4-12.7,6-19.2c0.5-1.9,0.8-3.8,1.2-5.8c0.1-0.6,0.2-1.2,0.3-1.8c0-0.3,0.3-1.8,0.1-0.5c-0.2,1.3,0.1-0.2,0.2-0.5
					c0-0.2,0.1-0.5,0.2-0.6c0.1-0.1-0.6,1.4-0.3,0.8c0.2-0.3,0.3-0.6,0.4-1c0.1-0.1,0.1-0.2,0.2-0.4c0.2-0.5-0.4,0.7-0.4,0.6
					c0.2-0.2,0.4-0.6,0.6-0.8c0.1-0.2,0.3-0.4,0.4-0.5c0.1-0.1,0.2-0.2,0.2-0.2c0.3-0.4-0.8,0.7-0.4,0.3c0.4-0.3,0.7-0.6,1.1-0.8
					c0.6-0.4,1.2-0.7,1.9-0.9c-0.3,0.1-0.6,0.2-0.9,0.3c0.5-0.1,1-0.3,1.5-0.3c-0.3-0.1-0.6-0.2-0.9-0.3c3.4,2,6.8,4.2,10.1,6.4
					c3.2,2.1,6.3,4.2,9.4,6.5c3.2,2.3,6.1,4.9,9.3,7.2c5.6,3.9,12.6,4.4,18.9,2c6.2-2.3,11.2-7.5,13.7-13.5c0.5-1.2,0.9-2.5,1.3-3.8
					c0.1-0.5,0.3-1,0.4-1.5c0.1-0.2,0.1-0.4,0.2-0.6c0.4-1.3-0.4,1-0.1,0.3c0.3-0.9,0.7-1.7,1.1-2.5c0.1-0.2,0.5-0.8,0-0.1
					c-0.5,0.8,0,0,0.1-0.2c0.2-0.3,0.4-0.6,0.6-0.9c0.3-0.5,1-1,1.3-1.5c0,0-0.9,0.7-0.3,0.3c0.1-0.1,0.2-0.2,0.3-0.3
					c0.2-0.2,0.4-0.3,0.6-0.5c0.8-0.5,1.6-0.9,2.4-1.2c-0.3,0.1-0.6,0.2-0.9,0.3c0.6-0.2,1.1-0.3,1.7-0.3c0.7-0.1,1.3-0.3,2-0.5
					c-0.3,0.1-0.6,0.2-0.9,0.3c2.8-0.8,5.7-0.3,8.4,0.6c-0.3-0.1-0.6-0.2-0.9-0.3c6.1,1.9,11.9,5.2,17,9c1,0.7,2.1-0.1,2.6-0.8
					c0.1-0.1,0.1-0.2,0.2-0.2c-0.9,0.3-1.8,0.5-2.6,0.8c1,0.7,1.9,1.5,2.8,2.3c1,0.9-0.5-0.6,0.4,0.4c0.3,0.4,0.7,0.8,1,1.2
					c0.1,0.2,0.3,0.4,0.4,0.6c-0.4-0.7-0.5-0.9-0.2-0.4c0.4,1-0.4-1.5-0.1-0.3c-0.4-1.7-0.4-3.6,0-5.4c-0.3,1.1,0.7-1.6,0.1-0.3
					c-0.6,1.2,0.6-0.8,0,0.1c-0.3,0.4-0.5,0.8-0.8,1.1c-0.5,0.7-1.1,1.3-1.7,1.9C317.5,335.6,316.1,337,314.8,338.5
					c-1,1.2-1.4,3.2-1.6,4.7c-0.2,1.9-0.2,4.2,0.3,6c0.6,2.1,2.4,5.5,4.7,2.8c1.6-1.9,3.4-3.6,5-5.4c2.1-2.5,3.5-5.4,4.1-8.6
					c0.9-4.7,0.3-9.9-2.3-14c-1.6-2.5-4-4.4-6.4-6.2c-1-0.7-2.1,0.1-2.6,0.8c-0.1,0.1-0.1,0.2-0.2,0.2c0.9-0.3,1.8-0.5,2.6-0.8
					c-5.9-4.4-13-8.5-20.3-9.9c-2.6-0.5-5.1-0.4-7.6,0.5c0.3-0.1,0.6-0.2,0.9-0.3c-3.2-0.2-6.4,2.2-8.4,4.5
					c-2.8,3.2-4.2,7.4-5.3,11.4c-0.1,0.3-0.2,0.7-0.3,1c-0.2,0.7,0.5-1.4,0.2-0.7c-0.1,0.2-0.1,0.4-0.2,0.6c-0.1,0.3-0.3,0.7-0.4,1
					c-0.1,0.2-0.8,1.6-0.4,0.7c0.4-0.8-0.2,0.2-0.3,0.4c-0.2,0.3-0.5,0.7-0.7,1c-0.5,0.7-1,1.3-1.6,1.9c-0.1,0.1-0.3,0.4-0.4,0.4
					c0.2-0.1,0.6-0.5,0.1-0.2c-0.4,0.3-0.7,0.6-1.1,0.9c-0.7,0.5-1.4,1.1-2.1,1.5c-1.6,1-3.3,1.7-5.1,2.3c0.3-0.1,0.6-0.2,0.9-0.3
					c-3.5,1-7.2,1.1-10.7,0.1c0.3,0.1,0.6,0.2,0.9,0.3c-2.8-0.9-5.1-2.4-7.4-4.3c-2.6-2.1-5.3-4.1-8-6c-4.7-3.4-9.5-6.6-14.4-9.6
					c-1.3-0.8-2.5-1.6-3.8-2.3c-0.6-0.3-1.2-0.6-1.8-0.5c-4.1,0.5-6.9,3.8-8.6,7.2c-1.6,3.3-2,6.8-2.6,10.4c0.5-2.8,0.1-0.4-0.1,0.3
					c-0.1,0.6-0.3,1.3-0.4,1.9c-0.4,1.5-0.8,3-1.2,4.4c-0.8,2.8-1.6,5.5-2.5,8.2c-0.2,0.6-0.4,1.3-0.6,1.9c-0.1,0.4-0.6,1.6,0.1-0.4
					c-0.1,0.3-0.2,0.6-0.3,0.9c-0.4,1-0.7,2.1-1.1,3.1c-0.4,1.1-0.8,2.1-1.2,3.2c-0.3,0.8-0.9,1.6,0.4-0.3c-0.3,0.4-0.6,0.9-0.8,1.4
					c-0.9,1.8-1.4,3.8-1.6,5.8c-0.9,6.7,0.9,14.2,7.4,17.4c1.5,0.7,3.1,1.2,4.6,1.9c1.4,0.6,2.8,1.3,4.2,2c3.7,1.8,7.3,3.7,11,5.7
					c7.6,4.1,15.2,8.3,22.8,12.6c3.2,1.8,6.6,3.5,9.7,5.6c5.3,3.6,12,5.7,18.2,3.5c5.5-2,8.7-7.3,11.1-12.3c1.3-2.8,2.7-5.5,4.2-8.1
					c0.4-0.7,0.8-1.4,1.1-2.1c0.2-0.3,0.4-0.7,0.6-1c-0.7,1.3,0,0.1,0.1-0.2c0.8-1.4,1.6-2.7,2.4-4.1c5.5-9.2,11.5-18.1,18-26.6
					c0.8-1,1.5-2,2.3-3c1-1.2,1.4-3.2,1.6-4.7c0.2-1.9,0.2-4.2-0.3-6C318.9,339.2,317.1,335.7,314.8,338.5z"/>
			</g>
		</g>
		<g>
			<g>
				<path d="M307.9,327.2c3.1,1.6,6.2,3.5,9,5.6c0.9,0.7,2.1-0.1,2.6-0.8c0.5-0.6,0.8-1.3,1-2c0.3-0.9,0.5-1.7,0.6-2.7
					c0.2-2,0.2-4.1-0.3-6c-0.4-1.3-0.9-2.7-2.1-3.6c-2.8-2.1-5.9-4-9-5.6c-0.5-0.3-0.9-0.4-1.4-0.1c-0.6,0.1-1,0.4-1.3,0.9
					c-0.5,0.6-0.8,1.3-1,2c-0.3,0.9-0.5,1.7-0.6,2.7c-0.2,2-0.2,4.1,0.3,6c0.2,0.5,0.4,1.1,0.5,1.6
					C306.6,326.1,307.2,326.7,307.9,327.2L307.9,327.2z"/>
			</g>
		</g>
		<g>
			<path d="M505.3,243.7c0,0-17,30.1-22.2,34.8c-5.2,4.7-12.8,2.7-12.8,2.7L331.1,436c4.9,6.6,1,14.5,1,14.5s-30.2,32.8-46.8,48.1
				c-16.7,15.2-33.3,2.3-33.3,2.3s-35.4-17.6-39.6-23.5c-4.2-5.9,2.1-11.7,2.1-11.7l-6.3-3.3l-17.4-9.1l-8.4-4.4l-14.4-7.5
				l-126.3-66c-0.9-0.5-1.8-0.8-2.7-0.8l-1.5-14.4c0,0-22.9-49.3-7.3-78c0,0,0.7-1.7,2-3.2c0,0,0,0,0,0c0.3-0.2,3.9-2.6,7.4,0.4v0
				c0.5,0.7,1,1.6,1.5,2.7c0,0-4.3,56.9,12.7,83.1c0,0,0,0,0,0c0.1,0.1,0.6,0.4,1.4,0.9c0.2,0.1,0.3,0.2,0.5,0.3
				c0.4,0.2,0.8,0.5,1.3,0.8c0.2,0.1,0.5,0.3,0.8,0.5c0.8,0.5,1.6,1,2.6,1.6c0.2,0.1,0.4,0.2,0.6,0.4c4.6,2.8,153.4,80.7,153.4,80.7
				l42.6,19.9c0,0,11.8,10.2,25-4.7c13.2-14.9,192.2-210.3,192.2-210.3s8.3-5.5,7.6-14.1c-0.1-0.7-0.1-1.5-0.2-2.5
				c0-0.4,0-0.7-0.1-1.1c-0.1-1.5-0.2-3.2-0.3-4.9c0-0.4-0.1-0.9-0.1-1.4c-0.1-0.9-0.1-1.9-0.2-2.8l8.8-0.2
				C510.9,230.8,505.3,243.7,505.3,243.7z"/>
			<g>
				<path d="M502.9,238.1c-0.1,0.1-0.1,0.2-0.2,0.3c-0.6,1.1,0.7-1.2,0.1-0.2c-0.7,1.1-1.3,2.3-2,3.4c-2,3.5-4.1,7-6.1,10.4
					c-2.3,3.8-4.7,7.7-7.1,11.4c-1.8,2.7-3.8,5.2-5.7,7.7c-0.1,0.1-0.5,0.4,0.1-0.1c0.7-0.7-0.4,0.3-0.6,0.4c-0.7,0.5-1.5,1-2.3,1.3
					c-1.2,0.5-2.5,0.7-3.8,0.8c-1.7,0.1-3.4,0-5-0.4c-0.7,0.1-1.3,0.4-1.7,1.1c-4.6,5.1-9.2,10.3-13.8,15.4
					c-11.1,12.3-22.2,24.7-33.3,37c-13.4,14.9-26.7,29.7-40.1,44.6c-11.6,12.9-23.3,25.9-34.9,38.8c-5.6,6.2-11.6,12.2-16.8,18.7
					c-0.1,0.1-0.2,0.2-0.2,0.3c-2.8,3.1-2.2,10.3,0,13.5c0.4,0.6,0.4,0.6,0.7,1.1c0.4,0.8-0.4-0.2,0.2,0.5c0,0.1,0.1,0.2,0.1,0.3
					c-0.1-0.4-0.2-0.9-0.2-1.3c0,0.5-0.2,1.4,0.1-0.3c-0.1,0.4-0.1,0.7-0.1,1.1c0.2-1.7,0.1-0.6,0-0.2c-0.1,0.3-0.2,0.5-0.2,0.8
					c-0.2,0.8,0.6-1.5,0.1-0.4c-0.6,1.3,1-0.9,0.4-0.6c-0.3,0.2-0.6,0.7-0.9,0.9c-2.9,3.2-5.9,6.3-8.8,9.4
					c-10.1,10.7-20.2,21.4-30.7,31.6c-5.5,5.3-11.3,11.2-19.4,12.2c-5.7,0.7-11.3-0.7-16.2-3.7c-6-3.7-12.5-6.6-18.7-10
					c-5.8-3.1-11.6-6.3-17-10.1c-1-0.7-2-1.4-3-2.2c-0.4-0.3-0.7-0.6-1.1-0.9c1.3,1.1-0.2,0-0.1-0.2c0,0-0.2-0.3-0.2-0.3
					c0,0,0.3,2.2,0.3,2.4c-0.1,0.7-0.2,1.5-0.3,2.2c0-0.2,0.1-0.4,0.1-0.5c-0.2,0.7-0.2,0.7,0,0.1c0.1-0.2,0.2-0.3,0.2-0.5
					c-0.5,0.9,0,0,0.2-0.2c0.2-0.3,0.5-0.6,0.7-0.9c0.3-0.4,1.5-1.6,0-0.1c2-1.9,2.6-4.8,2.5-7.5c0-2.2-0.3-6.4-2.5-7.5
					c-10.8-5.7-21.7-11.3-32.5-17c-7.7-4-15.5-8.1-23.2-12.1c-14-7.3-28-14.6-42-21.9c-16.3-8.5-32.6-17-48.9-25.5
					c-8.7-4.5-17.4-9-26-13.6c-1.2-0.6-2.4-1.1-3.8-1.2c1.1,1.9,2.2,3.8,3.3,5.7c-0.5-4.8-0.9-9.6-1.5-14.4c-0.5-4-2.8-7.9-4.2-11.6
					c-0.5-1.4-1-2.8-1.5-4.3c-0.5-1.5,0.4,1.4,0-0.1c-0.1-0.3-0.2-0.6-0.3-0.9c-0.4-1.1-0.7-2.2-1-3.3c-1.2-3.8-2.2-7.7-3.1-11.6
					c-0.3-1.1-0.5-2.3-0.7-3.4c-0.1-0.3-0.4-2.2-0.1-0.5c-0.1-0.4-0.1-0.8-0.2-1.2c-0.4-2.4-0.7-4.8-1-7.2c-0.1-1.1-0.2-2.2-0.3-3.3
					c-0.1-1.2,0.1,1.9,0,0c0-0.6,0-1.2-0.1-1.8c0-1,0-2,0-3c0-0.6,0-1.2,0-1.8c0-0.9,0-0.8,0,0.3c0-0.4,0.1-0.8,0.1-1.2
					c0.1-1.2,0.2-2.4,0.4-3.5c0.1-0.6,0.2-1.2,0.3-1.7c-0.3,1.7,0-0.1,0.1-0.4c0.3-1.3,0.7-2.6,1-3.9c0.5-1.8-0.3,0.7,0.1-0.3
					c0.2-0.6,0.5-1.3,0.7-1.9c0.5-1.1,1-2.3,1.6-3.4c0.1-0.2,0.2-0.4,0.3-0.6c0-0.1,1-1.4,0.3-0.8c1.6-1.5,4.1-0.7,5.6,0.4
					c-0.8-2.5-1.7-5-2.5-7.5c0,3.3,1.2,5.5,2.5,8.3c-0.3-2.5-0.6-5.1-0.9-7.6c-0.8,10.5-0.8,21.1-0.3,31.6
					c0.9,18.2,2.9,37.7,11.1,54.2c1,1.9,2,3.9,3.2,5.7c1.3,1.9,3.9,2.9,5.8,4.1c1.2,0.7,2.3,1.5,3.6,2.2c2.1,1.2,4.2,2.3,6.3,3.4
					c8.7,4.6,17.3,9.2,26,13.7c24.5,12.9,49.1,25.8,73.7,38.7c15.4,8.1,30.6,16.3,46.1,24.1c7,3.6,14.3,6.7,21.5,10.1
					c5.8,2.7,11.5,5.4,17.3,8.1c2.2,1,4.2,2.2,6.3,3.4c7.6,4.1,16,2,22.2-3.5c2.3-2,4.3-4.4,6.3-6.6c4.6-5.1,9.2-10.2,13.8-15.2
					c16.2-17.8,32.5-35.6,48.8-53.4c19.8-21.6,39.6-43.3,59.4-64.9c16.3-17.8,32.7-35.7,49-53.5c4.7-5.2,9.5-10.4,14.2-15.5
					c1.1-1.2,2.3-2.5,3.4-3.7c0.2-0.2,0.5-0.4,0.6-0.7c0.2-0.3-1.3,1-0.5,0.6c1.2-0.7,2.4-2,3.4-3c3.6-3.7,5.7-8.6,6.3-13.7
					c0.4-3.4,0-6.9-0.2-10.3c-0.1-1.4-0.2-2.7-0.3-4.1c0.1,2.2-0.2-3.5-0.1-0.9c0.1,1.7-0.3-4.8-0.1-2.1c-1.1,2.6-2.3,5.2-3.4,7.8
					c6.7-0.2,14-0.9,19.8,3.3c0.1,0.1,1,0.8,0.7,0.5c-0.4-0.4,0.4,0.4,0.5,0.5c0.2,0.3,0.4,0.5,0.6,0.8c0.7,0.9-0.2-0.5-0.1-0.1
					c0.7,1.7-0.3-1.4,0.1,0.3c0.2,0.8-0.3-2.2-0.2-0.8c0.1,0.9-0.1-2.5-0.1-1.1c0,1.8,0.2-2.2,0-0.5c-0.1,1.2,0.5-2.3,0.1-0.7
					C502.3,240.3,503.4,237,502.9,238.1c-1.4,3.3-1.5,7.8,0,11.1c1.2,2.7,3.6,2.9,4.9,0c2.8-6.7,2.5-16.5-2.4-22.1
					c-3.6-4.1-9.3-5.8-14.5-6.4c-3.1-0.4-6.4,0.1-9.6,0.1c-2.9,0.1-3.5,6-3.4,7.8c0.1,1.2,0.1,2.3,0.2,3.5c-0.2-2.6,0.2,3.4,0,0.7
					c0.1,1.8,0.2,3.7,0.3,5.5c0.1,1.3,0.1,2.6,0.3,3.9c0.2,1.4,0.2-1.6,0,0.4c0-0.5,0-1,0.2-1.4c-0.2,0.7-0.2,0.8,0,0.1
					c-0.6,1.7-1.1,2.4-2.5,4c-0.3,0.3-0.5,0.6-0.8,0.8c-1,1,0.6-0.5-0.3,0.3c-0.4,0.4-0.9,0.7-1.3,1c-0.9,0.7-1.6,1.5-2.3,2.3
					c-3.4,3.7-6.8,7.4-10.2,11.1c-14.6,16-29.2,31.9-43.8,47.9c-19.4,21.2-38.8,42.4-58.3,63.7c-17.6,19.2-35.1,38.4-52.6,57.6
					c-5.9,6.5-11.8,13-17.8,19.5c-3.8,4.2-7.7,9.5-12.3,12.9c-5.6,4.1-12.3,4.7-17.8,0.9c-2.1-1.4-4.6-2.4-7-3.4
					c-11.2-5.2-22.3-10.4-33.5-15.7c-11.5-5.4-22.6-11.7-33.8-17.5c-24.3-12.8-48.7-25.5-73-38.3C95.4,379.9,79,371.7,63,362.8
					c-1.4-0.8-2.8-1.7-4.1-2.5c-1.1-0.7-2.1-1.3-3.2-2c-0.3-0.2-0.7-0.3-0.9-0.5c1.1,1,0.1-0.3,0-0.5c-0.1-0.1-0.5-0.9-0.1-0.1
					c-0.3-0.4-0.5-0.9-0.7-1.4c-0.5-0.9-0.9-1.9-1.4-2.8c-0.8-1.8-1.5-3.7-2.2-5.6c0.4,1.2-0.4-1.2-0.5-1.6
					c-0.4-1.3-0.8-2.6-1.1-3.9c-0.5-1.9-0.9-3.8-1.3-5.7c-0.1-0.6-0.2-1.2-0.4-1.7c-0.4-2,0.3,1.5-0.1-0.5c-0.2-1.2-0.4-2.3-0.6-3.5
					c-0.7-4.3-1.2-8.6-1.5-12.9c-0.1-1.1-0.2-2.3-0.3-3.4c0-0.5-0.1-0.9-0.1-1.4c-0.1-1.2,0.1,2,0,0.1c-0.1-2.1-0.2-4.3-0.3-6.5
					c-0.2-6.2-0.2-12.4,0.1-18.7c0-0.9,0.1-1.8,0.1-2.7c0-0.4,0-0.8,0.1-1.2c0,0.3-0.2,2.6-0.1,1.2c0-0.3,0-0.5,0.1-0.8
					c0.3-4.5-0.7-7.9-3.1-11.6c0.6,2.2,1.1,4.5,1.7,6.7c0-4.2-1.3-7.9-5.5-9c-2-0.5-4.2-0.2-6,0.9c-2.8,1.7-4.5,6.5-5.7,9.5
					c-3.5,8.8-4.7,18.4-4.5,27.8c0.3,16.3,4.3,32.4,9.9,47.7c1.2,3.2,2.4,6.4,3.8,9.4c-0.3-1.1-0.6-2.3-0.9-3.4
					c0.5,4.8,1,9.6,1.5,14.4c0.2,1.9,0.9,5.4,3.3,5.7c2.5,0.3,5.3,2.4,7.5,3.6c5.3,2.8,10.6,5.5,15.9,8.3
					c15.9,8.3,31.9,16.7,47.8,25c14.7,7.7,29.3,15.3,44,23c7.6,4,15.1,7.9,22.7,11.9c10.7,5.6,21.4,11.2,32.1,16.8
					c1.5,0.8,3,1.6,4.6,2.4c0-5,0-10,0-15.1c-6.7,6.4-8.7,19.2-2.4,26.6c3.5,4.1,8.9,6.8,13.4,9.5c5.7,3.3,11.5,6.5,17.4,9.5
					c3,1.6,6.2,2.9,9.1,4.6c4.2,2.5,8.3,4.5,13.2,5.1c9.7,1.3,17.7-3.5,24.5-9.9c11.9-11.2,23.2-23.1,34.4-35
					c3.4-3.7,7.2-7.2,10.4-11.1c1.5-1.9,2.2-4.5,2.7-6.8c1.5-7.3,0.9-15.2-3.4-21.5c0,4.5,0,9,0,13.5c4.6-5.1,9.2-10.3,13.8-15.4
					c11.1-12.3,22.2-24.7,33.3-37c13.4-14.9,26.7-29.7,40.1-44.6c11.6-12.9,23.3-25.9,34.9-38.8c3.8-4.2,7.6-8.5,11.4-12.7
					c1.8-2,3.9-3.9,5.4-6c0.1-0.1,0.2-0.2,0.2-0.3c-0.6,0.4-1.2,0.7-1.7,1.1c4,1,8.9,0.3,12.4-2c3-2,5.1-5.2,7.1-8.2
					c5-7.3,9.5-15,14-22.7c1.3-2.3,2.7-4.6,4-7c1.7-3,1.4-8,0-11.1C506.4,235.1,504.4,235.5,502.9,238.1z"/>
			</g>
		</g>
		<g>
			<path class="st1" d="M244.7,420.5c0,0-7.6,18.1-16.6,35.8c-2.1,4.1-4.2,8.1-6.4,11.9c-5.9,10.5-11.9,19.1-16.3,21.2
				c0,0,0.3-15.5-1.1-30.3c-0.4-3.8-0.9-7.6-1.5-11.1c0,0-2.7,2.8-6.9,6.7c-7.7,7-20.7,17.1-31.6,18.8c0,0,8.3-12.1,17.2-26.4
				c1.7-2.7,3.4-5.5,5.1-8.3c8.6-14.3,16.4-29,16.4-35.1C203.1,403.8,219.5,414.1,244.7,420.5z"/>
			<g>
				<path d="M242.3,415c-2.9,6.9-6,13.7-9.1,20.5c-2.9,6.2-5.9,12.3-9,18.3c-0.8,1.6-1.7,3.2-2.5,4.7c-0.4,0.7-0.8,1.4-1.2,2.1
					c-0.2,0.3-0.3,0.6-0.5,0.8c-0.1,0.2-1.1,1.9-0.5,0.9c-1.6,2.8-3.3,5.6-5.1,8.3c-1.7,2.6-3.5,5.1-5.5,7.5c-0.5,0.5-0.9,1-1.4,1.5
					c-0.6,0.7,0-0.1,0.1-0.1c0,0-0.6,0.6-0.7,0.6c-0.7,0.6-1.5,1.2-2.4,1.6c1.5,2.5,2.9,5,4.4,7.5c0.1-4.8,0-9.7-0.1-14.5
					c-0.3-9.6-0.8-19.4-2.6-28.9c-0.4-2.2-1.9-8-5.1-4.7c-0.5,0.5-1,1.1-1.6,1.6c-0.5,0.5-1.1,1-1.6,1.5c0.8-0.7-0.5,0.4-0.6,0.6
					c-0.4,0.4-0.9,0.8-1.3,1.2c-2.7,2.5-5.5,4.9-8.4,7.1c-6.2,4.8-13,9.4-20.5,11.8c0.3-0.1,0.6-0.2,0.9-0.3
					c-1.2,0.4-2.5,0.7-3.7,0.9c0.6,4.9,1.2,9.7,1.7,14.6c4.8-7,9.4-14.1,14-21.2c7.6-12,15.2-24.1,21.3-37
					c2.7-5.8,5.1-11.9,5.2-18.4c-1.5,2.5-2.9,5-4.4,7.5c8.2,5.1,17.5,8.9,26.6,12.1c5.3,1.9,10.6,3.5,16,4.9
					c1.1,0.3,2.2-1.7,2.4-2.3c0.7-1.6,1-3.8,1-5.5c-0.1-2.6-0.4-7-3.4-7.8c-2.7-0.7-5.3-1.4-8-2.2c0.3,0.1,0.6,0.2,0.9,0.3
					c-11-3.4-21.8-7.7-31.8-13.4c-0.6-0.4-1.3-0.7-1.9-1.1c-1.3-0.8-2.4,0.3-3,1.4c-1.1,1.9-1.3,4-1.4,6.1c0,1.4,0.3-2.5,0-0.8
					c-0.2,1.7,0.5-2,0.1-0.4c-0.1,0.4-0.2,0.8-0.3,1.2c-0.2,0.6-0.9,2.5-0.1,0.3c-0.9,2.3-1.8,4.5-2.8,6.7c-1.3,2.8-2.7,5.5-4.2,8.2
					c-0.7,1.3-1.5,2.7-2.2,4c-0.2,0.4-0.5,0.8-0.7,1.2c-0.5,0.9-0.1,0.2,0,0c-0.5,0.8-1,1.7-1.4,2.5c-6.5,11.2-13.5,22.1-20.7,32.9
					c-1.6,2.4-3.2,4.9-4.9,7.3c-1.7,2.4-2,6-1.6,8.8c0.2,1.2,0.4,2.4,0.9,3.4c0.3,0.7,1.3,2.5,2.4,2.3c6.8-1.1,13.1-4.5,18.7-8.3
					c5.6-3.8,10.9-8.1,15.8-12.7c1.9-1.8,3.9-3.7,5.7-5.6c-1.7-1.6-3.4-3.1-5.1-4.7c0.8,4.4,1.3,8.9,1.7,13.4
					c0.1,1.3,0.2,2.5,0.3,3.8c0,0.5,0.1,0.9,0.1,1.4c-0.2-2.6,0-0.3,0,0.2c0.1,2.1,0.2,4.2,0.3,6.3c0.1,4.7,0.2,9.4,0.1,14.1
					c0,1.8,0.8,9.3,4.4,7.5c1.9-0.9,3.5-2.6,5-4.1c1.8-1.9,3.4-4.1,4.9-6.2c4.1-5.8,7.5-12.1,10.9-18.3
					c6.1-11.3,11.5-22.9,16.7-34.6c1.1-2.6,2.3-5.1,3.3-7.7c0.7-1.7,1-3.7,1-5.5c0-1.7-0.2-3.9-1-5.5c-0.5-1-1.2-2.3-2.4-2.3
					C243.5,412.7,242.7,414.1,242.3,415z"/>
			</g>
		</g>
		<g>
			<g>
				<path d="M52.3,336c1.6,0.9,3.1,1.7,4.7,2.5c4.3,2.3,8.6,4.6,13,6.9c6.5,3.4,13,6.9,19.5,10.2c8.1,4.2,16.2,8.4,24.3,12.5
					c9.1,4.7,18.3,9.3,27.5,13.8c9.6,4.7,19.2,9.3,28.8,13.9c9.5,4.4,19,8.8,28.6,13c8.8,3.9,17.7,7.6,26.7,11.1
					c7.8,3,15.6,5.8,23.6,8.2c5.7,1.7,11.6,3.3,17.5,4c1.1,0.1,2.2,0.2,3.3,0.2c1.2,0,2-1.4,2.4-2.3c0.7-1.6,1-3.8,1-5.5
					c0-1.8-0.2-3.9-1-5.5c-0.5-1-1.2-2.3-2.4-2.3c-5.3-0.2-10.6-1.4-15.7-2.8c-1.9-0.5-3.7-1-5.6-1.6c0.3,0.1,0.6,0.2,0.9,0.3
					c-6.7-2.1-13.3-4.4-19.9-6.9c-7.7-2.9-15.4-6.1-23-9.4c-8.3-3.5-16.5-7.2-24.7-11c-8.5-3.9-17-7.9-25.4-12
					c-8.3-4-16.6-8.1-24.8-12.2c-7.8-3.9-15.6-7.8-23.3-11.8c-6.8-3.5-13.7-7-20.5-10.6c-5.5-2.9-11-5.8-16.6-8.7
					c-3.9-2.1-7.7-4.1-11.6-6.2c-1.8-1-3.5-2-5.3-2.9c-0.1,0-0.2-0.1-0.2-0.1c-2.8-1.5-4,3.7-4.2,5.5c-0.2,2-0.2,4.1,0.3,6
					C50.6,333.7,51.1,335.4,52.3,336L52.3,336z"/>
			</g>
		</g>
		<g>
			<g>
				<path d="M300.6,402.1c1.5-1.8,3-3.6,4.5-5.3c4.1-4.8,8.2-9.7,12.3-14.5c6-7.2,12.1-14.3,18.1-21.5c7.4-8.7,14.8-17.5,22.1-26.2
					c8.1-9.6,16.2-19.1,24.3-28.7c8.2-9.6,16.3-19.3,24.5-28.9c7.6-9,15.2-18,22.8-27c6.4-7.6,12.9-15.2,19.3-22.8
					c4.6-5.5,9.2-10.9,13.9-16.4c2.2-2.6,4.4-5.1,6.6-7.8c0.1-0.1,0.2-0.2,0.3-0.3c1-1.2,1.4-3.2,1.6-4.7c0.2-1.9,0.2-4.2-0.3-6
					c-0.6-2.1-2.4-5.5-4.7-2.8c-1.5,1.8-3,3.6-4.5,5.3c-4.1,4.8-8.2,9.7-12.3,14.5c-6,7.2-12.1,14.3-18.1,21.5
					c-7.4,8.7-14.8,17.5-22.1,26.2c-8.1,9.6-16.2,19.1-24.3,28.7c-8.2,9.6-16.3,19.3-24.5,28.9c-7.6,9-15.2,18-22.8,27
					c-6.4,7.6-12.9,15.2-19.3,22.8c-4.6,5.5-9.2,10.9-13.9,16.4c-2.2,2.6-4.4,5.1-6.6,7.8c-0.1,0.1-0.2,0.2-0.3,0.3
					c-1,1.2-1.4,3.2-1.6,4.7c-0.2,1.9-0.2,4.2,0.3,6C296.5,401.4,298.3,404.8,300.6,402.1L300.6,402.1z"/>
			</g>
		</g>
		<g>
			<g>
				<path d="M297.5,429.1c1.3-1.3,2.5-2.6,3.8-3.9c3.5-3.6,6.9-7.1,10.4-10.7c5.2-5.4,10.4-10.8,15.6-16.2
					c6.5-6.8,13-13.6,19.5-20.4c7.3-7.7,14.6-15.5,21.9-23.3c7.7-8.2,15.3-16.5,22.9-24.8c7.6-8.3,15.2-16.7,22.7-25.1
					c7-7.9,13.9-15.8,20.7-23.8c6-7.1,12-14.3,17.7-21.6c4.5-5.8,9-11.6,13.1-17.7c0.8-1.2,1.6-2.4,2.3-3.6c1.9-3,2.2-7.3,1.2-10.7
					c-0.4-1.2-0.8-2.9-2.1-3.6c-1-0.5-2.1-0.1-2.6,0.8c-3.6,5.7-7.6,11.2-11.8,16.6c-5.4,7-11,13.9-16.7,20.7
					c-6.6,7.9-13.4,15.7-20.2,23.4c-7.4,8.4-14.8,16.6-22.3,24.9c-7.6,8.4-15.3,16.7-23,25c-7.4,8-14.8,15.9-22.3,23.8
					c-6.7,7.1-13.5,14.2-20.3,21.3c-5.5,5.8-11.1,11.6-16.6,17.3c-3.9,4.1-7.9,8.2-11.9,12.2c-1.8,1.9-3.7,3.7-5.5,5.6
					c-0.1,0.1-0.2,0.2-0.2,0.2c-1,1-1.4,3.4-1.6,4.7c-0.2,1.9-0.2,4.2,0.3,6c0.4,1.2,0.8,2.9,2.1,3.6
					C295.9,430.5,296.7,429.8,297.5,429.1L297.5,429.1z"/>
			</g>
		</g>
		<g>
			<path d="M495.4,147.3c-6.9,6.2-16.1,11.1-16.1,11.1c-15.1,19.9-29.1,17.6-29.1,17.6c-0.4,0-0.8,0-1.2-0.1h0
				c-11.8-1.1-19.7-10.7-21.7-18.7c-2.1-8.2,5.7-8.8,5.7-8.8s15.1-0.2,10.9-17.4c-4.2-17.2-12.5-5.5-29.1-13.3
				c-16.7-7.8-1.6-29.7-1.6-29.7c2.8-6.7,6.8-6,11-5.9c4.3,0.2,8.3,2.2,11.4,5.6c11.2,12.1,33.2,19.9,53.3,22.9
				c11.4,1.7,14.5,9.5,14.8,16.4C504.1,134.9,500.8,142.4,495.4,147.3z"/>
			<g>
				<path d="M494.4,139.8c-4.7,4.2-10.1,7.8-15.6,10.8c-1.1,0.6-1.8,1.6-2.5,2.6c-1.3,1.7-2.8,3.3-4.3,4.8c-0.2,0.2-1.1,1.1-0.5,0.5
					c-0.3,0.3-0.7,0.6-1,0.9c-0.7,0.6-1.4,1.2-2.1,1.8c-1.2,1-2.5,1.9-3.8,2.7c-2.4,1.5-5,2.8-7.7,3.6c0.3-0.1,0.6-0.2,0.9-0.3
					c-4.6,1.4-9.2,1.3-13.7-0.1c0.3,0.1,0.6,0.2,0.9,0.3c-3.2-1-6.2-2.7-8.8-4.9c-0.2-0.1-1.2-1.2-0.4-0.3c-0.3-0.3-0.6-0.6-0.9-0.9
					c-0.5-0.6-1-1.1-1.5-1.7c-0.5-0.6-0.9-1.2-1.3-1.8c-0.2-0.3-0.4-0.8-0.7-1.1c0.9,1.1,0.3,0.5,0,0c-0.3-0.7-0.7-1.3-0.9-2
					c-0.1-0.3-0.2-0.5-0.3-0.8c-0.4-1,0.5,1.8,0.1,0.3c0-0.1-0.4-1.1-0.3-1.1c-0.2,0.2,0.4,2,0.1,0.5c0.1,1.6,0.1,2,0.1,1.2
					c0-0.8,0-0.4-0.1,1.3c0.1-0.7,0-0.3-0.2,1.1c0.1-0.4,0.1-0.3-0.1,0.3c-0.5,1.4,0,0.1,0.1,0c-0.5,0.9-0.7,1.1-0.4,0.7
					c0.1-0.1,0.2-0.2,0.2-0.3c0.1-0.1,0.3-0.3,0.4-0.4c-0.6,0.6-0.7,0.7-0.4,0.4c0.1-0.1,0.2-0.2,0.3-0.2c0.7-0.5,1.4-0.8,2.2-1.1
					c-0.3,0.1-0.6,0.2-0.9,0.3c1.4-0.4,3-0.4,4.4-0.8c4.4-1.1,7.6-3.5,9.8-7.5c1.9-3.5,2.4-7.7,2.5-11.6c0-4.8-1-9.5-2.6-14
					c-1-2.8-2.4-5.5-4.7-7.4c-1.5-1.3-3.5-1.8-5.4-2.1c-2.3-0.3-4.6-0.1-6.9-0.1c-3.2-0.1-6.3-0.5-9.4-1.4c0.3,0.1,0.6,0.2,0.9,0.3
					c-2.1-0.6-4.1-1.4-6-2.6c-0.7-0.5-1.4-1-2.1-1.5c-0.7-0.6,0.5,0.6,0.1,0.1c-0.1-0.2-0.3-0.3-0.4-0.5c-0.3-0.3-0.5-0.7-0.8-1
					c-0.1-0.1-0.2-0.3-0.3-0.4c-0.6-0.8,0.5,1.1,0.3,0.5c-0.1-0.3-0.3-0.7-0.5-1c-0.6-1.3,0.4,1.5,0.1,0.3c-0.2-0.8-0.2-2.2,0,0.4
					c0-0.4-0.1-0.7-0.1-1.1c-0.2-1.4,0,2.4,0.1,0.8c0-0.4,0-0.7,0-1.1c0-0.9-0.2,2.4-0.1,1.2c0-0.2,0-0.5,0.1-0.7
					c0-0.3,0.1-0.6,0.1-1c0.1-1.1-0.4,1.8-0.2,1c0-0.2,0.1-0.4,0.1-0.6c0.2-0.7,0.4-1.5,0.6-2.2c0.1-0.2,0.1-0.4,0.2-0.6
					c0.3-0.8-0.3,0.9-0.3,0.9c0.1-0.1,0.3-0.9,0.4-1.1c0.3-0.7,0.5-1.3,0.8-1.9c0.5-1.1,1-2.2,1.6-3.2c0.1-0.2,0.3-0.5,0.4-0.7
					c-1,1.8-0.5,1-0.3,0.5c0.2-0.3,0.4-0.6,0.6-0.9c0.5-0.8,1-1.6,1.4-2.4c0.2-0.3,0.3-0.9,0.5-1.1c-0.1,0.2-0.2,0.4-0.3,0.6
					c0.1-0.2,0.3-0.4,0.4-0.6c0.1-0.2,0.3-0.4,0.4-0.5c0.1-0.1,0.2-0.2,0.3-0.4c0.2-0.2,0.1-0.2-0.3,0.3c-0.2-0.3,2.2-1.3,2.5-1.4
					c-0.3,0.1-0.6,0.2-0.9,0.3c1.3-0.4,2.7-0.4,4.1-0.4c1.9,0.1,3.7,0.2,5.5,0.7c-0.3-0.1-0.6-0.2-0.9-0.3c2.3,0.7,4.3,1.9,6.1,3.5
					c0.6,0.5,0.2,0.2,0.1,0.1c0.2,0.2,0.5,0.5,0.7,0.7c0.3,0.4,0.7,0.7,1,1.1c0.9,0.9,1.8,1.8,2.8,2.6c3.3,2.9,6.9,5.3,10.8,7.4
					c8.6,4.7,18.1,7.9,27.6,10.3c2.7,0.7,5.4,1.2,8.1,1.7c2.7,0.5,5.4,0.8,8,1.5c-0.3-0.1-0.6-0.2-0.9-0.3c1.7,0.5,3.3,1.2,4.8,2.2
					c0.2,0.1,1.7,1.2,1.6,1.3c-0.5-0.5-0.5-0.5-0.2-0.2c0.1,0.1,0.3,0.3,0.4,0.4c0.2,0.3,0.5,0.6,0.7,0.8c0.2,0.3,0.4,0.5,0.5,0.8
					c0.3,0.4,0.6,1.3-0.1-0.2c0.3,0.6,0.6,1.3,0.9,1.9c0.5,1.4-0.4-1.4-0.1-0.3c0.1,0.3,0.1,0.5,0.2,0.8c0.1,0.3,0.2,0.7,0.2,1
					c-0.3-1.4-0.3-1.8-0.2-1.1c0,0.2,0.1,0.3,0.1,0.5c0.1,0.9,0.1,3.4,0.1,0.2c0,0.4,0,0.8,0,1.2c0,0.7-0.4,2.4,0-0.1
					c-0.1,0.5-0.1,1.1-0.2,1.6c0,0.3-0.1,0.5-0.1,0.8c0.2-1.2,0.3-1.4,0.1-0.7c-0.1,0.4-0.2,0.8-0.3,1.2c-0.1,0.3-0.1,0.5-0.2,0.8
					c-0.2,0.7-0.1,0.5,0.2-0.5c-0.5,0.9-0.8,2-1.2,2.9c-0.1,0.2-0.2,0.5-0.4,0.7c-0.3,0.5-0.2,0.5,0.1-0.2c-0.2,0.2-0.5,0.7-0.6,1
					c-0.6,0.9-1.2,1.7-1.8,2.5c-0.3,0.4-0.7,0.8-1,1.1C494.8,139.4,494.6,139.6,494.4,139.8C494.8,139.4,494.8,139.4,494.4,139.8
					c-2.5,2.3-2.9,6.4-2.4,9.6c0.2,1.5,0.5,3.5,1.6,4.7c0.6,0.7,1.7,1.6,2.6,0.8c9.7-8.8,12.6-22.8,10-35.3c-1-4.6-3-8.8-6.4-12
					c-3.6-3.4-8.4-4.3-13.1-5.1c-6.1-1-12-2.4-17.9-4.2c0.3,0.1,0.6,0.2,0.9,0.3c-10.7-3.3-21.5-7.9-30.1-15.3
					c-0.3-0.2-0.5-0.5-0.8-0.7c-0.1-0.1-1-0.9-0.2-0.1c-0.4-0.4-0.8-0.8-1.2-1.2c-1.2-1.2-2.4-2.5-3.8-3.5c-2.4-1.8-5.4-3-8.4-3.3
					c-1.9-0.2-4.1-0.4-6,0c-2.6,0.4-4.6,1.7-6.2,3.8c-0.6,0.8-1.1,1.7-1.6,2.6c-0.3,0.5-1.3,2.3-0.1,0.5c-0.1,0.1-0.2,0.2-0.2,0.4
					c-0.7,1.1-1.3,2.2-1.9,3.3c-1.7,3.1-3.1,6.3-4.1,9.7c-3,9.6-2.8,23.3,6.5,29.4c4.3,2.9,10,4.2,15.1,4.5
					c3.4,0.2,7.1-0.4,10.4,0.6c-0.3-0.1-0.6-0.2-0.9-0.3c0.7,0.2,1.4,0.5,2.1,1c0.1,0.1,0.3,0.2,0.4,0.3c0.5,0.4,0.1,0.5-0.2-0.2
					c0.1,0.3,0.6,0.7,0.8,1c0.1,0.2,0.3,0.4,0.4,0.6c0.5,0.7-0.6-1.2-0.2-0.4c0.2,0.6,0.5,1.1,0.7,1.7c0.1,0.1,0.1,0.3,0.2,0.4
					c0.3,0.6-0.4-1-0.3-0.9c0.2,0.3,0.2,0.7,0.3,1.1c0.2,0.8,0.4,1.6,0.6,2.4c0.2,0.7-0.2-1.1-0.2-1c0,0.2,0.1,0.4,0.1,0.5
					c0.1,0.4,0.1,0.8,0.2,1.2c0,0.2,0,0.3,0,0.5c0.1,0.7,0-1.5-0.1-1.3c-0.1,0.3,0,0.7,0,1c0,1.5,0.2-1.9,0.1-0.8
					c0,0.3-0.1,0.5-0.1,0.8c-0.1,1,0.4-1.9,0.2-0.9c0,0.1-0.3,0.9-0.2,0.9c-0.1-0.1,0.7-1.8,0.2-0.7c-0.1,0.2-0.2,0.5-0.3,0.7
					c-0.1,0.2-0.5,0.9,0,0c0.5-1,0-0.1-0.1,0.1c-0.2,0.3-0.5,0.6-0.7,0.9c-0.1,0.2-0.3,0.3-0.4,0.5c0.3-0.4,0.8-0.7,0.2-0.2
					c-1.3,1-2.7,1.8-4.3,2.3c0.3-0.1,0.6-0.2,0.9-0.3c-1.2,0.4-2.4,0.5-3.6,0.6c-2.4,0.2-4.5,1.3-6.1,3c-2.1,2.2-2.9,5.4-3.3,8.3
					c-0.5,4.4,0.3,8.6,1.8,12.7c1.8,4.8,4.8,9.1,8.6,12.5c4.9,4.5,11.8,7.1,18.5,6.7c7.1-0.4,13.8-4.1,19.1-8.6
					c2.7-2.3,5.2-4.9,7.5-7.7c0.3-0.3,0.5-0.6,0.7-0.9c0.2-0.3,0.4-0.5,0.6-0.8c0.4-0.4,0.4-0.5,0-0.2c0,0.1-0.5,0.3,0,0.1
					c0.6-0.3,1.1-0.6,1.6-0.9c5-2.9,9.9-6.2,14.2-10.1c2.5-2.2,2.9-6.5,2.4-9.6c-0.2-1.5-0.5-3.5-1.6-4.7
					C496.5,139.9,495.4,139,494.4,139.8z"/>
			</g>
		</g>
	</g>
	<g>
		<g>
			<g>
				<path class="st2" d="M156.2,231.2L270.6,96.4c0,0,89.1,46.6,107,36.3l-98.3,147.7c0,0-44.2-3.3-89.7-29.8
					C154.7,230.4,156.2,231.2,156.2,231.2z"/>
				<g>
					<path d="M157.9,237.7c1-1.2,2-2.4,3.1-3.6c2.8-3.3,5.5-6.5,8.3-9.8c4.1-4.8,8.2-9.7,12.3-14.5c5-5.9,10.1-11.8,15.1-17.8
						c5.5-6.5,11-12.9,16.4-19.4c5.5-6.5,11.1-13,16.6-19.5c5.2-6.1,10.3-12.2,15.5-18.2c4.4-5.1,8.7-10.3,13.1-15.4
						c3.1-3.7,6.3-7.4,9.4-11.1c1.5-1.7,3.1-3.4,4.5-5.3c0.1-0.1,0.1-0.2,0.2-0.2c-0.8,0.3-1.7,0.5-2.5,0.8c3,1.6,6,3.1,9.1,4.6
						c7.4,3.7,14.8,7.2,22.3,10.6c9.4,4.3,18.8,8.4,28.4,12.1c9.1,3.5,18.3,6.8,27.8,9c6.3,1.5,13.5,3,19.7,0.7
						c0.5-0.2,1-0.4,1.4-0.6c-0.8-4.6-1.7-9.1-2.5-13.7c-0.9,1.3-1.8,2.6-2.6,4c-2.4,3.6-4.8,7.2-7.2,10.8
						c-3.5,5.3-7.1,10.6-10.6,15.9c-4.3,6.5-8.6,12.9-12.9,19.4c-4.7,7.1-9.4,14.2-14.1,21.3c-4.7,7.1-9.5,14.2-14.2,21.3
						c-4.4,6.7-8.9,13.3-13.3,20c-3.8,5.6-7.5,11.3-11.3,16.9c-2.7,4.1-5.4,8.1-8.1,12.2c-1.3,1.9-2.7,3.8-3.8,5.8
						c-0.1,0.1-0.1,0.2-0.2,0.3c0.6-0.3,1.1-0.7,1.7-1c-8.7-0.7-17.4-2.5-25.9-4.5c-4.9-1.2-9.7-2.5-14.5-3.9
						c0.3,0.1,0.6,0.2,0.9,0.3c-8.9-2.7-17.7-6-26.3-9.7c-9.8-4.3-19.1-9.4-28.3-14.7c-8.8-5.1-17.7-10.3-26.5-15.4
						c-0.5-0.3-1.1-0.6-1.6-0.9c-0.3,4.9-0.6,9.8-0.9,14.7c0,0,0,0,0,0c-0.3-0.1-0.6-0.2-0.9-0.3c0,0,0,0,0,0
						c2.7,1.5,3.9-3.6,4.1-5.2c0.2-1.9,0.2-3.9-0.3-5.8c-0.3-1.2-0.8-2.8-2-3.4c-0.3-0.2-0.9-0.3-0.9-0.3c-2.6,0.3-3.1,4.5-3.2,6.5
						c-0.2,2.7,0.1,6.4,2.4,8.2c1.2,0.9,2.7,1.6,4,2.3c8.2,4.8,16.3,9.5,24.5,14.2c7.3,4.2,14.6,8.4,22.3,11.9
						c7,3.3,14.1,6.2,21.4,8.8c11.6,4.1,23.4,7.4,35.5,9.8c3.6,0.7,7.3,1.3,11,1.8c1.7,0.2,3.5,0.6,5.2,0.6c0.1,0,0.1,0,0.2,0
						c0.7-0.1,1.3-0.4,1.7-1c0.9-1.3,1.8-2.6,2.6-4c2.4-3.6,4.8-7.2,7.2-10.8c3.5-5.3,7.1-10.6,10.6-15.9
						c4.3-6.5,8.6-12.9,12.9-19.4c4.7-7.1,9.4-14.2,14.1-21.3c4.7-7.1,9.5-14.2,14.2-21.3c4.4-6.7,8.9-13.3,13.3-20
						c3.8-5.6,7.5-11.3,11.3-16.9c2.7-4.1,5.4-8.1,8.1-12.2c1.3-1.9,2.6-3.8,3.8-5.8c0.1-0.1,0.1-0.2,0.2-0.3
						c1.8-2.7,1.9-6.3,1.4-9.4c-0.3-1.6-1.5-5.7-3.9-4.3c-0.6,0.3-1.2,0.6-1.9,0.8c0.3-0.1,0.6-0.2,0.9-0.3
						c-2.8,0.8-5.7,0.8-8.6,0.5c-3.9-0.3-7.7-1.1-11.5-2.1c-2.5-0.6-5.1-1.3-7.6-2.1c0.3,0.1,0.6,0.2,0.9,0.3
						c-13.8-4.2-27.2-9.8-40.4-15.7c-10.5-4.7-20.9-9.6-31.1-14.8c-2-1-3.9-2-5.9-3c-1-0.5-1.9-0.1-2.5,0.8c-1,1.2-2,2.4-3.1,3.6
						c-2.8,3.3-5.5,6.5-8.3,9.8c-4.1,4.8-8.2,9.7-12.3,14.5c-5,5.9-10.1,11.8-15.1,17.8c-5.5,6.5-11,12.9-16.4,19.4
						c-5.5,6.5-11.1,13-16.6,19.5c-5.2,6.1-10.3,12.2-15.5,18.2c-4.4,5.1-8.7,10.3-13.1,15.4c-3.1,3.7-6.3,7.4-9.4,11.1
						c-1.5,1.8-3,3.5-4.5,5.3c-0.1,0.1-0.1,0.2-0.2,0.2c-0.9,1.1-1.3,3.1-1.5,4.5c-0.2,1.8-0.2,4,0.3,5.8
						C153.9,237.1,155.7,240.3,157.9,237.7z"/>
				</g>
			</g>
			<g>
				<path class="st0" d="M140.2,195.1l25.3,75.8l5.5-14.3l2.6-5.2l2.9,3.6h5.5l3.2-4.9c0,0-10.4-49.9-15.8-57l-4.9,5.5l-4.6-3.6
					H140.2z"/>
				<g>
					<path d="M137.3,198.9c2.9,8.6,5.7,17.2,8.6,25.8c4.5,13.6,9.1,27.2,13.6,40.7c1,3.1,2.1,6.2,3.1,9.3c0.4,1.3,0.9,3.2,2.4,3.6
						c1.4,0.3,2.3-0.9,2.8-2.1c1.4-3.7,2.8-7.3,4.2-11c1.1-2.9,2.4-5.6,3.8-8.4c-1.3,0.4-2.7,0.8-4,1.2c0.8,1,1.6,2,2.4,2.9
						c0.6,0.7,1.2,1.5,2.2,1.7c0.5,0.1,1,0,1.4,0c1.3,0,2.7,0.1,4,0c1.6-0.2,2.3-2,3.1-3.1c0.8-1.3,1.8-2.5,2.5-3.9
						c1.4-2.9,1.1-6.4,0.4-9.4c-0.3-1.4-0.6-2.7-0.9-4.1c-2.7-12.7-5.6-25.3-9.2-37.8c-1-3.6-2.2-7.2-3.5-10.7
						c-0.9-2.3-1.8-4.8-3.3-6.8c-1-1.4-2.3-1.2-3.3,0c-1.6,1.8-3.3,3.7-4.9,5.5c0.8-0.3,1.7-0.5,2.5-0.8c-1.4-1.1-2.8-2.4-4.3-3.4
						c-1-0.6-2.1-0.5-3.2-0.5c-4.5,0-9,0-13.5,0c-1.3,0-2.6,0-3.9,0c-1.1,0-1.9,1.3-2.3,2.2c-0.7,1.6-1,3.6-1,5.3
						c0,1.8,0.2,3.7,1,5.3c0.5,0.9,1.1,2.2,2.3,2.2c6.5,0,13,0,19.6,0c-0.3-0.1-0.6-0.2-0.9-0.3c1.5,1.2,3.1,2.4,4.6,3.6
						c0.9,0.7,2-0.1,2.5-0.8c1.6-1.8,3.3-3.7,4.9-5.5c-1.1,0-2.2,0-3.3,0c0.1,0.2,0.3,0.4,0.4,0.6c0.6,0.9-0.8-1.5-0.2-0.3
						c0.3,0.6,0.6,1.3,0.9,1.9c0.3,0.8,0.6,1.5,0.9,2.3c0.2,0.4,0.3,0.8,0.5,1.3c0.1,0.2,0.2,0.4,0.2,0.7c-0.8-2.2-0.3-0.9-0.2-0.4
						c1.5,4.6,2.8,9.3,4,13.9c2.5,9.3,4.6,18.7,6.7,28.2c0.5,2.1,0.9,4.1,1.3,6.2c0.4-3.4,0.8-6.8,1.2-10.3
						c-1.1,1.6-2.1,3.2-3.2,4.9c0.6-0.3,1.1-0.7,1.7-1c-1.8,0-3.6,0-5.5,0c0.6,0.3,1.1,0.7,1.7,1c-1-1.2-1.9-2.4-2.9-3.6
						c-1.6-1.9-3.1-0.5-4,1.2c-1.4,2.8-2.7,5.5-3.8,8.4c-1.4,3.7-2.8,7.3-4.2,11c1.7,0.5,3.5,1,5.2,1.5c-2.9-8.6-5.7-17.2-8.6-25.8
						c-4.5-13.6-9.1-27.2-13.6-40.7c-1-3.1-2.1-6.2-3.1-9.3c-0.4-1.1-0.8-2.8-2-3.4c-1-0.5-1.9-0.1-2.5,0.8c-0.9,1.3-1.4,3-1.5,4.5
						C136.8,195,136.7,197.1,137.3,198.9z"/>
				</g>
			</g>
			<g>
				<path class="st0" d="M368.2,180.2l-6.5-60.9c0,0,5-6,8.1-6.5c3.1-0.4,9.2,3,9.2,3l9.2,58.3l-9.6-3l-5.8,0.4v5.6L368.2,180.2z"/>
				<g>
					<path d="M371.4,178.2c-0.7-6.9-1.5-13.8-2.2-20.7c-1.2-10.9-2.3-21.8-3.5-32.7c-0.3-2.5-0.5-5-0.8-7.6c-0.5,2.8-1,5.6-1.5,8.5
						c0.8-0.9,1.6-1.8,2.5-2.7c0.5-0.6-0.5,0.4-0.1,0.1c0.2-0.2,0.4-0.3,0.5-0.5c0.4-0.4,0.9-0.8,1.3-1.1c0.7-0.6,1.5-1.1,2.4-1.4
						c-0.3,0.1-0.6,0.2-0.9,0.3c1.3-0.4,2.7-0.1,4,0.3c-0.3-0.1-0.6-0.2-0.9-0.3c2,0.6,4,1.5,5.8,2.6c-0.8-1.7-1.5-3.5-2.3-5.2
						c1,6.6,2.1,13.1,3.1,19.7c1.7,10.5,3.3,20.9,5,31.4c0.4,2.4,0.8,4.8,1.1,7.2c1.4-3.1,2.7-6.2,4.1-9.2c-2.8-0.9-5.7-1.8-8.5-2.7
						c-0.3-0.1-0.7-0.2-1-0.3c-0.9-0.3-1.2-0.2-2.1-0.2c-1.5,0.1-3,0.2-4.5,0.3c-2.9,0.2-3.3,5.6-3.3,7.5c0,1.9,0,3.7,0,5.6
						c0.8-2.4,1.6-4.8,2.4-7.2c-1.5,1-3.1,2-4.6,3c-1.1,0.7-1.7,2.3-2,3.4c-0.5,1.8-0.6,4-0.3,5.8c0.2,1.5,1.4,7,4.1,5.2
						c0.8-0.5,1.7-1.1,2.5-1.6c1.8-1.2,3.1-1.8,3.8-4.1c1.1-3.1,0.7-6.9,0.7-10.2c-1.1,2.5-2.2,5-3.3,7.5c1.9-0.1,3.8-0.3,5.8-0.4
						c-0.3-0.1-0.6-0.2-0.9-0.3c3.2,1,6.4,2,9.6,3c0.6,0.4,1.2,0.4,1.8,0c0.7-0.5,1.2-1.1,1.5-1.9c1-2.2,1.2-5,0.8-7.3
						c-1.3-8.4-2.7-16.8-4-25.2c-1.7-10.6-3.3-21.2-5-31.8c-0.4-2.3-0.5-5.3-2.7-6.7c-1.2-0.8-2.6-1.3-4-1.9c-1.8-0.7-4-1.6-5.9-1.3
						c-1.9,0.3-3.6,1.4-5,2.7c-1.5,1.3-2.9,2.7-4.2,4.2c-2.4,2.7-2.3,6.5-2,10c1.1,10.1,2.2,20.2,3.2,30.3c1,9.7,2.1,19.5,3.1,29.2
						c0,0.2,0,0.3,0.1,0.5c0.1,1.4,0.6,3.3,1.5,4.5c0.6,0.7,1.6,1.4,2.5,0.8C371.7,185.7,371.7,180.9,371.4,178.2z"/>
				</g>
			</g>
		</g>
		<g>
			<path d="M267.7,176.2l-28.2,34.9c0,0-6.9,13,3.1,19.9c10,6.9,20.7-11.2,20.7-11.2l16.6-33.3c1.1-2.1,1.7-4.5,1.9-6.9
				c0.2-3.5-0.6-7.7-5.7-7.8C272.9,171.8,269.9,173.5,267.7,176.2z"/>
			<g>
				<path d="M266.1,169.7c-6,7.5-12.1,15-18.1,22.4c-3.1,3.8-6.2,7.6-9.2,11.4c-2.8,3.5-4,8.4-4.6,12.7c-0.7,6,0,12.6,3.4,17.8
					c2.3,3.4,6.4,6.4,10.7,5.9c3.5-0.4,6.7-2.4,9.2-4.7c2.4-2.2,4.5-4.6,6.3-7.3c1.7-2.5,3-5.3,4.3-8c2.8-5.6,5.5-11.1,8.3-16.7
					c1.9-3.8,3.8-7.6,5.7-11.5c2.6-5.3,3.6-11.7,2.6-17.5c-0.6-3.2-1.5-6.7-4.3-8.7c-1.9-1.5-4.8-1.5-7-0.9
					C270.4,165.5,268.1,167.3,266.1,169.7c-0.9,1.1-1.3,3.1-1.5,4.5c-0.2,1.8-0.2,4,0.3,5.8c0.6,2,2.3,5.3,4.5,2.7
					c0.2-0.2,0.4-0.4,0.5-0.6c0.2-0.2,0.4-0.4,0.1-0.1c0.4-0.4,0.9-0.8,1.4-1.1c0.9-0.6,1.9-1.1,2.9-1.4c-0.3,0.1-0.6,0.2-0.9,0.3
					c1.5-0.4,3.1-0.5,4.6-0.1c-0.3-0.1-0.6-0.2-0.9-0.3c0.4,0.1,0.8,0.3,1.2,0.5c0.1,0.1,0.3,0.2,0.4,0.3c0.4,0.2-0.4-0.7-0.2-0.2
					c0.1,0.2,0.3,0.4,0.4,0.5c0.3,0.4-0.1,0.4-0.3-0.5c0,0.1,0.2,0.5,0.2,0.5c-0.1-0.3-0.2-0.7-0.3-1c0.1,0.2,0.1,0.3,0.1,0.5
					c0,0-0.3-1.9-0.2-1c0,0.2,0,0.4,0.1,0.5c0.1,1.1-0.1-2.2-0.1-0.6c0,1.6,0.2-1.7,0-0.3c0,0.1,0,0.3-0.1,0.4c-0.1,0.6-0.1,0.6,0,0
					c0.1-0.6,0.1-0.6,0,0c0,0.1-0.1,0.3-0.1,0.4c-0.3,1.1,0.1-0.1,0.1-0.2c0,0.3-0.3,0.7-0.4,1c-0.1,0.3-0.3,0.7-0.5,1
					c0,0.1-0.1,0.2-0.1,0.2c-0.2,0.4-0.4,0.8-0.6,1.2c-2,4-4,8.1-6,12.1c-2.4,4.9-4.8,9.7-7.2,14.6c-0.7,1.5-1.5,2.9-2.2,4.4
					c-0.1,0.3-0.3,0.5-0.4,0.8c-0.1,0.3,1-1.6,0.6-1c-0.1,0.2-0.2,0.4-0.4,0.6c-1.3,2.1-2.8,4-4.5,5.8c-0.3,0.3-0.6,0.6-0.9,0.9
					c-0.1,0.1-0.3,0.2-0.4,0.4c0.7-0.9,0.3-0.3,0-0.1c-0.6,0.6-1.3,1.1-2,1.6c-1.3,1-2.8,1.8-4.3,2.3c0.3-0.1,0.6-0.2,0.9-0.3
					c-1.6,0.5-3.3,0.6-4.9,0.1c0.3,0.1,0.6,0.2,0.9,0.3c-0.7-0.2-1.5-0.5-2.1-1c-0.4-0.2-0.7-0.5-1.1-0.7c-0.2-0.2-0.4-0.4-0.7-0.6
					c-0.4-0.3,0.5,0.5-0.1,0c-0.3-0.4-0.7-0.8-1-1.2c-0.1-0.2-0.2-0.3-0.3-0.5c-0.3-0.4-0.1-0.6,0.2,0.4c-0.1-0.4-0.4-0.7-0.5-1
					c-0.1-0.2-0.4-1.1,0,0c0.4,1.1,0.1,0.1,0-0.2c-0.4-1.3,0.3,1.9,0,0.3c-0.1-0.7,0-2,0,0.7c0-0.4,0-0.8,0-1.2
					c0-0.8-0.2,2.1-0.1,1.2c0-0.3,0-0.5,0.1-0.8c0-0.3,0.2-0.8,0.2-1.1c0-0.1-0.4,2-0.2,1.1c0-0.1,0.1-0.3,0.1-0.5
					c0.2-0.7,0.3-1.3,0.5-2c-0.5,1.8-0.3,0.8,0,0c0.1-0.4,0.3-0.7,0.5-1.1c0.6-1.3-0.5,0.8-0.4,0.6c0.7-0.6,1.3-1.6,1.9-2.4
					c6.7-8.3,13.4-16.5,20-24.8c2.1-2.5,4.1-5.1,6.2-7.6c0.9-1.2,1.3-3.1,1.5-4.5c0.2-1.8,0.2-4-0.3-5.8
					C270,170.4,268.2,167,266.1,169.7z"/>
			</g>
		</g>
		<g>
			<path d="M286.2,148.7c0,0-4.2,7.8,1.7,12.5c1.7,1.4,3.5,1.8,5.2,1.7c4.9-0.3,8.6-5.3,8.6-10.9c0-2.6-0.6-5.3-2.6-7.3
				C294.2,140.1,288.6,143.6,286.2,148.7z"/>
			<g>
				<path d="M283.8,143.4c-0.6,1.1-1,2.4-1.3,3.5c-0.9,3-1.2,6.1-1,9.2c0.2,3.6,1.1,7.4,3.3,10.2c1.9,2.4,4.8,4.2,8,4.1
					c6.1-0.2,9.8-5.9,11.2-11.2c1.2-4.5,1.1-9.3,0.2-13.8c-0.7-3.5-2.6-6.9-5.6-8.9c-2.6-1.7-5.6-1.8-8.4-0.4
					C287.3,137.6,285.3,140.5,283.8,143.4c-0.7,1.5-1,3.6-1,5.3c0,1.6,0.2,3.8,1,5.3c0.4,0.9,1.2,2.3,2.3,2.2
					c1.2-0.1,1.8-1.2,2.3-2.2c0.1-0.2,0.2-0.3,0.2-0.5c0.3-0.5,0.2-0.3-0.3,0.5c0.2-0.3,0.4-0.6,0.6-0.9c0.4-0.6,0.9-1.1,1.4-1.6
					c-0.3,0.3-0.5,0.5-0.8,0.8c1-1,2.2-1.7,3.5-2.2c-0.3,0.1-0.6,0.2-0.9,0.3c1.2-0.4,2.5-0.4,3.7,0c-0.3-0.1-0.6-0.2-0.9-0.3
					c1.2,0.4,2.2,1.1,3.1,1.9c-0.3-0.3-0.5-0.5-0.8-0.8c0.3,0.3,0.5,0.5,0.7,0.8c0.1,0.2,0.8,1.2,0.3,0.3c-0.5-0.9,0.1,0.2,0.1,0.4
					c0.2,0.6,0.1,0.3-0.2-0.7c0.1,0.2,0.1,0.3,0.1,0.5c0.2,0.6,0,1.4-0.1-0.7c0,0.4,0.1,0.7,0.1,1.1c-0.1-1.5-0.1-1.9-0.1-1.2
					c0,0.1,0,0.2,0,0.3c0,1.7,0.2-1.8,0.1-0.7c0,0.3-0.3,1.6,0,0.1c0.3-1.4,0-0.2-0.1,0.1c-0.4,1.4,0.5-1.2,0.1-0.3
					c-0.1,0.2-0.2,0.5-0.3,0.7c-0.2,0.5-0.9,1.2,0.1-0.1c-0.1,0.2-0.3,0.4-0.4,0.6c-0.4,0.5-0.8,1-1.2,1.5c0.3-0.3,0.5-0.5,0.8-0.8
					c-1,0.9-2.1,1.6-3.3,2c0.3-0.1,0.6-0.2,0.9-0.3c-1.5,0.5-3,0.5-4.5,0c0.3,0.1,0.6,0.2,0.9,0.3c-1.2-0.4-2.2-1-3.1-1.9
					c0.3,0.3,0.5,0.5,0.8,0.8c-0.2-0.2-1.5-1.5-1.4-1.7c0,0,0.6,1.2,0.3,0.6c-0.1-0.2-0.1-0.3-0.2-0.5c-0.1-0.2-0.3-0.9,0.1,0.2
					c0.4,1.1,0.2,0.4,0.1,0.1c-0.2-0.8,0.2,1.3,0.2,1.2c0-0.2,0-0.3-0.1-0.5c-0.2-1.2,0.1,2.3,0.1,0.9c0-1.4-0.2,2-0.1,0.9
					c0-0.3,0.1-0.6,0.1-0.8c0.1-0.8-0.5,2.1-0.2,0.9c0.1-0.2,0.1-0.5,0.2-0.7c0-0.1,0.1-0.2,0.1-0.4c0.2-0.7-0.5,1.3-0.4,1.1
					c0.1-0.2,0.1-0.4,0.2-0.5c0.1-0.4,0.3-0.7,0.5-1.1c0.8-1.5,1-3.7,1-5.3c0-1.6-0.2-3.8-1-5.3c-0.4-0.9-1.2-2.3-2.3-2.2
					C284.9,141.4,284.4,142.4,283.8,143.4z"/>
			</g>
		</g>
	</g>
</g>
</svg>
