<?xml version="1.0" encoding="utf-8"?>
<!-- Generator: Adobe Illustrator 24.0.1, SVG Export Plug-In . SVG Version: 6.00 Build 0)  -->
<svg version="1.1" id="Capa_1" xmlns="http://www.w3.org/2000/svg" xmlns:xlink="http://www.w3.org/1999/xlink" x="0px" y="0px"
	 viewBox="0 0 512 512" style="enable-background:new 0 0 512 512;" xml:space="preserve">
<style type="text/css">
	.st0{fill:#FFC84D;}
	.st1{fill:#0A0A0A;}
	.st2{fill:#90CED3;}
</style>
<g>
	<g>
		<path class="st0" d="M496.7,285.5c-24.8,61.6-52.5,86-52.5,86s-7.6,155-112.6,131.7c0,0-95-32.3-126.4-192.6c0,0,0,0,0,0
			c-17.1-76.2-50-259.7,17.6-299c0,0,65.9-32.9,138.3,61.4c33.3,7.3,108.1,30.2,127.9,91.5C489,164.5,521.5,223.9,496.7,285.5z"/>
		<g>
			<path d="M492.8,276.7c-3.8,9.3-7.8,18.4-12.3,27.4c-2,3.9-4,7.7-6.1,11.5c-0.3,0.5-0.6,1.1-0.9,1.6c-0.1,0.2-0.9,1.6-0.3,0.6
				c0.6-1-0.2,0.3-0.3,0.5c-0.2,0.4-0.5,0.8-0.7,1.2c-1,1.7-2,3.4-3.1,5.2c-5.8,9.5-12.2,18.8-19.5,27.3c-1.9,2.3-3.9,4.5-6,6.6
				c-0.3,0.3-0.6,0.6-0.9,0.9c-1.2,1.2,1.3-1.2,0.5-0.5c-0.2,0.2-0.4,0.3-0.5,0.5c-3.4,3.2-3.8,7.8-4,12.3c0-0.3,0.3-4.6,0.1-2.3
				c-0.1,1.4-0.2,2.8-0.3,4.1c-0.5,5.1-1.1,10.2-1.9,15.3c-0.3,1.7-0.5,3.3-0.8,5c-0.2,0.9-0.3,1.8-0.5,2.6c-0.4,2,0.6-3.4,0.3-1.4
				c-0.1,0.5-0.2,1-0.3,1.5c-0.8,4-1.6,7.9-2.6,11.8c-1,4.2-2.1,8.3-3.4,12.4c-0.6,2.1-1.3,4.3-2,6.4c-0.1,0.3,1-2.8,0.2-0.6
				c-0.2,0.6-0.4,1.1-0.6,1.7c-0.4,1.1-0.8,2.1-1.2,3.2c-1.6,4.3-3.4,8.6-5.4,12.8c-1,2.2-2.1,4.3-3.2,6.4c-0.4,0.8-2.4,4-0.7,1.3
				c-0.6,1-1.2,2.1-1.9,3.2c-2.4,3.9-5,7.7-7.9,11.3c-1.4,1.8-2.9,3.5-4.5,5.2c-0.7,0.8-1.5,1.6-2.2,2.3c-0.7,0.7-1,1.2-0.1,0.1
				c-0.4,0.5-1,0.9-1.5,1.4c-6.8,6.2-14.8,11.1-23.4,14.2c-0.5,0.2-1.1,0.4-1.6,0.5c-1.5,0.5,0.4-0.1-0.6,0.2
				c-1.2,0.3-2.5,0.7-3.7,1c-2.4,0.6-4.9,1-7.4,1.3c-5.4,0.7-10.8,0.7-16.2,0.3c-3.1-0.2-6.1-0.7-9.1-1.2c-0.7-0.1-1.4-0.3-2.2-0.4
				c-0.4-0.1-0.7-0.2-1.1-0.2c-0.4-0.1-1.3,0.1-0.4,0c0.5,0,0.6,0.2,0.4,0.1c-0.5-0.2-1-0.4-1.5-0.6c-7.7-3.1-15-7.5-21.9-12.1
				c-6.1-4.2-12-8.7-17.5-13.6c-1.6-1.4-3.2-2.9-4.8-4.4c-0.4-0.3-0.7-0.8-1.1-1.1c1.7,1.1,0.3,0.2-0.3-0.3
				c-0.8-0.8-1.7-1.6-2.5-2.4c-3.5-3.5-6.8-7.1-10-10.9c-7.5-8.7-14.3-17.9-20.5-27.6c-1.7-2.7-3.4-5.4-5-8.1
				c-0.4-0.7-0.8-1.3-1.2-2c-0.3-0.5-1.1-1.6,0.1,0.2c-0.2-0.3-0.4-0.7-0.6-1c-0.8-1.5-1.6-2.9-2.4-4.4c-3.4-6.3-6.6-12.8-9.5-19.3
				c-3.1-7-6-14.2-8.7-21.4c-0.7-1.8-1.3-3.6-1.9-5.4c-0.2-0.5-0.3-0.9-0.5-1.4c0.7,2.3,0.3,1,0.2,0.5c-0.4-1.2-0.8-2.3-1.2-3.5
				c-1.3-4.1-2.6-8.2-3.8-12.3c-4.2-14.7-7.3-29.6-10.5-44.6c-2.3-10.7-4.4-21.4-6.5-32.1c-0.4-2,0.5,2.6,0.2,1.2
				c-0.1-0.3-0.1-0.7-0.2-1c-0.1-0.7-0.3-1.4-0.4-2.1c-0.3-1.6-0.6-3.2-0.9-4.8c-0.5-3.1-1.1-6.2-1.6-9.3
				c-1.1-6.4-2.1-12.9-3.1-19.3c-2-13.6-3.8-27.3-5.2-41c-0.7-6.9-1.3-13.9-1.8-20.8c-0.1-1.6-0.2-3.3-0.3-4.9
				c-0.2-3.1,0.1,2.3,0,0.3c-0.1-1-0.1-2-0.2-3.1c-0.2-3.4-0.3-6.9-0.4-10.3c-0.2-6.8-0.3-13.6-0.3-20.4c0-3.3,0.1-6.7,0.2-10
				c0.1-1.5,0.1-3.1,0.2-4.6c0-0.8,0.1-1.5,0.1-2.3c0.2-3.2-0.2,3,0-0.1c0.4-6.3,1-12.6,1.8-18.8c0.4-3,0.8-6,1.3-9
				c0.1-0.7,0.2-1.4,0.4-2.1c0.4-2-0.5,2.6-0.2,1.2c0.1-0.3,0.1-0.7,0.2-1c0.3-1.4,0.6-2.9,0.9-4.3c1.2-5.5,2.7-11,4.5-16.4
				c0.4-1.2-0.8,2.3-0.4,1.2c0.1-0.3,0.2-0.6,0.3-0.9c0.2-0.6,0.4-1.2,0.6-1.8c0.5-1.3,1-2.6,1.5-3.9c1-2.3,2-4.6,3.2-6.9
				c0.6-1.1,1.1-2.2,1.7-3.3c0.7-1.2-1.2,1.9,0,0.1c0.3-0.5,0.7-1.1,1-1.6c1.2-2,2.6-3.9,4-5.8c1.4-1.8,2.9-3.6,4.4-5.2
				c0.4-0.4,0.8-0.9,1.2-1.3c1.2-1.2-0.6,0.5,0.1-0.1c0.9-0.8,1.8-1.6,2.7-2.3c3.1-2.6,6.3-4.8,10.1-6.2c0.9-0.3,1.7-0.6,2.6-0.9
				c0.8-0.3-1.7,0.5-0.6,0.2c0.3-0.1,0.5-0.1,0.8-0.2c0.6-0.2,1.2-0.3,1.9-0.5c2.9-0.7,5.8-1.3,8.8-1.7c8.2-1.1,16.5-0.9,24.7,0.2
				c2.5,0.4,5,0.8,7.4,1.4c1.3,0.3,2.6,0.6,3.9,1c0.6,0.2,1.2,0.3,1.9,0.5c0.3,0.1,0.6,0.2,0.9,0.3c0.4,0.1,0.3,0.1-0.3-0.1
				c0.2,0.1,0.5,0.1,0.7,0.2c5.8,1.9,11.5,4.2,17,7c13.8,7,26.4,16.4,37.6,27.1c0.3,0.3,1.2,1.1,1.9,1.8c0.8,0.8,1.6,1.6,2.3,2.4
				c1.8,1.8,3.6,3.7,5.3,5.6c3.5,3.8,6.8,7.7,10.1,11.8c0.8,1,1.6,2,2.4,3c0.9,1.1,1.9,2.9,3.1,3.6c1.2,0.7,2.9,0.8,4.3,1.1
				c2.2,0.5,4.3,1,6.5,1.6c2.4,0.6,4.8,1.2,7.1,1.9c1.2,0.3,2.4,0.7,3.6,1c0.6,0.2,1.2,0.4,1.8,0.5c-1.3-0.4,0.9,0.3,1.3,0.4
				c5.6,1.8,11.2,3.7,16.6,5.9c12.1,4.7,23.9,10.4,35,17.3c5.9,3.7,11.5,7.7,16.8,12.1c1.2,1,2.5,2.1,3.7,3.2
				c0.6,0.5,1.2,1.1,1.8,1.6c0.4,0.3,0.7,0.7,1.1,1c-0.7-0.7-0.2-0.2,0.2,0.2c2.5,2.4,4.8,4.9,7.1,7.5c2.3,2.6,4.4,5.4,6.4,8.2
				c1,1.4,2,2.9,2.9,4.4c0.4,0.7,0.9,1.4,1.3,2.1c0.2,0.4,0.4,0.7,0.6,1.1c0.8,1.4-0.5-1,0-0.1c1.6,3.2,3.3,6.3,4.7,9.6
				c0.7,1.7,1.3,3.4,2,5.1c0.2,0.6,0.7,1.8-0.2-0.7c0.4,1,0.6,2.1,1.1,3.2c0,0,0,0.1,0,0.1c2.9,6.1,5.4,12.2,7.8,18.6
				c0,0-0.9-2.6-0.4-1.1c0.1,0.3,0.2,0.7,0.3,1c0.2,0.7,0.4,1.4,0.7,2.1c0.5,1.6,1,3.3,1.5,4.9c1,3.4,1.8,6.8,2.6,10.3
				c0.2,0.9,0.4,1.7,0.5,2.6c0.1,0.4,0.1,0.9,0.3,1.3c-0.8-3-0.3-1.7-0.2-1c0.4,2.1,0.7,4.1,1,6.2c0.3,1.9,0.5,3.8,0.7,5.8
				c0.1,1,0.2,2,0.3,3c0,0.5,0.1,1,0.1,1.5c0,0.5,0.1,1,0.1,1.5c0-0.6-0.1-1.2-0.1-1.8c0,4.3,0.3,8.6,0.1,12.9c0,0.5,0,1.1-0.1,1.6
				c0,0.5,0.1,2.3,0,0.4c-0.1-1.9,0-0.2,0,0.4c0,0.5-0.1,1.1-0.1,1.6c-0.2,2.4-0.5,4.7-0.8,7c-0.2,1.1-0.3,2.2-0.5,3.4
				c-0.1,0.4-0.4,1.3-0.3,1.7c-0.1-0.3,0.5-2.6,0.1-0.4c-0.5,2.3-1,4.6-1.6,6.8c-0.6,2.3-1.3,4.6-2,6.9c-0.8,2.8,0.4-1.2-0.2,0.5
				c-0.2,0.6-0.4,1.2-0.6,1.7C493.8,274.1,493.3,275.4,492.8,276.7c-2.1,5.2-2.6,12.5,0,17.7c0.8,1.5,1.9,3.7,3.9,3.7
				c1.9,0,3.3-2.2,3.9-3.7c11.3-28.3,13.6-59.7,8.2-89.6c-3-16.5-7.6-33.1-15.2-48.1c-0.1-0.2-0.4-1-0.5-1c0,0,0-0.1,0-0.1
				c0,0,0.9,2.7,0.6,1.6c-0.3-1-0.6-1.9-1-2.8c-0.5-1.3-0.9-2.6-1.4-4c-2.1-5.4-4.7-10.6-7.7-15.6c-5.2-8.9-11.7-17-19.1-24.2
				c-14.8-14.3-32.3-25.1-51.1-33.4c-15.3-6.8-31.4-11.9-47.7-15.8c-1.5-0.3-3-0.7-4.4-1c0.9,0.6,1.9,1.1,2.8,1.7
				c-16.4-21.3-36-41.2-59.8-54.3c-14.9-8.2-31.7-13.6-48.8-14.3c-10.1-0.4-20.1,1-29.7,4.2c-8,2.7-14.5,8.7-19.9,15
				c-10.9,12.6-17.2,29-21.3,45c-5.1,19.9-7.1,40.5-7.7,60.9c-0.7,21.8,0.4,43.6,2.3,65.2c1.8,20.7,4.5,41.2,7.8,61.7
				c3,18.7,6.5,37.3,10.4,55.8c4.6,22.1,9.3,44.2,16.4,65.7c7.5,22.5,16.8,44.2,28.9,64.6c8.8,14.9,19,29,30.8,41.7
				c9,9.7,18.8,18.7,29.5,26.4c6.5,4.7,13.3,9,20.5,12.5c4.6,2.3,8.7,3.6,13.8,4.5c16,2.7,32.6,1.2,47.4-5.9
				c13-6.3,23.7-16.7,31.9-28.4c8.4-12,14.7-25.5,19.4-39.4c4.6-13.5,8-27.3,10.5-41.3c1.4-7.8,2.5-15.8,3.1-23.7
				c0.2-2.2,0.3-4.4,0.4-6.5c-1.3,4-2.7,8-4,12.1c4.5-4,8.4-8.6,12.2-13.2c10.1-12.5,18.5-26.2,26.1-40.3
				c6.2-11.6,11.7-23.5,16.6-35.7c2.1-5.2,2.6-12.5,0-17.7c-0.8-1.5-1.9-3.7-3.9-3.7C494.8,273,493.4,275.2,492.8,276.7z"/>
		</g>
	</g>
	<g>
		<g>
			<path class="st1" d="M383.2,105.1c-8.1-14.1-16.9-27.7-26.8-40.6c-2-2.6-4,0.7-4.5,2.7c-0.7,3.1-0.9,7.6,1.2,10.3
				c9.9,12.9,18.7,26.5,26.8,40.6c0.5,0.9,1.7,1.2,2.5,0.8c1.1-0.6,1.7-2.4,2-3.4C385.3,111.9,385,108.2,383.2,105.1L383.2,105.1z"
				/>
		</g>
	</g>
	<g>
		<path class="st2" d="M328.5,145.5c0,0-36.5,27.1,4.1,95.3c0,0,41.5,49,66.8,7.6c25.3-41.4-7.3-84.5-7.3-84.5
			S363.7,120.9,328.5,145.5z"/>
		<g>
			<path d="M327.6,138.2c-3.2,2.4-5.9,5.9-8.1,9.2c-6.3,9.9-9,21.3-9.4,32.9c-0.7,18.2,5,36.4,12.9,52.5c1.3,2.6,2.6,5.2,4,7.7
				c1.2,2.2,2.3,4.6,3.8,6.7c0.4,0.6,0.9,1.1,1.4,1.6c2.9,3.1,6,6,9.2,8.8c8.7,7.4,19.7,14.4,31.5,14.9
				c17.3,0.6,28.6-15.3,34.1-29.9c7.4-19.6,6.2-41-0.7-60.5c-3.1-8.8-7.4-17.2-12.8-24.7c-4.4-6.2-9.7-11.8-15.7-16.5
				c-5.2-4.1-11.1-7.2-17.5-9.1c-7.2-2.1-14.5-1.7-21.5,0.6C334.9,133.7,331.1,135.8,327.6,138.2c-2.6,1.8-2.7,6.5-2.3,9.2
				c0.2,1.5,0.5,3.3,1.5,4.5c0.6,0.7,1.6,1.4,2.5,0.8c3.7-2.6,7.7-4.7,12-6c-0.3,0.1-0.6,0.2-0.9,0.3c6.7-2.1,13.8-2,20.5,0
				c-0.3-0.1-0.6-0.2-0.9-0.3c4.9,1.5,9.5,3.9,13.8,6.9c1.9,1.4,3.8,2.8,5.6,4.4c0.4,0.4,0.8,0.7,1.2,1.1c0.2,0.2,0.4,0.3,0.6,0.5
				c0.7,0.6-0.7-0.7,0.1,0.1c0.7,0.7,1.4,1.4,2.1,2.2c2.7,2.8,5.1,5.8,7.3,9c0.6,0.8,1.2,1.7,1.7,2.6c0.4,0.7,0.8,1.3,1.2,2
				c0.2,0.4,0.4,0.7,0.6,1.1c0.1,0.2,0.3,0.4,0.4,0.7c0.6,0.9-0.6-1-0.2-0.3c2.5,4.4,4.6,9,6.4,13.7c0.2,0.6,0.5,1.3,0.7,1.9
				c0.1,0.2,0.6,1.7,0.2,0.5c-0.4-1.1,0.1,0.2,0.2,0.5c0.5,1.5,0.9,3,1.3,4.5c0.4,1.6,0.8,3.3,1.2,4.9c0.1,0.4,0.1,0.8,0.2,1.1
				c0.1,0.7-0.2-1.1-0.2-1c0,0.2,0.1,0.4,0.1,0.7c0.2,0.9,0.3,1.8,0.4,2.7c0.1,0.8,0.2,1.6,0.3,2.4c0.1,0.8,0.4,2,0.2,2.8
				c0,0-0.1-2.1-0.1-0.9c0,0.2,0,0.4,0,0.5c0,0.4,0,0.8,0,1.2c0,1,0,1.9,0,2.9c0,0.8-0.1,1.7-0.1,2.5c0.1-2.6,0-0.8,0-0.2
				c0,0.5-0.1,1-0.1,1.5c-0.1,0.9-0.2,1.9-0.3,2.8c-0.1,0.4-0.1,0.9-0.2,1.3c0,0.2-0.1,0.5-0.1,0.7c0.1-0.2,0.3-1.6,0.1-0.7
				c-0.4,2-0.9,3.9-1.4,5.9c-0.1,0.4-0.3,0.9-0.4,1.3c-0.1,0.3-0.4,1.1,0.1-0.4c-0.1,0.2-0.1,0.4-0.2,0.6c-0.4,1-0.8,2-1.2,3.1
				c-0.8,2-1.7,3.9-2.7,5.7c-0.2,0.4-0.5,0.9-0.7,1.3c0.6-1-0.3,0.5-0.4,0.7c-0.5,0.8-1,1.6-1.5,2.4c-1,1.5-2,2.9-3.2,4.2
				c-0.5,0.6-1,1.1-1.5,1.6c-0.2,0.3-0.5,0.5-0.7,0.8c-0.4,0.4,0.6-0.5,0.1-0.1c-0.2,0.2-0.4,0.3-0.5,0.5c-2,1.8-4.2,3.3-6.7,4.5
				c-1.1,0.5-2.3,1-3.4,1.3c0.3-0.1,0.6-0.2,0.9-0.3c-5.5,1.6-11.3,1.2-16.8-0.5c0.3,0.1,0.6,0.2,0.9,0.3c-9.6-3-18.1-9.2-25.4-16
				c-0.2-0.2-0.3-0.3-0.5-0.5c-0.2-0.1-0.9-0.8-0.2-0.2c0.6,0.6,0,0-0.1-0.1c-0.2-0.2-0.3-0.3-0.5-0.5c-0.6-0.6-1.1-1.1-1.7-1.7
				c-0.7-0.8-1.5-1.6-2.2-2.4c-0.2-0.2-0.3-0.3-0.5-0.5c-0.1-0.1-0.1-0.2-0.2-0.3c-0.4-0.5-0.7-1.1-1-1.7c-0.2-0.3-0.3-0.6-0.5-0.8
				c-0.2-0.3-0.2-0.3,0.1,0.1c-0.1-0.1-0.2-0.3-0.2-0.4c-2.5-4.4-4.8-9-6.9-13.6c-0.9-2.1-1.8-4.2-2.7-6.3c-0.4-1-0.8-2-1.2-3.1
				c-0.2-0.5-0.3-0.9-0.5-1.4c-0.1-0.2-0.3-1,0-0.1c0.3,1,0-0.1-0.1-0.3c-1.2-3.7-2.2-7.4-3-11.2c-0.1-0.4-0.2-0.8-0.3-1.2
				c-0.3-1.7,0.3,1.6,0,0.1c-0.1-0.8-0.3-1.7-0.4-2.5c-0.2-1.6-0.4-3.2-0.6-4.9c0-0.4-0.1-0.7-0.1-1.1c-0.1-1.7,0.1,2,0,0.5
				c0-0.7-0.1-1.5-0.1-2.2c0-1.4,0-2.9,0.1-4.3c0.1-1.5-0.1,1.9,0,0.8c0-0.4,0.1-0.7,0.1-1.1c0.1-0.7,0.1-1.3,0.2-2
				c0.1-1.2,0.3-2.5,0.6-3.7c-0.5,2.9-0.1,0.5,0.1-0.2c0.1-0.6,0.3-1.1,0.4-1.7c0.3-1.1,0.6-2.1,0.9-3.2c0-0.1,0.1-0.2,0.1-0.4
				c0.2-0.8-0.4,1.1-0.3,1c0.1-0.2,0.2-0.5,0.3-0.8c0.2-0.5,0.4-1,0.5-1.4c0.4-0.9,0.7-1.8,1.1-2.7c0.4-0.8,0.8-1.6,1.2-2.4
				c0.1-0.2,0.2-0.4,0.3-0.5c0.5-0.9-0.7,1.2-0.3,0.5c0.2-0.3,0.4-0.7,0.6-1c1.4-2.2,2.9-4.3,4.7-6.2c0.3-0.3,0.6-0.7,0.9-1
				c0.4-0.4,0.7-0.6-0.3,0.3c0.1-0.1,0.2-0.2,0.4-0.3c0.3-0.3,0.7-0.6,1-0.8c0,0,0.1-0.1,0.1-0.1c2.5-1.9,2.7-6.4,2.3-9.2
				C331.5,142.2,330.1,136.4,327.6,138.2z"/>
		</g>
	</g>
	<g>
		<path class="st2" d="M349.8,355.7c-4.6,26.7-20.5,38.8-26.9,42.6c-4.8-10.2-9.3-20.5-13.5-30.9l0,0l-26.2-78.4l0-0.1
			c-2.6-9.1-5.4-17.9-8.1-26.3c20.8-6.3,41.9,10.8,55.8,26.3C346.7,306.3,354.1,331.3,349.8,355.7z"/>
		<g>
			<path d="M346.6,353.7c-0.2,1.2,0.1-0.4,0.1-0.5c-0.1,0.3-0.1,0.7-0.2,1c-0.1,0.6-0.3,1.2-0.4,1.8c-0.3,1.2-0.6,2.4-0.9,3.5
				c-0.3,1.1-0.6,2.1-1,3.2c-0.3,0.8,0.5-1.5,0.1-0.3c-0.1,0.2-0.2,0.5-0.3,0.7c-0.2,0.6-0.4,1.1-0.7,1.7c-0.8,1.9-1.6,3.7-2.5,5.6
				c-0.2,0.4-0.5,0.9-0.7,1.3c-0.1,0.2-0.2,0.4-0.3,0.6c-0.4,0.8,0.1-0.3,0.2-0.3c-0.6,0.8-1,1.7-1.5,2.5c-1.8,2.8-3.8,5.4-6,7.9
				c-0.5,0.5-1,1-1.4,1.5c-0.3,0.3-0.5,0.5-0.8,0.8c-0.8,0.8,0.6-0.5-0.2,0.2c-0.9,0.8-1.8,1.7-2.8,2.4c-1.7,1.4-3.4,2.6-5.3,3.7
				c1.1,0.6,2.1,1.3,3.2,1.9c-4.2-9-8.3-18.1-12-27.3c-0.5-1.1-0.9-2.3-1.4-3.4c-0.5-1,0.6,1.7,0.4,1.2c0-0.1-0.1-0.3-0.1-0.4
				c-0.2-0.7-0.4-1.3-0.7-2c-2.2-6.6-4.4-13.2-6.6-19.8c-3.1-9.4-6.3-18.8-9.4-28.2c-2.5-7.6-5.1-15.1-7.6-22.7
				c-2.8-8.3-5.1-16.7-7.7-25c-0.7-2.2-1.4-4.4-2.1-6.6c-0.9,3.8-1.9,7.5-2.8,11.3c6.5-1.9,13.3-1.6,19.7,0.3
				c-0.3-0.1-0.6-0.2-0.9-0.3c7.1,2.2,13.6,6,19.5,10.5c3.1,2.3,6,4.9,8.8,7.5c0.6,0.5-0.2-0.2,0.4,0.4c0.3,0.3,0.7,0.7,1,1
				c0.7,0.7,1.3,1.3,2,2c1.3,1.3,2.5,2.7,3.8,4c2.4,2.7,4.7,5.6,6.7,8.6c0.5,0.7,0.9,1.4,1.4,2.2c0.2,0.4,0.5,0.8,0.7,1.2
				c0.1,0.2,0.2,0.3,0.3,0.5c0.4,0.6-0.6-1.1,0,0c0.9,1.6,1.7,3.2,2.5,4.8c0.8,1.7,1.5,3.4,2.2,5.1c0.3,0.8,0.6,1.6,0.9,2.4
				c0.4,1.1-0.4-1.1,0,0c0.2,0.5,0.3,1,0.5,1.5c0.6,1.8,1,3.6,1.5,5.4c0.2,0.9,0.4,1.7,0.6,2.6c0.3,1.5-0.2-1.2,0,0
				c0.1,0.5,0.2,0.9,0.2,1.4c0.3,2.1,0.6,4.2,0.7,6.3c0,0.3,0,0.5,0.1,0.8c0.1,1.1,0-0.6,0-0.8c0.2,0.4,0.1,1.2,0.1,1.6
				c0,1,0,2,0,3.1c0,1.1,0,2.2-0.1,3.3c0,0.2,0,0.5,0,0.6c0.1-0.2,0.1-1.8,0-0.8c0,0.5-0.1,1.1-0.1,1.6
				C347.3,349.3,347,351.5,346.6,353.7c-0.3,1.8-0.1,4,0.3,5.8c0.3,1.1,0.9,2.8,2,3.4c2.8,1.6,3.8-3.8,4.1-5.2
				c3.4-19.9,0.3-41.4-9.3-59.2c-4.5-8.3-10.2-15.5-16.9-22.1c-6.7-6.7-14.1-12.9-22.6-17.2c-9-4.6-19.3-7-29.2-4.1
				c-1.8,0.5-2.4,2-2.8,3.7c-0.6,2.3-0.8,5.3,0,7.6c3.2,9.9,6,20,9.3,29.9c2.4,7.1,4.7,14.1,7.1,21.2c3.2,9.4,6.3,18.9,9.5,28.3
				c2.4,7.2,4.8,14.4,7.2,21.6c3.4,10.2,7.8,19.9,12.3,29.7c1,2.2,2,4.4,3.1,6.6c0.6,1.2,1.7,2.9,3.2,1.9c11-6.7,19.2-17.6,24-29.4
				c2.4-6,4-12.1,5.2-18.5c0.3-1.8,0.1-4.1-0.3-5.8c-0.3-1.1-0.9-2.8-2-3.4C347.9,346.9,346.9,352.2,346.6,353.7z"/>
		</g>
	</g>
	<g>
		<path class="st2" d="M236.4,151.5c2.5-40.8-2.1-63-2.1-63c-2.8-21-6.6-38.1-11-51.8c26.1-6.1,39.9,11,47.1,27.6
			c7.6,17.7,8.2,38.2,1.4,56.3C260.8,149.3,239.2,151.3,236.4,151.5z"/>
		<g>
			<path d="M239.6,153.5c1.1-18.7,1.3-37.5-0.6-56.2c-0.4-3.4-0.8-6.7-1.4-10c-0.1-0.8-0.3-1.6-0.5-2.5c-0.1-0.6,0.3,0.9,0.2,1.2
				c0.1-0.6-0.2-1.3-0.3-1.9c-0.1-0.9-0.2-1.7-0.4-2.6c-0.9-6-1.9-11.9-3-17.8c-2-10.4-4.4-20.7-7.6-30.7c-0.9,3.8-1.9,7.5-2.8,11.3
				c6.8-1.6,13.9-1.8,20.6,0.2c-0.3-0.1-0.6-0.2-0.9-0.3c3.9,1.2,7.5,3.1,10.8,5.6c0.8,0.6,1.5,1.2,2.2,1.8c0.1,0.1,0.3,0.3,0.4,0.4
				c0.8,0.7-0.6-0.7,0.1,0.1c0.4,0.4,0.7,0.7,1.1,1.1c1.4,1.5,2.7,3,3.9,4.6c1.2,1.6,2.2,3.2,3.2,4.9c0.1,0.2,0.2,0.4,0.4,0.6
				c-0.7-1.2-0.4-0.7-0.2-0.4c0.2,0.4,0.5,0.9,0.7,1.3c0.5,0.9,0.9,1.8,1.3,2.7c1,2.2,2,4.4,2.8,6.7c0.1,0.3,0.2,0.6,0.3,0.8
				c-0.7-1.2-0.2-0.6,0-0.1c0.2,0.6,0.4,1.2,0.6,1.9c0.4,1.5,0.8,2.9,1.2,4.4c0.1,0.6,0.3,1.3,0.4,1.9c0,0.2,0.2,1.6,0.1,0.4
				c-0.2-1.2,0,0.2,0.1,0.4c0.2,1.4,0.4,2.9,0.6,4.3c0.1,0.7,0.2,1.4,0.2,2.2c0,0.3,0,0.6,0.1,0.9c0.1,1.5-0.1-1.5,0-0.5
				c0.1,1.5,0.1,3.1,0.1,4.6c0,0.7,0,1.3,0,2c0,0.6-0.3,2.8,0,0.4c-0.2,1.4-0.2,2.9-0.4,4.3c-0.1,0.7-0.2,1.4-0.3,2.2
				c0,0.3-0.1,0.6-0.1,0.9c-0.1,0.6-0.6,1.7,0-0.1c-0.5,1.3-0.6,2.9-0.9,4.3c-0.3,1.3-0.7,2.5-1.1,3.8c-0.1,0.4-0.2,0.9-0.4,1.3
				c0.1-0.1,0.5-1.3,0.1-0.3c-0.3,0.8-0.5,1.5-0.8,2.2c-0.9,2.4-2,4.8-3.2,7.1c-0.1,0.3-0.3,0.5-0.4,0.8c-0.4,0.7,0.7-1.1,0-0.1
				c-0.3,0.5-0.6,1-0.9,1.5c-0.6,1-1.2,1.9-1.9,2.8c-1.2,1.6-2.5,3.2-3.9,4.7c-0.4,0.4-0.7,0.8-1.1,1.1c-0.5,0.5,0.1-0.1,0.2-0.2
				c-0.2,0.2-0.5,0.5-0.7,0.7c-0.7,0.7-1.5,1.3-2.3,1.9c-1.4,1.1-2.9,2.1-4.5,3c-2.5,1.5-5.3,2.7-8.1,3.6c0.3-0.1,0.6-0.2,0.9-0.3
				c-2.2,0.7-4.5,1.2-6.8,1.3c-1.2,0.1-1.9,1.3-2.3,2.2c-0.7,1.6-1,3.6-1,5.3c0,1.8,0.2,3.7,1,5.3c0.4,0.9,1.1,2.3,2.3,2.2
				c5.2-0.3,10.6-2.2,15.1-4.8c10.1-5.7,17.3-15.6,21.7-26.2c6.9-16.5,8.1-35,4.6-52.5c-1.4-7.2-3.9-14.3-7.2-20.9
				c-2.6-5.1-5.6-10-9.6-14.2c-3.9-4.2-8.5-7.7-13.8-9.9c-5.9-2.4-12.2-3.1-18.5-2.4c-1.8,0.2-3.7,0.6-5.5,1
				c-1.8,0.4-2.4,2.1-2.8,3.7c-0.6,2.3-0.7,5.3,0,7.6c2.8,8.6,5,17.5,6.8,26.4c0.3,1.2,0.5,2.5,0.7,3.7c0.1,0.3,0.1,0.6,0.2,0.8
				c0.2,1.2-0.1-0.4-0.1-0.5c0.1,0.7,0.3,1.4,0.4,2.1c0.5,2.7,0.9,5.5,1.4,8.2c0.6,3.8,1,7.5,1.7,11.3c0.2,1.1-0.3-1.7-0.2-1.3
				c0,0.2,0.1,0.4,0.1,0.6c0.1,0.6,0.2,1.2,0.3,1.8c0.3,1.9,0.5,3.7,0.7,5.6c0.3,2.8,0.6,5.5,0.8,8.3c0.1,0.8,0.1,1.5,0.2,2.3
				c0,0.4,0.1,0.9,0.1,1.3c0,0.6,0.1,1.6-0.1-1c0,0.3,0,0.5,0,0.7c0.1,2,0.2,4,0.3,5.9c0.2,5.2,0.2,10.3,0.2,15.5
				c0,2.9-0.1,5.8-0.2,8.7c-0.1,1.5-0.1,3.1-0.2,4.6c0,0.9-0.1,1.8-0.1,2.6c0,0.3,0,0.6-0.1,1c-0.1,2,0.1-1.4,0,0.2
				c-0.1,2-0.2,3.9,0.3,5.8c0.3,1.1,0.9,2.8,2,3.4C238.2,160.2,239.5,155,239.6,153.5z"/>
		</g>
	</g>
	<g>
		<path class="st2" d="M396.5,85.9c0,0-6.9,40.2,27.7,55.8s44.5-11.1,44.5-11.1S433.5,98.8,396.5,85.9z"/>
		<g>
			<path d="M393.3,83.9c-0.9,5.4-0.8,10.9-0.4,16.3c0.6,10.4,3.5,20.7,8.8,29.6c6.7,11.3,17.8,18.5,30.2,22.2
				c9.7,2.9,20.6,2.9,29-3.3c4.3-3.2,8-7.7,10.1-12.7c0-0.1,0.1-0.2,0.1-0.2c1.4-3.7,1.8-9.6-1.5-12.5c-4.5-4.1-9.3-7.8-14.2-11.5
				c-10.9-8.3-22.3-15.9-34.3-22.4c-7.7-4.2-15.6-7.8-23.8-10.7c-1.1-0.4-1.8-0.2-2.5,0.8C393.9,80.5,393.4,82.5,393.3,83.9
				c-0.2,1.9-0.2,3.9,0.3,5.8c0.3,1,0.8,3,2,3.4c14.4,5,27.9,12.4,40.6,20.7c9.3,6.1,18.3,12.7,26.9,19.8c1.6,1.3,3.2,2.7,4.8,4.1
				c-0.5-4.2-1-8.4-1.5-12.5c-0.1,0.4-0.3,0.7-0.5,1.1c-0.2,0.4-0.4,0.8-0.6,1.2c-0.4,0.7,0.7-1.2,0.4-0.7c-0.1,0.1-0.1,0.3-0.2,0.4
				c-0.2,0.3-0.3,0.5-0.5,0.8c-0.8,1.3-1.8,2.5-2.8,3.7c-0.3,0.3-0.6,0.6-0.9,0.9c-0.6,0.6,0.7-0.6,0.2-0.2
				c-0.2,0.2-0.4,0.4-0.6,0.6c-0.7,0.6-1.5,1.2-2.3,1.8c-2.1,1.4-4.4,2.6-6.8,3.3c0.3-0.1,0.6-0.2,0.9-0.3
				c-6.8,2.1-14.1,1.3-20.9-0.8c0.3,0.1,0.6,0.2,0.9,0.3c-7.2-2.3-14.1-5.7-19.8-10.7c-0.3-0.3-0.6-0.5-0.9-0.8
				c-0.2-0.2-0.6-0.3,0.1,0.1c-0.1-0.1-0.3-0.3-0.4-0.4c-0.5-0.5-1.1-1.1-1.6-1.7c-1-1.2-2-2.4-2.9-3.6c-0.9-1.2-1.6-2.5-2.4-3.7
				c0,0,0.7,1.2,0.3,0.5c-0.1-0.1-0.1-0.2-0.2-0.3c-0.2-0.3-0.3-0.6-0.5-0.9c-0.3-0.7-0.7-1.3-1-2c-0.6-1.2-1.1-2.5-1.5-3.7
				c-0.1-0.3-0.2-0.6-0.3-0.9c0.8,2,0.3,0.9,0.1,0.4c-0.2-0.7-0.4-1.3-0.6-2c-0.3-1.2-0.6-2.4-0.9-3.6c-0.1-0.3-0.1-0.6-0.2-0.9
				c-0.1-0.4,0.4,2.1,0.1,0.7c-0.1-0.6-0.2-1.2-0.3-1.8c-0.2-1.1-0.3-2.2-0.4-3.3c0-0.5-0.1-1.1-0.1-1.6c-0.1-1.4,0.1,1.9,0.1,1
				c0-0.3,0-0.6,0-0.8c-0.1-1.8-0.1-3.6,0-5.3c0-0.2,0-0.4,0-0.6c0-0.1,0-0.1,0-0.2c0-0.7,0.1-1.6-0.1,1.5c0-0.4,0-0.7,0.1-1.1
				c0-0.6,0.1-1.2,0.2-1.7c0.1-0.5,0.1-1,0.2-1.5c0.3-1.8,0.1-4-0.3-5.8c-0.3-1.1-0.9-2.8-2-3.4C394.6,77.1,393.5,82.4,393.3,83.9z"
				/>
		</g>
	</g>
	<g>
		<path class="st2" d="M437.9,385.4c0,0-17.1-39-38.2-30.8s-16.5,55.2-16.5,55.2s13.5,51.8,40.4,47.6
			C423.7,457.4,435.3,424.6,437.9,385.4z"/>
		<g>
			<path d="M440.2,380.1c-1.7-3.9-3.9-7.7-6.1-11.3c-4-6.6-8.9-12.9-15-17.6c-3-2.3-6.5-4-10.2-4.8c-3.7-0.8-7.6-0.1-11,1.5
				c-6.9,3.2-11.1,10.6-13.5,17.5c-5,14.3-5.5,29.9-4.4,44.8c0.2,2.4,0.8,4.7,1.5,7c1.8,5.9,4,11.7,6.6,17.3
				c3.2,7,7.1,13.9,12.2,19.7c4.8,5.5,10.9,10.1,18.4,10.9c1.7,0.2,3.4,0.1,5.1-0.1c1.1-0.2,2-1.2,2.3-2.2
				c5.8-16.2,9.5-33.3,12.2-50.3c1.3-8.3,2.3-16.7,2.9-25c0.1-1.9,0.2-3.9-0.3-5.8c-0.3-1.1-0.9-2.8-2-3.4c-2.7-1.5-4,3.7-4.1,5.2
				c-0.5,7.4-1.3,14.7-2.4,22c-0.5,3.4-1.1,6.7-1.7,10.1c0.4-2.3,0,0.1-0.1,0.6c-0.2,0.8-0.3,1.6-0.5,2.4c-0.3,1.5-0.6,3-0.9,4.5
				c-1.9,8.7-4.1,17.4-6.8,26c-0.4,1.1-0.7,2.3-1.1,3.4c-0.2,0.6-0.6,1.6,0.3-0.9c0,0.1-0.1,0.2-0.1,0.3c-0.1,0.1-0.1,0.2-0.1,0.3
				c0.8-0.7,1.6-1.5,2.3-2.2c-3,0.5-6,0.3-8.9-0.6c0.3,0.1,0.6,0.2,0.9,0.3c-2.1-0.6-4-1.6-5.8-2.8c-0.9-0.6-1.8-1.3-2.7-2
				c-0.4-0.4-0.9-0.7-1.3-1.1c-0.2-0.2-0.4-0.4-0.6-0.5c0,0,0.8,0.8,0.3,0.3c-0.1-0.1-0.2-0.2-0.3-0.3c-3.4-3.4-6.2-7.4-8.6-11.5
				c-0.2-0.3-0.3-0.6-0.5-0.8c-0.4-0.7,0.7,1.2,0.1,0.2c-0.3-0.5-0.6-1.1-0.9-1.6c-0.6-1.1-1.1-2.1-1.6-3.2c-1-2-1.9-4.1-2.8-6.2
				c-0.8-1.9-1.5-3.8-2.2-5.7c-0.3-0.8-0.6-1.7-0.9-2.5c-0.2-0.5-0.5-1.5,0.3,0.7c-0.1-0.2-0.1-0.3-0.2-0.5
				c-0.1-0.4-0.2-0.7-0.3-1.1c-0.5-1.6-1-3.2-1.5-4.9c0.5,1.6,0.4,2.3,0.2,0.9c0-0.4-0.1-0.8-0.1-1.3c-0.1-1.2,0-0.6,0.1,1.1
				c0-0.3,0-0.6-0.1-1c-0.2-3.7-0.2-7.4-0.1-11.1c0-0.6,0-1.1,0.1-1.7c0-0.3,0-0.5,0-0.8c0-0.2,0-0.3,0-0.5c0-0.9-0.1,1.4-0.1,1.3
				c0.1-1.2,0.2-2.4,0.3-3.6c0.2-2.5,0.6-5,1-7.4c0.3-1.5-0.3,1.4-0.1,0.5c0.1-0.3,0.1-0.6,0.2-0.9c0.1-0.6,0.3-1.2,0.4-1.8
				c0.3-1.2,0.6-2.4,1-3.6c0.1-0.3,0.2-0.6,0.3-0.9c0.1-0.3,0.5-1.4,0.1-0.2c-0.4,1.1,0,0.1,0.1-0.2c0.1-0.3,0.2-0.6,0.3-0.9
				c0.4-1.1,0.9-2.2,1.4-3.3c0.1-0.3,0.3-0.6,0.4-0.8c0.1-0.2,0.6-1.1,0.1-0.2c-0.5,0.9,0,0,0.1-0.2c0.2-0.3,0.3-0.5,0.5-0.8
				c0.6-0.9,1.3-1.8,2-2.6c0.4-0.4,0.7-0.8,1.1-1.2c0.3-0.3-0.4,0.4-0.4,0.4c0.1-0.1,0.2-0.2,0.3-0.3c0.2-0.2,0.4-0.4,0.7-0.6
				c0.8-0.7,1.7-1.3,2.7-1.8c1-0.5,2.1-1,3.1-1.3c-0.3,0.1-0.6,0.2-0.9,0.3c3.2-1,6.5-0.9,9.7,0.1c-0.3-0.1-0.6-0.2-0.9-0.3
				c3.2,1,6.1,2.8,8.7,4.9c0.7,0.6,1.3,1.1,2,1.7c0.2,0.2,0.5,0.6-0.2-0.2c0.2,0.2,0.4,0.4,0.5,0.5c0.4,0.4,0.7,0.7,1.1,1.1
				c1.2,1.3,2.4,2.6,3.4,4c2.1,2.6,3.9,5.4,5.7,8.2c0.4,0.6,0.7,1.2,1.1,1.8c0.2,0.4,0.9,1.6-0.1-0.1c0.2,0.3,0.4,0.7,0.6,1
				c0.6,1,1.1,2,1.6,3c0.6,1.1,1.1,2.2,1.6,3.3c0.4,0.9,1.2,2.2,2.3,2.2c1.1,0,2-1.3,2.3-2.2C441.5,387.5,441.6,383.2,440.2,380.1z"
				/>
		</g>
	</g>
	<g>
		<path class="st2" d="M502.3,236c0,0-35.5-39.9-56.2-10.8c-20.7,29.1-4.7,63.1-4.7,63.1s5.2,21.8,33,29l7.2-1.1
			C481.6,316.2,505.6,263.5,502.3,236z"/>
		<g>
			<path d="M504,229.5c-3.6-4.1-7.8-7.8-12.2-11.1c-7.3-5.6-16.2-10.8-25.6-11.3c-4.8-0.3-9.8,1-13.8,3.7
				c-6.1,4-10.2,10.5-13.3,16.9c-6.9,14-8.3,30.7-5.7,46c0.9,5.4,2.2,10.6,4.1,15.8c0.4,1.1,0.8,2.3,1.3,3.4
				c0.1,0.2,0.2,0.5,0.3,0.7c0.3,0.6-0.6-2.1-0.4-1.3c0.5,2.2,1.5,4.5,2.5,6.5c1.9,3.9,4.3,7.6,7.2,10.8c3.9,4.4,8.6,8.1,13.9,10.8
				c3.3,1.7,6.8,3,10.3,4c1,0.3,1.7,0.6,2.7,0.4c1.1-0.2,2.2-0.3,3.3-0.5c0.9-0.1,1.8-0.3,2.7-0.4c0.4-0.1,0.9-0.1,1.2-0.3
				c0.7-0.4,1.1-1.3,1.5-2c0.2-0.5,0.4-1,0.6-1.4c1.2-2.7,2.4-5.5,3.5-8.2c4.2-10.3,7.9-20.7,11.1-31.3c3.6-12.2,6.5-24.9,6.8-37.6
				c0.1-2.9-0.1-5.9-0.4-8.8C505.4,232.6,504.9,230.6,504,229.5c-0.6-0.7-1.6-1.4-2.5-0.8c-2.6,1.7-2.6,6.6-2.3,9.2
				c0.1,0.6,0.1,1.3,0.2,1.9c0.1,0.9-0.1-2.3,0-0.7c0,0.4,0,0.9,0,1.3c0,1.5,0,3-0.1,4.5c0,0.6-0.1,1.4,0.1-1.2c0,0.2,0,0.4,0,0.6
				c0,0.4-0.1,0.7-0.1,1.1c-0.1,0.8-0.2,1.6-0.2,2.4c-0.2,1.6-0.4,3.2-0.7,4.8c-0.1,0.8-0.3,1.6-0.4,2.4c-0.2,1,0.2-0.9,0.2-0.9
				c0,0.1-0.1,0.4-0.1,0.6c-0.1,0.5-0.2,1-0.3,1.5c-0.4,1.7-0.7,3.5-1.1,5.2c-0.8,3.4-1.7,6.8-2.7,10.1c-1,3.4-2,6.8-3.2,10.1
				c-0.1,0.4-0.3,0.8-0.4,1.1c-0.3,1,0.5-1.5,0-0.1c-0.3,0.8-0.5,1.6-0.8,2.4c-0.5,1.5-1.1,3-1.6,4.5c-1.8,4.9-3.7,9.7-5.7,14.5
				c-0.9,2.2-1.9,4.4-2.9,6.6c0.8-0.7,1.6-1.5,2.3-2.2c-1.5,0.2-3,0.5-4.4,0.7c-0.8,0.1-1.6,0.3-2.4,0.4c-1,0.1-2.1-0.4-3-0.7
				c0.3,0.1,0.6,0.2,0.9,0.3c-5.3-1.6-10.3-4-14.8-7.2c-0.9-0.7-1.8-1.3-2.6-2c-0.4-0.4-0.8-0.7-1.3-1.1c-0.2-0.2-0.4-0.4-0.6-0.6
				c-0.6-0.5,0.7,0.7-0.2-0.2c-1.4-1.4-2.7-2.9-3.8-4.4c-1-1.3-1.9-2.7-2.8-4.1c-0.4-0.6,0.4,0.8,0.4,0.7c-0.1-0.2-0.2-0.3-0.3-0.5
				c-0.2-0.3-0.3-0.6-0.5-0.9c-0.3-0.6-0.6-1.2-0.9-1.8c-0.4-0.9-0.7-1.7-1-2.6c0.9,2.3,0.3,1,0.1,0.1c-0.4-1.4-1-2.7-1.5-4.1
				c-0.2-0.5-0.4-1-0.6-1.5c-0.1-0.2-0.1-0.3-0.2-0.5c-0.3-0.8,0.6,1.7,0.3,0.8c-0.1-0.4-0.3-0.8-0.4-1.3c-0.5-1.7-1-3.5-1.5-5.3
				c-0.2-0.9-0.4-1.9-0.6-2.8c-0.1-0.3-0.1-0.5-0.2-0.8c0.5,2.4,0.2,1.2,0.1,0.7c-0.1-0.7-0.2-1.3-0.3-2c-0.2-1.1-0.3-2.2-0.4-3.3
				c-0.1-0.6-0.1-1.3-0.2-1.9c0-0.3,0-0.6-0.1-1c0.1,1.5,0.1,1.8,0.1,1c0-0.2,0-0.4,0-0.7c0-1.2-0.1-2.5,0-3.7c0-0.7,0-1.4,0.1-2.1
				c0-0.6,0.2-1.9,0,0.6c0-0.5,0.1-0.9,0.1-1.4c0.1-1.3,0.3-2.6,0.5-3.9c0.1-0.4,0.1-0.7,0.2-1.1c0.2-1.4-0.4,1.7-0.1,0.3
				c0.2-0.9,0.4-1.7,0.6-2.6c0.2-0.9,0.4-1.7,0.7-2.6c0.1-0.2,0.1-0.5,0.2-0.7c0.1-0.2,0.2-0.5,0.2-0.7c0.2-0.6,0.2-0.5-0.1,0.4
				c0.2-0.1,0.3-0.9,0.4-1.1c0.2-0.5,0.4-1,0.6-1.5c0.4-0.9,0.7-1.8,1.1-2.6c0.4-0.8,0.8-1.6,1.2-2.4c0.2-0.3,0.3-0.6,0.5-0.9
				c0.3-0.5,0.3-0.5,0,0.1c0.1-0.2,0.3-0.5,0.4-0.7c1-1.6,2-3.2,3.2-4.7c0.8-1.1,1.7-2,2.6-3c0.7-0.7-0.7,0.6,0,0
				c0.3-0.2,0.6-0.5,0.8-0.7c0.5-0.4,1-0.8,1.5-1.2c1.8-1.3,3.9-2.3,6-3c-0.3,0.1-0.6,0.2-0.9,0.3c4.8-1.4,9.9-1,14.7,0.5
				c-0.3-0.1-0.6-0.2-0.9-0.3c5.9,1.9,11.4,5.1,16.3,8.7c2.2,1.6,4.3,3.4,6.4,5.2c0.8,0.7,1.6,1.5,2.4,2.2c0.4,0.4-0.9-0.9-0.1-0.1
				c0.1,0.1,0.3,0.3,0.4,0.4c0.3,0.3,0.6,0.6,0.9,0.9c0.6,0.6,1.3,1.3,1.9,2c0.7,0.8,1.5,1.3,2.5,0.8c1.1-0.6,1.7-2.4,2-3.4
				c0.4-1.9,0.6-3.9,0.3-5.8C505.3,232.5,505,230.6,504,229.5z"/>
		</g>
	</g>
	<g>
		<path class="st2" d="M360,505.5c0,0-70.2,10.1-126.7-109c-5.4-11.5-10-23.4-13.8-35.7c-12.3-40.3-42.7-144.5-35.8-239.4
			c0,0-1.3-34.7,8.3-67.3c0,0,15.1-52.3,39.3-2.3c7.8,27.9,13.4,49.7,18.6,78.8c1,5.9,14,51.3,12.5,69.7
			c-3,38.4,12.6,52.1,34.1,98.5c14.3,30.8,12.3,51.2,15.1,64.4c11.3,52.3,26.3,69.2,37.6,86C349.1,449.3,395.8,500.2,360,505.5z"/>
		<g>
			<path d="M360,498.7c-3.1,0.4-6.5,0.2-9.6,0c-8.9-0.8-16.6-3-24.6-6.3c-12.8-5.3-24.4-13-34.8-22.1c-15.4-13.5-28-29.9-38.7-47.2
				c-13.6-22-24.2-45.6-31.7-70.3c-5.1-17-9.9-34.1-14.2-51.4c-5.8-23.6-10.6-46.8-14.2-70.5c-4.1-26.8-6.6-53.1-6.6-79.9
				c0-6.8,0.1-13.6,0.4-20.4c0.1-1.3,0.2-3.2,0.2-3.8c0.1-1.8,0.3-3.6,0.3-5.4c0-0.5,0-0.9,0-1.4c-0.1-2.9,0-5.8,0.1-8.7
				c0.1-2.3,0.2-4.7,0.3-7c0-0.3,0-0.6,0-0.9c0,0.1-0.1,1.1,0,0.3c0-0.6,0.1-1.3,0.1-1.9c0.1-1.6,0.2-3.1,0.4-4.7
				c1.1-13.2,3.2-26.4,6.9-39.1c0.1-0.3,0.2-0.7,0.3-1c0.1-0.2,0.2-0.5,0.2-0.7c0.3-1.1-0.6,1.5-0.1,0.2c0.7-2,1.5-3.9,2.3-5.9
				c0.5-1.2,1.1-2.4,1.8-3.6c0.1-0.2,0.6-1.1,0.2-0.4c-0.4,0.6,0.2-0.3,0.3-0.4c0.4-0.6,0.8-1.3,1.2-1.9c0.7-1.1,1.5-2.1,2.4-3.1
				c0.2-0.3,1.4-1.4,0.8-0.8c0.5-0.5,1-0.9,1.6-1.3c0.9-0.7,2-1.3,3-1.7c0.1-0.1-0.4,0.1,0.2-0.1c0.3-0.1,0.6-0.1,0.9-0.2
				c0.6-0.1,1.2-0.1,1.8-0.1c1.6,0.1,1.9,0.3,3.3,1c1.4,0.7,2.8,1.7,4,2.9c3.2,3,6.1,7.6,8.3,11.7c3.2,6,4.5,13,6.2,19.6
				c3.5,13,6.7,26.1,9.5,39.3c2,9.2,3.3,18.6,5.6,27.7c1.9,7.7,3.8,15.4,5.6,23.2c1.1,4.7,2.1,9.4,3,14.2c0.1,0.7,0-0.1,0-0.2
				c0.1,0.3,0.1,0.6,0.2,0.8c0.1,0.6,0.2,1.1,0.3,1.7c0.2,1.2,0.4,2.4,0.6,3.5c0.4,2.3,0.7,4.5,0.9,6.8c0.1,1,0.2,2,0.3,2.9
				c0,0.5,0.1,0.9,0.1,1.4c0,0.2,0,0.5,0.1,0.7c0.1,1.1,0.1,0.4,0-0.2c0.3,1.6,0,3.5,0.1,5.1c0,0.7,0.1-0.9,0.1-0.9
				c-0.1,0.1,0,0.6-0.1,0.7c-0.1,0.7-0.1,1.3-0.1,2c-0.1,1.9-0.2,3.8-0.3,5.7c-0.1,2.5-0.1,5.1,0.1,7.6c0.5,10.4,2.5,20.4,6.1,30.2
				c3.4,9.1,8,17.7,12.5,26.3c6.1,11.6,12.3,23.1,17.6,35.1c2.7,6,5,12.3,6.8,18.6c0.8,2.7,1.4,5.4,2,8.1c0.3,1.2,0.5,2.4,0.7,3.7
				c-0.2-1.1,0.1,0.7,0.2,1c0.1,0.7,0.2,1.3,0.3,2c1.2,7.9,1.6,15.9,2.9,23.7c2.2,12.7,5.8,25.2,9.9,37.4
				c5.4,15.9,12.9,30.8,22.4,44.7c2.5,3.6,4.8,7.7,7.7,10.9c2.8,3.2,5.5,6.5,8.1,9.9c1.9,2.6,3.8,5.2,5.6,7.9c1,1.5,1.9,2.9,2.8,4.4
				c0.1,0.2,0.7,1.1,0.4,0.7c-0.3-0.4,0.3,0.5,0.4,0.7c0.4,0.8,0.8,1.5,1.2,2.3c0.8,1.5,1.5,3,2.1,4.6c0.3,0.7,0.5,1.4,0.8,2.1
				c0.4,1-0.3-1,0,0c0.1,0.5,0.3,0.9,0.4,1.4c0.1,0.2,0.6,1.9,0.5,2c0,0-0.2-1.7-0.1-0.3c0,0.4,0.1,0.7,0.1,1.1c0.2,1.3,0-1,0-0.6
				c0,0.3,0,0.6,0,0.9c0,1.4,0.1-1.6,0-0.5c0,0.3-0.2,1.5,0,0.3c0.2-1.2,0-0.1-0.1,0.2c-0.3,1,0.3-0.6,0.1-0.3
				c-0.1,0.2-0.2,0.5-0.3,0.8c-0.3,0.8,0.2-0.3,0.1-0.1c-0.4,0.5-0.7,1-1.1,1.5c-0.2,0.3-0.6,0.6-0.1,0.1c-0.2,0.2-0.5,0.4-0.7,0.6
				C365.9,497.4,363,498.2,360,498.7c-2.6,0.4-3,4.8-3,6.8c0,1.4,0.4,7.2,3,6.8c7.3-1.1,13.2-4.6,15.4-12c2.3-7.6,0.6-15.9-2.2-23.1
				c-4.6-11.6-12.5-22.1-20.6-31.5c-2.4-2.8-4.4-5.8-6.5-8.9c-1.8-2.6-3.6-5.3-5.4-7.9c-0.9-1.5-1.9-2.9-2.8-4.4
				c-0.5-0.8-0.9-1.6-1.4-2.3c-0.2-0.4-0.4-0.7-0.7-1.1c-0.1-0.2-0.8-1.3-0.4-0.6c-4.5-8-8.3-16.4-11.4-25
				c-4.2-11.5-7-24.1-10.1-36.3c-0.3-1.1,0.2,1.3,0,0.2c-0.1-0.4-0.1-0.8-0.2-1.1c-0.1-0.9-0.3-1.8-0.4-2.8
				c-0.2-1.9-0.4-3.7-0.6-5.6c-0.5-4.4-0.9-8.8-1.6-13.1c-1.9-12.6-5.2-24.9-10.1-36.7c-5.3-12.7-11.8-24.9-18.2-37
				c-4.7-8.9-9.6-17.9-13.2-27.4c-0.2-0.5-0.4-1-0.5-1.5c-0.1-0.2-0.5-1.5-0.4-1c0.1,0.4-0.3-0.8-0.3-1c-0.2-0.7-0.4-1.3-0.6-2
				c-0.6-2.2-1.2-4.4-1.7-6.6c0-0.2-0.3-1.7-0.2-1c0.1,0.7-0.2-1.1-0.2-1.3c-0.2-1.2-0.3-2.3-0.5-3.5c-0.1-1.2-0.2-2.4-0.3-3.6
				c0.1,1.2,0,0,0-0.5c0-0.7,0-1.4-0.1-2.1c0-1.3,0-2.7,0-4c0-0.6,0-1.3,0.1-1.9c0-0.3,0-0.6,0-1c0-0.1,0.1-1.4,0-0.7
				c0,0.8,0-0.6,0.1-0.8c0-0.3,0.1-0.7,0.1-1c0.1-0.8,0.1-1.7,0.2-2.5c0-0.9,0.1-1.8,0.1-2.7c0-4.5-0.5-9-1-13.5
				c-2.3-17.7-6.9-35-11.1-52.4c-0.2-1-0.5-2-0.7-3.1c-0.4-1.7,0.4,2.2,0-0.1c-0.4-2.3-0.8-4.5-1.2-6.8c-1.3-7-2.7-14-4.2-20.9
				c-3-13.5-6.4-26.8-10-40.1c-1-3.5-1.9-7-2.9-10.5c-1-3.7-3-7.1-5-10.4c-2.6-4.5-5.6-8.7-9.5-12.1c-4.6-3.9-10.5-5-15.6-1.5
				c-4.9,3.4-8.1,9-10.6,14.2c-1.7,3.5-3,7.1-4.1,10.8c-6.5,21.7-8.9,45.2-8.8,67.9c0,0.8,0,1.7,0,2.5c0,0.1,0,0.4,0,0.4
				c0,0,0.1-1.8,0-0.6c0,0.4-0.1,0.8-0.1,1.2c-0.1,1.1-0.1,2.2-0.2,3.3c-0.4,7.2-0.7,14.4-0.7,21.7c-0.1,14.4,0.5,28.7,1.7,43.1
				c2.1,27,6.2,53.8,11.5,80.3c4.4,21.8,9.6,43.4,15.6,64.9c5.6,20.1,11.4,40.4,19.8,59.6c10.4,23.5,23.5,46.4,39.8,66.3
				c11.2,13.6,24.1,26.1,39.1,35.5c9.9,6.2,20.6,11,32,13.8c6,1.5,12.3,2.4,18.5,2.1c0.8,0,1.7-0.1,2.5-0.2c2.6-0.4,3-4.8,3-6.8
				C363,504.1,362.6,498.3,360,498.7z"/>
		</g>
	</g>
	<g>
		<path class="st0" d="M220.8,226.6c0,0-54.4,7.4-118.3-28.7c-0.6-0.4-1.3-0.6-1.9-1.1C63.3,167,6.3,203.9,6,275.7
			c-0.1,18.5,1.8,37.5,6.7,55.4c5.2,18.8,21.8,32.2,41.1,34.4c36.8,4.3,104.5,1.1,189.8-53C243.7,312.6,270.4,264.8,220.8,226.6z"/>
		<g>
			<path d="M220.8,216.6c-4.2,0.6-8.5,0.6-12.7,0.6c-11.2,0-22.5-1.1-33.6-3.1c-8.7-1.5-17.2-3.6-25.6-6.2c0.4,0.1,0.8,0.2,1.2,0.4
				c-13.8-4.2-27.2-9.8-40-16.5c-1.7-0.9-3.5-1.8-5.2-2.8c-1.3-0.7-2.6-1.4-3.8-2.3c-1.7-1.3-3.4-2.5-5.2-3.6
				c-3.6-2.1-7.5-3.7-11.5-4.9c-15.5-4.5-32.1,0-44.9,9.3c-16.9,12.3-27.5,31.3-33,51.1c-3.6,13-5,26.4-4.9,39.9
				C1.7,295.3,3.3,312,7,328.4c1.5,6.9,3.4,13.8,6.8,20c3.2,5.8,7.1,10.8,12.1,15.1c8.4,7.3,19,11.2,30,12.4
				c15.1,1.6,30.4,1.4,45.6-0.2c21.4-2.2,42.4-7.2,62.8-14.1c26.3-9,51.5-21.3,75.2-35.9c1.7-1,3.4-2,5-3.1c1.2-0.8,1.7-1.7,2.4-2.9
				c0.2-0.3,0.3-0.6,0.4-0.9c0.7-1.4,1.3-2.9,1.9-4.4c2.6-6.8,4.4-13.8,5.4-21.1c1.3-10.4,0.8-21.2-1.7-31.4
				c-2.8-11.4-8.4-22.1-16-31c-4.4-5.2-9.5-9.9-14.9-14c-1.2-0.9-2.7,0.1-3.4,1c-1.2,1.5-1.8,4.1-2,6c-0.3,2.5-0.3,5.2,0.4,7.7
				c0.5,1.7,1.1,3.4,2.6,4.6c2.8,2.2,5.6,4.5,8.2,7c-0.4-0.3-0.7-0.7-1.1-1c3.4,3.3,6.6,6.9,9.4,10.8c1.3,1.7,2.4,3.5,3.5,5.3
				c0.1,0.2,0.2,0.4,0.3,0.6c0.6,1.1-0.7-1.3-0.3-0.6c0.2,0.4,0.5,0.9,0.7,1.3c0.5,0.9,1,1.9,1.4,2.9c0.8,1.7,1.5,3.4,2.1,5.1
				c0.2,0.7,0.9,2.7-0.1-0.3c0.1,0.4,0.2,0.7,0.4,1.1c0.3,0.9,0.6,1.8,0.8,2.8c0.2,0.8,0.4,1.6,0.6,2.5c0.1,0.4,0.2,0.7,0.2,1.1
				c0.4,1.8-0.5-2.8-0.1-0.6c0.3,1.6,0.5,3.3,0.6,4.9c0,0.4,0.1,0.9,0.1,1.3c0.1,1.4-0.2-3.2-0.1-1.4c0,0.8,0.1,1.7,0.1,2.5
				c0,0.7,0,1.5,0,2.2c0,0.3,0,0.6,0,1c0,0.5-0.1,2.5,0,0.1c0.1-2.4,0,0.1-0.1,0.8c-0.1,0.8-0.2,1.5-0.2,2.3c-0.1,0.7-0.2,1.3-0.3,2
				c-0.2,1-0.7,3.9,0-0.1c-0.5,2.3-1,4.6-1.7,6.9c-0.1,0.5-0.3,1-0.4,1.5c-0.3,1-0.9,2.5,0.2-0.4c-0.3,0.8-0.6,1.7-0.9,2.5
				c-0.7,1.8-1.5,3.7-2.4,5.4c0.6-0.9,1.3-1.7,1.9-2.6c-22.7,14.4-46.7,26.8-71.8,36.2c-6,2.2-12.1,4.3-18.2,6.2
				c0.4-0.1,0.8-0.2,1.2-0.4c-16,4.9-32.3,8.5-48.9,10.4c-12.8,1.5-25.7,2-38.5,1.3c-7-0.4-14.2-0.8-21-2.8c0.4,0.1,0.8,0.2,1.2,0.4
				c-7.4-2.3-14.3-6.2-19.9-11.6c0.4,0.3,0.7,0.7,1.1,1c-1.7-1.7-3.3-3.5-4.8-5.4c-0.7-0.9-1.4-1.9-2-2.8c-0.3-0.5-0.6-1-0.9-1.5
				c-0.3-0.4-0.8-1.6,0.2,0.4c-0.2-0.3-0.3-0.6-0.5-0.9c-0.5-1-1.1-2.1-1.5-3.2c-0.2-0.5-0.5-1.1-0.7-1.6c-0.1-0.3-0.2-0.6-0.3-0.8
				c-0.6-1.6,0.6,1.9,0.2,0.5c-0.9-2.9-1.6-5.8-2.3-8.7c-0.4-1.5-0.7-3.1-1-4.6c-0.2-0.8-0.3-1.6-0.5-2.3c-0.2-1.2,0.4,2.5,0.1,0.8
				c-0.1-0.5-0.2-0.9-0.2-1.4c-0.6-3.3-1-6.6-1.4-9.9c-0.4-3.3-0.7-6.6-1-9.9c-0.1-0.8-0.1-1.6-0.2-2.4c-0.1-1.8,0.1,2.3,0.1,1
				c0-0.4,0-0.8-0.1-1.2c-0.1-1.7-0.2-3.5-0.2-5.2c-0.1-3.2-0.1-6.5-0.1-9.7c0-1.3,0.1-2.6,0.1-3.9c0-0.6,0.1-1.3,0.1-1.9
				c0-0.1-0.2,3-0.1,1.5c0-0.4,0.1-0.9,0.1-1.3c0.2-2.5,0.5-5,0.8-7.5c0.2-1.2,0.3-2.4,0.5-3.6c0.1-0.8,0.6-3.2-0.1,0.3
				c0.1-0.7,0.3-1.4,0.4-2.1c0.5-2.4,1-4.7,1.7-7c0.3-1.1,0.6-2.2,0.9-3.2c0.2-0.5,0.3-1.1,0.5-1.6c0.1-0.2,0.1-0.4,0.2-0.6
				c0.4-1.3-0.8,2.3-0.2,0.5c1.4-4.1,3.1-8.1,5.1-11.9c0.6-1.1,1.1-2.2,1.7-3.2c0.6-1-0.8,1.4-0.4,0.6c0.2-0.3,0.4-0.6,0.5-0.9
				c0.3-0.5,0.6-0.9,0.9-1.4c1.2-1.9,2.5-3.8,3.8-5.7c2.6-3.5,5.5-6.8,8.6-9.8c-0.4,0.3-0.7,0.7-1.1,1c6.9-6.6,15.1-11.8,24.2-14.6
				c-0.4,0.1-0.8,0.2-1.2,0.4c8.8-2.7,18.2-2.9,27-0.2c-0.4-0.1-0.8-0.2-1.2-0.4c3.9,1.2,7.7,3,11.1,5.2c1.9,1.2,3.5,2.8,5.5,3.8
				c3.6,1.9,7.1,3.9,10.7,5.7c13.4,6.8,27.5,12.2,42,16.4c11.1,3.2,22.5,5.5,34,6.8c7.8,0.9,15.8,1.4,23.7,1.3
				c3.3-0.1,6.8-0.1,10.1-0.6c0,0,0.1,0,0.1,0c1.6-0.2,2.5-1.6,3.1-2.9c1-2.1,1.3-4.8,1.3-7.1c0-2.3-0.2-4.9-1.3-7.1
				C223.3,218.4,222.3,216.4,220.8,216.6z"/>
		</g>
	</g>
	<g>
		<g>
			<g>
				<path d="M191.7,60.1c1.1,0,1.9-1.3,2.3-2.2c0.7-1.6,1-3.6,1-5.3c0-1.8-0.2-3.7-1-5.3c-0.5-0.9-1.1-2.2-2.3-2.2
					c-1.1,0-1.9,1.3-2.3,2.2c-0.7,1.6-1,3.6-1,5.3c0,1.8,0.2,3.7,1,5.3C189.8,58.8,190.5,60.1,191.7,60.1L191.7,60.1z"/>
			</g>
		</g>
		<g>
			<g>
				<path d="M207.9,233.1c1.1,0,1.9-1.3,2.3-2.2c0.7-1.6,1-3.6,1-5.3c0-1.8-0.2-3.7-1-5.3c-0.5-0.9-1.1-2.2-2.3-2.2
					c-1.1,0-1.9,1.3-2.3,2.2c-0.7,1.6-1,3.6-1,5.3c0,1.8,0.2,3.7,1,5.3C206,231.8,206.7,233.1,207.9,233.1L207.9,233.1z"/>
			</g>
		</g>
		<g>
			<g>
				<path d="M217.7,215.9c-0.1,0-0.2,0-0.2-0.1c0.3,0.1,0.6,0.2,0.9,0.3c-0.2-0.1-0.4-0.2-0.6-0.3c-0.1-0.1-0.2-0.2-0.3-0.2
					C216.7,215.1,218.2,216.5,217.7,215.9c-0.4-0.6-0.9-1.2-1.4-1.9c-0.1-0.1-0.1-0.2-0.2-0.3c-0.4-0.7,0.4,0.6,0.4,0.7
					c-0.1-0.2-0.3-0.5-0.4-0.7c-0.3-0.5-0.5-1.1-0.8-1.6c-0.6-1.3-1.1-2.5-1.6-3.8c-0.1-0.4-0.3-0.7-0.4-1.1
					c-0.1-0.3,0.6,1.8,0.3,0.8c-0.1-0.2-0.2-0.5-0.2-0.7c-0.3-0.8-0.5-1.7-0.8-2.5c-0.5-1.9-1-3.7-1.5-5.6c-0.5-2.1-1-4.3-1.4-6.4
					c0-0.2-0.1-0.3-0.1-0.5c-0.2-0.9,0.2,1.3,0.2,1.1c0-0.3-0.1-0.5-0.1-0.8c-0.1-0.6-0.2-1.3-0.3-1.9c-0.2-1.3-0.4-2.5-0.6-3.8
					c-0.8-5.6-1.4-11.2-1.8-16.9c-0.1-0.8-0.1-1.5-0.1-2.3c0-0.2,0.1,2,0.1,1.2c0-0.2,0-0.4,0-0.6c0-0.5,0-0.9-0.1-1.4
					c-0.1-1.6-0.1-3.1-0.2-4.7c-0.1-3.4-0.1-6.8-0.1-10.2c0-3.6,0.1-7.1,0.3-10.7c0-0.9,0.1-1.8,0.1-2.7c0-0.4,0-0.9,0.1-1.3
					c0.1-0.9-0.1,1.8-0.1,0.9c0-0.3,0-0.6,0.1-0.9c0.1-1.9,0.3-3.9,0.4-5.8c0.7-8.1,1.7-16.3,3-24.3c0.3-2.1,0.7-4.2,1.1-6.2
					c0.1-0.5,0.5-2.4,0.1-0.3c0.1-0.5,0.2-1,0.3-1.5c0.2-1.1,0.4-2.3,0.7-3.4c0.9-4.4,1.9-8.8,3-13.2c2.3-9.5,5-18.8,8.1-28.1
					c0.1-0.2,0.2-0.5,0.2-0.7c0.3-0.9-0.3,1,0,0.1c0.2-0.5,0.4-1.1,0.6-1.6c0.4-1.3,0.9-2.5,1.3-3.8c1.2-3.2,1.6-7.4,0-10.6
					c-0.5-0.9-1.1-2.2-2.3-2.2c-1.1,0-2,1.3-2.3,2.2c-6.9,19.3-12.3,39.1-15.9,59.3c-3,16.7-4.7,33.7-5.1,50.7
					c-0.3,13.5,0.3,27.1,2.1,40.6c1.3,9.9,3.3,19.7,6.5,29.1c0.9,2.6,1.9,5.1,3.2,7.5c1,1.9,2.3,4.2,4.3,5.3c0.5,0.2,1,0.4,1.5,0.5
					c1.1,0.2,2-1.5,2.3-2.2c0.7-1.6,1-3.6,1-5.3C220.9,221.2,220.6,216.4,217.7,215.9L217.7,215.9z"/>
			</g>
		</g>
		<g>
			<g>
				<path d="M237.7,237.8c0-2.4,0.1-4.7,0.3-7.1c0.1-1.2,0.1-2.4,0.2-3.6c0-0.2,0-0.4,0-0.6c0-0.3-0.1,2.4-0.1,1.4
					c0-0.3,0-0.7,0.1-1c0-0.8,0.1-1.5,0.1-2.2c0.2-3.3,0.5-6.5,0.8-9.8c0.7-7.6,1.6-15.2,2.9-22.7c0.2-0.9,0.3-1.8,0.5-2.8
					c0-0.3,0.1-0.6,0.2-0.8c-0.4,2.2-0.3,1.5-0.2,1c0.1-0.6,0.2-1.1,0.3-1.6c0.4-1.9,0.8-3.9,1.2-5.8c0.8-3.7,1.8-7.3,3-10.9
					c0.1-0.2,0.1-0.3,0.2-0.5c0.5-1.4-0.5,1.3-0.1,0.3c0.2-0.5,0.3-0.9,0.5-1.4c0.3-0.9,0.6-1.7,1-2.6c0.7-1.7,1.4-3.3,2.2-4.9
					c0.2-0.4,0.4-0.8,0.6-1.1c0.6-1.1-0.7,1.2,0.1-0.1c0.4-0.7,0.8-1.4,1.3-2c0.8-1.2,1.8-2.4,2.8-3.4c1-1,1.4-3.3,1.5-4.5
					c0.2-1.8,0.2-4-0.3-5.8c-0.3-1.2-0.8-2.8-2-3.4c-1-0.6-1.8,0-2.5,0.8c-4.5,4.5-7.3,10.9-9.5,16.8c-2.9,8.2-4.9,16.7-6.5,25.2
					c-2.7,14.5-4,29.3-4.8,44c-0.2,3-0.3,6-0.4,9.1c0,1.7,0.3,3.8,1,5.3c0.4,0.9,1.2,2.2,2.3,2.2
					C237.3,245.3,237.7,239.6,237.7,237.8L237.7,237.8z"/>
			</g>
		</g>
		<g>
			<g>
				<path d="M247.8,265.7c0.6-1.9,1.5-3.7,2.5-5.4c0.1-0.2,0.2-0.4,0.3-0.6c0.4-0.8-0.4,0.7-0.2,0.4c0.3-0.4,0.5-0.9,0.8-1.3
					c0.6-1,1.2-1.9,1.9-2.8c1.5-2.1,3.1-4,4.9-5.8c0.1-0.1,0.6-0.6,0.2-0.2c-0.4,0.4,0.1-0.1,0.2-0.2c0.3-0.3,0.6-0.5,0.9-0.8
					c0.6-0.5,1.2-1,1.8-1.5c1.4-1.1,2.8-2,4.3-2.9c1.1-0.6,1.7-2.4,2-3.4c0.5-1.8,0.6-4,0.3-5.8c-0.2-1.6-1.4-6.8-4.1-5.2
					c-8.8,5.1-15.6,13.7-19.6,23c-0.3,0.7-0.6,1.3-0.8,2c-0.6,1.8-1,3.4-1,5.3c0,1.6,0.2,3.8,1,5.3c0.5,0.9,1.1,2.2,2.3,2.2
					C246.5,267.9,247.5,266.6,247.8,265.7L247.8,265.7z"/>
			</g>
		</g>
		<g>
			<g>
				<path d="M230.8,328.8c1.9,3.6,3.7,7.2,5.5,10.9c4.5,9.1,8.8,18.2,12.9,27.4c5.3,12,10.3,24.1,14.8,36.4c0.6,1.6,1.2,3.3,1.7,4.9
					c0.3,0.8,0.5,1.5,0.8,2.3c0.1,0.2,0.6,1.6,0.2,0.5c-0.4-1.2,0.2,0.5,0.2,0.7c1.1,3.2,2.1,6.4,3.1,9.6c1.8,6.1,3.5,12.3,4.8,18.6
					c0.1,0.7,0.3,1.3,0.4,2c0.1,0.4,0.1,0.7,0.2,1.1c0,0.2,0.1,0.4,0.1,0.6c0.2,1-0.3-1.7-0.2-0.9c0.3,1.4,0.5,2.8,0.7,4.3
					c0.4,2.8,0.8,5.6,1,8.3c0,0.3,0,0.6,0.1,0.9c0.1,1.1-0.1-2.3-0.1-0.9c0,0.7,0.1,1.4,0.1,2.1c0,1.2,0,2.4,0,3.6
					c0,1-0.2,2.7,0-0.1c0,0.6-0.1,1.2-0.1,1.8c-0.1,1.1-0.3,2.2-0.4,3.2c-0.2,1.1,0.4-2.1,0.1-0.8c0,0.2-0.1,0.5-0.1,0.7
					c-0.1,0.5-0.2,1-0.4,1.5c-0.5,1.8-0.6,3.9-0.3,5.8c0.2,1.3,0.6,3.4,1.5,4.5c2.2,2.5,3.9-0.6,4.5-2.7c3.1-11.4,2-23.9,0-35.4
					c-2.4-13.8-6.4-27.3-11-40.5c-4.4-12.7-9.4-25.3-14.8-37.6c-4.4-10-8.9-19.9-13.7-29.7c-2.2-4.6-4.5-9.1-6.9-13.6
					c0-0.1-0.1-0.1-0.1-0.2c-0.5-0.9-1.1-2.2-2.3-2.2c-1.1,0-2,1.3-2.3,2.2c-0.7,1.7-1,3.5-1,5.3C229.8,325.3,230,327.3,230.8,328.8
					L230.8,328.8z"/>
			</g>
		</g>
		<g>
			<g>
				<path d="M237.3,319.3c3.3,3.7,6.4,7.5,9.5,11.2c8,9.7,15.7,19.6,23.1,29.7c10.3,13.9,20.1,28.2,29.3,42.9
					c2.5,3.9,4.9,7.9,7.2,11.9c1.2,2.1,2.4,4.2,3.6,6.2c0.6,1-0.4-0.8-0.1-0.1c0.1,0.3,0.3,0.5,0.4,0.8c0.3,0.5,0.6,1,0.8,1.5
					c0.6,1.1,1.2,2.2,1.8,3.3c4.6,8.4,9,16.9,13,25.6c3.9,8.5,7.5,17.2,10.6,26.1c0.2,0.5,0.4,1,0.5,1.6c0.1,0.4,0.5,1.6-0.1-0.3
					c0.1,0.2,0.1,0.4,0.2,0.6c0.4,1.1,0.8,2.3,1.1,3.4c0.7,2.2,1.3,4.4,2,6.6c1.2,4.2,2.3,8.5,3.2,12.8c0.2,1,0.4,2,0.6,3.1
					c0.2,0.9-0.3-1.9-0.1-0.7c0,0.3,0.1,0.5,0.1,0.8c0.1,0.6,0.2,1.1,0.3,1.7c0.2,1.5,0.5,3.3,1.5,4.5c0.6,0.7,1.6,1.4,2.5,0.8
					c2.5-1.7,2.7-6.7,2.3-9.2c-3.1-19-9.3-37.4-16.9-55c-7.8-18-17.2-35.2-27.3-52c-9.2-15.2-19.2-30-29.6-44.5
					c-7.9-10.9-16.1-21.7-24.7-32.1c-3.8-4.7-7.6-9.4-11.7-13.9c-0.1-0.1-0.1-0.1-0.2-0.2c-0.7-0.8-1.5-1.3-2.5-0.8
					c-1.1,0.6-1.7,2.4-2,3.4c-0.4,1.9-0.6,3.9-0.3,5.8C236,316.3,236.3,318.1,237.3,319.3L237.3,319.3z"/>
			</g>
		</g>
		<g>
			<g>
				<path d="M249.8,304.1c4.5,1.6,8.9,3.8,13.2,6.1c4.5,2.4,8.9,5.2,13.1,8.1c2.5,1.8,4.9,3.6,7.3,5.5c1.3,1,2.5,2.1,3.7,3.2
					c0.6,0.5,1.1,1,1.7,1.5c0.3,0.3,0.6,0.6,0.9,0.8c-0.6-0.6,0.3,0.3,0.5,0.5c5.8,5.7,10.9,12,15.2,18.9c0.5,0.9,1.6,1.3,2.5,0.8
					c1.1-0.6,1.7-2.4,2-3.4c0.8-3.3,0.7-7.3-1.2-10.3c-7.5-11.9-17.5-22.1-28.7-30.5c-7.4-5.4-15.3-10.2-23.7-13.9
					c-1.5-0.7-3.1-1.3-4.7-1.9c-1.1-0.4-1.8-0.2-2.5,0.8c-0.9,1.1-1.4,3.1-1.5,4.5c-0.2,1.9-0.2,3.9,0.3,5.8
					C248.2,301.7,248.7,303.7,249.8,304.1L249.8,304.1z"/>
			</g>
		</g>
	</g>
</g>
</svg>
