<?xml version="1.0" encoding="utf-8"?>
<!-- Generator: Adobe Illustrator 24.0.1, SVG Export Plug-In . SVG Version: 6.00 Build 0)  -->
<svg version="1.1" id="Capa_1" xmlns="http://www.w3.org/2000/svg" xmlns:xlink="http://www.w3.org/1999/xlink" x="0px" y="0px"
	 viewBox="0 0 512 512" style="enable-background:new 0 0 512 512;" xml:space="preserve">
<style type="text/css">
	.st0{fill:#476468;}
	.st1{fill:#FFC84D;}
	.st2{fill:#0A0A0A;}
	.st3{fill:#90CED3;}
	.st4{fill:none;}
	.st5{fill:#FCD797;}
	.st6{stroke:#000000;stroke-width:4;stroke-miterlimit:10;}
	.st7{stroke:#000000;stroke-miterlimit:10;}
	.st8{fill:#ADADAD;}
	.st9{stroke:#000000;stroke-width:3;stroke-miterlimit:10;}
</style>
<g>
	<g>
		<path class="st0" d="M425.4,95.1c1-0.3,2-0.6,3.1-0.9C427.4,94.5,426.4,94.8,425.4,95.1L425.4,95.1z M402.3,178.7
			c0.4-0.3,6.5-4.6,11.5-11.3L402.3,178.7z M384.4,194.5l10.6,17.1c0.3,0.1,0.6,0.2,0.9,0.3L384.4,194.5z M95.8,167.7
			c0.5,0.7,1,1.3,1.5,1.9c0.2,0.2,0.3,0.4,0.5,0.6l0.2,0.2c0.2,0.2,0.4,0.5,0.6,0.7c1.6,1.7,3.1,3.2,4.5,4.4
			c0.3,0.2,0.5,0.5,0.8,0.7c0.1,0.1,0.1,0.1,0.2,0.2c0.1,0.1,0.1,0.1,0.2,0.2c0.8,0.7,1.5,1.2,2,1.6c0.1,0.1,0.3,0.2,0.4,0.3
			c0.2,0.1,0.3,0.2,0.3,0.2L95.8,167.7z"/>
		<path class="st1" d="M468.8,31.2c-1.5-1.3-3-2.6-4.5-3.8h0c0,0,0,0,0,0c-1.5-1.1-3-2.2-4.5-3.2c-2.6-1.7-5.3-3.2-8.1-4.4
			c-5.9-2.7-12.3-4.5-19.2-5.3C379.7,8.9,363.7,101,360,129.2c0,0.1,0,0.1,0,0.1c-0.6,5-0.9,7.9-0.9,7.9s-1.2-0.9-3.3-2.5
			c-0.1,0-0.1-0.1-0.2-0.1c-8-5.7-28.7-19.6-52-27.5c-1.2-0.4-2.4-0.8-3.6-1.2c0.1-3.2-0.2-5.9-0.9-8c-3.5-10.8-16.1-9.3-23.9-7.2
			c-2.8,0.8-5,1.6-6,2c-0.3,0.1-0.5,0.2-0.5,0.2s0.2-0.2,0.4-0.6c0.9-1.5,3.1-5.3,3.8-9.3c0.7-3.8,0.1-7.8-4.2-10.1
			c-10-5.5-23.3,13.3-26.7,21c-3.3,7.7-8.9,7.7-8.9,7.7c-32.2,2.7-66.1,25.2-76.9,33c-0.1,0-0.1,0.1-0.2,0.1
			c-2.2,1.5-3.3,2.5-3.3,2.5s-0.3-2.9-0.9-7.9c0,0,0-0.1,0-0.1C148.3,101,132.3,8.9,79.5,14.5c-6.8,0.7-13.2,2.5-19,5.2
			c-2.9,1.3-5.6,2.8-8.3,4.6h0c-2,1.3-3.9,2.7-5.8,4.2c-0.1,0.1-0.1,0.1-0.1,0.1c-0.8,0.6-1.5,1.3-2.3,1.9
			C23.3,48.8,11.7,80,10,110.8c-1.1,20.2,2,40.2,9.5,56.2C40,210.7,58,222.6,93.6,216.8c3-0.5,6.2-1.1,9.4-1.8
			c4.1-0.9,8.4-2,12.9-3.3l0.6-0.9c-1.1,3.3-2.1,6.6-2.9,9.8c0.6-0.2,1.3-0.3,1.9-0.5c1.1-0.3,1.8-0.7,2.4-1.5
			c0.3-0.4,0.6-0.9,0.9-1.3c2.1-3.2,4.3-6.3,6.5-9.5c1.4-2,2.8-4.1,4.1-6.1c2.1-3.1,2.3-7.8,1.3-11.3c-0.4-1.3-0.9-3.1-2.2-3.8
			c-1-0.6-2.2-0.1-2.8,0.8c-3.7,5.5-7.4,10.9-11.1,16.4c-5,1.4-10.1,2.7-15.2,3.8c-0.2-0.1-0.4-0.1-0.6-0.1c-0.5,0-0.9,0.2-1.3,0.5
			c-8.4,1.7-16.9,2.5-25.4,1.7c-2.3-0.2-4.6-0.6-6.8-1.1c0.1-1.9,0.1-3.6,0.2-5.1c0.8,0,1.5-0.8,1.7-1.6c0.4-1.3,1-2.5,1.6-3.7
			c0.1-0.1,0.3-0.6,0.4-0.7v0l0,0c0,0,0,0,0,0c0.2-0.3,0.3-0.5,0.5-0.8c0.5-0.8,1-1.5,1.6-2.2c1.1-1.3,2-2.2,3.7-3.1
			c1.5-0.8,3.2-1,4.8-1.5c3.5-1.3,6.5-3.7,9.2-6.3c2.8-2.7,5.1-5.8,7.1-9.1c2.6,3.2,5.7,6.1,8.9,8.6c0.5,0.4,1,0.8,1.5,1.1
			c1.9,1.3,2.9-2.8,3-3.9c0.2-2,0.2-5.5-1.7-6.8c-0.6-0.4-1.1-0.8-1.6-1.2c-0.6-0.5-1.2-1-1.8-1.5c-0.3-0.3-0.6-0.6-0.9-0.8
			c-0.2-0.1-0.3-0.3-0.5-0.5c0,0-0.2-0.2-0.4-0.3v0c0,0-0.1,0-0.1-0.1c-1.7-1.7-3.3-3.4-4.8-5.3c-0.2-0.2-0.4-0.5-0.6-0.7
			c-0.1-0.1-0.1-0.2-0.2-0.3c-0.5-0.6-1-1.3-1.4-2c-0.4-0.6-0.7-1.1-1.1-1.7c0,0,0,0,0,0c0,0,0-0.1-0.1-0.1c0,0,0,0,0,0c0,0,0,0,0,0
			c0,0,0,0,0,0c0,0,0-0.1-0.1-0.1c-0.2-0.5-0.5-0.9-0.7-1.4c-0.3-0.6-0.5-1.2-0.8-1.8c-0.1-0.3-0.2-0.6-0.4-0.9c0,0,0-0.1,0-0.1
			c0,0,0-0.1,0-0.1c-0.1-0.5-0.3-1-0.4-1.5c0,0,0-0.1,0-0.1c0,0,0,0,0,0c0-0.1-0.1-0.3-0.1-0.5c0,0,0,0,0,0V152c0-0.1,0-0.3,0-0.4
			c0-0.1,0-0.2,0-0.3c0,0,0-0.1,0-0.1c0.1-0.3,0.1-0.6,0.2-0.8c0,0,0.2-0.6,0.2-0.8c0,0,0,0,0,0c0,0,0,0,0,0v0
			c0.2-0.6,0.5-1.2,0.7-1.7c0.2-0.4,0.4-0.8,0.6-1.2c0,0,0.3-0.5,0.4-0.7c0,0,0,0,0,0c0,0,0,0,0,0c1.5-2.6,3.3-4.9,5.3-7.1
			c0.9-1,1.9-1.9,3.1-2.6c1.2-0.8,2.5-1.2,3.8-1.8c0.3-0.1,0.6-0.2,0.9-0.4c4.2-2,4.1-8.3,3.3-12.1c-0.3-1.5-0.8-2.9-1.2-4.4
			c-0.2-0.8-0.4-1.7-0.6-2.5c0,0-0.1-0.8-0.2-1c0,0,0,0,0,0v0c-0.1-0.4-0.1-0.8-0.2-1.2c-1.2-7.3-2.5-14.6-4.1-21.8
			c-2.4-11-5.4-21.9-9.4-32.5C90.2,46.4,84,33.4,73.5,25.2c-0.5-0.4-1-0.8-1.5-1.1c7.6-1.8,15.4-2.2,23,0c4.5,1.4,8.7,3.7,12.5,6.5
			c1,0.7,2,1.5,2.9,2.4c0.5,0.4,0.9,0.8,1.4,1.2l0.1,0.1c0,0,0,0,0.1,0.1c0.1,0.1,0.2,0.2,0.3,0.3c0.1,0.1,0.2,0.2,0.3,0.3
			c1.8,1.8,3.6,3.8,5.2,5.9c1.7,2.1,3.3,4.3,4.7,6.6c0.8,1.2,1.5,2.3,2.2,3.5c0.1,0.2,0.2,0.3,0.3,0.5c0,0,0,0,0,0.1
			c0,0,0,0,0.1,0.1c0,0.1,0.1,0.2,0.1,0.2c0,0.1,0.1,0.1,0.1,0.2c0.3,0.5,0.6,1,0.9,1.6c2.8,5.1,5.1,10.4,7.3,15.8
			c1,2.5,1.9,5,2.8,7.5c0,0.1,0.3,0.8,0.3,0.8c0.1,0.2,0.1,0.4,0.2,0.6c0.2,0.7,0.5,1.4,0.7,2.1c0.4,1.4,0.9,2.8,1.3,4.2
			c1.6,5.4,3.1,10.8,4.3,16.3c0.6,2.6,1.2,5.1,1.7,7.7c0.3,1.2,0.5,2.4,0.7,3.7c0.1,0.6,0.2,1.2,0.3,1.8c0,0.1,0,0.1,0,0.2
			c0,0,0,0,0,0c0,0.1,0,0.2,0.1,0.3c0,0.2,0.1,0.3,0.1,0.5c0.7,3.8,1.3,7.6,1.9,11.4c0.6,4.3,1.1,8.7,1.6,13c0,0.1,0,0.1,0,0.2
			c0.1,1.4,1.8,7.9,4.5,5.8c3.7-2.9,7.6-5.5,11.5-8c9-5.9,18.4-11.2,28.1-15.7c6.5-3,13.2-5.6,20.1-7.7c5-1.5,10-2.6,15.2-3.3
			c3-0.4,6.2-0.3,8.9-1.9c4.4-2.5,6.1-7.1,8.3-11.3c0.1-0.1,0.1-0.2,0.2-0.3c0.2-0.3,0.3-0.6,0.5-0.8c0.6-0.9,1.2-1.9,1.8-2.8
			c1.3-1.8,2.6-3.6,4-5.2c0.8-0.9,1.7-1.8,2.6-2.7c0,0,0.1-0.1,0.1-0.1c0,0,0.1-0.1,0.1-0.1c0,0,0,0,0,0c0.1-0.1,0.1-0.1,0.1-0.1
			c0.1-0.1,0.2-0.2,0.3-0.3c0.5-0.4,1-0.8,1.5-1.3c1.6-1.3,3.4-2.3,5.3-3c1.4-0.4,2.8-0.4,4.3-0.1c0,0,0,0,0,0
			c0.8,0.4,1.5,0.9,2.3,1.3c0,0.1-0.1,0.3-0.2,0.4c-0.4,0.9-0.8,1.7-1.2,2.6c0,0,0,0.1-0.1,0.1c-0.1,0.1-0.1,0.2-0.2,0.3
			c-0.1,0.2-0.3,0.4-0.4,0.6c-2,2.9-2.1,7-1.5,10.3c0.4,2,1.5,6,4.3,4.8c1.5-0.6,3-1.2,4.6-1.6c5.2-1.5,11-2.5,16.3-1.1
			c0.7,0.3,1.4,0.6,2.1,0.9c0.4,0.2,0.8,0.5,1.2,0.8c0.2,0.1,0.4,0.3,0.5,0.4c0,0,0,0,0,0c0.3,0.3,0.6,0.7,0.9,1
			c0.1,0.1,0.2,0.3,0.3,0.4c0.1,0.4,0.3,0.7,0.5,1.1c0,0.2,0.1,0.3,0.1,0.4c0,0.2,0,0.3,0.1,0.5c0,0,0,0,0,0v0c0,0.3,0,0.5,0,0.7
			v0.1c0,0,0,0,0,0c0,0,0,0.1,0,0.1c0,0.2,0,0.3,0,0.5c0,0.1,0,0.1,0,0.2c-0.1,0.8-0.2,1.5-0.3,2.3c-0.1,0.4-0.2,0.7-0.2,1
			c-0.1,0.3-0.1,0.5-0.2,0.8c0,0,0,0,0,0c0,0,0,0.1,0,0.1c-0.2,0.6-0.5,1.1-0.7,1.6c-0.2,0.2-0.3,0.5-0.5,0.7
			c-0.3,0.4-1,0.9-1.2,1.3h0c-0.2,0.2-0.5,0.4-0.7,0.6c-0.9,0.6-1.8,1-2.7,1.4c0,0,0,0-0.1,0c-3.6,0.9-7.5,0.4-11.1-0.6
			c-2.6-0.8-5.3-1.9-7.6-3.3c-2.9-1.8-4.3,4-4.5,5.8c-0.3,3.3-0.3,7.9,2.6,10.2c0.2,0.2,0.5,0.4,0.7,0.6c0,0,0.1,0.1,0.1,0.1
			c0.3,0.3,0.6,0.6,0.9,0.8c1.8,1.9,3.5,4,4.8,6.2c0.2,0.3,0.4,0.6,0.5,0.9c-0.1-0.1-0.1-0.2-0.1-0.2c0,0,0,0.1,0.1,0.1
			c0.4,0.7,0.7,1.5,1,2.3c0,0.1,0.1,0.3,0.2,0.6c0,0,0,0,0,0.1c0,0.1,0.1,0.2,0.1,0.2c0.1,0.2,0.1,0.4,0.1,0.6c0,0.1,0,0.3,0,0.5
			c-0.1,0.2-0.2,0.4-0.3,0.6c-0.2,0.4-0.4,0.8-0.6,1.2c0,0,0,0,0,0c0,0,0,0,0,0c0,0-0.1,0.1-0.1,0.2c0,0.1-0.1,0.1-0.1,0.2
			c0,0,0,0.1,0,0.1c0,0-0.1,0.1-0.1,0.1c-0.7,1.1-1.5,2.1-2.3,3c-0.2,0.2-0.4,0.4-0.6,0.6c-0.2,0.2-0.3,0.3-0.5,0.5
			c-0.5,0.5-1,0.9-1.6,1.4c-0.5,0.4-0.9,0.8-1.5,1c-3.4,0.9-7.2,1.1-10.6,0.2c-1-0.4-2-0.8-2.9-1.4c-0.5-0.3-1-0.7-1.5-1.1
			c-0.1-0.1-0.1-0.2-0.2-0.2c-0.3-0.3-0.5-0.6-0.8-0.9c-0.2-0.3-0.5-0.6-0.7-0.9c0-0.1-0.1-0.1-0.1-0.2c0,0,0,0,0,0
			c-0.4-0.7-1.1-1.7-1-2.3c0,0,0.2,0.8,0.3,1c0,0,0-0.1-0.1-0.2c-0.1-0.3-0.2-0.5-0.2-0.8c-0.1-0.4-0.2-0.9-0.3-1.3c0,0,0,0,0,0
			c0-0.2-0.1-0.4-0.1-0.4c-0.1-0.7-0.2-1.4-0.2-2c-0.1-1.5-0.7-3.7-1.7-5c-0.7-0.8-1.8-1.5-2.8-0.8c-2.9,1.9-2.8,7.3-2.6,10.2
			c0.8,7.9,3.4,17.8,11.1,21.8c4,2.1,8.7,2.4,13.1,1.5c1.2-0.2,2.5-0.5,3.6-1c0.6-0.3,1.3-1,1.8-1.4c1.2-1,2.4-2.2,3.5-3.4
			c1.8-1.9,3.3-4.1,4.5-6.5c3.3-6.4,3.9-14.2,2.3-21.4c5.8,0.3,11.3-1.4,14.8-7c1.9-3.1,3.1-6.5,3.9-10.1
			c18.5,6.3,35.9,16,51.8,27.3c1.3,0.9,2.5,1.8,3.7,2.7c1,0.7,2.3-0.1,2.8-0.8c1-1.4,1.5-3.3,1.7-5c0.3-3.6,0.8-7.1,1.3-10.6
			c0.5-3.9,1.2-7.7,1.8-11.6c0.1-0.8,0.3-1.6,0.4-2.4c0,0,0.1-0.4,0.2-0.8c0,0,0-0.1,0-0.1c0-0.2,0.1-0.3,0.1-0.5v0c0,0,0-0.1,0-0.1
			c0.1-0.4,0.2-0.7,0.2-1.1c0.5-2.5,1-5,1.6-7.5c1.2-5.4,2.5-10.7,4-16c0.8-2.8,1.6-5.6,2.5-8.4c0.2-0.6,0.4-1.3,0.6-1.9
			c0.1-0.2,0.1-0.3,0.2-0.5c0,0,0,0,0-0.1c0,0,0,0,0-0.1c0,0,0-0.1,0-0.1c0,0,0-0.1,0-0.1c0.5-1.4,1-2.7,1.5-4.1
			c2-5.4,4.3-10.8,6.8-15.9c0.7-1.3,1.3-2.6,2-3.9c0.3-0.5,0.6-1,0.8-1.5c0,0,0-0.1,0.1-0.1c0-0.1,0.1-0.1,0.1-0.2
			c0-0.1,0.1-0.1,0.1-0.2c0,0,0.1-0.1,0.1-0.1c0.1-0.2,0.2-0.3,0.3-0.5c1.4-2.4,2.9-4.7,4.5-7c1.5-2.1,3.2-4.2,4.9-6.2
			c0.9-1,1.7-1.9,2.6-2.8c0.1-0.1,0.3-0.3,0.5-0.5c0.1-0.1,0.1-0.1,0.2-0.2l0,0c0,0,0,0,0.1-0.1c0.5-0.4,0.9-0.8,1.4-1.3
			c3.7-3.2,7.9-5.9,12.4-7.8c1-0.4,2.1-0.8,3.1-1.1c7.3-2,14.9-1.7,22.2-0.1c-10.3,6.3-17,17.7-21.9,28.3
			c-4.3,9.4-7.5,19.4-10.1,29.4c-1.6,6.3-3,12.6-4.3,19c-0.8,3.9-1.5,7.7-2.1,11.6c-0.1,0.3-0.1,0.7-0.2,1c0,0-0.1,0.7-0.2,1
			c0,0,0,0,0,0c0,0,0,0,0,0c-0.1,0.8-0.3,1.5-0.5,2.2c-0.4,1.8-1.1,3.6-1.4,5.4c-0.8,3.8-0.9,10.1,3.3,12.1c1.4,0.6,2.8,1.1,4.1,1.8
			c1.3,0.8,2.5,1.7,3.5,2.8c2,2.2,3.9,4.5,5.4,7.1c0.1,0.2,0.6,1.1,0.9,1.6c0.3,0.6,0.6,1.3,0.9,2c0,0.1,0.1,0.2,0.1,0.2
			c0,0.1,0,0.2,0.1,0.3c0.1,0.3,0.2,0.6,0.2,0.8c0,0.1,0.1,0.3,0.1,0.5c0,0.1,0,0.1,0,0.2v0.1c0,0,0,0,0,0c0,0.3,0.1,0.8,0.1,0.8
			c0,0.1,0,0.2,0,0.3v0c0,0.1,0,0.2-0.1,0.3c0-0.1,0-0.1,0-0.2c0,0.1,0,0.2,0,0.2c-0.1,0.4-0.2,0.7-0.3,1.1c0,0.1-0.2,0.5-0.2,0.7
			c0,0.1-0.1,0.3-0.2,0.4c-0.3,0.8-0.6,1.5-1,2.3c-0.1,0.3-0.3,0.6-0.4,0.8c0,0-0.2,0.4-0.3,0.6c0,0,0,0.1,0,0.1s0,0,0,0
			c-0.3,0.5-0.6,0.9-0.9,1.4c-0.8,1.2-1.6,2.3-2.5,3.4c-1.4,1.8-3,3.5-4.6,5.1c0,0,0,0,0,0l-0.2,0.2c-0.1,0.1-0.2,0.2-0.3,0.2
			c-0.2,0.2-0.4,0.4-0.6,0.6c-0.3,0.3-0.6,0.6-0.9,0.8c-0.6,0.5-1.2,1-1.8,1.5c-0.5,0.4-1.1,0.8-1.6,1.2c-1.9,1.3-2,4.8-1.7,6.8
			c0.2,1,1.1,5.2,3,3.9c4-2.7,7.6-6.2,10.6-10c3.4,6,8.3,11.6,14.4,14.8c2.6,1.3,5.3,1.4,7.6,2.9c0.6,0.4,1.2,0.8,1.7,1.3l0.1,0.1
			c0.1,0.1,0.2,0.2,0.3,0.3c0.3,0.3,0.5,0.6,0.8,0.9c0.8,0.9,1.4,1.9,2.1,3c0,0,0,0.1,0.1,0.2c0,0,0,0.1,0.1,0.1
			c0.1,0.1,0.1,0.2,0.2,0.3c0.1,0.3,0.3,0.6,0.4,0.8c0.2,0.5,0.4,0.9,0.6,1.4c0,0.1,0.1,0.2,0.1,0.3c0.1,0.3,0.3,0.7,0.4,0.9
			c0-0.1,0-0.1-0.1-0.2c0.4,1,1,2.4,2.2,2c0.4-0.1,0.7-0.3,0.9-0.6c0.2,1.9,0.4,3.9,0.6,5.8c-8.3,1.9-16.9,1.8-25.3,0.6
			c-0.6-0.9-1.5-1.9-2.5-1.9c-0.8,0-1.5,0.5-2,1.2c-2.3-0.4-4.7-0.9-7-1.4c-4.3-0.9-8.6-2-12.9-3.2c-3.4-5.5-6.8-10.9-10.1-16.4
			c-0.6-1-1.8-1.4-2.8-0.8c-1.2,0.6-1.9,2.6-2.2,3.8c-0.9,3.7-0.7,8,1.3,11.3c3.3,5.4,6.7,10.8,10,16.1c0.2,0.3,0.3,0.6,0.5,0.9
			c0.9,1.2,2.5,1.4,3.9,1.8c0.4,0.1,0.8,0.2,1.1,0.3c-0.6-2.9-1.3-5.9-2.1-8.9c-0.3-0.1-0.6-0.2-0.9-0.3l-10.4-16.8l11.3,17
			c6.5,1.8,12.5,3.3,18.1,4.3c3.4,0.6,6.7,1.1,9.9,1.5c31.6,3.3,49.4-9.7,68.6-50.6c5.8-12.4,9-27.1,9.6-42.5
			C503.5,90.1,492.1,52.4,468.8,31.2z M102.7,130.4c-0.2,0.1-0.3,0.2-0.5,0.3c-0.1,0.1-0.2,0.1-0.4,0.2c0,0-0.1,0-0.1,0.1
			c-0.1,0.1-0.2,0.1-0.4,0.2c0,0-0.1,0-0.1,0.1c-0.1,0.1-0.2,0.1-0.3,0.2c0,0,0,0-0.1,0c-0.2,0.1-0.4,0.3-0.6,0.5
			c-0.2,0.2-0.5,0.4-0.7,0.6c-0.3,0.3-0.6,0.5-0.8,0.8c-4.7,4.9-11.3,13.7-9.1,22.5c0.1,0.6,0.3,1.1,0.5,1.7
			c0.1,0.3,0.2,0.6,0.3,0.9c0.1,0.3,0.2,0.6,0.3,0.9c0.3,0.7,0.6,1.5,1,2.2c0.2,0.3,0.3,0.7,0.5,1c0,0.1,0.1,0.2,0.1,0.2
			c0.3,0.6,0.7,1.3,1.1,1.9c0.1,0.2,0.3,0.5,0.4,0.7c0.2,0.4,0.5,0.8,0.8,1.1c0.3,0.5,0.6,0.9,1,1.3l2.3,2.3l8.9,8.7
			c-0.1,0-0.2-0.1-0.3-0.2c-0.1-0.1-0.2-0.2-0.4-0.3c-0.5-0.4-1.2-0.9-2-1.6c-0.1,0-0.1-0.1-0.2-0.1c-0.1-0.1-0.1-0.1-0.2-0.2
			c-0.2-0.2-0.5-0.4-0.8-0.7c-1.4-1.2-2.9-2.7-4.5-4.4c-0.2-0.2-0.4-0.5-0.6-0.7l0,0l-0.2-0.2c-0.2-0.2-0.3-0.4-0.5-0.6
			c-0.5-0.6-1-1.2-1.5-1.9c-0.6,1.3-1.4,2.5-2.1,3.7c-0.9,1.4-1.9,2.7-2.9,4c-0.3,0.4-0.6,0.7-0.9,1.1c-0.3,0.3-0.6,0.6-0.8,0.9
			c-0.3,0.4-0.7,0.7-1,1c-1,1-2.1,2-3.2,2.8c-0.4,0.3-0.8,0.6-1.2,0.8c-1.4,1-2.7,1.7-4,2.2c-0.1,0.1-0.3,0.1-0.4,0.2
			c-0.7,0.3-1.3,0.4-1.9,0.5c-0.3,0-0.5,0.1-0.7,0.2c-0.2,0.1-0.5,0.1-0.7,0.2c-0.2,0.1-0.3,0.1-0.5,0.2c-0.1,0-0.2,0.1-0.3,0.1
			c0,0,0,0,0,0c-0.2,0.1-0.3,0.1-0.4,0.2c-1.6,0.8-3.1,2.1-4.3,3.5c-0.2,0.2-0.4,0.4-0.5,0.6c-0.2,0.2-0.3,0.4-0.5,0.7
			c-1.6,2.2-2.7,4.5-3.3,5.9c-0.3,0.8-0.5,1.3-0.5,1.3s0-0.3-0.1-0.8c0-0.1,0-0.3,0-0.4c0-0.3-0.1-0.7-0.1-1.1c0-0.2,0-0.4-0.1-0.7
			v0c0-0.2,0-0.4,0-0.6c0,0,0-0.1,0-0.1c0-0.4-0.1-0.8-0.1-1.2c0-0.1,0-0.3,0-0.4c0-0.3,0-0.6-0.1-0.9c0-0.5-0.1-1-0.1-1.5
			c0-0.3,0-0.7-0.1-1c0-0.2,0-0.4,0-0.5c0-0.4,0-0.7-0.1-1.1c0-0.2,0-0.4,0-0.6c0-0.3,0-0.7-0.1-1c-0.1-1.9-0.2-4-0.4-6
			c0-0.4,0-0.8-0.1-1.2c0-1-0.1-2-0.1-2.9c0-0.6,0-1.2-0.1-1.7c0-0.4,0-0.7,0-1.1c0-0.3,0-0.6,0-0.9c0-0.2,0-0.4,0-0.7
			c0-0.7,0-1.4,0-2c0-0.6,0-1.2,0-1.8c0-0.7,0-1.4,0.1-2v0c0-0.1,0-0.1,0-0.2c0-0.2,0-0.4,0.1-0.6c0-0.4,0.1-0.8,0.1-1.1
			c0.1-0.6,0.1-1.2,0.1-1.7c0-0.1,0-0.1,0-0.2c0,0,0,0,0,0c0,0,0,0,0,0v-0.1c0-0.1,0-0.2,0-0.3c-0.1-0.4-0.2-0.8-0.3-1.2
			c-0.1-0.2-0.2-0.4-0.3-0.6c-0.2-0.4-0.5-0.7-0.9-1c-0.2-0.1-0.3-0.3-0.5-0.4c-0.2-0.1-0.3-0.2-0.5-0.3c0,0,0,0,0,0
			c-0.2-0.1-0.4-0.2-0.5-0.2c-0.2-0.1-0.4-0.1-0.5-0.2c-0.1,0-0.2-0.1-0.3-0.1c-0.2-0.1-0.4-0.1-0.6-0.1c-0.2,0-0.4-0.1-0.5-0.1
			c-0.1,0-0.1,0-0.2,0c-0.3,0-0.5,0-0.5,0s-2.7-0.1-6.1-1.5c-0.2-0.1-0.5-0.2-0.8-0.3c-0.3-0.1-0.5-0.2-0.8-0.4
			c-0.2-0.1-0.4-0.2-0.7-0.4c0,0-0.1,0-0.1-0.1c-0.3-0.1-0.5-0.3-0.8-0.5c-0.2-0.1-0.3-0.2-0.5-0.3c-0.3-0.2-0.6-0.4-0.9-0.6
			c-0.3-0.2-0.6-0.5-0.9-0.7c-0.4-0.4-0.9-0.8-1.3-1.2c-0.2-0.2-0.4-0.5-0.7-0.7c-0.2-0.2-0.4-0.4-0.6-0.7c0,0-0.1-0.1-0.1-0.1
			c-0.2-0.2-0.4-0.5-0.6-0.7c-0.2-0.2-0.3-0.5-0.5-0.7c0-0.1-0.1-0.1-0.1-0.2c-0.2-0.3-0.3-0.5-0.5-0.8c-0.2-0.4-0.4-0.8-0.7-1.2
			c-0.3-0.6-0.6-1.3-0.9-2c-0.3-0.8-0.6-1.6-0.8-2.4c-0.1-0.4-0.2-0.7-0.3-1.1c-0.1-0.6-0.3-1.2-0.4-1.8c-0.1-0.4-0.1-0.8-0.2-1.2
			c-0.1-0.5-0.1-1-0.2-1.5c0,0,0-0.1,0-0.1c0-0.5-0.1-0.9-0.1-1.4c0-0.1,0-0.1,0-0.2c0-0.5,0-1,0-1.6c0-0.8,0-1.6,0.1-2.5v-0.1
			c0,0,0-0.1,0-0.1c0.1-0.9,0.1-1.9,0.3-2.9c2.8-23.7,12.3-28.6,23.1-32.1c7.7-2.5,16-2.1,23.2,0.8c4.4,1.7,8.3,4.4,11.7,7.9
			c0.1,0.1,0.1,0.1,0.2,0.2c0.3,0.3,0.6,0.7,0.9,1c0.3,0.3,0.5,0.7,0.8,1.1c0.3,0.4,0.5,0.7,0.7,1.1c0.2,0.4,0.4,0.8,0.6,1.2
			c0.9,1.9,1.7,3.8,2.3,5.7c0,0,0,0,0,0c0.2,0.5,0.3,1,0.5,1.5c0.1,0.4,0.2,0.8,0.3,1.2c0,0.2,0.1,0.4,0.1,0.6
			c0.1,0.4,0.2,0.7,0.3,1.1c0.1,0.6,0.2,1.1,0.3,1.7c0,0.2,0.1,0.4,0.1,0.6c0.3,1.9,0.6,3.7,0.7,5.5c0,0.3,0,0.5,0,0.8
			c0,0.7,0.1,1.4,0.1,2c-0.4,0.2-0.8,0.3-1.2,0.5c-0.4,0.2-0.8,0.4-1.2,0.6c0,0,0,0,0,0C103.1,130.1,102.9,130.2,102.7,130.4z
			 M445.2,186.4c0,0.4-0.1,0.7-0.1,1c0,0.3,0,0.5,0,0.7c0,0.3,0,0.6-0.1,0.9c0,0.2,0,0.4,0,0.5c0,0.5-0.1,1-0.1,1.5
			c-0.1,1.4-0.2,2.7-0.3,3.8c0,0.2,0,0.5-0.1,0.7c0,0,0,0.1,0,0.1v0c-0.1,0.7-0.1,1.3-0.1,1.7c0,0.1,0,0.1,0,0.2c0,0.2,0,0.3,0,0.3
			s-0.1-0.2-0.2-0.5c-0.1-0.2-0.1-0.3-0.2-0.6c-0.4-1-1.1-2.5-2.1-4.1c-0.1-0.1-0.1-0.2-0.2-0.3c-0.1-0.1-0.2-0.3-0.2-0.4
			c-0.2-0.3-0.4-0.5-0.6-0.8c-0.3-0.4-0.6-0.9-1-1.3c-0.2-0.3-0.5-0.6-0.8-0.9c0,0-0.1-0.1-0.1-0.1c-0.3-0.3-0.6-0.6-0.9-0.9
			c0,0,0,0,0,0c-0.3-0.3-0.6-0.5-0.9-0.7c-1-0.8-2.1-1.4-3.3-1.8c-0.2-0.1-0.5-0.2-0.7-0.2c-0.2-0.1-0.5-0.1-0.7-0.2
			c-2.2-0.4-4.8-1.7-7.5-3.7c-0.2-0.1-0.4-0.3-0.6-0.4c-0.5-0.4-1.1-0.9-1.6-1.3c-0.3-0.3-0.6-0.5-0.9-0.8c-0.4-0.4-0.8-0.8-1.2-1.2
			c-0.3-0.3-0.7-0.7-1-1.1c-0.2-0.2-0.3-0.4-0.5-0.6c-0.2-0.2-0.3-0.4-0.5-0.6c-0.1-0.1-0.2-0.2-0.2-0.3c-0.3-0.4-0.6-0.7-0.9-1.1
			c-0.3-0.4-0.6-0.8-0.9-1.3c-0.3-0.5-0.6-0.9-0.9-1.4c-0.7-1.1-1.4-2.4-2-3.6c-0.7,1-1.4,1.9-2.2,2.7c-1.4,1.6-2.8,3-4.1,4.2
			c-0.3,0.2-0.5,0.5-0.8,0.7c-0.1,0.1-0.2,0.2-0.4,0.3c-0.1,0.1-0.2,0.2-0.3,0.3c-1.4,1.3-2.6,2.1-3.2,2.6c-0.2,0.1-0.3,0.2-0.4,0.3
			c0,0-0.1,0-0.1,0.1l9.1-9l2.3-2.3c0.2-0.3,0.4-0.5,0.6-0.8c0.2-0.3,0.4-0.5,0.5-0.8c0.2-0.3,0.4-0.5,0.5-0.8
			c0.2-0.3,0.3-0.6,0.5-0.8c1.3-2,2.3-4.3,3.1-6.6c0.1-0.2,0.1-0.3,0.1-0.5c0.1-0.4,0.3-0.9,0.4-1.3c2.2-8.8-4.4-17.6-9.1-22.5
			c-0.9-1-2-1.8-3.1-2.5c-0.2-0.1-0.4-0.3-0.7-0.4c-0.1,0-0.2-0.1-0.3-0.1c-0.4-0.2-0.8-0.4-1.2-0.6c-0.2-0.1-0.4-0.2-0.6-0.3
			c-0.2-0.1-0.4-0.2-0.6-0.3c0-0.5,0-1.1,0-1.6v0c0-0.4,0-0.7,0.1-1.1c0-0.1,0-0.2,0-0.3c0-0.1,0-0.2,0-0.2c0-0.3,0-0.6,0.1-0.8
			c0-0.4,0.1-0.9,0.1-1.4c0.1-0.8,0.2-1.5,0.3-2.3c0,0,0,0,0,0c0,0,0,0,0-0.1c0.1-0.4,0.1-0.9,0.2-1.3c0.1-0.3,0.1-0.6,0.2-0.9
			c0.1-0.3,0.1-0.6,0.2-0.9c0-0.1,0-0.1,0-0.2c0,0,0,0,0-0.1s0,0,0-0.1c0.1-0.3,0.1-0.5,0.2-0.8c0.1-0.5,0.3-1,0.4-1.5
			c0.1-0.4,0.2-0.8,0.4-1.2c0.1-0.3,0.2-0.6,0.3-0.9c0-0.1,0.1-0.3,0.1-0.4c0.1-0.3,0.2-0.7,0.4-1c0.2-0.4,0.3-0.8,0.5-1.3
			c0.3-0.8,0.7-1.7,1.1-2.5c0.8-1.6,1.8-3.1,3-4.4c0.1-0.1,0.1-0.1,0.2-0.2c0.9-1,1.9-1.9,3-2.8c0.3-0.3,0.7-0.6,1-0.8
			c0.1-0.1,0.2-0.2,0.3-0.2c0.4-0.3,0.7-0.6,1.1-0.8c0.4-0.3,0.8-0.6,1.3-0.8c0.4-0.2,0.7-0.5,1.1-0.7c0.1-0.1,0.2-0.1,0.4-0.2
			c0.4-0.2,0.8-0.4,1.1-0.6c0,0,0.1,0,0.1,0c0.3-0.1,0.5-0.3,0.8-0.4c0.3-0.1,0.6-0.3,0.8-0.4c0.3-0.1,0.5-0.2,0.8-0.3h0
			c0.5-0.2,1-0.4,1.5-0.6c0.5-0.2,1-0.3,1.5-0.5c0.3-0.1,0.7-0.2,1.1-0.3c0.2,0,0.3-0.1,0.5-0.1c0.5-0.1,1-0.2,1.5-0.3
			c0.1,0,0.2,0,0.3,0c0.5-0.1,0.9-0.2,1.4-0.2c0.5-0.1,1.1-0.1,1.6-0.2c0.5-0.1,1-0.1,1.5-0.1c0.6,0,1.1,0,1.7,0
			c3.5,0,7.1,0.5,10.6,1.7c10.8,3.5,20.3,8.4,23.1,32.1c0.3,2.3,0.4,4.4,0.3,6.3v0.2c0,0.3,0,0.6,0,0.9c-0.1,1.4-0.2,2.7-0.4,3.9
			c0,0.3-0.1,0.6-0.2,0.9c-0.1,0.3-0.1,0.6-0.2,0.9c-0.1,0.3-0.1,0.6-0.2,0.9c-0.1,0.2-0.1,0.5-0.2,0.7c-0.2,0.8-0.5,1.5-0.8,2.2
			c-0.1,0.2-0.2,0.5-0.3,0.7c-0.1,0.2-0.2,0.5-0.3,0.7c-0.2,0.4-0.3,0.7-0.5,1c-0.2,0.3-0.3,0.6-0.5,0.8c-0.1,0.2-0.2,0.4-0.4,0.6
			c-0.2,0.3-0.4,0.6-0.6,0.9c-1,1.4-2.1,2.6-3.3,3.5c-0.2,0.2-0.4,0.3-0.6,0.4c-0.9,0.7-1.7,1.2-2.6,1.7c-0.5,0.2-0.9,0.5-1.3,0.7
			c-0.3,0.1-0.6,0.3-0.9,0.4c-2.6,1.1-4.7,1.4-5.6,1.5c-0.1,0-0.2,0-0.2,0c-0.2,0-0.2,0-0.2,0s-0.5,0-1.3,0.2
			c-0.1,0-0.3,0.1-0.4,0.1c-0.8,0.2-1.7,0.6-2.5,1.3c-0.1,0.1-0.1,0.1-0.2,0.2c-0.1,0.1-0.2,0.2-0.3,0.3c-0.1,0.1-0.2,0.3-0.3,0.4
			c-0.1,0.2-0.2,0.4-0.3,0.6c-0.1,0.1-0.1,0.2-0.1,0.4c0,0.1-0.1,0.2-0.1,0.4c0,0.1-0.1,0.2-0.1,0.4c0,0,0,0,0,0c0,0,0,0,0,0
			c0,0,0,0,0,0c0,0.2-0.1,0.3-0.1,0.5c0,0.2,0,0.4,0,0.5c0,0.4,0,0.9,0.1,1.4c0.3,2,0.4,6.1,0.2,10.7c0,0.7-0.1,1.4-0.1,2.1
			c0,0.4,0,0.8-0.1,1.2c0,0.3,0,0.5,0,0.8c0,0.1,0,0.3,0,0.4c0,0.4,0,0.8-0.1,1.2C445.4,182.1,445.3,184.3,445.2,186.4z"/>
		<path class="st1" d="M344.9,221.4c-1.7-1.9-3.4,0.5-3.8,2c-0.1,0.5-0.3,0.9-0.4,1.4c0,0,0,0.1-0.1,0.1c-0.1,0.3-0.3,0.6-0.4,0.9
			c-0.4,0.8-0.8,1.6-1.2,2.3c-0.1,0.3-0.3,0.5-0.5,0.7c0,0,0,0,0,0c-0.1,0.1-0.5,0.8-0.7,1c-0.7,0.9-1.4,1.8-2.2,2.6
			c-0.4,0.4-0.8,0.8-1.2,1.2c0,0-0.2,0.2-0.3,0.3v0c0,0-0.1,0-0.1,0.1c0,0,0,0,0,0c0,0,0,0,0,0h0c0,0,0,0,0,0
			c-0.1,0.1-0.2,0.1-0.2,0.2c-1.1,0.8-2.1,1.5-3.3,2.2c-4.7,2.5-10.3,3-15.7,2.2c0,0,0,0,0,0c-4.7,1.2-9.8,0.6-14.4-1
			c-4.6-1.6-8.8-4.6-12.3-8.2c0.1,1.1,0.3,2.2,0.9,3.1c4.2,7,11.7,13.2,20.2,15.8c6.8,2.1,14.4,2.4,21-0.5
			c5.2-2.2,9.1-6.2,11.9-10.6c1.6-2.6,3.1-5.4,3.8-8.3C346.5,226.7,346.8,223.4,344.9,221.4z M278.2,257.5c-0.6-0.6-1.2-1.1-1.9-1.6
			c-0.1,0.5-0.2,0.9-0.4,1.4c-0.2,0.6-0.4,1.2-0.7,1.8c-0.5,1-1.1,2-1.7,2.9c-1,1.4-2.1,2.8-3.2,4c-2.7,2.9-6.9,6.8-11.3,5.6
			c-4-1.1-7.2-4.7-9.8-7.7c-0.7-0.9-1.5-1.7-2.1-2.6c-0.1-0.2-0.3-0.4-0.4-0.6c-0.5-0.7-0.9-1.6-1.1-2.5c-0.2-0.8-0.4-1.7-0.5-2.5
			c0-0.3-0.1-0.6-0.1-1c-0.5,0.2-1,0.5-1.4,0.8c-4.3,2.7-5.5,7.8-4.9,12.6c0.3,2.2,0.9,4.8,2.2,6.7c1,1.5,2.2,2.9,3.4,4.3
			c3.4,4,7.7,8.8,13.1,10.3c5.8,1.6,11.5-3.6,15.1-7.5c3.1-3.4,6.1-7.2,7.6-11.6C281.3,266.2,281.3,260.8,278.2,257.5z M222.9,224.7
			c0-0.1-0.1-0.1-0.1-0.2c-1.2,1.8-2.6,3.5-4.2,5.1c-4.1,4.1-8.8,7.2-14.4,8.7c-3.3,0.9-6.9,1.1-10.3,0.6c-3.8,0.2-7.6-0.3-10.8-1.7
			c-1.2-0.5-2.3-1.1-3.4-1.8c-0.5-0.3-1-0.7-1.5-1c-0.2-0.1-0.3-0.2-0.5-0.4c0,0-0.1-0.1-0.1-0.1c-0.1-0.1-0.2-0.2-0.3-0.3
			c-0.8-0.8-1.6-1.5-2.3-2.4c-0.3-0.4-0.7-0.8-1-1.2c-0.1-0.2-0.5-0.7-0.7-1c0,0,0-0.1-0.1-0.1c0,0,0,0,0,0
			c-0.8-1.4-1.5-2.8-2.2-4.3c0,0,0,0,0,0c-0.1-0.2-0.1-0.4-0.2-0.6c-0.1-0.2-0.1-0.4-0.2-0.6c-0.4-1.5-2.1-3.9-3.8-2
			c-1.8,1.9-1.6,5.3-1,7.6c1.8,7,6.8,14.2,13.8,18c5.9,3.2,13.4,3.7,20.1,2.1c6.4-1.5,11.8-4.6,16.4-8.7c2.6-2.3,4.9-5,6.6-7.8
			C224.2,230.3,224.1,226.9,222.9,224.7z"/>
		<path class="st1" d="M383.4,186.5c1-0.6,2.2-0.1,2.8,0.8c3.4,5.4,6.8,10.9,10.1,16.4c4.3,1.2,8.6,2.3,12.9,3.2
			c2.3,0.5,4.6,1,7,1.4c0.5-0.7,1.2-1.2,2-1.2c1,0,2,1,2.5,1.9c8.4,1.2,17,1.3,25.3-0.6c-0.1-2-0.3-3.9-0.6-5.8
			c-0.3,0.3-0.6,0.5-0.9,0.6c-1.2,0.4-1.8-1-2.2-2c0,0.1,0,0.2,0.1,0.2c-0.1-0.2-0.2-0.6-0.4-0.9c-0.1-0.1-0.1-0.2-0.1-0.3
			c-0.2-0.5-0.4-0.9-0.6-1.4c-0.1-0.3-0.3-0.6-0.4-0.8c0-0.1-0.1-0.2-0.2-0.3c0,0,0-0.1-0.1-0.1c-0.1-0.2-0.1-0.2-0.1-0.2
			c-0.6-1-1.3-2-2.1-3c-0.3-0.3-0.5-0.6-0.8-0.9c-0.1-0.1-0.2-0.2-0.3-0.3l-0.1-0.1c-0.5-0.5-1.1-0.9-1.7-1.3
			c-2.3-1.5-5.1-1.6-7.6-2.9c-6.1-3.2-11-8.8-14.4-14.8c-3.1,3.8-6.7,7.3-10.6,10c-1.9,1.3-2.9-2.8-3-3.9c-0.3-2-0.2-5.5,1.7-6.8
			c0.6-0.4,1.1-0.8,1.6-1.2c0.6-0.5,1.2-1,1.8-1.5c0.3-0.3,0.6-0.6,0.9-0.8c0.2-0.2,0.4-0.4,0.6-0.6c0,0,0.1-0.1,0.3-0.2l0.2-0.2
			c0,0,0,0,0,0c1.6-1.6,3.2-3.3,4.6-5.1c0.9-1.1,1.7-2.2,2.5-3.4c0.3-0.5,0.6-0.9,0.9-1.4c0,0,0,0,0,0s0,0,0-0.1
			c0.1-0.2,0.3-0.6,0.3-0.6c0.2-0.3,0.3-0.6,0.4-0.8c0.4-0.8,0.7-1.5,1-2.3c0.1-0.1,0.1-0.3,0.2-0.4c0.1-0.2,0.2-0.6,0.2-0.7
			c0.1-0.4,0.2-0.7,0.3-1.1c0-0.1,0-0.1,0-0.2c0,0,0,0.1,0,0.2c0-0.1,0-0.2,0.1-0.3v0c0-0.1,0-0.2,0-0.3c0-0.1-0.1-0.5-0.1-0.8
			c0,0,0,0,0,0v-0.1c0,0,0-0.1,0-0.2c0-0.2-0.1-0.5-0.1-0.5c-0.1-0.3-0.2-0.6-0.2-0.8c0-0.2-0.1-0.3-0.1-0.3c0-0.1-0.1-0.1-0.1-0.2
			c-0.3-0.7-0.6-1.4-0.9-2c-0.3-0.6-0.7-1.4-0.9-1.6c-1.5-2.5-3.4-4.9-5.4-7.1c-1-1.1-2.2-2-3.5-2.8c-1.3-0.8-2.7-1.2-4.1-1.8
			c-4.2-2-4.1-8.3-3.3-12.1c0.4-1.8,1-3.6,1.4-5.4c0.2-0.7,0.4-1.5,0.5-2.2c0,0,0,0,0,0c0,0,0,0,0,0c0-0.2,0.2-0.9,0.2-1
			c0.1-0.3,0.1-0.7,0.2-1c0.6-3.9,1.3-7.8,2.1-11.6c1.2-6.4,2.6-12.7,4.3-19c2.6-10,5.8-20,10.1-29.4c4.9-10.7,11.6-22,21.9-28.3
			c-7.3-1.7-14.9-1.9-22.2,0.1c-1.1,0.3-2.1,0.7-3.1,1.1c-4.6,1.9-8.7,4.6-12.4,7.8c-0.5,0.4-0.9,0.8-1.4,1.3c0,0,0,0-0.1,0.1l0,0
			c-0.1,0.1-0.1,0.1-0.2,0.2c-0.2,0.2-0.3,0.3-0.5,0.5c-0.9,0.9-1.8,1.8-2.6,2.8c-1.7,2-3.4,4.1-4.9,6.2c-1.6,2.3-3.1,4.6-4.5,7
			c-0.1,0.2-0.2,0.3-0.3,0.5c0,0,0,0.1-0.1,0.1c0,0.1-0.1,0.1-0.1,0.2c0,0.1-0.1,0.1-0.1,0.2c0,0,0,0.1-0.1,0.1
			c-0.3,0.5-0.6,1-0.8,1.5c-0.7,1.3-1.4,2.6-2,3.9c-2.6,5.2-4.8,10.5-6.8,15.9c-0.5,1.4-1,2.7-1.5,4.1c0,0,0,0.1,0,0.1
			c0,0.1,0,0.1,0,0.1c0,0,0,0.1,0,0.1c0,0,0,0.1,0,0.1c-0.1,0.2-0.1,0.3-0.2,0.5c-0.2,0.6-0.4,1.3-0.6,1.9c-0.9,2.8-1.7,5.6-2.5,8.4
			c-1.5,5.3-2.8,10.6-4,16c-0.6,2.5-1.1,5-1.6,7.5c-0.1,0.4-0.1,0.7-0.2,1.1c0,0,0,0.1,0,0.1v0c0,0.2-0.1,0.3-0.1,0.5
			c0,0,0,0.1,0,0.1c-0.1,0.4-0.2,0.8-0.2,0.8c-0.1,0.8-0.3,1.6-0.4,2.4c-0.7,3.9-1.3,7.7-1.8,11.6c-0.5,3.5-1,7.1-1.3,10.6
			c-0.1,1.7-0.7,3.6-1.7,5c-0.6,0.8-1.9,1.6-2.8,0.8c-1.2-0.9-2.5-1.8-3.7-2.7c-15.8-11.3-33.3-21.1-51.8-27.3
			c-0.7,3.6-2,7-3.9,10.1c-3.4,5.5-9,7.3-14.8,7c1.6,7.2,1,15-2.3,21.4c-1.2,2.4-2.7,4.6-4.5,6.5c-1.1,1.2-2.3,2.3-3.5,3.4
			c-0.5,0.5-1.2,1.1-1.8,1.4c-1.1,0.5-2.4,0.7-3.6,1c-4.4,0.9-9.1,0.6-13.1-1.5c-7.7-4-10.4-13.9-11.1-21.8
			c-0.3-2.9-0.3-8.3,2.6-10.2c1-0.7,2.2,0,2.8,0.8c1,1.3,1.5,3.4,1.7,5c0.1,0.7,0.1,1.4,0.2,2c0,0.1,0,0.3,0.1,0.4c0,0,0,0,0,0
			c0.1,0.4,0.2,0.9,0.3,1.3c0.1,0.3,0.2,0.5,0.2,0.8c0,0.1,0.1,0.2,0.1,0.2c-0.1-0.2-0.3-1-0.3-1c-0.1,0.6,0.7,1.7,1,2.3
			c0,0,0,0,0,0c0,0.1,0.1,0.1,0.1,0.2c0.2,0.3,0.4,0.6,0.7,0.9c0.2,0.3,0.5,0.6,0.8,0.9c0.1,0.1,0.2,0.2,0.2,0.2
			c0.5,0.4,1,0.8,1.5,1.1c0.9,0.6,1.9,1.1,2.9,1.4c3.4,0.9,7.2,0.7,10.6-0.2c0.6-0.2,1-0.6,1.5-1c0.5-0.4,1.1-0.9,1.6-1.4
			c0.2-0.2,0.3-0.3,0.5-0.5c0.2-0.2,0.4-0.4,0.6-0.6c0.9-0.9,1.6-1.9,2.3-3c0,0,0.1-0.1,0.1-0.1c0,0,0-0.1,0-0.1
			c0.1-0.1,0.1-0.1,0.1-0.2c0-0.1,0.1-0.1,0.1-0.2c0,0,0,0,0,0c0,0,0,0,0,0c0.2-0.4,0.4-0.8,0.6-1.2c0.1-0.2,0.2-0.4,0.3-0.6
			c0-0.2,0-0.3,0-0.5c0-0.2-0.1-0.4-0.1-0.6c0-0.1,0-0.1-0.1-0.2c0,0,0,0,0-0.1c-0.1-0.2-0.2-0.5-0.2-0.6c-0.3-0.8-0.7-1.5-1-2.3
			c0,0,0-0.1-0.1-0.1c0,0.1,0.1,0.1,0.1,0.2c-0.2-0.3-0.4-0.6-0.5-0.9c-1.4-2.2-3-4.3-4.8-6.2c-0.3-0.3-0.6-0.6-0.9-0.8
			c0,0-0.1-0.1-0.1-0.1c-0.2-0.2-0.5-0.4-0.7-0.6c-2.8-2.3-2.9-6.9-2.6-10.2c0.2-1.8,1.6-7.6,4.5-5.8c2.4,1.4,5,2.5,7.6,3.3
			c3.6,1,7.4,1.6,11.1,0.6c0,0,0,0,0.1,0c1-0.3,1.9-0.8,2.7-1.4c0.3-0.2,0.5-0.4,0.7-0.6h0c0.2-0.5,0.9-0.9,1.2-1.3
			c0.2-0.2,0.3-0.5,0.5-0.7c0.2-0.5,0.5-1,0.7-1.6c0,0,0-0.1,0-0.1c0,0,0,0,0,0c0.1-0.3,0.1-0.5,0.2-0.8c0.1-0.4,0.2-0.7,0.2-1
			c0.1-0.7,0.2-1.5,0.3-2.3c0-0.1,0-0.1,0-0.2c0-0.2,0-0.4,0-0.5c0,0,0-0.1,0-0.1c0,0,0,0,0,0v-0.1c0-0.2,0-0.4,0-0.7v0c0,0,0,0,0,0
			c0-0.2,0-0.3-0.1-0.5c0-0.1-0.1-0.3-0.1-0.4c-0.2-0.4-0.4-0.7-0.5-1.1c-0.1-0.1-0.2-0.3-0.3-0.4c-0.3-0.4-0.6-0.7-0.9-1
			c0,0,0,0,0,0c-0.2-0.1-0.4-0.3-0.5-0.4c-0.4-0.3-0.8-0.5-1.2-0.8c-0.7-0.4-1.4-0.7-2.1-0.9c-5.3-1.4-11.1-0.4-16.3,1.1
			c-1.5,0.5-3.1,1-4.6,1.6c-2.8,1.2-4-2.8-4.3-4.8c-0.6-3.3-0.5-7.4,1.5-10.3c0.1-0.2,0.3-0.4,0.4-0.6c0.1-0.1,0.1-0.2,0.2-0.3
			c0,0,0-0.1,0.1-0.1c0.5-0.8,0.9-1.7,1.2-2.6c0.1-0.1,0.1-0.3,0.2-0.4c-0.8-0.5-1.4-1-2.3-1.3c0,0,0,0,0,0
			c-1.4-0.3-2.8-0.2-4.3,0.1c-1.9,0.7-3.7,1.8-5.3,3c-0.5,0.4-1,0.8-1.5,1.3c-0.1,0.1-0.2,0.2-0.3,0.3c0,0,0,0-0.1,0.1c0,0,0,0,0,0
			c0,0-0.1,0.1-0.1,0.1c0,0-0.1,0.1-0.1,0.1c-0.9,0.9-1.7,1.8-2.6,2.7c-1.5,1.7-2.8,3.4-4,5.2c-0.6,0.9-1.2,1.8-1.8,2.8
			c-0.2,0.3-0.3,0.5-0.5,0.8c-0.1,0.1-0.1,0.2-0.2,0.3c-2.3,4.2-3.9,8.8-8.3,11.3c-2.7,1.6-5.9,1.5-8.9,1.9
			c-5.1,0.7-10.2,1.9-15.2,3.3c-6.9,2.1-13.6,4.7-20.1,7.7c-9.8,4.5-19.1,9.8-28.1,15.7c-3.9,2.5-7.8,5.2-11.5,8
			c-2.8,2.1-4.4-4.4-4.5-5.8c0-0.1,0-0.1,0-0.2c-0.5-4.3-1-8.7-1.6-13c-0.6-3.8-1.2-7.6-1.9-11.4c0-0.2-0.1-0.3-0.1-0.5
			c0-0.1,0-0.2-0.1-0.3c0,0,0,0,0,0c0-0.1,0-0.1,0-0.2c-0.1-0.6-0.2-1.2-0.3-1.8c-0.2-1.2-0.5-2.5-0.7-3.7c-0.5-2.6-1.1-5.1-1.7-7.7
			c-1.3-5.5-2.7-10.9-4.3-16.3c-0.4-1.4-0.9-2.8-1.3-4.2c-0.2-0.7-0.4-1.4-0.7-2.1c-0.1-0.2-0.1-0.4-0.2-0.6c0-0.1-0.3-0.8-0.3-0.8
			c-0.9-2.5-1.8-5-2.8-7.5c-2.1-5.4-4.5-10.7-7.3-15.8c-0.3-0.5-0.6-1.1-0.9-1.6c0,0-0.1-0.1-0.1-0.2c0-0.1-0.1-0.2-0.1-0.2
			c0,0,0-0.1-0.1-0.1c0,0,0,0,0-0.1c-0.1-0.2-0.2-0.3-0.3-0.5c-0.7-1.2-1.4-2.4-2.2-3.5c-1.5-2.3-3.1-4.5-4.7-6.6
			c-1.6-2-3.4-4-5.2-5.9c-0.1-0.1-0.2-0.2-0.3-0.3c-0.1-0.1-0.2-0.2-0.3-0.3c0,0,0,0-0.1-0.1l-0.1-0.1c-0.4-0.4-0.9-0.8-1.4-1.2
			c-0.9-0.8-1.9-1.6-2.9-2.4c-3.8-2.8-8-5.1-12.5-6.5c-7.5-2.1-15.4-1.8-23,0c0.5,0.4,1,0.7,1.5,1.1C84,33.4,90.2,46.4,94.8,58.5
			c4,10.6,7,21.5,9.4,32.5c1.6,7.2,2.9,14.5,4.1,21.8c0.1,0.4,0.1,0.8,0.2,1.2v0c0,0,0,0,0,0c0,0.2,0.2,1,0.2,1
			c0.2,0.8,0.4,1.7,0.6,2.5c0.4,1.5,0.9,2.9,1.2,4.4c0.8,3.8,0.9,10.1-3.3,12.1c-0.3,0.1-0.6,0.3-0.9,0.4c-1.3,0.6-2.6,1-3.8,1.8
			c-1.2,0.7-2.2,1.6-3.1,2.6c-2,2.2-3.8,4.5-5.3,7.1c0,0,0,0,0,0c0,0,0,0,0,0c-0.1,0.2-0.4,0.7-0.4,0.7c-0.2,0.4-0.4,0.8-0.6,1.2
			c-0.3,0.6-0.5,1.2-0.7,1.7v0c0,0,0,0,0,0c0,0,0,0,0,0c0,0.2-0.2,0.7-0.2,0.8c-0.1,0.3-0.1,0.6-0.2,0.8c0,0.1,0,0.1,0,0.1
			c0,0.1,0,0.1,0,0.3c0,0.1,0,0.3,0,0.4v0.4c0,0,0,0,0,0c0,0.2,0.1,0.4,0.1,0.5c0,0,0,0,0,0c0,0,0,0.1,0,0.1c0.1,0.5,0.3,1,0.4,1.5
			c0,0,0,0.1,0,0.1c0,0,0,0,0,0.1c0.1,0.3,0.2,0.6,0.4,0.9c0.2,0.6,0.5,1.2,0.8,1.8c0.2,0.5,0.5,0.9,0.7,1.4c0,0.1,0.1,0.1,0.1,0.1
			c0,0,0,0,0,0c0,0,0,0,0,0c0,0,0,0,0,0c0,0,0,0.1,0.1,0.1c0,0,0,0,0,0c0.3,0.6,0.7,1.2,1.1,1.7c0.4,0.7,0.9,1.3,1.4,2
			c0.1,0.1,0.1,0.2,0.2,0.3c0.2,0.3,0.4,0.5,0.6,0.7c1.5,1.9,3.1,3.6,4.8,5.3c0,0,0,0,0.1,0.1v0c0.1,0.1,0.3,0.3,0.4,0.3
			c0.2,0.2,0.3,0.3,0.5,0.5c0.3,0.3,0.6,0.6,0.9,0.8c0.6,0.5,1.2,1,1.8,1.5c0.5,0.4,1.1,0.8,1.6,1.2c1.9,1.3,1.9,4.8,1.7,6.8
			c-0.1,1.1-1.1,5.2-3,3.9c-0.5-0.3-1-0.7-1.5-1.1c-3.2-2.5-6.2-5.4-8.9-8.6c-2,3.3-4.3,6.4-7.1,9.1c-2.7,2.6-5.6,5-9.2,6.3
			c-1.6,0.6-3.3,0.7-4.8,1.5c-1.6,0.9-2.6,1.8-3.7,3.1c-0.6,0.7-1.1,1.4-1.6,2.2c-0.2,0.3-0.3,0.5-0.5,0.8c0,0,0,0,0,0l0,0v0
			c-0.1,0.1-0.4,0.6-0.4,0.7c-0.6,1.2-1.2,2.4-1.6,3.7c-0.3,0.8-0.9,1.6-1.7,1.6c-0.1,1.5-0.2,3.3-0.2,5.1c2.3,0.5,4.5,0.9,6.8,1.1
			c8.5,0.8,17,0,25.4-1.7c0.4-0.3,0.8-0.5,1.3-0.5c0.2,0,0.4,0,0.6,0.1c5.2-1.1,10.3-2.4,15.2-3.8c3.7-5.5,7.4-10.9,11.1-16.4
			c0.7-0.9,1.8-1.4,2.8-0.8c1.3,0.7,1.8,2.5,2.2,3.8c1,3.5,0.8,8.2-1.3,11.3c-1.4,2-2.8,4.1-4.1,6.1c-2.1,3.2-4.3,6.3-6.5,9.5
			c-0.3,0.4-0.6,0.9-0.9,1.3c-0.6,0.9-1.4,1.2-2.4,1.5c-0.6,0.2-1.3,0.4-1.9,0.5c-2.2,0.6-4.5,1.2-6.8,1.8c-1.7,0.4-3.4,0.8-5.1,1.2
			c0,0,0,0.1,0,0.1c-0.3,0.8-0.6,1.6-0.8,2.3c-0.1,0.2-0.1,0.3-0.1,0.4c0,0,0,0,0,0c0,0,0,0,0,0c0,0.2-0.1,0.3-0.1,0.5
			c-0.5,1.5-1,3-1.5,4.5c-1.7,5.6-3.1,11.2-4.3,17c0,0.1,0,0.2-0.1,0.3c0,0,0,0.1,0,0.1c0,0,0,0.1,0,0.1c0,0,0,0,0,0
			c0,0,0,0.1,0,0.1c-0.1,0.6-0.2,1.1-0.3,1.7c-0.2,1.2-0.4,2.5-0.6,3.7c-0.4,2.5-0.7,5.1-0.9,7.6c-0.1,1.1-0.2,2.3-0.3,3.4
			c0,0.1,0,0.1,0,0.2c0,0.5,0,1.1-0.1,1.6c-0.1,2.3-0.1,4.6-0.1,6.8c0,1.1,0,2.2,0.1,3.3c0,0.3,0,0.7,0,1c0,0.1,0,0.1,0,0.2
			c0.1,1.9,0.3,3.8,0.5,5.6c0.2,1.9,0.5,3.7,0.8,5.6c0,0.2,0.1,0.4,0.1,0.6c0,0.1,0,0.3,0.1,0.4c0.1,0.7,0.3,1.4,0.4,2.1
			c0.7,3,1.4,6.1,2.4,9.1c0.1,0.4,0.2,0.7,0.3,1.1c0.1,0.3,0.2,0.6,0.3,0.9c0,0.1,0,0.1,0.1,0.2c0.4,1.1,0.8,2.2,1.3,3.3
			c0.8,1.9,1.6,3.7,2.5,5.5c0.3,0.7,0.7,1.4,1.1,2c0.1,0.2,0.2,0.4,0.3,0.6c0.3,0.5,0.6,1,0.9,1.5c4.4,6.4,9.6,12.4,14.9,18.1
			c1.7,1.8,3.4,3.6,5.2,5.3c0.4,0.4,0.9,0.8,1.3,1.3l0,0c0,0,0,0,0,0c0,0,0,0,0.1,0.1l0,0c0,0,0,0,0.1,0.1l0,0c0,0,0.1,0.1,0.1,0.1
			c0,0,0,0,0,0c0,0,0,0,0,0c0.1,0.1,0.2,0.2,0.3,0.3c0.9,0.8,1.8,1.6,2.7,2.4c3.4,3.1,7,6.1,10.6,8.9c7,5.4,14.3,10.3,22,14.7
			c13.3,7.6,27.6,13.7,42.3,18.2c6.3,1.9,12.6,3.5,19,4.8c8.6,1.8,17.3,3.1,26.1,3.8c3.3,0.3,6.7,0.5,10,0.5c0,0,0.1,0,0.1,0
			c0,0,0.1,0,0.1,0c1.1,0,2.2,0,3.3-0.1c6.5-0.3,13.1-1,19.6-1.9c10.8-1.6,21.5-4,32-7.2c0.1,0,0.2-0.1,0.3-0.1
			c1.3-0.4,2.7-0.8,4-1.3c15.1-5,29.7-11.6,43.3-20c7.6-4.7,15-9.9,21.9-15.7c1.8-1.5,3.6-3.1,5.4-4.6c1-0.8,1.9-1.7,2.8-2.6
			c0.1-0.1,0.2-0.2,0.3-0.3c0,0,0,0,0.1-0.1c0,0,0,0,0,0c0,0,0,0,0.1-0.1l0,0c0,0,0,0,0.1-0.1c0,0,0,0,0.1-0.1c0,0,0,0,0,0
			c0,0,0,0,0,0c0,0,0,0,0,0c0.4-0.4,0.8-0.7,1.1-1.1c3.5-3.4,6.9-7,10.1-10.7c3.8-4.4,7.7-8.9,10.8-13.8c0.2-0.3,0.4-0.6,0.6-0.9
			c0.1-0.1,0.1-0.2,0.2-0.4c0.8-1.5,1.6-3,2.3-4.6c0.9-2.1,1.8-4.1,2.5-6.3c0,0,0,0,0,0c0-0.1,0.1-0.1,0.1-0.3c0,0,0,0,0-0.1
			c0.2-0.6,0.4-1.2,0.6-1.8c0.4-1.4,0.9-2.9,1.2-4.3c0.4-1.6,0.8-3.1,1.1-4.7c0.2-0.7,0.3-1.4,0.4-2.1c0.1-0.4,0.1-0.7,0.2-1.1
			c0.6-3.7,1-7.5,1.3-11.2c0-0.5,0-0.9,0.1-1.4c0-1,0.1-2,0.1-3.1c0-2.3,0-4.6-0.1-6.8c0-0.7-0.1-1.3-0.1-2v0
			c-0.1-1.1-0.2-2.1-0.3-3.1c-0.2-2.5-0.5-4.9-0.9-7.4c-0.2-1.4-0.4-2.8-0.7-4.2c-0.1-0.5-0.2-1-0.3-1.5l-0.1-0.5l0-0.1
			c-0.6-2.8-1.2-5.6-1.9-8.3c-0.7-2.9-1.6-5.9-2.4-8.8c-0.5-1.5-0.9-3-1.4-4.5c-0.1-0.3-0.2-0.5-0.3-0.8c0-0.1,0-0.1-0.1-0.2
			c0-0.1,0-0.1-0.1-0.2c0,0,0,0,0,0c-0.1-0.2-0.2-0.5-0.2-0.7c-3.4-0.6-6.7-1.3-10-2.1c-2.6-0.6-5.2-1.3-7.7-2
			c-0.4-0.1-0.8-0.2-1.1-0.3c-1.4-0.4-3-0.6-3.9-1.8c-0.2-0.3-0.4-0.6-0.5-0.9c-3.3-5.4-6.7-10.8-10-16.1c-2.1-3.3-2.2-7.6-1.3-11.3
			C381.5,189.1,382.2,187.1,383.4,186.5z M224.5,221.8c-0.5,0.9-1.1,1.9-1.7,2.7c0,0.1,0.1,0.1,0.1,0.2c1.2,2.2,1.3,5.7,0,7.8
			c-1.7,2.9-4,5.5-6.6,7.8c-4.6,4.1-10,7.2-16.4,8.7c-6.7,1.6-14.1,1.1-20.1-2.1c-7-3.8-12-11-13.8-18c-0.6-2.2-0.8-5.6,1-7.6
			c1.7-1.9,3.4,0.5,3.8,2c0.1,0.2,0.1,0.4,0.2,0.6c0.1,0.2,0.1,0.4,0.2,0.6c0,0,0,0,0,0c0.7,1.5,1.4,2.9,2.2,4.3c0,0,0,0,0,0
			c0,0,0.1,0.1,0.1,0.1c0.2,0.3,0.6,0.8,0.7,1c0.3,0.4,0.6,0.8,1,1.2c0.7,0.8,1.5,1.6,2.3,2.4c0.1,0.1,0.2,0.2,0.3,0.3
			c0,0,0.1,0.1,0.1,0.1c0.2,0.1,0.3,0.2,0.5,0.4c0.5,0.4,1,0.7,1.5,1c1.1,0.7,2.2,1.3,3.4,1.8c3.2,1.4,7,1.9,10.8,1.7
			c-2.6-0.4-5.1-1.3-7.4-2.7c-6.2-3.8-10.5-11-12.1-18c-0.5-2.2-0.7-5.6,0.9-7.6c1.5-1.9,3,0.5,3.3,2c0,0.2,0.1,0.4,0.1,0.6
			c0.1,0.2,0.1,0.4,0.2,0.6c0,0,0,0,0,0c0.6,1.5,1.2,2.9,1.9,4.3c0,0,0,0,0,0c0,0,0,0.1,0.1,0.1c0.2,0.3,0.5,0.8,0.6,1
			c0.3,0.4,0.6,0.8,0.8,1.2c0.6,0.8,1.3,1.6,2,2.4c0.1,0.1,0.2,0.2,0.3,0.3c0,0,0.1,0.1,0.1,0.1c0.1,0.1,0.3,0.2,0.4,0.4
			c0.4,0.4,0.9,0.7,1.3,1c0.9,0.7,1.9,1.3,3,1.8c4.9,2.4,11.2,2.2,16.4,0.3c2.4-0.9,4.7-2.2,6.8-3.7c1-0.7,2-1.6,2.9-2.4h0
			c0,0,0,0,0,0c0,0,0,0,0.1-0.1c0,0,0.1-0.1,0.1-0.1c0.2-0.2,0.4-0.4,0.6-0.6c0.3-0.4,0.7-0.7,1-1.1c1.1-1.2,2.1-2.6,3.1-4
			c0.2-0.4,0.5-0.7,0.7-1.1c0,0,0,0,0-0.1c0.3-0.6,0.8-1.4,1.6-1.4c0.9,0,1.4,0.9,1.7,1.6C225.5,216.1,225.6,219.6,224.5,221.8z
			 M243.5,255.4c0.5-0.3,0.9-0.5,1.4-0.8c-0.2-3.3,0.8-6.6,3.8-8.5c3.6-2.2,8.7-2.4,12.9-2c4.2,0,10,0.1,13.1,3.5
			c2,2.1,2.2,5.4,1.7,8.2c0.7,0.5,1.3,1,1.9,1.6c3.1,3.3,3.1,8.7,1.7,12.7c-1.4,4.4-4.4,8.2-7.6,11.6c-3.6,3.9-9.3,9.1-15.1,7.5
			c-5.3-1.5-9.6-6.3-13.1-10.3c-1.2-1.4-2.4-2.8-3.4-4.3c-1.3-1.9-1.9-4.5-2.2-6.7C238,263.2,239.2,258.1,243.5,255.4z M283.7,296.3
			c-0.8,2.5-2.1,4.8-4,6.8c-7.4,7.9-20.6,10-30.6,6.5c-5.7-2-11.1-6.7-13.2-12.4c-0.9-2.4-1-5.4,0-7.8c0.3-0.6,0.9-1.6,1.7-1.6
			c0.8,0,1.5,1,1.7,1.6c0.2,0.5,0.4,0.9,0.6,1.3c0,0,0,0.1,0.1,0.1c0.2,0.3,0.4,0.6,0.6,0.9c0.4,0.6,0.9,1.2,1.4,1.8
			c0.3,0.3,0.6,0.6,0.9,1v0c0,0,0,0,0,0c0,0,0,0,0.1,0c0.1,0.1,0.3,0.3,0.4,0.4c0.7,0.6,1.4,1.1,2.1,1.6c1.7,1.1,3.7,2.1,5.6,2.6
			c5.4,1.5,11.6,1.2,17-0.5c2.2-0.7,4.3-1.6,6.1-2.9c0.8-0.6,1.6-1.2,2.3-1.8c0,0,0,0,0,0c0.1-0.1,0.2-0.2,0.3-0.3
			c0.3-0.3,0.5-0.5,0.7-0.8c0.4-0.5,0.8-1,1.2-1.6c0.1-0.1,0.2-0.3,0.3-0.4v0c0.2-0.3,0.4-0.9,0.5-1.1c0,0.1-0.1,0.3-0.2,0.8
			c0.5-1.4,1.8-3.6,3.3-1.7C284.3,290.6,284.4,294.1,283.7,296.3z M345.9,229c-0.7,2.9-2.2,5.7-3.8,8.3c-2.8,4.4-6.6,8.3-11.9,10.6
			c-6.6,2.8-14.2,2.6-21,0.5c-8.6-2.6-16-8.8-20.2-15.8c-0.5-0.9-0.8-2-0.9-3.1c-2.2-2.3-4.1-4.9-5.5-7.6c-1.2-2.2-0.9-5.6,0-7.8
			c0.3-0.6,0.9-1.6,1.7-1.6c0.8,0,1.3,0.8,1.6,1.4c0,0,0,0,0,0c0,0,0,0.1,0.1,0.1c0.3,0.5,0.6,1,0.9,1.4c1.1,1.7,2.4,3.2,3.8,4.7
			c0.2,0.2,0.4,0.5,0.7,0.7c0,0,0,0,0,0c0,0,0,0,0.1,0.1c0.1,0.1,0.2,0.2,0.2,0.2c0.4,0.4,0.9,0.8,1.3,1.1c0.9,0.8,1.9,1.5,2.9,2.1
			c2.1,1.4,4.5,2.5,6.9,3.2c5.4,1.5,11.4,1.3,16.2-1.7c1.1-0.6,2-1.4,2.9-2.2c0.1-0.1,0.1-0.1,0.2-0.2c0,0,0,0,0,0h0c0,0,0,0,0,0
			c0,0,0,0,0,0c0,0,0,0,0.1-0.1v0c0.1-0.1,0.2-0.2,0.3-0.3c0.4-0.4,0.7-0.8,1.1-1.2c0.7-0.8,1.3-1.7,1.9-2.6c0.1-0.2,0.5-0.8,0.6-1
			c0,0,0,0,0,0c0.1-0.2,0.3-0.5,0.4-0.7c0.4-0.8,0.7-1.5,1.1-2.3c0.1-0.3,0.2-0.6,0.4-0.9c0,0,0-0.1,0-0.1c0.1-0.5,0.3-0.9,0.4-1.4
			c0.3-1.5,1.8-3.9,3.3-2c1.6,2,1.4,5.3,0.9,7.6c-0.7,2.9-1.9,5.7-3.3,8.3c-2.5,4.4-5.8,8.3-10.4,10.6c-1.3,0.6-2.7,1.1-4.1,1.4
			c5.4,0.8,11,0.3,15.7-2.2c1.2-0.6,2.3-1.4,3.3-2.2c0.1-0.1,0.1-0.1,0.2-0.2c0,0,0,0,0,0h0c0,0,0,0,0,0c0,0,0,0,0,0
			c0,0,0,0,0.1-0.1v0c0.1-0.1,0.3-0.2,0.3-0.3c0.4-0.4,0.8-0.8,1.2-1.2c0.8-0.8,1.5-1.7,2.2-2.6c0.1-0.2,0.6-0.8,0.7-1c0,0,0,0,0,0
			c0.2-0.2,0.3-0.5,0.5-0.7c0.4-0.8,0.8-1.5,1.2-2.3c0.1-0.3,0.3-0.6,0.4-0.9c0,0,0-0.1,0.1-0.1c0.1-0.5,0.3-0.9,0.4-1.4
			c0.4-1.5,2-3.9,3.8-2C346.8,223.4,346.5,226.7,345.9,229z"/>
		<path class="st1" d="M332.7,218.3c-0.7,2.9-1.9,5.7-3.3,8.3c-2.5,4.4-5.8,8.3-10.4,10.6c-1.3,0.6-2.7,1.1-4.1,1.4c0,0,0,0,0,0
			c-0.9-0.1-1.8-0.3-2.7-0.5c-2.8-0.7-5.5-1.8-7.9-3.2c-1.2-0.7-2.3-1.4-3.4-2.1c-0.5-0.4-1-0.7-1.5-1.1c0,0-0.1-0.1-0.2-0.2
			c0,0-0.1,0-0.1-0.1c0,0,0,0,0,0c-0.3-0.2-0.5-0.5-0.8-0.7c-1.6-1.4-3.1-3-4.4-4.7c-0.4-0.5-0.7-1-1.1-1.4c0,0,0-0.1-0.1-0.1
			c0,0,0,0,0,0c-0.4-0.6-0.9-1.4-1.8-1.4c-0.9,0-1.7,1-2,1.6c-0.6,1.3-1,3-0.9,4.7c-2.2-2.3-4.1-4.9-5.5-7.6c-1.2-2.2-0.9-5.6,0-7.8
			c0.3-0.6,0.9-1.6,1.7-1.6c0.8,0,1.3,0.8,1.6,1.4c0,0,0,0,0,0c0,0,0,0.1,0.1,0.1c0.3,0.5,0.6,1,0.9,1.4c1.1,1.7,2.4,3.2,3.8,4.7
			c0.2,0.2,0.4,0.5,0.7,0.7c0,0,0,0,0,0c0,0,0,0,0.1,0.1c0.1,0.1,0.2,0.2,0.2,0.2c0.4,0.4,0.9,0.8,1.3,1.1c0.9,0.8,1.9,1.5,2.9,2.1
			c2.1,1.4,4.5,2.5,6.9,3.2c5.4,1.5,11.4,1.3,16.2-1.7c1.1-0.6,2-1.4,2.9-2.2c0.1-0.1,0.1-0.1,0.2-0.2c0,0,0,0,0,0h0c0,0,0,0,0,0
			c0,0,0,0,0,0c0,0,0,0,0.1-0.1v0c0.1-0.1,0.2-0.2,0.3-0.3c0.4-0.4,0.7-0.8,1.1-1.2c0.7-0.8,1.3-1.7,1.9-2.6c0.1-0.2,0.5-0.8,0.6-1
			c0,0,0,0,0,0c0.1-0.2,0.3-0.5,0.4-0.7c0.4-0.8,0.7-1.5,1.1-2.3c0.1-0.3,0.2-0.6,0.4-0.9c0,0,0-0.1,0-0.1c0.1-0.5,0.3-0.9,0.4-1.4
			c0.3-1.5,1.8-3.9,3.3-2C333.4,212.7,333.2,216,332.7,218.3z"/>
		<path class="st1" d="M224.5,213.9c1,2.2,1.2,5.7,0,7.8c-0.5,0.9-1.1,1.9-1.7,2.7c-0.4-0.6-1-1.4-1.9-1.4c-0.9,0-1.4,0.7-1.8,1.4
			c0,0,0,0,0,0.1c-0.3,0.4-0.5,0.7-0.8,1.1c-1,1.4-2.2,2.7-3.5,4c-0.4,0.4-0.8,0.7-1.2,1.1c-0.2,0.2-0.4,0.4-0.6,0.6
			c0,0-0.1,0.1-0.1,0.1c0,0,0,0-0.1,0.1c0,0,0,0,0,0h0c-1.1,0.9-2.2,1.7-3.3,2.4c-2.4,1.5-5,2.8-7.7,3.7c-2.4,0.8-5.1,1.3-7.8,1.4
			c-2.6-0.4-5.1-1.3-7.4-2.7c-6.2-3.8-10.5-11-12.1-18c-0.5-2.2-0.7-5.6,0.9-7.6c1.5-1.9,3,0.5,3.3,2c0,0.2,0.1,0.4,0.1,0.6
			c0.1,0.2,0.1,0.4,0.2,0.6c0,0,0,0,0,0c0.6,1.5,1.2,2.9,1.9,4.3c0,0,0,0,0,0c0,0,0,0.1,0.1,0.1c0.2,0.3,0.5,0.8,0.6,1
			c0.3,0.4,0.6,0.8,0.8,1.2c0.6,0.8,1.3,1.6,2,2.4c0.1,0.1,0.2,0.2,0.3,0.3c0,0,0.1,0.1,0.1,0.1c0.1,0.1,0.3,0.2,0.4,0.4
			c0.4,0.4,0.9,0.7,1.3,1c0.9,0.7,1.9,1.3,3,1.8c4.9,2.4,11.2,2.2,16.4,0.3c2.4-0.9,4.7-2.2,6.8-3.7c1-0.7,2-1.6,2.9-2.4h0
			c0,0,0,0,0,0c0,0,0,0,0.1-0.1c0,0,0.1-0.1,0.1-0.1c0.2-0.2,0.4-0.4,0.6-0.6c0.3-0.4,0.7-0.7,1-1.1c1.1-1.2,2.1-2.6,3.1-4
			c0.2-0.4,0.5-0.7,0.7-1.1c0,0,0,0,0-0.1c0.3-0.6,0.8-1.4,1.6-1.4C223.6,212.3,224.2,213.3,224.5,213.9z"/>
		<path class="st1" d="M276.3,255.9c-4.3-2.9-10.7-3.1-15.6-3.1c-5-0.6-11.1-0.4-15.8,1.8c-0.2-3.3,0.8-6.6,3.8-8.5
			c3.6-2.2,8.7-2.4,12.9-2c4.2,0,10,0.1,13.1,3.5C276.6,249.8,276.9,253.1,276.3,255.9z"/>
		<path class="st1" d="M283.7,296.3c-0.8,2.5-2.1,4.8-4,6.8c-7.4,7.9-20.6,10-30.6,6.5c-5.7-2-11.1-6.7-13.2-12.4
			c-0.9-2.4-1-5.4,0-7.8c0.3-0.6,0.9-1.6,1.7-1.6c0.8,0,1.5,1,1.7,1.6c0.2,0.5,0.4,0.9,0.6,1.3c0,0,0,0.1,0.1,0.1
			c0.2,0.3,0.4,0.6,0.6,0.9c0.4,0.6,0.9,1.2,1.4,1.8c0.3,0.3,0.6,0.6,0.9,1v0c0,0,0,0,0,0c0,0,0,0,0.1,0c0.1,0.1,0.3,0.3,0.4,0.4
			c0.7,0.6,1.4,1.1,2.1,1.6c1.7,1.1,3.7,2.1,5.6,2.6c5.4,1.5,11.6,1.2,17-0.5c2.2-0.7,4.3-1.6,6.1-2.9c0.8-0.6,1.6-1.2,2.3-1.8
			c0,0,0,0,0,0c0.1-0.1,0.2-0.2,0.3-0.3c0.3-0.3,0.5-0.5,0.7-0.8c0.4-0.5,0.8-1,1.2-1.6c0.1-0.1,0.2-0.3,0.3-0.4v0
			c0.2-0.3,0.4-0.9,0.5-1.1c0,0.1-0.1,0.3-0.2,0.8c0.5-1.4,1.8-3.6,3.3-1.7C284.3,290.6,284.4,294.1,283.7,296.3z"/>
		<path class="st0" d="M395.9,211.9c-0.3-0.1-0.6-0.2-0.9-0.3l-10.6-17.1L395.9,211.9z"/>
		<path class="st0" d="M428.5,94.3c-1,0.2-2.1,0.5-3.1,0.9C426.4,94.8,427.4,94.5,428.5,94.3L428.5,94.3z"/>
		<path class="st0" d="M107,178.6c-0.1,0-0.2-0.1-0.3-0.2c-0.1-0.1-0.2-0.2-0.4-0.3c-0.5-0.4-1.2-0.9-2-1.6c-0.1,0-0.1-0.1-0.2-0.1
			v0c-0.1,0-0.1-0.1-0.2-0.2c-0.2-0.2-0.5-0.4-0.8-0.7c-1.3-1.2-2.9-2.7-4.5-4.4c-0.2-0.2-0.4-0.5-0.6-0.7l-0.2-0.2
			c-0.2-0.2-0.3-0.4-0.5-0.6c-0.5-0.6-1-1.2-1.5-1.9L107,178.6z"/>
		<path class="st2" d="M98.9,133.3c-4.7,4.9-11.3,13.7-9.1,22.5c1.1,4.5,3.4,8.5,6,11.9c-4.8,9.5-12.9,16.2-18.5,17.2
			c-8,1.4-11.9,12.9-11.9,12.9s-2.4-27.6-1.3-34.3c1.1-6.6-5.6-6.6-5.6-6.6s-22.2-1.1-18.9-29.8c2.8-23.7,12.3-28.6,23.1-32.1
			c7.7-2.5,16-2.1,23.2,0.8c4.3,1.7,8.3,4.4,11.6,7.9c0.1,0.1,0.1,0.1,0.2,0.2c1.2,1.3,2.2,2.8,3,4.4c3.5,7.3,4.8,14.4,4.8,20.8
			C103.2,129.9,100.8,131.3,98.9,133.3L98.9,133.3z"/>
		<path class="st0" d="M413.8,167.3c-5,6.7-11.1,11.1-11.5,11.3L413.8,167.3z"/>
		<path class="st0" d="M466.7,28.7c0,0-0.8-0.6-2.3-1.3L466.7,28.7z"/>
		<path class="st2" d="M451.1,156.9c0,0-6.7,0-5.6,6.6s-1.3,34.3-1.3,34.3s-3.8-11.5-11.9-12.9c-5.6-1-13.8-7.8-18.6-17.5
			c2.5-3.3,4.7-7.2,5.7-11.5c2.2-8.8-4.4-17.6-9.1-22.5c-1.8-1.9-4-3.2-6.4-4.1c0-6.4,1.2-13.6,4.8-20.9c0.8-1.6,1.8-3.1,3-4.4
			c0.1-0.1,0.1-0.1,0.2-0.2c0.9-1,1.9-1.9,3-2.8c0.3-0.3,0.7-0.6,1-0.8c0.1-0.1,0.2-0.2,0.3-0.2c0.4-0.3,0.7-0.5,1.1-0.8
			c0.4-0.3,0.8-0.6,1.3-0.8c0.4-0.2,0.7-0.5,1.1-0.7c0.1-0.1,0.2-0.1,0.4-0.2c0.4-0.2,0.8-0.4,1.1-0.6c0,0,0.1,0,0.1,0
			c0.3-0.1,0.5-0.3,0.8-0.4c0.3-0.1,0.5-0.3,0.8-0.4c0.3-0.1,0.5-0.2,0.8-0.3h0c0.5-0.2,1-0.4,1.5-0.6c1-0.3,2-0.6,3.1-0.9
			c0.5-0.1,1-0.2,1.5-0.3c0.1,0,0.2,0,0.3,0c0.4-0.1,0.9-0.2,1.4-0.2c0.5-0.1,1.1-0.1,1.6-0.2c0.5-0.1,1-0.1,1.5-0.1
			c0.6,0,1.1,0,1.7,0c3.5,0,7.1,0.5,10.6,1.7c10.8,3.5,20.4,8.4,23.1,32.1C473.4,155.8,451.1,156.9,451.1,156.9L451.1,156.9z"/>
		<path class="st3" d="M502.1,124.5c-0.8,14.8-3.9,28.9-9.5,40.9c-14.2,30.1-27.5,45.1-46.1,49.6c-0.1-2.2-0.2-4.4-0.4-6.6
			c-0.1-2-0.3-3.9-0.6-5.8c-0.3-2.3-0.6-4.7-1.1-7v0c0-0.1,0-0.1,0-0.2c0,0,0,0,0,0v0c0.1-0.9,0.2-2.4,0.3-4.4
			c0.3-3.4,0.6-8,0.8-12.7c0-0.3,0-0.5,0-0.8c0-0.4,0-0.8,0.1-1.2c0-0.7,0.1-1.4,0.1-2.1c0.2-5.3,0.2-10-0.1-12.3
			c0-0.3-0.1-0.6-0.1-0.8c0,0,0,0,0,0c0,0,0,0,0,0c0,0,0,0,0,0c-0.4-5.8,5.6-5.8,5.6-5.8s17.8-0.9,19.2-21.7v-0.2
			c0.1-2.4,0.1-5-0.3-7.9c-2.8-23.7-12.3-28.6-23.1-32.1c-12.4-4-26-0.7-34.9,8.7c0,0.1-0.1,0.1-0.2,0.2c-1.2,1.3-2.2,2.8-3,4.4
			c-1.2,2.5-2.2,5-2.9,7.5c-0.9,3-1.4,5.9-1.7,8.7c0,0.3-0.1,0.6-0.1,0.9c-0.1,0.8-0.1,1.7-0.1,2.5c0,0.1,0,0.2,0,0.3
			c0,0.4,0,0.8,0,1.1c0,0,0,0,0,0v0c-0.3-0.1-0.5-0.2-0.8-0.3c-0.1,0-0.1,0-0.2-0.1c0,0,0,0,0,0c0,0,0,0,0,0v0
			c-0.6-0.2-1.1-0.6-1.4-0.9c-1-1.1-0.8-2.7-0.4-4c0.8-2.8,1.6-5.7,2-8.6c10-62.2,27.3-82.7,41.3-88.3c5.9-2.4,11.2-2.1,15.2-1.1
			c1.9,0.4,3.4,1,4.6,1.6c0,0,0,0,0,0c1.6,1.2,3.2,2.6,4.7,4C492.6,51.3,503.9,89.7,502.1,124.5z"/>
		<path class="st3" d="M108.1,125.8c-0.3,0.6-0.9,1.1-1.9,1.4h0c-0.1,0-0.2,0.1-0.4,0.1c0-0.6,0-1.1,0-1.7c0-0.7-0.1-1.5-0.1-2.2
			c-0.3-4.1-1.2-8.5-2.9-13c-0.5-1.3-1.1-2.6-1.7-3.9c-0.8-1.6-1.8-3.1-3-4.4c0-0.1-0.1-0.1-0.2-0.2C89,92.6,75.3,89.4,63,93.3
			c-10.8,3.5-20.3,8.4-23.1,32.1c-0.2,1.6-0.3,3.1-0.3,4.5c0,0,0,0.1,0,0.1v0.1c-0.5,24.1,19.2,25,19.2,25s6.4,0,5.6,6.3v0.1
			c0,0,0,0,0,0c0,0,0,0,0,0c0,0.1,0,0.2,0,0.3c-0.1,0.8-0.2,2-0.3,3.3c0,0,0,0.1,0,0.2v0c-0.2,6.6,0.6,18.3,1.1,25.2
			c0.1,1.8,0.3,3.3,0.3,4.3c0.1,0.8,0.1,1.3,0.1,1.3s0.1-0.4,0.4-1c0.1-0.2,0.2-0.4,0.3-0.7c0,0.2-0.1,0.5-0.1,0.8
			c0,0.3-0.1,0.7-0.1,1.2c-0.2,1.6-0.4,3.9-0.5,6.8c-0.1,1.5-0.2,3.3-0.2,5.1c-0.1,2-0.1,4.2-0.2,6.6c-18.4-4.5-31.4-19.5-45.6-49.6
			c-7.3-15.6-10.5-34.9-9.6-54.6c1.4-31.2,12.9-63.1,33.9-81.8c0.8-0.7,1.7-1.5,2.5-2.2c0,0,0,0,0,0c0,0,0.1,0,0.1-0.1c0,0,0,0,0,0
			c0.5-0.4,2.6-1.7,5.7-2.5h0c3.8-1.1,9.1-1.5,15,1.2c13,5.9,29.1,26.6,39,88.2c0,0.1,0,0.3,0.1,0.4c0.3,1.6,0.6,3.3,1.1,4.9
			c0,0,0,0.1,0,0.1c0.3,1.1,0.6,2.1,0.9,3.2C108.6,123.4,108.7,124.7,108.1,125.8z"/>
		<path class="st4" d="M444.4,195.3c0-0.1,0-0.2,0-0.3"/>
		<path class="st4" d="M66.3,193.9c0,0,0,0.2-0.1,0.5"/>
		<path class="st4" d="M46.4,26.9C46.4,26.9,46.4,26.9,46.4,26.9"/>
		<path class="st5" d="M466.7,27.1c0,0-0.8-0.6-2.4-1.3L466.7,27.1z"/>
		<path class="st6" d="M500.8,157.7c-3.1,10.7-8,20.8-13.5,30.4c-5.2,9.2-11.2,18-19,25.2c-6.1,5.5-13.2,9.4-21.2,11.5
			c-6.7,1.7-13.7,2-20.6,1.4c-1.8-0.1-3.6-0.3-5.3-0.6c-1.8-0.2-3.6-0.5-5.3-0.8c-3.4-0.6-6.7-1.3-10-2.1c-2.6-0.6-5.2-1.3-7.7-2
			c-0.4-0.1-0.8-0.2-1.1-0.3c-1.4-0.4-3-0.6-3.9-1.8c-0.2-0.3-0.4-0.6-0.5-0.9c-3.3-5.4-6.7-10.8-10-16.1c-2.1-3.3-2.2-7.6-1.3-11.3
			c0.3-1.2,1-3.2,2.2-3.8c1-0.6,2.2-0.1,2.8,0.8c3.4,5.4,6.8,10.9,10.1,16.4c4.3,1.2,8.6,2.3,12.9,3.2c2.3,0.5,4.6,1,7,1.4
			c1.5,0.3,3,0.5,4.6,0.7c8.4,1.2,17,1.3,25.3-0.6c0.8-0.2,1.6-0.4,2.4-0.6c1.4-0.4,2.7-0.9,4-1.4c2.9-1.2,5.7-2.8,8.3-4.6
			c1.4-0.9,2.7-1.9,3.9-3c0.7-0.6,1.4-1.2,2-1.8c0,0,0,0,0,0c0,0,0,0,0-0.1c0,0,0.1-0.1,0.1-0.1c0.3-0.3,0.6-0.6,0.9-0.9
			c5.7-5.8,10.3-12.6,14.4-19.6c0-0.1,0.3-0.6,0.4-0.6c0.3-0.6,0.6-1.1,0.9-1.7c0.6-1,1.1-2.1,1.7-3.1c1.2-2.3,2.4-4.6,3.5-7
			c1.7-3.5,3.3-7,4.6-10.7c0-0.1,0.1-0.2,0.1-0.2c0,0,0-0.1,0-0.1v0c0-0.1,0.1-0.2,0.1-0.2c0,0,0-0.1,0-0.1c0-0.1,0.1-0.2,0.1-0.2v0
			c0.1-0.2,0.1-0.4,0.2-0.6c0.3-0.8,0.5-1.7,0.8-2.5c0.5-1.8,1-3.7,1.4-5.5c0.2-1,0.4-2,0.6-3c0.1-0.4,0.2-0.8,0.2-1.2
			c0,0,0-0.1,0-0.1c0,0,0-0.1,0-0.1s0,0,0-0.1c0.3-1.8,0.6-3.6,0.8-5.3c0.3-2,0.5-3.9,0.6-5.9c0-0.6,0.1-1.1,0.1-1.7v0
			c0-0.8,0.1-1.6,0.1-2.4c0.1-3.8,0.1-7.7-0.1-11.5c0,0.1,0,0.2,0,0.2c0,0,0-0.4,0-0.7v-0.1c0,0,0-0.1,0-0.1v0.1c0-0.1,0-0.3,0-0.4
			c0-0.1,0-0.1,0-0.2c0-0.1,0-0.2,0-0.2c0-0.2,0-0.4,0-0.6c-0.1-1-0.2-1.9-0.3-2.9c-0.2-2-0.4-4.1-0.7-6.1c-0.3-2-0.6-3.9-0.9-5.8
			c0-0.1,0-0.2,0-0.2c0-0.1,0-0.2-0.1-0.3c-0.1-0.4-0.2-0.8-0.3-1.3c-0.2-0.9-0.4-1.9-0.6-2.8c-0.9-4-2-8-3.3-11.9
			c-0.1-0.2-0.2-0.6-0.3-0.9v0c0,0,0-0.1,0-0.1c0,0,0-0.1,0-0.1s0-0.1,0-0.1c0,0,0-0.1,0-0.1c0,0,0,0,0,0c0,0,0,0,0,0
			c0,0,0-0.1,0-0.1c-0.3-0.9-0.7-1.9-1-2.8c-0.7-1.9-1.5-3.7-2.3-5.5c-0.8-1.8-1.6-3.6-2.5-5.4c-0.4-0.9-0.9-1.7-1.4-2.6
			c-0.2-0.5-0.5-0.9-0.7-1.4c0-0.1-0.1-0.2-0.2-0.3c0-0.1-0.1-0.1-0.1-0.2c0,0,0-0.1-0.1-0.1c0-0.1-0.1-0.1-0.1-0.2c0,0,0-0.1,0-0.1
			c0,0,0,0,0-0.1c0,0,0-0.1-0.1-0.1c0,0,0,0,0,0c-0.1-0.2-0.3-0.4-0.4-0.6c-0.2-0.4-0.5-0.8-0.7-1.2c-0.5-0.8-1-1.6-1.5-2.3
			c-1-1.6-2.1-3.2-3.3-4.7c-2.2-3-4.6-5.9-7.3-8.5c-0.4-0.4-0.7-0.8-1.1-1.1c-0.1-0.1-0.2-0.2-0.3-0.3c0,0-0.1-0.1-0.1-0.1
			c0,0-0.1-0.1-0.1-0.1c-0.6-0.5-1.1-1-1.7-1.5c-1.4-1.2-2.9-2.4-4.4-3.5c-1.8-1.4-3.8-2.7-5.7-3.8c0,0,0,0,0,0
			c-3.8-2.2-7.8-4.1-12-5.5c-0.4-0.2-0.8-0.3-1.3-0.4c-1.3-0.4-2.6-0.7-3.9-1c-7.3-1.7-14.9-1.9-22.2,0.1c-1.1,0.3-2.1,0.7-3.1,1.1
			c-4.6,1.9-8.7,4.6-12.4,7.8c-0.5,0.4-0.9,0.8-1.4,1.3c0,0,0,0-0.1,0.1l0,0c-0.1,0.1-0.1,0.1-0.2,0.2c-0.2,0.2-0.3,0.3-0.5,0.5
			c-0.9,0.9-1.8,1.8-2.6,2.8c-1.7,2-3.4,4.1-4.9,6.2c-1.6,2.3-3.1,4.6-4.5,7c-0.1,0.2-0.2,0.3-0.3,0.5c0,0,0,0.1-0.1,0.1
			c0,0.1-0.1,0.1-0.1,0.2c0,0.1-0.1,0.1-0.1,0.2c0,0,0,0.1-0.1,0.1c-0.3,0.5-0.6,1-0.8,1.5c-0.7,1.3-1.4,2.6-2,3.9
			c-2.6,5.2-4.8,10.5-6.8,15.9c-0.5,1.4-1,2.7-1.5,4.1c0,0,0,0.1,0,0.1c0,0.1,0,0.1,0,0.1c0,0,0,0.1,0,0.1c0,0,0,0.1,0,0.1
			c-0.1,0.2-0.1,0.3-0.2,0.5c-0.2,0.6-0.4,1.3-0.6,1.9c-0.9,2.8-1.7,5.6-2.5,8.4c-1.5,5.3-2.8,10.6-4,16c-0.6,2.5-1.1,5-1.6,7.5
			c-0.1,0.4-0.1,0.7-0.2,1.1c0,0,0,0.1,0,0.1v0c0,0.2-0.1,0.3-0.1,0.5c0,0,0,0.1,0,0.1c-0.1,0.4-0.2,0.8-0.2,0.8
			c-0.1,0.8-0.3,1.6-0.4,2.4c-0.7,3.9-1.3,7.7-1.8,11.6c-0.5,3.5-1,7.1-1.3,10.6c-0.1,1.7-0.7,3.6-1.7,5c-0.6,0.8-1.9,1.6-2.8,0.8
			c-1.2-0.9-2.5-1.8-3.7-2.7c-15.8-11.3-33.3-21.1-51.8-27.3c-1.2-0.4-2.4-0.8-3.6-1.2c-1.3-0.4-1.9-2.7-2.2-3.8
			c-0.4-1.5-0.5-3-0.5-4.6c0-0.1,0-0.1,0-0.2c0-0.2,0-0.4,0-0.5c0,0,0-0.1,0-0.1c0,0,0,0,0,0c0-0.1,0-0.1,0-0.2c0-0.3,0-0.5,0.1-0.8
			c0.2-1.5,0.7-3.7,1.7-5c0.3-0.4,0.6-0.7,1-0.9c0.5-0.3,1.1-0.2,1.9,0c0.8,0.3,1.6,0.5,2.4,0.8c5.9,1.9,11.7,4.3,17.4,6.9
			c9.7,4.5,19.1,9.8,28.1,15.7c2.6,1.7,5.2,3.4,7.7,5.2c0.9-6.9,2.1-13.9,3.4-20.7c2.9-15.3,6.8-30.4,12.3-45
			c2.7-7.3,5.9-14.5,9.8-21.4c3.9-6.8,8.2-13.3,13.8-18.9c5-5,10.6-9.3,17.3-11.8c7.1-2.7,14.6-3.3,22.1-2.2
			c9.2,1.4,18.1,4.7,25.8,9.8c7.8,5.1,14.6,11.9,20.1,19.3c12.6,16.9,19.6,37.6,22.8,58.2C507.3,114.9,506.7,137.2,500.8,157.7z"/>
		<path class="st6" d="M262.5,405.3c0,2.1-0.3,4.8-1.2,6.7c-0.5,1.1-1.5,2.7-2.8,2.8c0,0-0.1,0-0.1,0c-0.1,0-0.3,0-0.4,0
			c-3.2,0.1-6.5-0.2-9.7-0.5c-6.8-0.6-13.5-1.5-20.2-2.7c-20.9-3.8-41.3-10.4-60.2-20c-24.7-12.5-46.7-30.3-63.8-52
			c-3.3-4.2-6.1-8.2-8.5-13c-3.6-7.1-6.1-14.9-7.9-22.6c-6-26.1-3.8-53,3.3-78.5c0.8-2.9,1.7-5.8,2.6-8.7c0.7-2.2,1.5-4.4,2.2-6.6
			c0.3-0.8,0.9-1.8,1.7-2.3c0.4-0.3,0.8-0.5,1.3-0.5c0.2,0,0.4,0,0.6,0.1c1.2,0.3,1.9,1.7,2.4,2.7c0.7,1.4,1.1,3.1,1.2,4.7
			c0.3,2.9-0.3,6-1.2,8.6c0,0,0,0.1,0,0.1c-0.3,0.8-0.6,1.6-0.8,2.3c-0.1,0.2-0.1,0.3-0.1,0.4c0,0,0,0,0,0c0,0,0,0,0,0
			c0,0.2-0.1,0.3-0.1,0.5c-0.5,1.5-1,3-1.5,4.5c-1.7,5.6-3.1,11.2-4.3,17c0,0.1,0,0.2-0.1,0.3c0,0,0,0.1,0,0.1c0,0,0,0.1,0,0.1
			c0,0,0,0,0,0c0,0,0,0.1,0,0.1c-0.1,0.6-0.2,1.1-0.3,1.7c-0.2,1.2-0.4,2.5-0.6,3.7c-0.4,2.5-0.7,5.1-0.9,7.6
			c-0.1,1.1-0.2,2.3-0.3,3.4c0,0.1,0,0.1,0,0.2c0,0.5,0,1.1-0.1,1.6c-0.1,2.3-0.1,4.6-0.1,6.8c0,1.1,0,2.2,0.1,3.3c0,0.3,0,0.7,0,1
			c0,0.1,0,0.1,0,0.2c0.1,1.9,0.3,3.8,0.5,5.6c0.2,1.9,0.5,3.7,0.8,5.6c0,0.2,0.1,0.4,0.1,0.6c0,0.1,0,0.3,0.1,0.4
			c0.1,0.7,0.3,1.4,0.4,2.1c0.7,3,1.4,6.1,2.4,9.1c0.1,0.4,0.2,0.7,0.3,1.1c0.1,0.3,0.2,0.6,0.3,0.9c0,0.1,0,0.1,0.1,0.2
			c0.4,1.1,0.8,2.2,1.3,3.3c0.8,1.9,1.6,3.7,2.5,5.5c0.3,0.7,0.7,1.4,1.1,2c0.1,0.2,0.2,0.4,0.3,0.6c0.3,0.5,0.6,1,0.9,1.5
			c4.4,6.4,9.6,12.4,14.9,18.1c1.7,1.8,3.4,3.6,5.2,5.3c0.4,0.4,0.9,0.8,1.3,1.3l0,0c0,0,0,0,0,0c0,0,0,0,0.1,0.1l0,0
			c0,0,0,0,0.1,0.1l0,0c0,0,0.1,0.1,0.1,0.1c0,0,0,0,0,0c0,0,0,0,0,0c0.1,0.1,0.2,0.2,0.3,0.3c0.9,0.8,1.8,1.6,2.7,2.4
			c3.4,3.1,7,6.1,10.6,8.9c7,5.4,14.3,10.3,22,14.7c13.3,7.6,27.6,13.7,42.3,18.2c6.3,1.9,12.6,3.5,19,4.8
			c8.6,1.8,17.3,3.1,26.1,3.8c3.3,0.3,6.7,0.5,10,0.5c0,0,0.1,0,0.1,0c1.5,0.1,2.3,1.7,2.8,2.8C262.3,400.6,262.5,403,262.5,405.3z"
			/>
		<path d="M275.5,135.1c0,0,0.1,0.1,0.1,0.2C275.5,135.2,275.5,135.2,275.5,135.1z"/>
		<path d="M296.4,104.4v0.2c0-0.2,0-0.4,0-0.7C296.4,104.1,296.4,104.2,296.4,104.4z"/>
		<path class="st6" d="M303.4,98.7c-0.5-4-1.7-7.8-3.9-11.2c-3.9-5.9-11.2-7.1-17.8-6.3c-1.6,0.2-3.2,0.5-4.7,0.8
			c0.4-6.6-1.2-13.7-7-17c-5-2.8-10.5-0.6-14.7,2.6c-4.8,3.7-8.7,8.5-11.9,13.6c-1.6,2.6-3,5.3-4.3,8c-0.1,0.2-0.3,0.5-0.4,0.6
			c-0.3,0.4-0.6,0.8-0.9,1.2c-0.1,0.1-0.2,0.3-0.3,0.4c-0.1,0.1-0.2,0.2-0.3,0.2c0,0,0,0,0.1,0c-0.1,0.1-0.2,0.2-0.4,0.3
			c-0.8,0.6-1.6,1-2.5,1.4c-2,0.5-4.2,0.5-6.2,0.8c-4.1,0.6-8.1,1.5-12,2.5c-8.2,2.2-16.1,5.2-23.8,8.7
			c-11.9,5.4-23.3,12.1-34.1,19.5c-0.9,0.6-1.8,1.2-2.7,1.9c-0.5-3.5-1-6.9-1.6-10.4c-2.4-14.6-5.5-29.1-10-43.2
			c-4.9-15.7-11.3-31.4-21.2-44.7c-8.6-11.5-20.5-20.9-35.3-22.2C78.9,5.4,70,7.5,62,10.6c-8.7,3.5-16.3,9-22.9,15.6
			C24.8,40.4,16,59.7,11.1,78.9c-5.3,20.9-6.7,43.3-3,64.5c1.7,10.1,4.4,20.1,8.8,29.5c5,10.7,10.6,21.3,17.8,30.7
			c5.3,6.9,11.7,13.2,19.4,17.3c7.2,3.7,15.2,5.4,23.3,5.5c4.6,0.1,9.1-0.3,13.6-0.9c3.6-0.5,7.3-1.2,10.9-2
			c1.7-0.4,3.4-0.8,5.1-1.2c2.3-0.6,4.5-1.1,6.8-1.8c0.6-0.2,1.3-0.3,1.9-0.5c1.1-0.3,1.8-0.7,2.4-1.5c0.3-0.4,0.6-0.9,0.9-1.3
			c2.1-3.2,4.3-6.3,6.5-9.5c1.4-2,2.8-4.1,4.1-6.1c2.1-3.1,2.3-7.8,1.3-11.3c-0.4-1.3-0.9-3.1-2.2-3.8c-1-0.6-2.2-0.1-2.8,0.8
			c-3.7,5.5-7.4,10.9-11.1,16.4c-5,1.4-10.1,2.7-15.2,3.8c-0.6,0.1-1.3,0.3-1.9,0.4c-8.4,1.7-16.9,2.5-25.4,1.7
			c-2.3-0.2-4.6-0.6-6.8-1.1c-0.7-0.2-1.4-0.3-2.1-0.5c-6-1.9-11.4-5.1-16.2-9.1c-0.2-0.2-1.8-1.3-1.8-1.6v0c0,0-0.1-0.1-0.1-0.1
			c-0.4-0.4-0.8-0.8-1.2-1.2c-1.2-1.3-2.4-2.6-3.6-4c-2.6-3.1-4.9-6.4-7-9.7c-0.6-0.9-1.1-1.8-1.7-2.7c-0.3-0.5-0.6-1-0.9-1.5
			c-0.2-0.3-0.3-0.7-0.5-1c0.1,0.1,0.1-0.1-0.3-0.4c0.1,0.1,0.2,0.3,0.3,0.4c-0.1,0-0.2-0.2-0.3-0.4c0-0.1-0.1-0.1-0.1-0.2
			c-0.1-0.2-0.2-0.4-0.4-0.6c-0.3-0.4-0.5-0.9-0.7-1.3c-0.6-1.1-1.2-2.3-1.8-3.4c-2.2-4.2-4.4-8.5-6.2-12.9
			c-0.7-1.5-1.3-3.1-1.8-4.7c0-0.1,0-0.1-0.1-0.2c0,0,0-0.1,0-0.1c0,0,0-0.1,0-0.1c0,0,0,0,0,0c-0.1-0.4-0.2-0.7-0.4-1.1
			c-0.3-0.9-0.6-1.8-0.8-2.7c-0.5-1.8-1-3.7-1.4-5.5c-0.2-0.9-0.4-1.8-0.6-2.7c-0.1-0.2-0.1-0.5-0.2-0.7c0-0.1,0-0.2-0.1-0.3
			c0,0,0-0.1,0-0.1c0-0.1,0-0.1,0-0.2c0,0,0,0,0-0.1c-0.7-3.8-1.2-7.7-1.5-11.6c0-0.4-0.1-1.6-0.1-2.2c0-0.2,0-0.3,0-0.3
			c0-0.6-0.1-1.1-0.1-1.7c-0.1-2-0.1-4.1-0.1-6.1c0-2,0.1-4,0.2-5.9c0-0.4,0.1-0.8,0.1-1.3c0.1-1,0.2-2.1,0.3-3.1
			c0.4-3.9,0.9-7.8,1.6-11.7c0-0.1,0-0.2,0.1-0.4c0,0,0-0.1,0-0.1c0.1-0.5,0.2-0.9,0.3-1.4c0.2-1,0.4-2,0.7-3c0.5-2,1-4,1.5-6
			c0.6-2,1.1-3.9,1.8-5.9c0-0.2,0.1-0.3,0.1-0.5c0-0.1,0.1-0.1,0.1-0.2c0,0,0,0,0-0.1c0,0,0-0.1,0-0.1c0,0,0-0.1,0-0.1
			c0-0.1,0.1-0.2,0.1-0.3c0,0,0-0.1,0-0.1v0c0,0,0-0.1,0-0.1c0.3-1,0.7-1.9,1.1-2.9c1.4-3.7,3-7.3,4.8-10.9c0.4-0.9,0.9-1.8,1.4-2.6
			c0.2-0.4,0.4-0.7,0.6-1.1c0.1-0.2,0.2-0.5,0.4-0.7c0,0,0.1-0.1,0.1-0.2c0-0.1,0.1-0.2,0.1-0.2c0-0.1,0.1-0.2,0.1-0.2
			c0.1-0.1,0.2-0.3,0.2-0.3c0.2-0.4,0.5-0.8,0.7-1.2c0.5-0.8,1-1.6,1.5-2.5c2.1-3.2,4.4-6.3,6.8-9.2c1.2-1.4,2.5-2.8,3.8-4.1
			c0.3-0.3,0.6-0.6,0.9-0.9c0.1-0.1,0.4-0.3,0.6-0.5c0,0,0,0,0,0c0.7-0.5,1.3-1.3,1.9-1.8c3.2-2.8,6.6-5.3,10.3-7.4c0,0,0,0,0,0
			c2.6-1.5,5.3-2.9,8.1-4c1.1-0.5,2.3-0.9,3.5-1.3c0.4-0.1,0.8-0.3,1.3-0.4c1.2-0.3,2.3-0.6,3.5-0.9c7.6-1.8,15.4-2.2,23,0
			c4.5,1.4,8.7,3.7,12.5,6.5c1,0.7,2,1.5,2.9,2.4c0.5,0.4,0.9,0.8,1.4,1.2l0.1,0.1c0,0,0,0,0.1,0.1c0.1,0.1,0.2,0.2,0.3,0.3
			c0.1,0.1,0.2,0.2,0.3,0.3c1.8,1.8,3.6,3.8,5.2,5.9c1.7,2.1,3.3,4.3,4.7,6.6c0.8,1.2,1.5,2.3,2.2,3.5c0.1,0.2,0.2,0.3,0.3,0.5
			c0,0,0,0,0,0.1c0,0,0,0,0.1,0.1c0,0.1,0.1,0.2,0.1,0.2c0,0.1,0.1,0.1,0.1,0.2c0.3,0.5,0.6,1,0.9,1.6c2.8,5.1,5.1,10.4,7.3,15.8
			c1,2.5,1.9,5,2.8,7.5c0,0.1,0.3,0.8,0.3,0.8c0.1,0.2,0.1,0.4,0.2,0.6c0.2,0.7,0.5,1.4,0.7,2.1c0.4,1.4,0.9,2.8,1.3,4.2
			c1.6,5.4,3.1,10.8,4.3,16.3c0.6,2.6,1.2,5.1,1.7,7.7c0.3,1.2,0.5,2.4,0.7,3.7c0.1,0.6,0.2,1.2,0.3,1.8c0,0.1,0,0.1,0,0.2
			c0,0,0,0,0,0c0,0.1,0,0.2,0.1,0.3c0,0.2,0.1,0.3,0.1,0.5c0.7,3.8,1.3,7.6,1.9,11.4c0.6,4.3,1.1,8.7,1.6,13c0,0.1,0,0.1,0,0.2
			c0.1,1.4,1.8,7.9,4.5,5.8c3.7-2.9,7.6-5.5,11.5-8c9-5.9,18.4-11.2,28.1-15.7c6.5-3,13.2-5.6,20.1-7.7c5-1.5,10-2.6,15.2-3.3
			c3-0.4,6.2-0.3,8.9-1.9c4.4-2.5,6.1-7.1,8.3-11.3c0.1-0.1,0.1-0.2,0.2-0.3c0.2-0.3,0.3-0.6,0.5-0.8c0.6-0.9,1.2-1.9,1.8-2.8
			c1.3-1.8,2.6-3.6,4-5.2c0.8-0.9,1.7-1.8,2.6-2.7c0,0,0.1-0.1,0.1-0.1c0,0,0.1-0.1,0.1-0.1c0,0,0,0,0,0c0.1-0.1,0.1-0.1,0.1-0.1
			c0.1-0.1,0.2-0.2,0.3-0.3c0.5-0.4,1-0.8,1.5-1.3c1.6-1.3,3.4-2.3,5.3-3c1.4-0.4,2.8-0.4,4.3-0.1c0,0,0,0,0,0
			c0.8,0.4,1.5,0.9,2.3,1.3c0,0.1-0.1,0.3-0.2,0.4c-0.4,0.9-0.8,1.7-1.2,2.6c0,0,0,0.1-0.1,0.1c-0.1,0.1-0.1,0.2-0.2,0.3
			c-0.1,0.2-0.3,0.4-0.4,0.6c-2,2.9-2.1,7-1.5,10.3c0.4,2,1.5,6,4.3,4.8c1.5-0.6,3-1.2,4.6-1.6c5.2-1.5,11-2.5,16.3-1.1
			c0.7,0.3,1.4,0.6,2.1,0.9c0.4,0.2,0.8,0.5,1.2,0.8c0.2,0.1,0.4,0.3,0.5,0.4c0,0,0,0,0,0c0.3,0.3,0.6,0.7,0.9,1
			c0.1,0.1,0.2,0.3,0.3,0.4c0.1,0.4,0.3,0.7,0.5,1.1c0,0.2,0.1,0.3,0.1,0.4c0,0.2,0,0.3,0.1,0.5c0,0,0,0,0,0v0c0,0.2,0,0.5,0,0.7
			c0,0.3,0,0.5,0,0.2c0,0,0,0.1,0,0.1c0,0.2,0,0.3,0,0.5c0,0.1,0,0.1,0,0.2c-0.1,0.8-0.2,1.5-0.3,2.3c-0.1,0.4-0.2,0.7-0.2,1
			c-0.1,0.3-0.1,0.5-0.2,0.8c0,0,0,0,0,0c0,0,0,0.1,0,0.1c-0.2,0.6-0.5,1.1-0.7,1.6c-0.2,0.2-0.3,0.5-0.5,0.7
			c-0.3,0.4-1,0.9-1.2,1.3h0c-0.2,0.2-0.5,0.4-0.7,0.6c-0.9,0.6-1.8,1-2.7,1.4c0,0,0,0-0.1,0c-3.6,0.9-7.5,0.4-11.1-0.6
			c-2.6-0.8-5.3-1.9-7.6-3.3c-2.9-1.8-4.3,4-4.5,5.8c-0.3,3.3-0.3,7.9,2.6,10.2c0.2,0.2,0.5,0.4,0.7,0.6c0,0,0.1,0.1,0.1,0.1
			c0.3,0.3,0.6,0.6,0.9,0.8c1.8,1.9,3.5,4,4.8,6.2c0.2,0.3,0.4,0.6,0.5,0.9c-0.1-0.1-0.1-0.2-0.1-0.2c0,0,0,0.1,0.1,0.1
			c0.4,0.7,0.7,1.5,1,2.3c0,0.1,0.1,0.3,0.2,0.6c0,0,0,0,0,0.1c0,0.1,0.1,0.2,0.1,0.2c0.1,0.2,0.1,0.4,0.1,0.6c0,0.1,0,0.3,0,0.5
			c-0.1,0.2-0.2,0.4-0.3,0.6c-0.2,0.4-0.4,0.8-0.6,1.2c0,0,0,0,0,0c0,0,0,0,0,0c0,0-0.1,0.1-0.1,0.2c0,0.1-0.1,0.1-0.1,0.2
			c0,0,0,0.1,0,0.1c0,0-0.1,0.1-0.1,0.1c-0.7,1.1-1.5,2.1-2.3,3c-0.2,0.2-0.4,0.4-0.6,0.6c-0.2,0.2-0.3,0.3-0.5,0.5
			c-0.5,0.5-1,0.9-1.6,1.4c-0.5,0.4-0.9,0.8-1.5,1c-3.4,0.9-7.2,1.1-10.6,0.2c-1-0.4-2-0.8-2.9-1.4c-0.5-0.3-1-0.7-1.5-1.1
			c-0.1-0.1-0.1-0.2-0.2-0.2c-0.3-0.3-0.5-0.6-0.8-0.9c-0.2-0.3-0.5-0.6-0.7-0.9c0-0.1-0.1-0.1-0.1-0.2c0,0,0,0,0,0
			c-0.4-0.7-0.8-1.5-0.7-1.3c0,0,0-0.1-0.1-0.2c-0.1-0.3-0.2-0.5-0.2-0.8c-0.1-0.4-0.2-0.9-0.3-1.3c0,0,0,0,0,0
			c0-0.2-0.1-0.4-0.1-0.4c-0.1-0.7-0.2-1.4-0.2-2c-0.1-1.5-0.7-3.7-1.7-5c-0.7-0.8-1.8-1.5-2.8-0.8c-2.9,1.9-2.8,7.3-2.6,10.2
			c0.8,7.9,3.4,17.8,11.1,21.8c4,2.1,8.7,2.4,13.1,1.5c1.2-0.2,2.5-0.5,3.6-1c0.6-0.3,1.3-1,1.8-1.4c1.2-1,2.4-2.2,3.5-3.4
			c1.8-1.9,3.3-4.1,4.5-6.5c3.3-6.4,3.9-14.2,2.3-21.4c5.8,0.3,11.3-1.4,14.8-7c1.9-3.1,3.1-6.5,3.9-10.1c0.6-2.6,0.8-5.3,1-8
			c0-0.6,0.1-1.3,0.1-1.9C303.7,103.1,303.6,100.9,303.4,98.7z M277.2,140.7c0-0.1,0.1-0.3,0.2-0.5
			C277.3,140.4,277.3,140.6,277.2,140.7z M269.9,82.6C270.3,83.2,270.1,82.9,269.9,82.6L269.9,82.6z M270,83
			c-0.2-0.2-0.3-0.4-0.4-0.6c0,0,0.1,0.1,0.1,0.2c0,0,0,0,0,0C269.9,82.7,270,82.9,270,83z"/>
		<path class="st6" d="M427.7,310.2c-1.9,6.5-4.3,13-7.7,18.9c-3.8,6.8-8.9,12.8-14.1,18.7c-18,20.2-40.2,36.4-64.9,47.5
			c-18.3,8.3-37.8,14-57.7,17.1c-8.1,1.3-16.5,2.4-24.8,2.3c0,0-0.1,0-0.1,0c-1.5-0.1-2.3-1.6-2.8-2.8c-1-2-1.2-4.5-1.2-6.7
			c0-2.1,0.3-4.8,1.2-6.7c0.5-1,1.5-2.7,2.9-2.8c0,0,0.1,0,0.1,0c1.1,0,2.2,0,3.3-0.1c6.5-0.3,13.1-1,19.6-1.9
			c10.8-1.6,21.5-4,32-7.2c0.1,0,0.2-0.1,0.3-0.1c1.3-0.4,2.7-0.8,4-1.3c15.1-5,29.7-11.6,43.3-20c7.6-4.7,15-9.9,21.9-15.7
			c1.8-1.5,3.6-3.1,5.4-4.6c1-0.8,1.9-1.7,2.8-2.6c0.1-0.1,0.2-0.2,0.3-0.3c0,0,0,0,0.1-0.1c0,0,0,0,0,0c0,0,0,0,0.1-0.1l0,0
			c0,0,0,0,0.1-0.1c0,0,0,0,0.1-0.1c0,0,0,0,0,0c0,0,0,0,0,0c0,0,0,0,0,0c0.4-0.4,0.8-0.7,1.1-1.1c3.5-3.4,6.9-7,10.1-10.7
			c3.8-4.4,7.7-8.9,10.8-13.8c0.2-0.3,0.4-0.6,0.6-0.9c0.1-0.1,0.1-0.2,0.2-0.4c0.8-1.5,1.6-3,2.3-4.6c0.9-2.1,1.8-4.1,2.5-6.3
			c0,0,0,0,0,0c0-0.1,0.1-0.1,0.1-0.3c0,0,0,0,0-0.1c0.2-0.6,0.4-1.2,0.6-1.8c0.4-1.4,0.9-2.9,1.2-4.3c0.4-1.6,0.8-3.1,1.1-4.7
			c0.2-0.7,0.3-1.4,0.4-2.1c0.1-0.4,0.1-0.7,0.2-1.1c0.6-3.7,1-7.5,1.3-11.2c0-0.5,0-0.9,0.1-1.4c0-1,0.1-2,0.1-3.1
			c0-2.3,0-4.6-0.1-6.8c0-0.7-0.1-1.3-0.1-2v0c-0.1-1.1-0.2-2.1-0.3-3.1c-0.2-2.5-0.5-4.9-0.9-7.4c-0.2-1.4-0.4-2.8-0.7-4.2
			c-0.1-0.5-0.2-1-0.3-1.5l-0.1-0.5l0-0.1c-0.6-2.8-1.2-5.6-1.9-8.3c-0.7-2.9-1.6-5.9-2.4-8.8c-0.5-1.5-0.9-3-1.4-4.5
			c-0.1-0.3-0.2-0.5-0.3-0.8c0-0.1,0-0.1-0.1-0.2c0-0.1,0-0.1-0.1-0.2c0,0,0,0,0,0c-0.1-0.2-0.2-0.5-0.2-0.7c-0.2-0.5-0.3-1-0.5-1.5
			c-0.8-2.3-1.3-4.7-1.3-7.1c0-2.2,9-1.1,9.9,1.5c0.7,2.2,1.4,4.5,2.1,6.7c0.2,0.6,0.3,1.2,0.5,1.8C434,253.3,435.8,283,427.7,310.2
			z"/>
		<path class="st7" d="M222.9,232.5c-1.7,2.9-4,5.5-6.6,7.8c-4.6,4.1-10,7.2-16.4,8.7c-6.7,1.6-14.1,1.1-20.1-2.1
			c-7-3.8-12-11-13.8-18c-0.6-2.2-0.8-5.6,1-7.6c1.7-1.9,3.4,0.5,3.8,2c0.1,0.2,0.1,0.4,0.2,0.6c0.1,0.2,0.1,0.4,0.2,0.6
			c0,0,0,0,0,0c0.7,1.5,1.4,2.9,2.2,4.3c0,0,0,0,0,0c0,0,0.1,0.1,0.1,0.1c0.2,0.3,0.6,0.8,0.7,1c0.3,0.4,0.6,0.8,1,1.2
			c0.7,0.8,1.5,1.6,2.3,2.4c0.1,0.1,0.2,0.2,0.3,0.3c0,0,0.1,0.1,0.1,0.1c0.2,0.1,0.3,0.2,0.5,0.4c0.5,0.4,1,0.7,1.5,1
			c1.1,0.7,2.2,1.3,3.4,1.8c3.2,1.4,7,1.9,10.8,1.7c2.7-0.1,5.4-0.6,7.8-1.4c2.8-0.9,5.3-2.2,7.7-3.7c1.2-0.7,2.3-1.6,3.3-2.4h0
			c0,0,0,0,0,0c0,0,0,0,0.1-0.1c0,0,0.1-0.1,0.1-0.1c0.2-0.2,0.4-0.4,0.6-0.6c0.4-0.4,0.8-0.7,1.2-1.1c1.3-1.2,2.4-2.6,3.5-4
			c0.3-0.4,0.5-0.7,0.8-1.1c0,0,0,0,0-0.1c0.4-0.6,0.9-1.4,1.8-1.4c0.9,0,1.5,0.8,1.9,1.4c0,0.1,0.1,0.1,0.1,0.2
			C224.1,226.9,224.2,230.3,222.9,232.5z"/>
		<path class="st7" d="M345.9,229c-0.7,2.9-2.2,5.7-3.8,8.3c-2.8,4.4-6.6,8.3-11.9,10.6c-6.6,2.8-14.2,2.6-21,0.5
			c-8.6-2.6-16-8.8-20.2-15.8c-0.5-0.9-0.8-2-0.9-3.1c-0.1-1.7,0.3-3.4,0.9-4.7c0.3-0.6,1-1.6,2-1.6c0.9,0,1.4,0.8,1.8,1.4
			c0,0,0,0,0,0c0,0,0,0.1,0.1,0.1c0.3,0.5,0.7,1,1.1,1.4c1.3,1.7,2.8,3.2,4.4,4.7c0.3,0.2,0.5,0.5,0.8,0.7c0,0,0,0,0,0
			c0,0,0,0,0.1,0.1c0.1,0.1,0.2,0.2,0.2,0.2c0.5,0.4,1,0.8,1.5,1.1c1.1,0.8,2.2,1.5,3.4,2.1c2.4,1.4,5.1,2.5,7.9,3.2
			c0.9,0.2,1.8,0.4,2.7,0.5c0,0,0,0,0,0c5.4,0.8,11,0.3,15.7-2.2c1.2-0.6,2.3-1.4,3.3-2.2c0.1-0.1,0.1-0.1,0.2-0.2c0,0,0,0,0,0h0
			c0,0,0,0,0,0c0,0,0,0,0,0c0,0,0,0,0.1-0.1v0c0.1-0.1,0.3-0.2,0.3-0.3c0.4-0.4,0.8-0.8,1.2-1.2c0.8-0.8,1.5-1.7,2.2-2.6
			c0.1-0.2,0.6-0.8,0.7-1c0,0,0,0,0,0c0.2-0.2,0.3-0.5,0.5-0.7c0.4-0.8,0.8-1.5,1.2-2.3c0.1-0.3,0.3-0.6,0.4-0.9c0,0,0-0.1,0.1-0.1
			c0.1-0.5,0.3-0.9,0.4-1.4c0.4-1.5,2-3.9,3.8-2C346.8,223.4,346.5,226.7,345.9,229z"/>
		<path d="M260.7,256.5c0,0-26.7-3-19.3,14.8c0,0,10.4,14.7,17.8,14.7c7.4,0.1,14.8-10.3,14.8-10.3S291.9,256.5,260.7,256.5
			L260.7,256.5z"/>
		<path d="M247.4,253.7C247.4,253.8,247.4,253.8,247.4,253.7C247.4,253.8,247.4,253.8,247.4,253.7c0,0.1,0,0.1,0,0.1c0,0,0,0,0,0
			C247.4,254,247.4,253.9,247.4,253.7z"/>
		<path d="M278.2,257.5c-0.6-0.6-1.2-1.1-1.9-1.6c-4.3-2.9-10.7-3.1-15.6-3.1c-5-0.6-11.1-0.4-15.8,1.8c-0.5,0.2-1,0.5-1.4,0.8
			c-4.3,2.7-5.5,7.8-4.9,12.6c0.3,2.2,0.9,4.8,2.2,6.7c1,1.5,2.2,2.9,3.4,4.3c3.4,4,7.7,8.8,13.1,10.3c5.8,1.6,11.5-3.6,15.1-7.5
			c3.1-3.4,6.1-7.2,7.6-11.6C281.3,266.2,281.3,260.8,278.2,257.5z M277.5,265.3C277.5,265.3,277.5,265.3,277.5,265.3
			c0,0.2-0.1,0.3-0.1,0.4c0,0.1-0.1,0.2-0.1,0.4c0,0,0,0,0,0c0,0,0,0,0,0.1c0,0,0,0,0,0c0,0,0,0.1,0,0.1v0c0,0,0,0,0,0c0,0,0,0,0,0
			c-0.1,0.2-0.1,0.3-0.2,0.4c-0.2,0.6-0.5,1.1-0.8,1.7c0,0.1-0.1,0.1-0.1,0.2c0,0,0,0,0,0c0,0,0,0,0,0c0,0,0,0,0,0
			c0,0-0.1,0.1-0.1,0.1c-0.1,0.2-0.3,0.5-0.4,0.7c-0.3,0.4-0.6,0.9-0.9,1.3c-0.7,0.9-1.4,1.8-2.1,2.7c-2.9,3.6-7,7.9-11.8,8.7
			c-4.8,0.8-9.2-3.4-12.3-6.6c-1.6-1.6-3.1-3.3-4.5-5.1c-0.4-0.5-0.9-1.1-1.3-1.7c-0.1-0.1-0.3-0.5-0.4-0.6
			c-0.2-0.5-0.2-0.6-0.4-1.1c-0.1-0.2-0.1-0.5-0.2-0.7c0,0,0,0,0,0c0-0.1,0-0.1,0-0.2s0-0.1,0-0.2c0,0,0,0,0,0c0-0.1,0-0.3,0-0.5
			c0,0,0,0,0,0.1c0,0,0,0,0,0c0,0,0,0,0,0v-0.1c0,0,0-0.1,0-0.1c0,0,0-0.1,0-0.1c0,0,0-0.1,0-0.1c0,0,0,0,0,0c0,0,0,0,0,0
			c0,0,0,0,0,0c0-0.1,0.1-0.2,0.1-0.3c0,0,0-0.1,0-0.1c0,0,0,0,0-0.1c0,0,0,0,0,0c0.1-0.2,0.2-0.3,0.3-0.4c0.5-0.7,0.7-0.9,1.5-1.4
			c1-0.7,2-1.2,3.2-1.6c4.2-1.5,9.2-1.5,13.4-1.1c0.1,0,0.2,0,0.2,0h0.1c4.1,0,8.9,0.1,12.8,1.8c0.8,0.4,1.6,0.8,2.3,1.3
			c0.7,0.5,0.7,0.5,1.2,1.2c0.1,0.1,0.2,0.2,0.3,0.3c0,0,0,0,0,0c0,0,0,0,0,0c0,0.1,0.1,0.3,0.2,0.4V265.3
			C277.5,265.2,277.5,265.3,277.5,265.3z"/>
		<path d="M42.1,134.5c0-0.1,0-0.2-0.1-0.3C42,134.3,42.1,134.4,42.1,134.5z"/>
		<path d="M108.1,125.8c-0.1-2.3-0.4-4.5-0.7-6.7c0,0,0-0.1,0-0.1c-0.3-1.6-0.6-3.3-1.1-4.9c-0.2-0.9-0.5-1.8-0.8-2.7
			c-1.1-3.2-2.3-6.5-4.1-9.4c-0.1-0.2-0.3-0.4-0.4-0.6c-1.3-2-3-3.7-4.8-5.2c-7.3-6.3-17.4-9.3-27-8.1c-3.8,0.5-7.4,1.6-10.9,3
			c-2.5,1-4.9,2.2-7.1,3.8c-6.1,4.6-9.5,11.5-11.5,18.7c-4,14.3-5.6,35.8,8.7,45.2c2.8,1.8,6.1,3,9.4,3.5c0.5,0.1,1.1,0.1,1.6,0.2
			c0.3,0,0.7,0.1,1,0.2c0,0,0,0,0,0c0.1,0.1,0.3,0.1,0.4,0.2c0.3,0.1,0.6,0.3,0.8,0.4c0,0,0.1,0.1,0.2,0.1
			c-0.6,5.7-0.2,11.5,0.1,17.1c0.3,5.9,0.7,11.9,1.2,17.8c0,0.3,0.1,0.7,0.1,1c0.1,1.2,0.5,3.2,1.7,3.9c0.2,0.1,0.4,0.2,0.6,0.2
			c0.8,0,1.5-0.8,1.7-1.6c0.4-1.3,1-2.5,1.6-3.7c0.1-0.1,0.3-0.6,0.4-0.7v0l0,0c0,0,0,0,0,0c0.2-0.3,0.3-0.5,0.5-0.8
			c0.5-0.8,1-1.5,1.6-2.2c1.1-1.3,2-2.2,3.7-3.1c1.5-0.8,3.2-1,4.8-1.5c3.5-1.3,6.5-3.7,9.2-6.3c2.8-2.7,5.1-5.8,7.1-9.1
			c0.5-0.9,1-1.8,1.5-2.7c0.2-0.4,0.4-0.8,0.5-1.2c0-0.1,0.1-0.3,0.1-0.4c0.5-2,0.2-4.5-0.6-6.2c-0.1-0.3-0.3-0.6-0.5-0.8
			c-0.1-0.1-0.1-0.2-0.2-0.3c-0.3-0.3-0.6-0.6-1.1-0.6c-0.9,0-1.4,1-1.7,1.6c-0.1,0.3-0.3,0.5-0.4,0.8c-0.6,1.1-1.3,2.3-2.1,3.4
			c-1.5,2.2-3.4,4.4-5.4,6.2c-1.4,1.2-2.8,2.3-4.4,3.3c-0.7,0.4-1.5,0.8-2.3,1.2c-0.4,0.2-0.7,0.3-1.1,0.4c-0.1,0-0.2,0.1-0.2,0.1
			c-0.1,0-0.3,0.1-0.4,0.1c-1.9,0.4-3.7,1-5.3,2.1c-1.5,1.1-2.9,2.5-4.1,4c-0.4,0.6-0.9,1.2-1.3,1.8c-0.1-0.9-0.1-1.7-0.2-2.6
			c0-0.5-0.1-1-0.1-1.6v0c0,0,0-0.1,0-0.1c0,0,0-0.1,0-0.2s0-0.1,0-0.2c0-0.1,0-0.2,0-0.2c0-0.1,0-0.1,0-0.2c0-0.5-0.1-0.9-0.1-1.4
			c-0.1-1.7-0.2-3.4-0.2-5.1c-0.1-2.9-0.2-5.8-0.1-8.7c0-0.1,0-0.3,0-0.4c0,0,0,0,0,0c0-0.4,0.1-0.8,0.1-1.2c0.4-3,0.4-6.2-0.9-9.1
			c-1.2-2.7-3.5-4.3-6.4-4.7c-0.5-0.1-1-0.1-1.4-0.1c-0.5-0.1-1-0.2-1.5-0.3c-0.3-0.1-0.6-0.1-0.9-0.2c-0.2,0-0.3-0.1-0.5-0.1
			c0,0,0,0,0,0c0,0,0,0,0,0c0,0,0,0,0,0c-1.7-0.6-3.4-1.3-4.9-2.3c-0.9-0.6-1.8-1.2-2.6-1.9c0,0-0.1-0.1-0.1-0.1c0,0,0,0,0,0
			s0,0,0,0c-0.2-0.2-0.4-0.4-0.6-0.6c-0.4-0.5-0.8-0.9-1.2-1.4c-0.4-0.5-0.7-1-1.1-1.5c0,0,0-0.1-0.1-0.1c0,0,0,0,0,0c0,0,0,0,0,0
			s0,0,0-0.1c-0.2-0.3-0.3-0.6-0.5-1c-0.3-0.5-0.5-1.1-0.7-1.6c0,0,0-0.1,0-0.1c0,0,0,0,0-0.1c0-0.1,0-0.1-0.1-0.2
			c-0.1-0.5-0.3-0.9-0.4-1.4c-0.1-0.3-0.1-0.5-0.2-0.8v0c0-0.1-0.1-0.2-0.1-0.4c0-0.1,0-0.2,0-0.2c0,0.1,0.1,0.4,0.1,0.6
			c0.1-0.4-0.1-0.7-0.1-0.6c-0.1-0.6-0.1-1.4-0.1-2c0,0.2-0.1,0.1-0.1-0.2c0-0.1,0-0.2,0-0.3c0-0.1,0-0.3,0-0.4c0-0.5,0-1,0-1.5
			c0-0.4,0-0.7,0-1.1v0c0-0.1,0-0.2,0-0.2c0-0.4,0.1-0.8,0.1-1.3c0.1-1.2,0.3-2.4,0.4-3.5c0.1-0.6,0.2-1.2,0.3-1.8c0,0,0-0.1,0-0.3
			c0,0,0,0,0,0c0,0,0,0,0-0.1c0,0,0,0,0,0c0,0,0,0,0,0c0,0,0,0,0,0v0c0,0,0,0,0,0c0,0,0,0,0,0c0,0,0-0.1,0-0.1s0,0,0,0c0,0,0,0,0,0
			s0,0,0,0c0-0.2,0.1-0.4,0.1-0.5c0.2-1.1,0.5-2.1,0.8-3.2c0.1-0.5,0.3-1,0.4-1.5c0.1-0.2,0.2-0.5,0.2-0.7c0-0.1,0.1-0.3,0.2-0.5
			c0,0,0,0,0-0.1c0,0,0,0,0,0c0,0,0,0,0-0.1c0,0,0,0,0,0c0,0,0,0,0,0c0,0,0-0.1,0-0.1c0.1-0.2,0.2-0.4,0.2-0.6
			c0.2-0.4,0.3-0.8,0.5-1.2c0.4-0.8,0.7-1.7,1.2-2.4c0.1-0.1,0.1-0.2,0.2-0.3c0,0,0-0.1,0.1-0.1v0c0.2-0.3,0.4-0.6,0.6-1
			c0.4-0.6,0.9-1.3,1.4-1.9c0.4-0.6,0.9-1.1,1.4-1.6c0.2-0.2,0.3-0.3,0.5-0.5c0,0,0,0,0.1-0.1c0.2-0.1,0.5-0.4,0.6-0.5
			c1-0.8,2-1.6,3.1-2.2c2.2-1.4,4.6-2.4,7.1-3.2c8.1-2.9,17.1-3,25,0.5c4.1,1.8,8,4.4,10.8,7.8c1.7,2,2.6,4.3,3.6,6.7
			c0.4,1.1,0.7,1.9,1,3.3c0.2,0.6,0.3,1.3,0.5,1.9c0.1,0.3,0.1,0.6,0.2,0.9c0,0.1,0,0.1,0,0.1c0,0,0,0.1,0,0.1c0,0.1,0,0.2,0,0.3
			c0.1,0.6,0.2,1.2,0.3,1.8c0.1,0.6,0.1,1.1,0.2,1.7c0,0.3,0,0.5,0.1,0.8v0c0,0.7,0,1.3,0.1,2c0,0.3,0,0.6,0,1c0,0,0,0,0,0
			c0.1,1.8,0.7,4.5,2.4,4.5c0.2,0,0.4,0,0.5-0.1c1.6-0.7,1.9-4.2,1.9-5.4C108.2,127.9,108.2,126.8,108.1,125.8z"/>
		<path class="st8" d="M74.4,103c8.1,7.1,11.9,19.2,9.1,29.5c-1.6,6-5,11.3-9.1,16c-1,1.1,0.8,1.4,1.6,1.4c1.4,0,3.3-0.5,4.3-1.6
			c6.7-7.6,11.5-17.2,10.4-27.5c-0.7-6.3-3.6-12.2-7.6-17.1c-0.8-1-1.7-2-2.7-2.9C79,99.5,73.1,101.9,74.4,103L74.4,103z"/>
		<path d="M470.8,116.3c-1.7-7.5-4.7-14.8-10.5-20c-4.2-3.8-9.7-5.9-15.1-7.3c-9.1-2.4-19.1-1-27.1,3.9c-3.9,2.4-7.5,5.6-9.9,9.6
			c-0.2,0.4-0.5,0.8-0.7,1.2c-2.8,5.3-4.5,11.3-5.3,17.1c-0.3,1.8-0.4,3.6-0.5,5.4c-0.1,1-0.1,2-0.1,3c0,1.4,0.3,5.5,2.4,5.5
			c1.7,0,2.2-2.7,2.4-4.4c0-0.5,0.1-0.8,0.1-1.1c0-0.6,0-1.1,0-1.7c0-0.1,0-0.2,0-0.3c0,0,0,0,0,0c0,0,0-0.1,0-0.2
			c0-0.1,0-0.1,0-0.2c0.1-0.6,0.1-1.2,0.2-1.8c0.1-0.6,0.2-1.2,0.2-1.8c0-0.2,0.1-0.4,0.1-0.6c0-0.1,0-0.1,0-0.2c0,0,0,0,0,0
			c0-0.1,0-0.1,0.1-0.2c0.1-0.6,0.3-1.3,0.4-1.9c0.1-0.6,0.3-1.1,0.5-1.7c0.1-0.3,0.2-0.6,0.3-0.9c0-0.1,0.2-0.6,0.2-0.7
			c0,0,0,0,0,0c0.8-2.4,1.8-4.8,3.2-6.7c1.3-1.7,2.9-3.2,4.6-4.5c7-5.4,16-7.6,24.8-6.4c5.5,0.8,11.4,2.9,15.9,6.2
			c0.5,0.4,1,0.8,1.5,1.2c0.1,0.1,0.4,0.4,0.5,0.5c0,0,0,0,0,0v0c0.2,0.2,0.4,0.4,0.5,0.5c1,1,1.9,2.2,2.7,3.4
			c0.2,0.3,0.4,0.6,0.6,1c0,0.1,0.1,0.2,0.1,0.3c0,0,0,0,0,0c0,0,0.1,0.1,0.1,0.1c0.4,0.7,0.8,1.5,1.1,2.3c0.3,0.7,0.6,1.5,0.9,2.2
			c0,0,0,0,0,0.1c0,0,0,0.1,0,0.1c0.1,0.2,0.2,0.5,0.2,0.6c0.2,0.5,0.3,1.1,0.5,1.7c0.3,1,0.5,2,0.7,3c0.1,0.3,0.1,0.6,0.2,0.8
			c0,0,0,0.1,0,0.2c0,0,0,0,0,0.1c0,0,0,0,0,0.1c0,0,0,0,0,0c0,0,0,0.1,0,0.1c0,0,0,0.1,0,0.1c0,0,0,0,0,0c0,0.1,0,0.1,0,0.1
			c0,0.1,0,0.2,0,0.2c0.1,0.4,0.1,0.8,0.2,1.1c0.2,1.2,0.3,2.4,0.5,3.6c0.1,0.6,0.1,1.1,0.2,1.7c0,0.1,0,0.5,0,0.6c0,0,0,0,0,0v0.1
			c0,1,0,1.9,0,2.9v0.1c0,0,0,0,0,0c-0.1,0.6-0.1,1.1-0.2,1.7c0,0.4-0.1,0.7-0.1,1c0,0.1-0.1,0.2-0.1,0.3c-0.2,0.8-0.4,1.5-0.6,2.3
			v0c0,0,0,0,0,0c0,0,0,0.1-0.1,0.1c-0.1,0.3-0.3,0.7-0.4,1c-0.3,0.6-0.6,1.2-0.9,1.8c-0.1,0.1-0.1,0.2-0.2,0.3
			c-0.1,0.2-0.3,0.5-0.5,0.7c-0.4,0.5-0.8,1-1.2,1.5c-0.4,0.4-0.7,0.8-1.1,1.2c0,0,0,0,0,0c0,0,0,0,0,0c0,0-0.1,0.1-0.1,0.1
			c-0.2,0.2-0.5,0.4-0.7,0.6c-0.8,0.6-1.6,1.2-2.5,1.7c-1.4,0.8-2.8,1.4-4.3,1.9c0,0,0,0,0,0c0,0,0,0,0,0c0,0,0,0,0,0
			c0,0-0.1,0-0.1,0c-0.2,0.1-0.5,0.1-0.6,0.2c-0.3,0.1-0.6,0.1-0.9,0.2c-0.5,0.1-0.9,0.2-1.4,0.2c-0.5,0.1-1,0.1-1.4,0.1
			c-2.8,0.4-5.1,1.9-6.3,4.5c-1.2,2.8-1.4,6.1-1,9c0.1,0.4,0.1,0.8,0.1,1.1v0c0,0.2,0,0.3,0,0.5c0.1,3.1,0,6.2-0.1,9.3
			c-0.1,1.8-0.2,3.6-0.3,5.4c0,0.3,0,0.5,0,0.7c0,0,0,0,0,0c0,0.1,0,0.2,0,0.3c0,0,0,0,0,0c0,0,0,0.1,0,0.1v0c0,0.1,0,0.1,0,0.2v0
			c-0.1,0.9-0.1,1.8-0.2,2.7c0,0.5-0.1,1-0.1,1.6c-0.9-1.4-1.9-2.7-3.1-3.8c-1.2-1.2-2.4-2.2-3.9-2.9c-0.8-0.4-1.6-0.6-2.4-0.8
			c-0.3-0.1-0.7-0.2-1-0.2c-0.1,0-0.5-0.1-0.7-0.2c-3-1-5.7-3-8.1-5.1c-2.1-1.9-3.9-4.1-5.5-6.5c-0.8-1.1-1.5-2.3-2-3.4
			c-0.1-0.2-0.3-0.5-0.4-0.7c-0.3-0.6-0.9-1.6-1.7-1.6c-0.8,0-1.5,1-1.7,1.6c-0.7,1.7-1,4.1-0.6,6.2c0,0.2,0.1,0.3,0.1,0.5
			c0.1,0.4,0.3,0.8,0.4,1.2c0.5,0.9,1,1.8,1.5,2.8c3.4,6,8.3,11.6,14.4,14.8c2.6,1.3,5.3,1.4,7.6,2.9c0.6,0.4,1.2,0.8,1.7,1.3
			l0.1,0.1c0.1,0.1,0.2,0.2,0.3,0.3c0.3,0.3,0.5,0.6,0.8,0.9c0.8,0.9,1.4,1.9,2.1,3c0,0,0,0.1,0.1,0.2c0,0,0,0.1,0.1,0.1
			c0.1,0.1,0.1,0.2,0.2,0.3c0.1,0.3,0.3,0.6,0.4,0.8c0.2,0.5,0.4,0.9,0.6,1.4c0,0.1,0.1,0.2,0.1,0.3c0.1,0.3,0.3,0.7,0.4,0.9
			c0-0.1,0-0.1-0.1-0.2c0.4,1,1,2.4,2.2,2c0.4-0.1,0.7-0.3,0.9-0.6c0.7-0.9,1.1-2.4,1.1-3.3c0-0.3,0-0.6,0.1-0.9c0-0.1,0-0.2,0-0.3
			v0c0-0.1,0-0.2,0-0.3c0-0.1,0-0.1,0-0.2c0-0.4,0.1-0.8,0.1-1.1c0.1-1.2,0.2-2.5,0.3-3.7c0.3-3.9,0.5-7.7,0.8-11.6
			c0.3-5.8,0.9-11.9,0.2-17.7c0.1-0.1,0.2-0.1,0.2-0.1c0.2-0.1,0.5-0.3,0.7-0.4c0.2-0.1,0.5-0.2,0.5-0.2c0.4-0.1,0.7-0.2,1.1-0.2
			c0.5-0.1,1-0.1,1.5-0.1c3.1-0.4,6.3-1.6,8.9-3.2C475.1,150.4,474,130.3,470.8,116.3z M442,196.9v-0.6c0,0,0,0,0,0
			C442,196.6,442,196.8,442,196.9z"/>
		<path class="st8" d="M429.5,102c-2.7,2.4-4.9,5.6-6.7,8.8c-3.7,6.8-4.9,14.8-2.9,22.3c1.7,6.2,5.3,11.7,9.5,16.5
			c1.2,1.4,7.3-0.9,6-2.3c-6.4-7.3-11.2-16.8-9.9-26.7c0.8-5.9,3.4-11.5,7.3-16c0.8-0.9,1.6-1.9,2.5-2.7c1.1-1-1-1.4-1.6-1.4
			C432.3,100.4,430.7,101,429.5,102L429.5,102z"/>
		<path d="M107.7,173.4c-0.6-0.4-1.1-0.8-1.6-1.2c-0.6-0.5-1.2-1-1.8-1.5c-0.3-0.3-0.6-0.6-0.9-0.8c-0.2-0.1-0.3-0.3-0.5-0.5
			c0,0-0.2-0.2-0.4-0.3v0c0,0-0.1,0-0.1-0.1c-1.7-1.7-3.3-3.4-4.8-5.3c-0.2-0.2-0.4-0.5-0.6-0.7c-0.1-0.1-0.1-0.2-0.2-0.3
			c-0.5-0.6-1-1.3-1.4-2c-0.4-0.6-0.7-1.1-1.1-1.7c0,0,0,0,0,0c0,0,0-0.1-0.1-0.1c0,0,0,0,0,0c0,0,0,0,0,0c0,0,0,0,0,0
			c0,0,0-0.1-0.1-0.1c-0.2-0.5-0.5-0.9-0.7-1.4c-0.3-0.6-0.5-1.2-0.8-1.8c-0.1-0.3-0.2-0.6-0.4-0.9c0,0,0-0.1,0-0.1c0,0,0-0.1,0-0.1
			c-0.1-0.5-0.3-1-0.4-1.5c0,0,0-0.1,0-0.1c0,0,0,0,0,0c0-0.1-0.1-0.3-0.1-0.5c0,0,0,0,0,0V152c0-0.1,0-0.3,0-0.4c0-0.1,0-0.2,0-0.3
			c0,0,0-0.1,0-0.1c0.1-0.3,0.1-0.6,0.2-0.8c0,0,0.2-0.6,0.2-0.8c0,0,0,0,0,0c0,0,0,0,0,0v0c0.2-0.6,0.5-1.2,0.7-1.7
			c0.2-0.4,0.4-0.8,0.6-1.2c0,0,0.3-0.5,0.4-0.7c0,0,0,0,0,0c0,0,0,0,0,0c1.5-2.6,3.3-4.9,5.3-7.1c0.9-1,1.9-1.9,3.1-2.6
			c1.2-0.8,2.5-1.2,3.8-1.8c0.3-0.1,0.6-0.2,0.9-0.4c4.2-2,4.1-8.3,3.3-12.1c-0.3-1.5-0.8-2.9-1.2-4.4c-0.2-0.8-0.4-1.7-0.6-2.5
			c0,0-0.1-0.8-0.2-1c0,0,0,0,0,0v0c-0.1-0.4-0.1-0.8-0.2-1.2c-1.2-7.3-2.5-14.6-4.1-21.8c-2.4-11-5.4-21.9-9.4-32.5
			C90.2,46.4,84,33.4,73.5,25.2c-0.5-0.4-1-0.8-1.5-1.1c-3.4-2.3-7.4-3.9-11.4-4.4c-1.8-0.2-3.6-0.2-5.4,0c-3.2,0.4-6.8,1.5-9.4,3.4
			c0,0-0.1,0.1-0.1,0.1c-1.6,1.2-1.9,3.8-1.8,5.9c0,0.3,0.1,0.7,0.1,0.9c0,0.1,0,0.3,0.1,0.5c0.3,1.4,1.3,4.6,2.9,3.4
			c0.6-0.4,1.3-0.8,1.9-1.1c0.7-0.4,1.5-0.7,2.3-1c0.2-0.1,0.4-0.1,0.6-0.2c0.1,0,0.2-0.1,0.3-0.1c0,0,0,0,0,0s0,0,0,0
			c0.4-0.1,0.9-0.2,1.4-0.3c0.7-0.2,1.4-0.3,2.1-0.3c0,0,0,0,0,0c1.9-0.2,3.8-0.2,5.6,0.1c0.7,0.1,1.5,0.3,2.2,0.5
			c0.1,0,0.3,0.1,0.4,0.1c0,0,0.1,0,0.1,0c0.4,0.1,0.8,0.3,1.2,0.4c1.7,0.7,3.4,1.5,4.9,2.5c0.8,0.6,1.6,1.1,2.4,1.8
			c0.4,0.3,0.9,0.7,1.3,1.1c0.2,0.2,0.4,0.4,0.6,0.5c0.1,0.1,0.2,0.2,0.2,0.2c0,0,0,0,0.1,0.1c0,0,0,0,0.1,0c1.8,1.9,3.5,3.8,5,5.8
			c0.9,1.2,1.7,2.4,2.6,3.7c0.4,0.7,0.9,1.4,1.3,2.1c0.1,0.2,0.3,0.4,0.4,0.6c0,0,0,0,0,0.1c0,0,0,0.1,0.1,0.1
			c0.1,0.3,0.4,0.6,0.4,0.8c1.9,3.4,3.5,6.9,5,10.4c0.9,2.1,1.7,4.2,2.5,6.4c0.2,0.5,0.4,1,0.6,1.5c0.1,0.3,0.2,0.5,0.3,0.8
			c0,0,0,0,0,0c0,0,0,0,0,0.1c0,0,0,0,0,0.1c0,0,0,0.1,0,0.1c0,0,0,0.1,0,0.1c0,0.1,0,0.1,0,0.1c0.4,1.2,0.8,2.3,1.1,3.5
			c1.7,5.3,3.1,10.7,4.5,16.2c0.8,3.2,1.5,6.3,2.1,9.5c0.1,0.4,0.2,0.8,0.3,1.3c0.2,1.1,0.4,2.2,0.7,3.3c0.1,0.5,0.2,0.9,0.3,1.4
			c0,0,0.1,0.3,0.1,0.6c0,0,0,0,0,0.1c0,0,0,0,0,0.1c0,0,0,0,0,0v0c0,0,0,0,0,0v0c0.1,0.3,0.1,0.7,0.1,0.7c0.1,0.6,0.2,1.3,0.4,2
			c0,0.3,0.1,0.6,0.1,0.8c0.2,1.1,0.4,2.3,0.6,3.4c0,0,0,0,0,0c0.4,2.4,0.8,4.8,1.3,7.2c0.2,0.8,0.4,1.7,0.6,2.5
			c-0.7,0.3-1.5,0.6-2.2,0.9c-0.4,0.2-0.8,0.4-1.2,0.6c-1.6,1-3,2.2-4.3,3.6c-1.9,2-3.7,4.2-5.2,6.5c-4.4,6.9-6.5,15.2-4.6,23.3
			c0.8,3.3,2.1,6.4,3.9,9.4c0.7,1.2,1.4,2.3,2.2,3.4c0.7,1,1.5,2,2.3,3c2.6,3.2,5.7,6.1,8.9,8.6c0.5,0.4,1,0.8,1.5,1.1
			c1.9,1.3,2.9-2.8,3-3.9C109.6,178.1,109.6,174.7,107.7,173.4z M106,126.5c0,0.1,0,0.1,0,0.2c0,0.1,0.1,0.3,0.1,0.4
			C106.1,126.9,106,126.7,106,126.5z"/>
		<path d="M417.5,152.6c0,0,0,0.1,0,0.2C417.5,152.7,417.5,152.6,417.5,152.6z"/>
		<path d="M469.1,29.8c0,0.1,0,0.3,0,0.4c0,0.2-0.1,0.6-0.2,1.1c-0.4,1.6-1.3,3.8-2.8,2.8c0,0-0.1-0.1-0.1-0.1c-1-0.5-2-1.1-3-1.5
			c-0.4-0.2-0.9-0.3-1.3-0.5c-0.2-0.1-0.4-0.1-0.5-0.2c0,0,0,0,0,0c-0.1,0-0.3-0.1-0.4-0.1c-1.2-0.3-2.3-0.6-3.5-0.7
			c-0.2,0-0.3,0-0.5-0.1c0,0,0,0,0,0c-2.8-0.3-5.6-0.1-8.3,0.5c-0.4,0.1-0.8,0.2-1.2,0.3c0,0,0,0-0.1,0c0,0-0.1,0-0.1,0
			c0,0,0,0-0.1,0c-0.2,0.1-0.4,0.1-0.6,0.2c-0.9,0.3-1.7,0.7-2.6,1c-1.8,0.9-3.6,1.9-5.2,3.1c-0.9,0.7-1.8,1.4-2.7,2.1
			c-0.3,0.2-0.5,0.5-0.8,0.7c0,0,0,0-0.1,0.1c0,0-0.1,0.1-0.1,0.1c0,0-0.1,0.1-0.1,0.1c-0.4,0.4-0.8,0.8-1.3,1.3
			c-2,2.1-3.8,4.5-5.5,6.9c-1,1.4-1.9,2.8-2.7,4.3c-0.1,0.2-0.2,0.3-0.3,0.5c0,0,0,0.1-0.1,0.1c0,0,0,0.1-0.1,0.1c0,0,0,0.1,0,0.1
			c-0.2,0.3-0.3,0.6-0.5,0.9c-0.5,0.8-0.9,1.7-1.3,2.5c-1.9,3.8-3.7,7.8-5.2,11.8c-0.4,1.1-0.8,2.2-1.3,3.4c-0.2,0.5-0.4,1-0.5,1.5
			c0,0,0,0.1,0,0.1c0,0.1,0,0.1-0.1,0.2c0,0,0,0,0,0c0,0.1,0,0.1,0,0.1c-0.1,0.2-0.2,0.5-0.2,0.7c-0.8,2.5-1.6,5-2.3,7.5
			c-1.7,5.9-3.2,11.8-4.5,17.8c-0.3,1.2-0.5,2.3-0.7,3.5c-0.1,0.6-0.2,1.1-0.3,1.7c-0.2,0.9-0.3,1.7-0.5,2.6c0,0.2-0.1,0.4-0.1,0.6
			c0,0,0,0,0,0c0,0,0,0,0,0v0c0,0,0,0,0,0.1c0,0.1,0,0.1,0,0.2c0,0.3-0.1,0.6-0.1,0.6c-0.4,1.9-0.7,3.8-1,5.8
			c-0.2,1.3-0.4,2.6-0.7,3.8c0,0,0,0,0,0.1s0,0,0,0.1c-0.1,0.7-0.3,1.4-0.4,2.1c-0.1,0.4-0.2,0.8-0.3,1.2c0,0,0,0,0,0.1c0,0,0,0,0,0
			c-0.1,0.5-0.2,0.9-0.3,1.4c-0.1,0.3-0.1,0.6-0.2,0.8c0,0,0.1,0,0.1,0.1c0,0,0.1,0,0.1,0c0.8,0.4,1.6,0.7,2.4,1.2
			c1.7,0.9,3.2,1.9,4.6,3.3c4.5,4.5,8.1,10.1,9.9,16.2c2.2,7.5,0.9,15.4-2.8,22.2c-0.2,0.4-0.4,0.7-0.6,1.1
			c-0.7,1.2-1.4,2.3-2.1,3.4c-0.7,1-1.5,2.1-2.3,3.1c-3.1,3.8-6.7,7.3-10.6,10c-1.9,1.3-2.9-2.8-3-3.9c-0.3-2-0.2-5.5,1.7-6.8
			c0.6-0.4,1.1-0.8,1.6-1.2c0.6-0.5,1.2-1,1.8-1.5c0.3-0.3,0.6-0.6,0.9-0.8c0.2-0.2,0.4-0.4,0.6-0.6c0,0,0.1-0.1,0.3-0.2l0.2-0.2
			c0,0,0,0,0,0c1.6-1.6,3.2-3.3,4.6-5.1c0.9-1.1,1.7-2.2,2.5-3.4c0.3-0.5,0.6-0.9,0.9-1.4c0,0,0,0,0,0s0,0,0-0.1
			c0.1-0.2,0.3-0.6,0.3-0.6c0.2-0.3,0.3-0.6,0.4-0.8c0.4-0.8,0.7-1.5,1-2.3c0.1-0.1,0.1-0.3,0.2-0.4c0.1-0.2,0.2-0.6,0.2-0.7
			c0.1-0.4,0.2-0.7,0.3-1.1c0-0.1,0-0.1,0-0.2c0,0,0,0.1,0,0.2c0-0.1,0-0.2,0.1-0.3v0c0-0.1,0-0.2,0-0.3c0-0.1-0.1-0.5-0.1-0.8
			c0,0,0,0,0,0v-0.1c0,0,0-0.1,0-0.2c0-0.2-0.1-0.5-0.1-0.5c-0.1-0.3-0.2-0.6-0.2-0.8c0-0.2-0.1-0.3-0.1-0.3c0-0.1-0.1-0.1-0.1-0.2
			c-0.3-0.7-0.6-1.4-0.9-2c-0.3-0.6-0.7-1.4-0.9-1.6c-1.5-2.5-3.4-4.9-5.4-7.1c-1-1.1-2.2-2-3.5-2.8c-1.3-0.8-2.7-1.2-4.1-1.8
			c-4.2-2-4.1-8.3-3.3-12.1c0.4-1.8,1-3.6,1.4-5.4c0.2-0.7,0.4-1.5,0.5-2.2c0,0,0,0,0,0c0,0,0,0,0,0c0-0.2,0.2-0.9,0.2-1
			c0.1-0.3,0.1-0.7,0.2-1c0.6-3.9,1.3-7.8,2.1-11.6c1.2-6.4,2.6-12.7,4.3-19c2.6-10,5.8-20,10.1-29.4c4.9-10.7,11.6-22,21.9-28.3
			c0.2-0.1,0.4-0.3,0.7-0.4c3.6-2.1,7.5-3.4,11.6-3.8c2.4-0.2,4.9-0.1,7.3,0.4c2.8,0.6,5.9,1.5,8.3,3.2
			C469.1,24.6,469.2,27.7,469.1,29.8z"/>
		<path d="M500.2,339.5C500.2,339.5,500.2,339.5,500.2,339.5c-0.1,0-0.1,0-0.2-0.1c0,0,0,0-0.1,0C500,339.4,500.1,339.4,500.2,339.5
			z"/>
		<path class="st9" d="M500,443.7c-0.1-5.9-5.3-10-9.9-12.7c-3.6-2.1-7.3-3.4-11.2-4.7c-3.9-1.3-8.3-3.7-11.8-6.4
			c0.1,0.1,0.1,0.2,0.1,0.3c-0.1-0.1-0.2-0.3-0.3-0.4c0,0,0.1,0.1,0.1,0.1c0,0-0.1-0.1-0.1-0.1c-5.7-4.7-9.7-10.9-11.8-17.9
			c-0.8-2.5-1.3-5.1-1.6-7.7c-0.1-0.5-0.1-1-0.1-1.6c0-0.2,0-0.4,0-0.6c0-0.1,0-0.1,0-0.2c0,0,0,0,0,0c0-0.9,0-1.9,0-2.8
			c0-2.7-6.3-1.5-6.5,0.8c-0.3,4,0,8.1,0,12.1v68.7c-3.6-3.7-8.3-6.2-13.7-5.9c-3.6,0.2-7.7,1.4-10.3,4c-2.3,2.3-3.3,5.4-3.4,8.5
			c-0.3,7.5,4.2,15.2,10.3,19.4c5.9,4.1,12.9,4.4,18.7-0.2c4.6-3.6,5-8.3,4.8-14.7v-68c2.1,3.2,12.9,15.5,15.9,18.7
			c2.4,2.6,5,4.7,6.3,8.1c1.9,5.3,0.5,11.9-4.3,15.3c-1.7,1.2-3.6,2-5.5,2.8c-0.8,0.3-1.6,0.6-2.3,0.9c-0.1,0-0.2,0.1-0.3,0.1
			c0.1,0,0.2-0.1,0.2-0.1c-0.1,0-0.2,0.1-0.2,0.1c0,0,0,0,0,0c0,0-0.1,0-0.1,0c-0.9,0.3-2.5,0.9-2.7,1.9c-0.2,1.1,1.1,1.3,2,1.4
			c8.5,0.5,17.6,0,25.6-3.3c6.6-2.8,12.1-7.9,12.2-15.5c0-0.1,0-0.2,0-0.3C500,443.8,500,443.7,500,443.7z M443.5,497.1
			C443.5,497.1,443.5,497.1,443.5,497.1C443.5,497.1,443.4,497.1,443.5,497.1C443.5,497.1,443.5,497.1,443.5,497.1z M475.3,429.8
			c-0.1,0-0.1,0-0.2-0.1c0,0,0,0-0.1,0C475.1,429.7,475.2,429.8,475.3,429.8C475.3,429.8,475.3,429.8,475.3,429.8z"/>
		<path d="M488.2,369.1c-0.1,0-0.2,0.1-0.2,0.1l0,0C488,369.1,488.1,369.1,488.2,369.1z"/>
		<path d="M492.1,329.8c-0.1-0.1-0.2-0.3-0.3-0.4c0,0,0.1,0.1,0.1,0.1c0,0,0,0,0,0C492.1,329.6,492.1,329.7,492.1,329.8z"/>
		<path d="M500.2,339.5C500.2,339.5,500.2,339.5,500.2,339.5c-0.1,0-0.1,0-0.2-0.1c0,0,0,0-0.1,0C500,339.4,500.1,339.4,500.2,339.5
			z"/>
		<path d="M492.1,329.8c-0.1-0.1-0.2-0.3-0.3-0.4c0,0,0.1,0.1,0.1,0.1c0,0,0,0,0,0C492.1,329.6,492.1,329.7,492.1,329.8z"/>
		<path d="M468.5,406.7c0,0-0.1,0-0.1,0.1C468.4,406.7,468.4,406.7,468.5,406.7C468.4,406.7,468.4,406.7,468.5,406.7z"/>
		<g>
			<g>
				<path d="M228.8,312c3.2,4.2,7.5,7.9,11.8,10.8c4,2.6,8.4,4.5,13,5.5c5.5,1.2,10.9,0.6,16.2-1.1c8.2-2.7,15-8.7,20.6-15.1
					c0.9-1.1,1.4-3.1,1.5-4.5c0.2-1.8,0.2-4-0.3-5.8c-0.6-2.1-2.3-5.2-4.5-2.7c-0.9,1-1.7,1.9-2.6,2.8c-0.4,0.4-0.9,0.9-1.3,1.3
					c0.3-0.3-0.1,0.1-0.2,0.2c-0.2,0.2-0.4,0.4-0.6,0.6c-1.7,1.5-3.4,2.9-5.3,4.2c-3.1,2.1-6.4,3.8-9.9,4.9c0.3-0.1,0.6-0.2,0.9-0.3
					c-5.6,1.6-11.4,1.6-17-0.1c0.3,0.1,0.6,0.2,0.9,0.3c-4.5-1.4-8.7-3.7-12.4-6.6c-0.8-0.6-1.5-1.2-2.3-1.9c-0.3-0.3-0.6-0.6-1-0.8
					c-0.2-0.2-0.3-0.3-0.5-0.5c-0.6-0.5-0.2-0.2,0.2,0.2c-0.9-1-1.9-1.9-2.8-2.9c-0.4-0.4-0.8-0.9-1.1-1.4c-2-2.7-4,0.7-4.5,2.7
					C226.9,304.8,226.7,309.3,228.8,312L228.8,312z"/>
			</g>
		</g>
	</g>
	<g>
		<g>
			<path d="M63,198c-2.4,4.8-4.5,9.8-6.4,14.7c-4.8,12.5-8.7,25.3-11.3,38.4c-3.5,17.7-5,35.7-3.3,53.7c1.8,19.2,7.5,38,17.8,54.5
				c5.5,8.8,12.3,16.6,19.9,23.5c9.8,8.9,21.2,16,32.7,22.6c22.9,13,47.4,22.6,72.7,29.7c19.2,5.4,39.3,9.2,58.1,15.1
				c8,2.5,15.9,5.6,23.2,9.7c3.5,2,7,4.3,10.1,6.8c1.6,1.3,3.1,2.6,4.6,4c-0.6-0.5,0.3,0.3,0.4,0.4c0.4,0.4,0.7,0.7,1.1,1.1
				c0.8,0.8,1.5,1.6,2.2,2.4c0.7,0.8,1.3,1.5,1.9,2.4c0.4,0.5,0.7,1,1,1.5c0.1,0.2,0.2,0.4,0.4,0.6c0.8,1.3-0.4-0.9,0.3,0.5
				c0.6,1.1,1.1,2.3,1.6,3.4c0.1,0.3,0.3,0.6,0.4,1c0.1,0.2,0.4,1.2,0.2,0.5c-0.3-0.7,0.1,0.3,0.1,0.5c0.1,0.4,0.2,0.8,0.4,1.3
				c0,0.1,0.5,2,0.5,2c0,0-0.3-1.7-0.1-0.3c0,0.3,0.1,0.5,0.1,0.8c0,0.3,0.1,0.7,0.1,1c0,0.1,0,0.2,0,0.3c0.1,0.7,0.1,0.7,0,0
				c-0.3-0.1,0-0.8,0,0.2c0,0.3-0.1,0.9,0,1.2c-0.1-0.2,0.2-1.8,0-0.6c0,0.1-0.1,0.9-0.1,0.9c0.1,0,0.3-1.7,0-0.5
				c0,0.2-0.1,0.9,0,0.1c0.1-0.8,0,0-0.1,0.3c-0.1,0.3-0.2,0.5-0.4,0.8c-0.3,0.7,0.5-0.7,0-0.1c-0.2,0.3-0.4,0.6-0.6,0.9
				c-0.3,0.4-0.6,0.7-0.9,1c-0.5,0.5,0.7-0.5-0.2,0.2c-0.6,0.5-1.1,1-1.8,1.4c-1.3,0.9-2.7,1.6-4.2,2.1c0.7-0.3-0.4,0.1-0.6,0.1
				c-0.4,0.1-0.8,0.2-1.2,0.2c-0.9,0.1-1.8,0.1-2.6,0.1c-2.1-0.1-3.8-0.5-5.5-1.3c-5.6-2.3-9.6-6.5-14-10.5c0.2,0.2,1,1,0.3,0.2
				c-0.3-0.3-0.7-0.7-1-1c-1-1.1-2-2.3-3-3.5c-0.5-0.7-1-1.4-1.5-2.2c-0.3-0.4-0.5-0.8-0.8-1.3c-0.1-0.2-0.3-0.4-0.4-0.7
				c0.3,0.6,0.3,0.5,0,0c-0.5-0.9-0.9-1.8-1.3-2.7c-0.1-0.3-0.7-1.3-0.6-1.5c0,0,0.4,1.5,0.1,0.3c-0.1-0.3-0.2-0.7-0.3-1
				c-0.1-0.3-0.1-0.6-0.2-0.8c-0.2-0.7,0.1,0.7,0.1,0.8c0.1-0.4-0.1-1.3-0.2-1.7c0.4,1.3,0,1.5,0,0.7c0-0.1,0.1-0.7,0-0.9
				c0,0.1-0.2,1.9,0,0.7c0-0.1,0-0.3,0-0.4c0.1-0.6,0.1-0.6,0,0c-0.5,0.6-0.1,0.3,0.1-0.2c0.1-0.3,0.2-0.6,0.2-0.9
				c0.1-0.7-0.1,0.4-0.1,0.4c0.1-0.3,0.2-0.6,0.4-0.9c0.1-0.2,0.9-1.8,0.5-1c0.4-0.7,0.9-1.3,1.3-2c0.7-1,1.6-1.9,2.5-2.7
				c-0.7,0.7,0.2-0.2,0.4-0.3c0.3-0.3,0.6-0.5,1-0.8c0.4-0.3,0.9-0.5,1.4-0.8c0.1-0.1,0.2-0.1,0.3-0.1c-2.1,1-0.4,0.1-0.4,0.1
				c0,0,0.5-0.1,0.6,0c0.6,0.3-0.9-0.4-0.3-0.1c0.6,0.3-0.3-0.3-0.4-0.5c0.5,0.6-0.2-0.4-0.3-0.7c0.5,1-0.3-0.9-0.2-0.8
				c0.4,1.2-0.2-1.5-0.2-1c0.1,0.4,0.1,1.5,0-0.1c-0.1-1.8-0.1,0.5-0.1,1c0-0.5,0.2-2.3,0-0.9c0,0.3-0.1,0.7-0.1,1
				c-0.1,0.8-0.2,1.6-0.3,2.4c-0.1,0.3-0.1,0.7-0.2,1c-0.1,0.8,0.3-1.7,0.2-0.9c0,0.2-0.1,0.4-0.1,0.6c-0.2,0.8-0.3,1.7-0.5,2.5
				c-0.6,2.9-1.4,5.8-2.2,8.6c-0.3,1-0.6,1.9-0.9,2.9c-0.1,0.3-0.2,1.1-0.4,1.3c-0.1,0.1,0.9-1.9-0.2-0.2c-0.3,0.5-0.6,1-0.9,1.6
				c-0.9,1.5-1.9,3-2.9,4.5c-0.8,1.2-1.7,2.3-2.6,3.4c-0.4,0.4-0.7,0.8-1.1,1.2c-0.1,0.2-1.3,1.3-0.9,0.9c-1.4,1.3-2.9,2.4-4.6,3.2
				c-0.4,0.2-0.7,0.3-1.1,0.4c0.7-0.3-0.2,0-0.4,0.1c-0.7,0.1-1.3,0.2-2,0.2c-0.6,0-1.2-0.1-1.9-0.3c-0.6-0.1,0.6,0.3-0.1-0.1
				c-0.3-0.2-0.7-0.3-1-0.4c-0.6-0.3-1.1-0.6-1.6-1c-0.3-0.2-0.5-0.4-0.8-0.6c-0.4-0.3-0.7-0.7-0.1-0.1c-0.9-1-1.7-1.9-2.5-3
				c0-0.1-0.5-0.8-0.2-0.3c-0.2-0.3-0.3-0.7-0.5-1c-0.2-0.3-0.8-2.2-0.5-1c-0.2-0.5-0.5-2.4-0.3-0.9c0-0.4-0.1-0.7-0.1-1.1
				c-0.1-0.9-0.3-0.3,0,0.4c-0.1-0.3,0.2-0.9,0-1.1c0.1,0.1-0.2,1.8,0,0.4c0-0.4,0.1-0.7,0.1-1.1c-0.1,0.6-0.2,0.9,0,0.2
				c0.1-0.3,0.8-2.2,0.3-1.1c0.3-0.7,0.6-1.4,0.9-2c0.3-0.6,0.2-0.4,0.8-1.3c0.4-0.6,0.9-1.3,1.4-1.9c1.6-2.1,3.2-4.1,5-6.1
				c5.9-6.7,12.6-12.5,20.6-17.3c15.3-9.2,32.3-12.9,49.5-16.6c21.5-4.6,42.8-9.6,63.2-17.9c13.1-5.3,25.7-11.7,37.7-19.1
				c10.4-6.4,20.2-13.4,28.9-22.2C449,363.7,458.7,346,464,327c5-18.1,6.1-37.1,4.7-55.8c-1.1-15.4-4.1-30.7-8.3-45.6
				c-2.7-9.5-5.9-18.9-9.8-28c-0.5-1.2-1-2.4-1.6-3.6c-0.4-0.9-1.2-2.2-2.3-2.2c-1.1,0-2,1.3-2.3,2.2c-1.3,3.1-1.5,7.5,0,10.6
				c2.4,5,4.3,10.1,6.2,15.3c0.2,0.6,0.4,1.1,0.6,1.7c0.1,0.3,0.2,0.6,0.3,0.9c0.5,1.4-0.5-1.5,0-0.1c0.4,1.3,0.9,2.7,1.3,4
				c1,3.1,1.9,6.1,2.7,9.2c0.9,3.4,1.8,6.9,2.6,10.3c0.4,1.8,0.8,3.6,1.1,5.4c0.2,0.9,0.3,1.8,0.5,2.8c-0.5-2.3-0.1-0.6,0,0
				c0.1,0.6,0.2,1.2,0.3,1.8c0.7,3.9,1.2,7.9,1.7,11.9c0.2,2.1,0.4,4.2,0.6,6.3c0.1,1,0.1,2.1,0.2,3.1c0,0-0.1-2-0.1-0.8
				c0,0.3,0,0.5,0,0.8c0,0.5,0.1,1,0.1,1.6c0.2,4.4,0.2,8.7,0,13.1c0,0.5,0,1.1-0.1,1.6c0,0.3,0,0.5,0,0.8c-0.1,1.2,0-0.7,0-0.8
				c-0.1,1.1-0.2,2.3-0.2,3.4c-0.2,2.2-0.4,4.5-0.7,6.7c-0.1,1.1-0.3,2.2-0.5,3.2c-0.1,0.5-0.2,1.1-0.3,1.6c0,0.3-0.1,0.5-0.1,0.8
				c0,0.3-0.3,1.5-0.1,0.3c0.2-1.2-0.1,0.5-0.1,0.7c-0.1,0.5-0.2,1.1-0.3,1.6c-0.3,1.2-0.5,2.4-0.8,3.6c-0.5,2.2-1.1,4.3-1.8,6.5
				c-0.3,1.1-0.7,2.1-1,3.2c-0.3,1,0.1-0.2,0.1-0.3c-0.1,0.3-0.2,0.5-0.3,0.8c-0.2,0.6-0.4,1.2-0.7,1.8c-1.7,4.4-3.6,8.8-5.8,13
				c-0.5,1-1,1.9-1.6,2.9c0.5-1-0.3,0.5-0.4,0.7c-0.4,0.6-0.8,1.3-1.2,1.9c-1.3,2-2.6,4-4,6c-14.5,20.2-36,33.6-58.2,44.7
				c-21.5,10.8-44.3,17.7-67.7,22.9c-18.1,4-36.8,7.1-53.8,14.9c-8.2,3.7-15.8,8.7-22.5,14.7c-3.9,3.5-7.6,7.4-11,11.4
				c-1.8,2.2-3.6,4.4-5.1,6.9c-2.1,3.5-3.3,7.2-4,11.3c-1.4,7.8,0,16.5,4.4,23.2c1.9,2.9,4.7,5.7,8.1,6.9
				c8.7,2.9,15.8-5.7,20.1-12.1c2.4-3.5,4.7-7.2,5.9-11.3c0.7-2.3,1.4-4.6,2-7c1.9-7.2,3.8-15.1,2.9-22.7c-0.4-2.8-1.4-8.1-5.2-8.2
				c-3.2-0.1-6.7,4.1-8.4,6.3c-8.2,10.1-7.3,25.1-1.2,36c1.9,3.3,4.1,6.5,6.7,9.3c0.7,0.7,1.4,1.4,2.1,2.1c-0.3-0.3,0,0,0.3,0.4
				c0.7,0.8,1.5,1.5,2.3,2.3c1.4,1.3,2.8,2.6,4.4,3.8c7,5.3,16.1,8.4,24.1,3.2c10.7-6.9,11-21.5,7.8-32.6
				c-1.6-5.7-4.2-11.3-8.1-15.9c-2.8-3.3-6-6.4-9.4-9.2c-13.6-11.3-30.9-16.7-47.7-21.1c-21-5.6-42.4-10-63-16.8
				c-26.8-8.9-53.2-21.3-76.2-37.8c-8.9-6.4-16.5-13.5-23.2-22.1c-1.6-2-3-4-4.4-6.1c-0.7-1-1.3-2-2-3c-0.3-0.4-0.5-0.9-0.8-1.3
				c-0.2-0.3-1.2-2.1-0.7-1.1c-2.3-4.2-4.4-8.5-6.2-12.9c-0.4-1-0.8-2-1.1-3c-0.2-0.5-0.4-1.1-0.6-1.6c-0.3-0.8,0.4,1.1,0.1,0.3
				c-0.1-0.3-0.2-0.7-0.3-1c-0.7-2.2-1.3-4.4-1.9-6.6c-0.6-2.2-1.1-4.4-1.5-6.7c-0.1-0.3-0.1-0.5-0.2-0.8c0,0.1,0.3,1.7,0.1,0.6
				c-0.1-0.5-0.2-1.1-0.3-1.6c-0.2-1.1-0.3-2.2-0.5-3.2c-0.3-2.3-0.6-4.6-0.8-6.9c-0.1-1-0.2-2-0.2-3c-0.1-1.8,0.1,1.8,0,0
				c0-0.6-0.1-1.2-0.1-1.8c-0.2-4.4-0.1-8.7,0.1-13.1c0-0.5,0.1-1,0.1-1.6c0,0-0.1,2,0,0.8c0-0.3,0-0.5,0.1-0.8
				c0.1-1.1,0.2-2.2,0.3-3.3c0.2-2.1,0.4-4.2,0.7-6.3c0.2-2,0.5-4,0.8-5.9c0.2-1,0.3-1.9,0.5-2.9c0.1-0.5,0.2-1,0.3-1.4
				c0-0.2,0.1-0.5,0.1-0.7c0.2-1.2-0.3,1.4-0.1,0.5c1.4-7.2,3.1-14.4,5.2-21.4c0.5-1.6,1-3.2,1.5-4.8c0.2-0.7,0.5-1.5,0.7-2.2
				c0.1-0.4,0.2-0.7,0.4-1.1c0.4-1.2-0.5,1.5,0,0.1c0.9-2.6,1.9-5.3,2.9-7.9c1.4-3.7,3-7.4,4.6-11c0.6-1.3,1.2-2.6,1.8-3.8
				c1.5-3,1.4-7.6,0-10.6C66.3,195.2,64.3,195.4,63,198L63,198z"/>
		</g>
	</g>
</g>
</svg>
